<svg xmlns="http://www.w3.org/2000/svg"
  xmlns:xlink="http://www.w3.org/1999/xlink" width="40" height="40" viewBox="0 0 40 40">
  <defs>
    <style>.a{fill:#FFEEED;}.b{clip-path:url(#a);}.c{fill:#fff;}.d{fill:#ffd6d3;}.e{fill:#FB4D4D;}.f{fill:#fafafa;}.g{fill:#818181;}</style>
    <clipPath id="a">
      <circle class="a" cx="20" cy="20" r="20" transform="translate(0.17)"/>
    </clipPath>
  </defs>
  <g transform="translate(-73.17 -124)">
    <circle class="a" cx="20" cy="20" r="20" transform="translate(73.17 124)"/>
    <g class="b" transform="translate(73 124)">
      <g transform="translate(0 3.54)">
        <path class="c" d="M-45,119.661s.311-8.1,9.3-11.941a29.168,29.168,0,0,1,17.467-1.531S-7.113,109.207-5,119.661Z" transform="translate(45 -82.074)"/>
        <g transform="translate(3.711 0)">
          <g transform="translate(0 24.071)">
            <path class="c" d="M26.666,10a.785.785,0,0,1-.133.022A.785.785,0,0,0,26.4,10Z" transform="translate(-10.553 -7.781)"/>
            <path class="c" d="M-13.039,5.393A19.777,19.777,0,0,1-40.694,9.7,19.807,19.807,0,0,1-45,5.393,20.356,20.356,0,0,1-35.19,0a11.88,11.88,0,0,0,.932,5.238c1.176-2.752,5.216-3,5.216-3s4.017.222,5.238,3A11.968,11.968,0,0,0-22.872,0,20.322,20.322,0,0,1-13.039,5.393Z" transform="translate(45)"/>
          </g>
          <path class="c" d="M14.655,90.675h0c0,.4-.244,2.552-4.816,4.306H9.594C5.044,93.227,4.8,91.074,4.8,90.675h0A6.3,6.3,0,0,1,5.355,88.3a6.05,6.05,0,0,0,4.372,2.33A6.012,6.012,0,0,0,14.1,88.3,5.486,5.486,0,0,1,14.655,90.675Z" transform="translate(6.253 -68.691)"/>
          <path class="d" d="M20.216,119.188l-1,2H15.8l-1-2a9.529,9.529,0,0,1,2.708-.688A9.529,9.529,0,0,1,20.216,119.188Z" transform="translate(-1.527 -92.188)"/>
          <path class="d" d="M14.5,139.168a17.024,17.024,0,0,0,2.819.178,24.028,24.028,0,0,0,2.819-.178L19.05,130.8H15.588Z" transform="translate(-1.294 -101.758)"/>
          <g transform="translate(9.768 21.917)">
            <path class="e" d="M-12.073,0S-11.851,2.486-17,4.395c0,0,4.017.222,5.238,3C-11.74,7.524-9.387,1.465-12.073,0Z" transform="translate(23.224)"/>
            <path class="e" d="M-43.768,0c-2.663,1.465-.333,7.5-.289,7.391,1.176-2.752,5.238-3,5.238-3C-43.99,2.508-43.768,0-43.768,0Z" transform="translate(45.042)"/>
          </g>
          <path class="f" d="M15.433,88.921a6.393,6.393,0,0,1-4.617,2.308A6.393,6.393,0,0,1,6.2,88.921a5.168,5.168,0,0,1,.244-.621,6.05,6.05,0,0,0,4.372,2.33,5.973,5.973,0,0,0,4.372-2.33A5.169,5.169,0,0,1,15.433,88.921Z" transform="translate(5.164 -68.691)"/>
          <path class="c" d="M3.513,36.533c-.666,1.088-1.665,1.753-2.4,1.62-1.509,2.774-3.684,4.838-6.126,4.838s-4.617-2.086-6.126-4.838a2.836,2.836,0,0,1-2.4-1.62c-.777-1.287-.821-2.686-.067-3.152a.926.926,0,0,1,.6-.133,7.9,7.9,0,0,0,1.176,2.064c-.71-3.973,2.219-4.395,1.709-8.212,0,0,1.842,4.084,7.125,1.221l-.4.777c7.369-1.665,4.905,7.014,4.838,7.236a10.191,10.191,0,0,0,1.687-3.085.6.6,0,0,1,.377.133C4.312,33.825,4.29,35.246,3.513,36.533Z" transform="translate(20.99 -21.075)"/>
          <path class="g" d="M-.642,1.872a3.522,3.522,0,0,1,1.554.466C-1.73-.7-6.058,1.228-6.058,1.228A4.132,4.132,0,0,1-3.283.1c-6.215-.91-7.28,2.8-7.28,2.8a2.286,2.286,0,0,1-.244-1.376,3.574,3.574,0,0,0,.022,2.242c-.444-1.088-1.975-.91-1.975-.91,1.31.222,1.531,1.021,1.531,1.021a4.225,4.225,0,0,0-2.708,4.617l.777-.932a7.9,7.9,0,0,0,1.509,6.614c-.71-3.973,2.219-4.395,1.709-8.212,0,0,1.842,4.084,7.125,1.221l-.4.777c7.457-1.687,4.838,7.28,4.838,7.28A9.989,9.989,0,0,0,3.864,8.4L4.174,9.64C5.018,4.024-.642,1.872-.642,1.872Z" transform="translate(20.862 0.048)"/>
        </g>
      </g>
    </g>
  </g>
</svg>