<svg width="99" height="60" viewBox="0 0 99 60" fill="none" xmlns="http://www.w3.org/2000/svg">
<path d="M35.2267 27.7049C35.4871 28.0335 35.8125 28.2964 36.2031 28.4935H37.1794C37.4397 28.2964 37.7001 28.1649 37.9605 27.9678C38.4812 27.3763 38.4812 26.4563 38.0255 25.7991C37.8303 25.6019 37.7001 25.3391 37.635 25.0762C37.4397 24.8791 37.3096 24.6162 37.3747 24.3533V24.2876C36.9841 23.4333 36.9841 22.4475 37.3747 21.5932C37.635 20.5417 38.2859 19.5559 39.1971 18.8988C39.7179 18.373 40.4338 18.0444 41.1498 17.9787C41.8658 17.7159 42.6468 17.7159 43.3628 17.9787C43.9486 17.9787 44.4693 18.1759 44.8599 18.5702L45.2504 18.8331C45.5108 18.8988 45.706 19.0959 45.8362 19.3588C45.9013 19.4245 45.9664 19.4902 46.0315 19.5559C47.3332 21.396 48.5699 23.1704 49.8717 25.0105C51.0433 26.6534 52.1498 28.3621 53.3865 30.005C53.9072 30.7936 54.8835 30.9908 55.6646 30.465L55.7297 30.3993C56.5108 29.8736 56.706 28.8221 56.1202 28.0335C56.1202 27.9678 56.0551 27.9678 56.0551 27.9021C55.5995 27.2449 55.1439 26.5877 54.6883 25.9305C52.9309 23.4333 51.1735 20.8703 49.4161 18.373C48.2445 16.7301 47.854 14.9557 48.7001 13.0499C49.8066 10.4869 52.8007 9.30403 55.3392 10.4212C56.1202 10.7498 56.8362 11.3413 57.3569 11.9984C58.6587 13.7071 59.8303 15.4815 61.067 17.2558C63.2149 20.3446 65.4279 23.499 67.5758 26.5877C69.3983 29.2164 71.2859 31.9108 73.1084 34.5395C74.0847 35.8539 74.8658 37.2339 74.6705 38.9426C74.5403 40.7827 73.3687 42.3599 71.6764 43.0828C70.7001 43.74 68.5522 43.74 67.5758 43.0828L66.99 42.7542C66.6646 42.6885 66.4693 42.4913 66.2741 42.2285C66.1439 42.1627 66.0788 42.097 65.9486 41.9656C65.2977 41.177 64.7119 40.3884 64.1912 39.534C62.7593 37.5625 61.3924 35.5253 60.0255 33.5538C59.4398 32.7651 58.3983 32.568 57.5522 33.1595C56.8362 33.7509 56.706 34.7367 57.1616 35.5253C57.5522 36.1167 57.8125 36.7739 57.9427 37.4311C58.4634 39.7312 57.0315 42.3599 54.9486 43.0828C54.6883 43.3456 54.3628 43.4114 54.0374 43.4114C53.3865 43.6742 52.6054 43.6742 51.9545 43.4114H51.8895H51.8244C51.4989 43.4771 51.1735 43.3456 50.9131 43.1485C50.0019 42.8199 49.2859 42.1627 48.7652 41.3741C48.3096 40.9141 47.919 40.3884 47.6587 39.7969L47.5285 39.3369C47.2031 39.1397 47.0078 38.8111 46.8776 38.4826C46.3569 37.8254 45.9013 37.1025 45.3806 36.4453C44.209 34.7367 43.0374 33.028 41.8007 31.3851C41.4102 30.7936 40.6291 30.5965 39.9782 30.8593C39.1321 31.1879 38.8066 31.7137 38.8066 32.8309C39.067 33.1595 39.2622 33.5538 39.3924 33.9481C39.6528 34.1452 39.848 34.4081 39.9782 34.7367C40.1735 35.0653 40.3687 35.3281 40.6291 35.6567C42.4516 38.154 41.5403 42.0313 38.5463 43.2799C38.2859 43.5428 37.9605 43.6085 37.635 43.6085C36.9841 43.8714 36.2031 43.8714 35.5522 43.6085H35.4871H35.422C35.0966 43.6742 34.7711 43.5428 34.5108 43.2799C33.5995 42.9513 32.8184 42.2942 32.2977 41.4398C30.5403 38.8769 28.7829 36.3796 27.0255 33.8166C25.7889 32.0423 25.6587 30.1364 26.7001 28.2964C28.067 25.8648 31.1261 25.0105 33.5995 26.3906C34.2504 26.5877 34.7711 27.1134 35.2267 27.7049Z" fill="white"/>
</svg>
