<svg width="249" height="250" viewBox="0 0 249 250" fill="none" xmlns="http://www.w3.org/2000/svg">
<g clip-path="url(#clip0_11422_159718)">
<path d="M19.0032 179.203V187.912H16L22.4753 195.427L28.5476 188.067H25.4786V179.203H19.0032Z" fill="#EBEBEB"/>
<path d="M169.962 63.8889V70.8544H167.568L172.731 76.8658L177.572 70.9797H175.125V63.8889H169.962Z" fill="#E0E0E0"/>
<path d="M231.866 128.516V142.817H226.947L237.548 155.155L247.492 143.073H242.466V128.516H231.866Z" fill="#EBEBEB"/>
<path d="M93.1747 209.711V220.386H89.5039L97.4185 229.594L104.838 220.571H101.083V209.711H93.1747Z" fill="#EBEBEB"/>
<path d="M69.2692 35.0897C69.7706 31.4578 64.6375 28.4701 60.7876 28.16C58.9493 28.0109 57.0393 28.2912 55.2964 27.6888C51.5242 26.3768 50.0141 21.5045 46.3373 19.954C43.5857 18.797 40.4163 19.8288 37.7483 21.1706C35.0803 22.5124 32.4421 24.2001 29.4637 24.3909C26.8732 24.5579 24.056 23.5978 21.7879 24.8621C20.0987 25.8043 19.2094 27.7485 17.6515 28.8994C16.1295 30.0206 14.1359 30.2591 12.2498 30.3605C10.3577 30.4619 8.39998 30.4798 6.68098 31.273C4.95601 32.0602 3.53545 33.8791 3.89358 35.7397L69.2692 35.0897Z" fill="#F5F5F5"/>
<path d="M208.747 96.9387C209.182 93.7779 204.718 91.1838 201.369 90.9094C199.77 90.7782 198.11 91.0227 196.594 90.4979C193.311 89.3529 191.998 85.1187 188.799 83.771C186.406 82.7631 183.648 83.6577 181.326 84.8265C179.004 85.9954 176.712 87.4625 174.116 87.6294C171.86 87.7726 169.413 86.9377 167.437 88.0409C165.969 88.8639 165.199 90.5516 163.838 91.5535C162.513 92.5315 160.782 92.7403 159.134 92.8297C157.487 92.9192 155.786 92.9371 154.288 93.6229C152.79 94.3087 151.548 95.8891 151.858 97.5052L208.747 96.9387Z" fill="#F5F5F5"/>
<path d="M102.355 6.65469C102.57 5.11011 100.385 3.83986 98.7438 3.70866C97.9619 3.64306 97.1501 3.76233 96.41 3.50589C94.8044 2.94531 94.1658 0.875932 92.596 0.213969C91.4261 -0.281013 90.0772 0.160296 88.9431 0.732805C87.8091 1.30531 86.6869 2.02095 85.4156 2.10444C84.3114 2.176 83.1176 1.76451 82.1507 2.3072C81.4344 2.70677 81.0524 3.53571 80.3899 4.02473C79.7393 4.50182 78.8977 4.6032 78.0919 4.64495C77.2862 4.68669 76.4565 4.69862 75.7224 5.03258C74.9882 5.36655 74.3854 6.14182 74.5346 6.93498L102.355 6.65469Z" fill="#E0E0E0"/>
<path d="M91.9341 61.9158L87.3322 53.8112C89.3676 50.5074 90.5434 46.6191 90.5434 42.4565C90.5434 30.4815 80.8263 20.7727 68.841 20.7727C56.8558 20.7727 47.1387 30.4815 47.1387 42.4565C47.1387 54.4315 56.8558 64.1403 68.841 64.1403C73.8428 64.1403 78.4507 62.4406 82.1215 59.6019L82.1155 59.6139L91.9341 61.9158Z" fill="white"/>
<path d="M73.6524 57.4775L63.8875 57.4717C63.3235 57.4714 62.7827 57.2473 62.3841 56.8486C61.9855 56.45 61.7616 55.9095 61.7617 55.346L61.7665 30.8862C61.7666 30.6071 61.8217 30.3307 61.9287 30.0728C62.0357 29.8149 62.1925 29.5806 62.3902 29.3833C62.5878 29.186 62.8224 29.0295 63.0806 28.9228C63.3388 28.8161 63.6155 28.7613 63.8949 28.7615L73.6597 28.7671C74.2237 28.7675 74.7645 28.9916 75.1631 29.3902C75.5618 29.7888 75.7856 30.3293 75.7855 30.8928L75.7808 55.3526C75.7807 55.6318 75.7256 55.9082 75.6186 56.1661C75.5116 56.424 75.3548 56.6583 75.1572 56.8556C74.9595 57.053 74.7249 57.2094 74.4667 57.3161C74.2085 57.4228 73.9318 57.4777 73.6524 57.4775Z" fill="#1F1F1F"/>
<path d="M73.6487 29.6324L71.7555 29.6312C71.6309 29.634 71.5124 29.6861 71.4262 29.7761C71.34 29.8661 71.2931 29.9866 71.2957 30.1111V30.4542C71.2984 30.5787 71.2515 30.6992 71.1653 30.7892C71.0791 30.8792 70.9606 30.9313 70.836 30.9341L67.1457 30.9319C67.021 30.929 66.9026 30.8768 66.8164 30.7867C66.7302 30.6966 66.6833 30.576 66.6861 30.4514V30.1083C66.6888 29.9837 66.6419 29.8631 66.5557 29.7731C66.4695 29.683 66.3511 29.6308 66.2264 29.6279H65.5605L63.9034 29.627C63.7077 29.6269 63.514 29.6653 63.3332 29.74C63.1523 29.8147 62.988 29.9243 62.8496 30.0625C62.7112 30.2007 62.6014 30.3648 62.5264 30.5454C62.4515 30.726 62.4129 30.9196 62.4129 31.1151L62.4082 54.9895C62.4081 55.3841 62.5649 55.7627 62.8441 56.0418C63.1232 56.321 63.502 56.478 63.897 56.4782L73.6423 56.4839C73.8379 56.484 74.0317 56.4456 74.2125 56.3709C74.3934 56.2962 74.5577 56.1866 74.6961 56.0484C74.8345 55.9102 74.9443 55.7461 75.0193 55.5655C75.0942 55.3849 75.1328 55.1913 75.1328 54.9958L75.1375 31.1213C75.1376 30.7266 74.9809 30.348 74.7017 30.0688C74.4225 29.7896 74.0437 29.6326 73.6487 29.6324Z" fill="white"/>
<path d="M91.9336 61.9143C91.3964 61.789 88.3285 61.0973 82.0971 59.6779L81.9777 59.654L82.0494 59.5586L82.0553 59.5467L82.1628 59.654C79.7096 61.5743 76.1761 63.4469 71.7413 64.0492C70.6371 64.1924 69.4851 64.2818 68.3033 64.2222C67.7124 64.1864 67.1096 64.1745 66.5008 64.1268C65.8979 64.0373 65.2831 63.9419 64.6624 63.8524C62.2033 63.3694 59.6845 62.4331 57.3387 60.9839C54.993 59.5348 52.8204 57.5668 51.0835 55.1515C49.3466 52.7362 48.0275 49.8737 47.4127 46.7666C46.8039 43.6596 46.8517 40.3319 47.6694 37.1056C48.4931 33.8971 50.027 30.7543 52.325 28.178C54.6528 25.5421 57.5297 23.4309 60.6991 22.2024C63.8566 20.9501 67.223 20.473 70.4401 20.7056C73.6573 20.9381 76.7372 21.8625 79.3813 23.3475C82.0314 24.8205 84.2638 26.7885 85.9887 28.9891C87.7197 31.1896 88.9373 33.6168 89.6893 36.0321C90.4414 38.4593 90.6384 40.8626 90.6324 43.093C90.5071 47.5777 88.997 51.2632 87.3854 53.8574V53.7799C90.2803 58.9503 91.6769 61.4551 91.9336 61.9143C91.671 61.461 90.2325 58.9742 87.266 53.8455L87.2422 53.8097L87.266 53.7739C88.8478 51.1857 90.3161 47.524 90.4235 43.0811C90.4235 40.8746 90.2146 38.4951 89.4625 36.0977C88.7105 33.7122 87.4988 31.3208 85.7858 29.1501C84.0787 26.9853 81.8643 25.0411 79.25 23.592C76.6417 22.1309 73.6036 21.2244 70.4282 20.9978C67.2528 20.7712 63.9342 21.2423 60.8245 22.4827C57.6969 23.6933 54.8677 25.7747 52.5697 28.3748C50.3016 30.9213 48.7855 34.0104 47.9738 37.1771C47.168 40.3557 47.1143 43.6357 47.7112 46.701C48.314 49.7723 49.6152 52.5931 51.3223 54.9786C53.0353 57.37 55.1781 59.3141 57.488 60.7514C59.8038 62.1946 62.2868 63.1249 64.7161 63.6079C65.3309 63.7034 65.9337 63.7988 66.5306 63.8882C67.1335 63.9419 67.7244 63.9538 68.3153 63.9896C69.4851 64.0492 70.6252 63.9658 71.7175 63.8286C76.1105 63.2501 79.6201 61.4193 82.0732 59.5288L82.5507 59.1591L82.1807 59.6362L82.1747 59.6481L82.1329 59.5229C88.3464 61.0436 91.3964 61.789 91.9336 61.9143Z" fill="#262626"/>
<path d="M71.8067 39.7906L71.764 39.82C71.6916 39.8706 71.6098 39.9064 71.5235 39.9253C71.4372 39.9443 71.348 39.9461 71.261 39.9306C71.174 39.9151 71.0909 39.8825 71.0165 39.8349C70.942 39.7873 70.8777 39.7254 70.8273 39.6529L70.6627 39.417L70.3334 38.9447C70.2517 38.8278 70.1688 38.7117 70.0895 38.5933C70.0647 38.552 70.0304 38.5171 69.9896 38.4915C69.9507 38.4729 69.9075 38.4654 69.8647 38.4696C69.8218 38.4738 69.7809 38.4897 69.7465 38.5155C69.7217 38.5299 69.7002 38.5493 69.6834 38.5724C69.6666 38.5956 69.6548 38.622 69.6488 38.65C69.6429 38.678 69.6428 38.7069 69.6487 38.7349C69.6546 38.7629 69.6663 38.7894 69.6831 38.8126C69.7649 38.9312 69.8162 39.0681 69.8325 39.2112C69.8385 39.3281 69.8152 39.4446 69.7647 39.5502C69.7143 39.6558 69.6382 39.7472 69.5434 39.8159C69.4508 39.8839 69.343 39.9282 69.2294 39.945C69.1157 39.9618 68.9997 39.9505 68.8914 39.9122C68.7095 39.831 68.557 39.6958 68.4546 39.5251C68.3329 39.346 68.2163 39.1674 68.0932 38.9893L67.8561 38.6489L67.7467 38.4924C67.7077 38.444 67.672 38.3929 67.64 38.3396C67.6094 38.2869 67.5661 38.2428 67.514 38.2113C67.4853 38.1982 67.454 38.1916 67.4224 38.1921C67.3908 38.1926 67.3597 38.2001 67.3314 38.2141C67.2861 38.2328 67.2477 38.265 67.2215 38.3063C67.1953 38.3477 67.1826 38.3961 67.1851 38.445C67.211 38.5387 67.2588 38.6249 67.3246 38.6966L67.4388 38.8605C67.5206 38.9773 67.5645 39.1165 67.5644 39.2591C67.5645 39.3717 67.5374 39.4827 67.4854 39.5826C67.4333 39.6825 67.3578 39.7683 67.2654 39.8328C67.1901 39.8852 67.1052 39.9224 67.0155 39.942C66.9258 39.9617 66.8331 39.9635 66.7428 39.9474C66.6524 39.9312 66.5661 39.8974 66.4888 39.848C66.4115 39.7985 66.3447 39.7343 66.2923 39.659L65.5765 38.6325C65.4948 38.5158 65.451 38.3768 65.4512 38.2344C65.451 38.1217 65.4781 38.0107 65.5303 37.9108C65.5824 37.811 65.6581 37.7252 65.7507 37.661C65.8661 37.5816 66.0025 37.5384 66.1426 37.5369C66.2828 37.5353 66.4201 37.5755 66.5373 37.6523C66.5998 37.6948 66.6553 37.7467 66.7018 37.8061C66.7231 37.8353 66.7505 37.8593 66.7822 37.8766C66.8138 37.8939 66.8489 37.9039 66.8849 37.906C66.922 37.9069 66.9588 37.899 66.9922 37.8831C67.0257 37.8672 67.055 37.8436 67.0777 37.8143C67.0999 37.7845 67.1148 37.7499 67.1211 37.7133C67.1274 37.6767 67.125 37.6392 67.1141 37.6037C67.0966 37.5623 67.0745 37.5231 67.0483 37.4867C67.0319 37.4566 67.0181 37.4251 67.0071 37.3926C66.9601 37.2495 66.9606 37.0951 67.0085 36.9524C67.0565 36.8097 67.1494 36.6862 67.2733 36.6006C67.3703 36.5274 67.4851 36.4814 67.6059 36.4673C67.7266 36.4533 67.849 36.4717 67.9602 36.5207C68.0789 36.5885 68.1815 36.6812 68.2609 36.7924C68.55 37.1564 68.7986 37.5577 69.0644 37.9383C69.1193 38.0168 69.1786 38.1354 69.2711 38.1699C69.2894 38.1767 69.3085 38.1809 69.328 38.1824C69.3941 38.1861 69.459 38.1637 69.5087 38.12C69.5421 38.0916 69.5671 38.0545 69.5809 38.0129C69.6219 37.8827 69.5087 37.7666 69.4398 37.6667L69.1988 37.3203L68.9198 36.9203L68.6955 36.5987L68.6167 36.4855C68.5662 36.4131 68.5304 36.3314 68.5114 36.2451C68.4925 36.1588 68.4907 36.0697 68.5062 35.9827C68.5218 35.8958 68.5543 35.8127 68.6019 35.7383C68.6496 35.6639 68.7114 35.5996 68.784 35.5491L68.8261 35.5197C68.8986 35.4692 68.9804 35.4334 69.0667 35.4144C69.1531 35.3954 69.2423 35.3936 69.3294 35.4091C69.4164 35.4246 69.4996 35.4571 69.574 35.5048C69.6485 35.5524 69.7128 35.6143 69.7633 35.6868L71.9743 38.8566C72.0756 39.0028 72.1149 39.1832 72.0835 39.3582C72.052 39.5333 71.9525 39.6887 71.8067 39.7906Z" fill="url(#paint0_linear_11422_159718)"/>
<path d="M184.14 44.1902V54.2807H180.672L188.145 62.9756L195.158 54.4596H191.613V44.1902H184.14Z" fill="url(#paint1_linear_11422_159718)"/>
<path d="M208.516 21.6949C206.278 13.0357 198.435 6.63672 189.076 6.63672C182.725 6.63672 177.079 9.58275 173.39 14.1748C172.757 14.1032 172.113 14.0555 171.456 14.0555C162.235 14.0555 154.762 21.5219 154.762 30.7358C154.762 39.9496 162.235 47.416 171.456 47.416H207.812C214.933 47.416 220.698 41.6492 220.698 34.5406C220.704 27.6585 215.309 22.0587 208.516 21.6949Z" fill="#DD0000"/>
<path d="M212.361 42.9188C212.325 42.8711 213.053 42.4178 214.008 41.4636C214.963 40.5154 216.121 38.9947 216.825 37.0565C217.53 35.1183 217.607 33.21 217.482 31.8682C217.356 30.5204 217.094 29.7093 217.148 29.6974C217.166 29.6914 217.249 29.8882 217.362 30.252C217.476 30.6158 217.607 31.1585 217.697 31.8443C217.882 33.204 217.84 35.166 217.118 37.1639C216.396 39.1617 215.178 40.7003 214.163 41.6247C213.656 42.0898 213.208 42.4238 212.886 42.6325C212.564 42.8353 212.373 42.9307 212.361 42.9188Z" fill="#262626"/>
<path d="M173.851 19.0469C173.839 19.1066 172.931 18.874 171.433 18.8382C169.947 18.7964 167.852 19.029 165.769 19.9415C163.68 20.8539 162.086 22.2315 161.113 23.3527C160.123 24.4738 159.675 25.2968 159.627 25.267C159.609 25.2551 159.705 25.0463 159.914 24.6766C160.123 24.3068 160.463 23.794 160.946 23.2095C161.895 22.0347 163.507 20.5915 165.65 19.6612C167.786 18.7249 169.941 18.5221 171.445 18.6235C172.203 18.6712 172.812 18.7666 173.224 18.862C173.636 18.9575 173.857 19.029 173.851 19.0469Z" fill="#262626"/>
<path d="M185.132 10.8115C185.138 10.8711 184.469 10.9128 183.443 11.1812C182.416 11.4496 181.037 12.0042 179.724 12.9524C178.417 13.9066 177.462 15.0456 176.889 15.9402C176.316 16.8347 176.065 17.4549 176.012 17.4311C175.994 17.4251 176.041 17.2641 176.143 16.9778C176.238 16.6916 176.429 16.292 176.698 15.8209C176.967 15.3498 177.343 14.819 177.808 14.2704C178.286 13.7336 178.865 13.1909 179.533 12.696C180.208 12.2129 180.906 11.8312 181.568 11.545C182.231 11.2707 182.852 11.0739 183.389 10.9665C183.92 10.8532 184.356 10.7995 184.66 10.7936C184.959 10.7816 185.126 10.7876 185.132 10.8115Z" fill="#262626"/>
<path d="M200.763 47.2732C200.763 47.3567 195.851 47.4283 189.799 47.4283C183.74 47.4283 178.834 47.3567 178.834 47.2732C178.834 47.1897 183.74 47.1182 189.799 47.1182C195.857 47.1182 200.763 47.1897 200.763 47.2732Z" fill="#262626"/>
<path d="M201.991 77.3183C201.908 77.3183 201.836 73.2989 201.836 68.349C201.836 63.3933 201.908 59.3738 201.991 59.3738C202.075 59.3738 202.146 63.3933 202.146 68.349C202.146 73.3048 202.081 77.3183 201.991 77.3183Z" fill="#262626"/>
<path d="M205.503 85.1593C205.419 85.1593 205.348 79.9888 205.348 73.6077C205.348 67.2266 205.419 62.0562 205.503 62.0562C205.586 62.0562 205.658 67.2266 205.658 73.6077C205.658 79.9828 205.592 85.1593 205.503 85.1593Z" fill="#262626"/>
<path d="M114.03 193.722V222.628H104.092L125.514 247.562L145.604 223.141H135.446V193.722H114.03Z" fill="url(#paint2_linear_11422_159718)"/>
<path opacity="0.1" d="M114.03 193.722V222.628H104.092L125.514 247.562L145.604 223.141H135.446V193.722H114.03Z" fill="black"/>
<path d="M183.887 129.243C177.477 104.435 154.999 86.0786 128.169 86.0786C109.976 86.0786 93.7772 94.5231 83.2185 107.685C81.3981 107.476 79.5537 107.339 77.6795 107.339C51.2499 107.339 29.8281 128.742 29.8281 155.149C29.8281 181.556 51.2499 202.96 77.6795 202.96H181.87C202.271 202.96 218.811 186.435 218.811 166.051C218.811 146.347 203.345 130.293 183.887 129.243Z" fill="#DD0000"/>
<path d="M89.4753 137.945C89.4634 137.945 89.4514 137.837 89.4335 137.629C89.4156 137.384 89.3977 137.086 89.3739 136.722C89.3619 136.519 89.35 136.305 89.338 136.072C89.3201 135.833 89.2784 135.577 89.2425 135.297C89.1649 134.742 89.1172 134.11 88.962 133.424C88.8964 133.078 88.8247 132.72 88.7531 132.345C88.6755 131.969 88.5561 131.587 88.4547 131.188C88.2637 130.383 87.9593 129.56 87.6608 128.677C86.9983 126.948 86.1209 125.099 84.9928 123.28C83.8349 121.479 82.5396 119.893 81.2623 118.551C80.5998 117.907 79.979 117.275 79.3344 116.756C79.0181 116.493 78.7256 116.219 78.4212 115.992C78.1168 115.766 77.8184 115.545 77.5378 115.336C76.9827 114.901 76.4336 114.585 75.9681 114.281C75.7293 114.132 75.5144 113.989 75.3115 113.863C75.1026 113.75 74.9116 113.649 74.7385 113.547C74.4221 113.368 74.1595 113.225 73.9446 113.106C73.7656 112.999 73.6701 112.939 73.676 112.933C73.682 112.921 73.7835 112.963 73.9685 113.052C74.1894 113.16 74.458 113.285 74.7922 113.446C74.9713 113.535 75.1682 113.631 75.3831 113.738C75.598 113.852 75.8129 113.995 76.0576 114.132C76.5351 114.424 77.1021 114.728 77.6691 115.158C77.9616 115.366 78.26 115.581 78.5764 115.802C78.8868 116.028 79.1852 116.297 79.5135 116.559C80.17 117.072 80.8027 117.704 81.4772 118.348C82.7784 119.696 84.0975 121.288 85.2674 123.113C86.4134 124.95 87.2908 126.822 87.9414 128.576C88.2338 129.464 88.5382 130.305 88.7173 131.116C88.8128 131.522 88.9322 131.909 89.0038 132.285C89.0694 132.667 89.1351 133.031 89.1948 133.376C89.338 134.068 89.3679 134.712 89.4335 135.267C89.4574 135.547 89.4873 135.804 89.4992 136.048C89.5052 136.287 89.5052 136.501 89.5111 136.704C89.5111 137.068 89.5111 137.372 89.5111 137.617C89.4932 137.837 89.4873 137.945 89.4753 137.945Z" fill="#262626"/>
<path d="M69.9027 128.701C69.8609 128.743 69.2342 128.122 68.1001 127.276C66.9661 126.429 65.2888 125.403 63.2714 124.64C61.248 123.882 59.3082 123.542 57.8995 123.429C56.4909 123.316 55.6075 123.363 55.6016 123.31C55.6016 123.286 55.8164 123.262 56.2163 123.226C56.6163 123.19 57.1952 123.178 57.9115 123.208C59.344 123.262 61.3196 123.572 63.3788 124.347C65.4321 125.123 67.1212 126.202 68.2314 127.103C68.7865 127.55 69.2163 127.943 69.4908 128.236C69.7714 128.522 69.9146 128.683 69.9027 128.701Z" fill="#262626"/>
<path d="M91.8207 169.509C91.8207 169.533 91.4805 169.539 90.8776 169.539C90.2688 169.539 89.3914 169.521 88.2991 169.479C86.1265 169.402 83.1242 169.229 79.8175 168.901C76.5109 168.573 73.5325 168.167 71.3837 167.815C70.3093 167.642 69.4439 167.487 68.847 167.374C68.2501 167.255 67.9218 167.183 67.9278 167.159C67.9338 167.135 68.268 167.171 68.8709 167.255C69.5274 167.344 70.3869 167.458 71.4195 167.601C73.5742 167.893 76.5526 168.269 79.8534 168.591C83.1541 168.913 86.1444 169.127 88.317 169.259C89.3616 169.324 90.227 169.372 90.8836 169.414C91.4864 169.455 91.8207 169.485 91.8207 169.509Z" fill="#262626"/>
<path d="M182.324 128.946C182.324 128.958 182.211 128.969 181.99 128.987C181.733 129.005 181.417 129.029 181.029 129.053C180.611 129.071 180.104 129.107 179.513 129.178C178.922 129.244 178.248 129.291 177.514 129.429C177.143 129.488 176.761 129.548 176.356 129.608C175.956 129.673 175.544 129.775 175.114 129.858C174.255 130.019 173.353 130.275 172.398 130.526C170.506 131.081 168.465 131.808 166.4 132.762C164.341 133.734 162.472 134.832 160.831 135.923C160.025 136.49 159.249 137.02 158.575 137.575C158.234 137.849 157.888 138.1 157.584 138.362C157.279 138.631 156.987 138.887 156.701 139.131C156.128 139.609 155.662 140.098 155.226 140.503C154.791 140.909 154.438 141.278 154.158 141.583C153.889 141.863 153.668 142.095 153.489 142.274C153.334 142.429 153.251 142.507 153.239 142.501C153.233 142.495 153.298 142.4 153.442 142.233C153.609 142.036 153.812 141.797 154.068 141.499C154.337 141.177 154.677 140.795 155.101 140.378C155.519 139.954 155.978 139.459 156.551 138.964C156.832 138.714 157.124 138.452 157.423 138.177C157.727 137.903 158.067 137.647 158.408 137.366C159.082 136.794 159.858 136.257 160.664 135.679C162.305 134.563 164.185 133.454 166.262 132.47C168.346 131.51 170.405 130.782 172.315 130.24C173.276 129.995 174.189 129.745 175.054 129.596C175.49 129.512 175.902 129.417 176.308 129.357C176.714 129.303 177.102 129.244 177.472 129.196C178.212 129.077 178.892 129.047 179.483 128.993C180.074 128.934 180.587 128.922 181.005 128.922C181.393 128.922 181.716 128.916 181.972 128.916C182.211 128.928 182.324 128.934 182.324 128.946Z" fill="#262626"/>
<path d="M179.376 203.282C179.376 203.365 156.307 203.437 127.86 203.437C99.4011 203.437 76.3379 203.365 76.3379 203.282C76.3379 203.198 99.4011 203.127 127.86 203.127C156.307 203.127 179.376 203.198 179.376 203.282Z" fill="#262626"/>
<path d="M54.956 223.97C54.8724 223.97 54.8008 219.658 54.8008 214.339C54.8008 209.019 54.8724 204.708 54.956 204.708C55.0395 204.708 55.1112 209.019 55.1112 214.339C55.1112 219.658 55.0395 223.97 54.956 223.97Z" fill="#262626"/>
<path d="M58.872 241.723C58.7884 241.723 58.7168 235.658 58.7168 228.179C58.7168 220.701 58.7884 214.636 58.872 214.636C58.9555 214.636 59.0272 220.701 59.0272 228.179C59.0272 235.658 58.9555 241.723 58.872 241.723Z" fill="#262626"/>
<path d="M22.1913 87.9097V94.088H20.0664L24.6444 99.4195L28.9419 94.1953H26.7693V87.9097H22.1913Z" fill="url(#paint3_linear_11422_159718)"/>
<path d="M37.125 74.1217C35.7522 68.8201 30.9473 64.896 25.2114 64.896C21.3198 64.896 17.8579 66.703 15.6017 69.5118C15.2137 69.4641 14.8198 69.4403 14.4199 69.4403C8.76748 69.4403 4.18945 74.0144 4.18945 79.6619C4.18945 85.3035 8.76748 89.8836 14.4199 89.8836H36.6952C41.0584 89.8836 44.5919 86.3531 44.5919 81.9937C44.5859 77.7774 41.2792 74.3484 37.125 74.1217Z" fill="#DD0000"/>
<path d="M39.4761 87.1282C39.4462 87.0865 39.8819 86.7943 40.4549 86.2039C41.0279 85.6194 41.7263 84.6891 42.1501 83.5143C42.5738 82.3335 42.6335 81.1765 42.5679 80.3595C42.5022 79.5365 42.353 79.0356 42.4067 79.0237C42.4366 79.0117 42.6634 79.4948 42.7887 80.3357C42.9141 81.1706 42.8902 82.3871 42.4485 83.6157C42.0008 84.8501 41.2428 85.7983 40.6101 86.3589C39.9774 86.9314 39.494 87.158 39.4761 87.1282Z" fill="#262626"/>
<path d="M15.883 72.5053C15.8711 72.559 15.31 72.4278 14.4028 72.4218C13.4955 72.4099 12.2242 72.559 10.9588 73.1136C9.68747 73.6682 8.72053 74.4971 8.11172 75.177C7.50291 75.8509 7.21641 76.3518 7.16866 76.322C7.13881 76.3101 7.35966 75.7674 7.94459 75.0339C8.52356 74.3063 9.5084 73.4058 10.8335 72.8333C12.1526 72.2548 13.4836 72.1356 14.4087 72.2071C15.3458 72.2668 15.895 72.4695 15.883 72.5053Z" fill="#262626"/>
<path d="M22.7933 67.4545C22.7993 67.5082 22.3874 67.5499 21.7667 67.7229C21.1459 67.8958 20.3103 68.2357 19.5165 68.8142C18.7226 69.3927 18.1377 70.0785 17.7796 70.6152C17.4214 71.1519 17.2543 71.5277 17.2066 71.5098C17.1767 71.4978 17.2663 71.0923 17.5886 70.5019C17.9109 69.9175 18.4958 69.172 19.3314 68.5637C20.1671 67.9614 21.0564 67.6334 21.713 67.5082C22.3755 67.3829 22.7933 67.4247 22.7933 67.4545Z" fill="#262626"/>
<path d="M32.375 89.7945C32.375 89.8779 29.3667 89.9495 25.6602 89.9495C21.9476 89.9495 18.9453 89.8779 18.9453 89.7945C18.9453 89.711 21.9536 89.6394 25.6602 89.6394C29.3667 89.6394 32.375 89.711 32.375 89.7945Z" fill="#262626"/>
<path d="M33.1259 108.204C33.0423 108.204 32.9707 105.741 32.9707 102.706C32.9707 99.6702 33.0423 97.2073 33.1259 97.2073C33.2095 97.2073 33.2811 99.6702 33.2811 102.706C33.2811 105.741 33.2095 108.204 33.1259 108.204Z" fill="#262626"/>
<path d="M35.2763 113.004C35.1927 113.004 35.1211 109.837 35.1211 105.925C35.1211 102.019 35.1927 98.8462 35.2763 98.8462C35.3598 98.8462 35.4315 102.013 35.4315 105.925C35.4315 109.837 35.3658 113.004 35.2763 113.004Z" fill="#262626"/>
<g opacity="0.3">
<path opacity="0.3" d="M197.104 148.399C195.934 141.589 186.88 134.689 179.096 136.239C172.316 137.593 165.016 139.162 158.313 140.855C155.55 141.553 152.679 138.196 150.363 136.532C149.145 135.661 148.429 134.266 147.671 132.977C143.356 125.648 136.259 120.15 128.326 117.078C120.394 114.007 111.668 113.274 103.21 114.198C96.6502 114.914 89.4579 117.174 86.4079 123.018C85.1783 125.374 84.6949 128.201 82.7849 130.049C80.2422 132.506 76.2133 132.309 72.9066 133.556C66.2872 136.049 62.9268 145.513 63.7625 152.532C64.5981 159.557 70.8474 168.598 83.9846 170.041C83.9846 170.041 131.573 170.459 155.072 171.592C163.22 171.986 165.673 170.864 173.826 170.656C188.199 170.286 199.247 160.881 197.104 148.399Z" fill="black"/>
</g>
<path d="M110.007 181.628C110.807 181.432 111.696 180.603 112.389 180.161C114.084 179.07 115.761 177.955 117.42 176.81C111.464 175.074 106.408 173.715 100.451 172.021C100.278 174.353 100.439 176.875 101.108 179.118C101.657 180.96 102.707 182.923 104.57 183.412C106.265 183.859 107.984 182.923 109.47 182.004C109.607 181.921 109.745 181.831 109.888 181.748" fill="white"/>
<path d="M111.034 178.343C110.945 178.331 110.981 177.562 110.772 176.649C110.569 175.737 110.205 175.051 110.282 175.003C110.348 174.955 110.855 175.606 111.076 176.578C111.297 177.556 111.112 178.361 111.034 178.343Z" fill="#262626"/>
<path d="M112.318 178.032C112.229 178.014 112.3 177.418 112.223 176.696C112.151 175.975 111.954 175.408 112.038 175.366C112.109 175.325 112.45 175.879 112.533 176.661C112.617 177.442 112.396 178.056 112.318 178.032Z" fill="#262626"/>
<path d="M104.449 173.148C104.503 173.16 104.33 173.768 104.324 174.764C104.312 175.748 104.503 177.156 105.255 178.468C106.013 179.792 106.891 180.877 107.696 181.455C108.496 182.046 109.129 182.165 109.111 182.225C109.105 182.243 108.95 182.231 108.669 182.153C108.389 182.082 108.001 181.915 107.571 181.634C106.694 181.074 105.757 179.965 104.987 178.623C104.193 177.245 104.032 175.772 104.103 174.758C104.139 174.245 104.217 173.84 104.294 173.566C104.366 173.285 104.426 173.142 104.449 173.148Z" fill="#5A5A5A"/>
<path d="M109.106 174.525C109.178 174.495 109.804 176.01 110.079 178.008C110.353 179.999 110.144 181.628 110.073 181.622C109.977 181.616 110.043 180.005 109.774 178.049C109.5 176.093 109.01 174.555 109.106 174.525Z" fill="#5A5A5A"/>
<path d="M107.757 180.865C107.733 180.895 107.357 180.621 106.814 180.108C106.277 179.589 105.555 178.814 105.035 177.77C104.516 176.727 104.391 175.635 104.498 174.878C104.6 174.115 104.862 173.709 104.892 173.721C104.946 173.739 104.761 174.168 104.719 174.896C104.671 175.617 104.827 176.637 105.316 177.627C105.811 178.623 106.48 179.398 106.969 179.947C107.465 180.502 107.787 180.836 107.757 180.865Z" fill="#DD0000"/>
<path d="M116.101 177.634C116.136 177.711 115.199 178.296 114 178.94C112.8 179.584 111.797 180.049 111.749 179.977C111.708 179.906 112.645 179.321 113.85 178.671C115.056 178.021 116.065 177.556 116.101 177.634Z" fill="#DD0000"/>
<path d="M106.6 180.954C106.66 181.008 105.95 181.741 104.786 182.123C103.622 182.516 102.613 182.355 102.631 182.278C102.631 182.182 103.592 182.2 104.69 181.831C105.789 181.473 106.541 180.882 106.6 180.954Z" fill="#5A5A5A"/>
<path d="M104.576 177.896C104.582 177.985 103.771 178.098 102.875 178.516C101.974 178.921 101.353 179.458 101.288 179.392C101.228 179.345 101.783 178.665 102.744 178.235C103.705 177.794 104.576 177.818 104.576 177.896Z" fill="#5A5A5A"/>
<path d="M104.182 175.182C104.134 175.265 103.328 174.782 102.218 174.639C101.108 174.478 100.201 174.717 100.177 174.627C100.141 174.556 101.066 174.156 102.26 174.329C103.454 174.49 104.236 175.128 104.182 175.182Z" fill="#5A5A5A"/>
<path d="M149.881 166.565C149.917 166.618 127.492 172.021 127.492 172.021L124.191 164.298L125.707 161.967C125.707 161.967 135.186 159.826 142.897 155.466L149.881 166.565Z" fill="#FFBE9D"/>
<path d="M97.2533 144.589C97.2533 144.589 96.2327 143.092 91.8755 140.963C88.2644 139.198 78.9949 137.713 75.2465 144.959C71.4982 152.204 74.3691 163.327 80.6244 165.7C86.8737 168.074 97.2533 171.324 101.509 172.696C105.759 174.067 119.767 177.568 119.767 177.568L125.521 174.192L126.202 163.47C126.202 163.47 118.269 155.329 111.519 153.081C104.756 150.839 97.2533 144.589 97.2533 144.589Z" fill="#262626"/>
<path d="M84.3066 139.537C84.3663 139.448 90.6693 139.627 95.2712 141.356C97.0022 142.006 98.6973 142.704 98.6973 142.704L101.24 135.464L120.298 129.119H141.398L148.262 142.698V143.384C148.262 143.384 156.499 143.521 160.068 141.875C163.637 140.229 174.763 135.428 177.646 134.468C180.529 133.508 193.439 131.659 196.322 139.514C199.205 147.368 197.158 155.55 192.341 158.543C190.067 159.951 151.7 169.868 151.7 169.868L142.639 155.466C142.639 155.466 128.822 162.306 124.196 161.561C119.564 160.816 84.3066 139.537 84.3066 139.537Z" fill="#262626"/>
<path d="M123.223 132.625C123.235 132.625 123.265 132.721 123.319 132.9C123.378 133.12 123.444 133.389 123.534 133.711C123.707 134.414 123.927 135.44 124.154 136.722C124.62 139.275 125.085 142.835 125.444 146.777C125.796 150.719 125.993 154.303 126.07 156.891C126.112 158.185 126.124 159.235 126.124 159.963C126.118 160.296 126.112 160.571 126.112 160.797C126.106 160.988 126.1 161.09 126.088 161.09C126.076 161.09 126.064 160.988 126.052 160.797C126.04 160.571 126.022 160.296 126.005 159.963C125.969 159.193 125.915 158.156 125.855 156.897C125.724 154.309 125.491 150.737 125.139 146.801C124.781 142.865 124.351 139.31 123.939 136.758C123.742 135.476 123.551 134.45 123.42 133.734C123.36 133.406 123.307 133.138 123.265 132.917C123.223 132.727 123.211 132.625 123.223 132.625Z" fill="#5A5A5A"/>
<path d="M148.047 143.73C148.058 143.814 143.272 144.416 137.362 145.072C131.447 145.728 126.649 146.193 126.643 146.104C126.631 146.02 131.418 145.418 137.327 144.762C143.242 144.106 148.041 143.641 148.047 143.73Z" fill="#5A5A5A"/>
<path d="M144.902 143.76C144.896 143.784 144.657 143.76 144.221 143.706C143.786 143.646 143.159 143.569 142.377 143.485C140.819 143.318 138.659 143.169 136.271 143.205C133.884 143.247 131.729 143.474 130.177 143.694C129.401 143.802 128.774 143.903 128.345 143.974C127.909 144.046 127.67 144.076 127.664 144.052C127.658 144.028 127.891 143.963 128.321 143.855C128.745 143.748 129.371 143.611 130.147 143.474C131.693 143.193 133.86 142.931 136.265 142.889C138.671 142.847 140.843 143.038 142.401 143.259C143.183 143.372 143.81 143.479 144.239 143.575C144.669 143.676 144.908 143.736 144.902 143.76Z" fill="#5A5A5A"/>
<path d="M147.821 142.937C147.773 143.027 146.096 141.929 143.732 141.423C141.369 140.886 139.387 141.184 139.381 141.083C139.375 141.047 139.858 140.928 140.664 140.868C141.464 140.814 142.592 140.85 143.798 141.118C145.003 141.387 146.042 141.822 146.746 142.21C147.451 142.591 147.839 142.907 147.821 142.937Z" fill="#5A5A5A"/>
<path d="M130.242 154.727C130.29 154.793 129.484 155.443 128.308 155.908C127.133 156.379 126.1 156.462 126.094 156.385C126.076 156.295 127.055 156.081 128.195 155.622C129.335 155.168 130.195 154.649 130.242 154.727Z" fill="#5A5A5A"/>
<path d="M129.227 157.398C129.257 157.476 128.57 157.786 127.657 157.911C126.744 158.043 125.998 157.941 126.004 157.858C126.01 157.768 126.732 157.732 127.616 157.607C128.493 157.482 129.203 157.315 129.227 157.398Z" fill="#5A5A5A"/>
<path d="M161.662 142.406C161.668 142.418 161.572 142.483 161.381 142.597C161.16 142.728 160.886 142.895 160.552 143.092C159.782 143.533 158.737 144.135 157.46 144.869C154.798 146.36 151.193 148.387 147.206 150.63C143.2 152.842 139.571 154.84 136.903 156.313C135.608 157.011 134.546 157.583 133.764 158.007C133.418 158.186 133.131 158.335 132.904 158.454C132.707 158.555 132.6 158.603 132.594 158.591C132.588 158.579 132.684 158.514 132.875 158.4C133.095 158.269 133.37 158.102 133.71 157.905C134.48 157.464 135.525 156.862 136.802 156.128C139.458 154.637 143.069 152.61 147.056 150.367C151.061 148.161 154.684 146.157 157.358 144.684C158.654 143.986 159.716 143.414 160.498 142.99C160.844 142.811 161.131 142.662 161.357 142.543C161.548 142.448 161.656 142.4 161.662 142.406Z" fill="#5A5A5A"/>
<path d="M177.76 139.369C177.76 139.381 177.629 139.411 177.372 139.465C177.086 139.524 176.716 139.602 176.262 139.691C175.295 139.888 173.905 140.21 172.209 140.687C168.813 141.63 164.241 143.335 159.436 145.75C154.626 148.16 150.465 150.7 147.451 152.531C145.971 153.438 144.759 154.177 143.888 154.714C143.488 154.952 143.166 155.149 142.915 155.298C142.688 155.429 142.569 155.495 142.563 155.483C142.557 155.471 142.664 155.394 142.879 155.245C143.124 155.083 143.434 154.875 143.822 154.612C144.646 154.07 145.846 153.288 147.332 152.346C150.316 150.462 154.47 147.891 159.293 145.47C164.116 143.049 168.724 141.361 172.15 140.473C173.857 140.019 175.259 139.733 176.238 139.566C176.722 139.477 177.104 139.429 177.36 139.393C177.617 139.375 177.754 139.357 177.76 139.369Z" fill="#5A5A5A"/>
<path d="M187.208 136.663C187.202 136.716 186.51 136.657 185.4 136.687C184.29 136.716 182.756 136.877 181.12 137.325C179.485 137.778 178.088 138.428 177.121 138.977C176.154 139.519 175.587 139.925 175.557 139.883C175.545 139.865 175.671 139.746 175.916 139.549C176.16 139.346 176.53 139.084 177.008 138.786C177.957 138.183 179.371 137.486 181.037 137.027C182.702 136.567 184.272 136.436 185.394 136.466C185.955 136.478 186.415 136.514 186.725 136.561C187.041 136.603 187.214 136.639 187.208 136.663Z" fill="#5A5A5A"/>
<path d="M183.89 139.179C183.878 139.275 182.29 139.06 180.339 139.138C178.381 139.197 176.817 139.513 176.793 139.424C176.769 139.346 178.333 138.887 180.327 138.827C182.314 138.756 183.902 139.108 183.89 139.179Z" fill="#5A5A5A"/>
<path d="M176.966 136.746C177.007 136.83 175.635 137.557 174.107 138.696C172.573 139.829 171.474 140.933 171.409 140.867C171.349 140.819 172.358 139.597 173.922 138.446C175.473 137.289 176.936 136.675 176.966 136.746Z" fill="#5A5A5A"/>
<path d="M197.159 143.551C197.165 143.551 197.141 143.599 197.099 143.676C197.046 143.772 196.98 143.891 196.897 144.034C196.717 144.344 196.437 144.797 196.037 145.352C195.255 146.467 193.966 148.006 192.02 149.509C190.08 151.006 187.555 152.491 184.619 153.844C181.682 155.198 178.334 156.391 174.824 157.619C167.811 160.07 161.46 162.289 156.834 163.905C154.548 164.686 152.686 165.324 151.373 165.777C150.746 165.986 150.251 166.153 149.881 166.272C149.726 166.32 149.594 166.362 149.493 166.392C149.403 166.416 149.355 166.428 149.355 166.422C149.355 166.416 149.397 166.398 149.481 166.362C149.582 166.32 149.708 166.272 149.863 166.213C150.227 166.076 150.716 165.897 151.337 165.664C152.644 165.193 154.495 164.519 156.769 163.696C161.388 162.056 167.727 159.808 174.729 157.321C178.238 156.087 181.581 154.912 184.511 153.576C187.436 152.246 189.955 150.785 191.895 149.33C193.835 147.863 195.136 146.366 195.948 145.275C196.359 144.732 196.652 144.296 196.849 143.992C196.938 143.855 197.016 143.748 197.076 143.652C197.129 143.587 197.159 143.551 197.159 143.551Z" fill="#5A5A5A"/>
<path d="M124.882 174.579C124.876 174.591 124.727 174.538 124.447 174.424C124.136 174.299 123.73 174.138 123.217 173.929C122.155 173.488 120.621 172.844 118.74 172.015C114.974 170.363 109.811 168.002 104.177 165.252C98.5422 162.491 93.5105 159.855 89.9472 157.798C88.1625 156.778 86.748 155.901 85.781 155.281C85.3214 154.977 84.9573 154.732 84.6828 154.548C84.4321 154.375 84.3067 154.285 84.3127 154.273C84.3187 154.267 84.456 154.339 84.7186 154.494C85.0051 154.667 85.3811 154.894 85.8526 155.18C86.8375 155.77 88.27 156.611 90.0666 157.607C93.6478 159.611 98.6974 162.211 104.326 164.972C109.96 167.721 115.105 170.119 118.842 171.818C120.692 172.653 122.196 173.333 123.277 173.822C123.778 174.049 124.178 174.234 124.482 174.371C124.745 174.496 124.882 174.573 124.882 174.579Z" fill="#5A5A5A"/>
<path d="M85.7877 143.295C85.7757 143.277 85.9607 143.151 86.3189 142.961C86.671 142.764 87.2022 142.519 87.8887 142.281C89.2436 141.798 91.267 141.422 93.4754 141.702C95.654 141.965 97.6117 142.519 98.8831 143.235C99.5217 143.581 99.9933 143.933 100.298 144.201C100.602 144.469 100.745 144.642 100.733 144.654C100.692 144.702 100.059 144.058 98.7876 143.432C97.5222 142.788 95.6062 142.275 93.4456 142.012C91.2968 141.738 89.3211 142.072 87.9662 142.489C86.5875 142.907 85.8115 143.348 85.7877 143.295Z" fill="#5A5A5A"/>
<path d="M126.196 163.475C126.19 163.481 126.094 163.41 125.915 163.26C125.712 163.088 125.461 162.873 125.151 162.604C124.489 162.038 123.51 161.233 122.292 160.261C119.857 158.311 116.419 155.699 112.629 152.806C111.686 152.079 110.76 151.369 109.871 150.689C108.97 150.027 108.057 149.449 107.173 148.918C105.406 147.856 103.771 146.956 102.476 146.067C101.175 145.191 100.202 144.362 99.5929 143.736C99.2766 143.431 99.0617 143.169 98.9125 142.99C98.7633 142.811 98.6916 142.716 98.6976 142.71C98.7215 142.686 99.0378 143.056 99.6765 143.646C100.309 144.242 101.288 145.042 102.601 145.882C103.902 146.741 105.538 147.618 107.322 148.667C108.212 149.198 109.137 149.771 110.05 150.439C110.957 151.113 111.865 151.834 112.814 152.556C116.604 155.448 120.024 158.084 122.429 160.088C123.635 161.084 124.59 161.913 125.229 162.515C125.551 162.807 125.79 163.052 125.957 163.213C126.118 163.38 126.202 163.469 126.196 163.475Z" fill="#5A5A5A"/>
<path d="M110.457 148.608C110.475 148.566 111.281 148.894 112.582 149.401C113.883 149.908 115.698 150.576 117.727 151.22C119.762 151.864 121.625 152.359 122.986 152.693C124.34 153.027 125.188 153.224 125.176 153.265C125.17 153.289 124.955 153.265 124.567 153.206C124.179 153.146 123.618 153.045 122.932 152.908C121.559 152.627 119.673 152.162 117.632 151.518C115.59 150.868 113.782 150.164 112.493 149.604C111.848 149.323 111.335 149.085 110.982 148.912C110.636 148.733 110.451 148.626 110.457 148.608Z" fill="#5A5A5A"/>
<path d="M117.058 143.319C117.064 143.361 116.241 143.492 114.916 143.689C113.591 143.886 111.758 144.166 109.747 144.53C107.735 144.888 105.921 145.263 104.608 145.538C103.295 145.812 102.483 145.979 102.471 145.931C102.465 145.913 102.662 145.842 103.02 145.734C103.378 145.627 103.903 145.484 104.554 145.323C105.855 144.995 107.67 144.589 109.687 144.226C111.704 143.868 113.549 143.617 114.88 143.474C115.548 143.403 116.092 143.355 116.462 143.331C116.844 143.301 117.052 143.301 117.058 143.319Z" fill="#5A5A5A"/>
<path d="M114.229 139.818C114.235 139.866 113.406 139.937 112.092 140.134C110.773 140.331 108.965 140.689 107.025 141.285C105.085 141.887 103.396 142.615 102.196 143.199C100.997 143.784 100.28 144.189 100.256 144.148C100.245 144.13 100.412 144.01 100.728 143.802C101.038 143.593 101.51 143.319 102.101 143.003C103.283 142.364 104.978 141.595 106.935 140.987C108.893 140.379 110.732 140.057 112.063 139.913C112.731 139.842 113.274 139.806 113.644 139.8C114.02 139.794 114.229 139.8 114.229 139.818Z" fill="#5A5A5A"/>
<path d="M138.21 169.928L134.641 178.265C135.96 179.452 140.973 180.221 142.74 180.132C144.507 180.042 147.062 180.066 148.822 179.863C151.055 179.607 153.317 179.774 155.561 179.911C157.805 180.048 160.073 180.156 162.294 179.786C164.514 179.416 166.705 178.533 168.286 176.929C169.868 175.331 170.74 172.945 170.185 170.763C169.701 168.878 168.209 167.352 166.448 166.535C164.681 165.718 162.67 165.557 160.736 165.753C158.802 165.95 156.916 166.493 155.054 167.041C153.066 167.62 151.031 168.216 148.972 168.055C148.554 168.02 148.136 168.037 147.718 167.96C145.02 167.465 142.209 167.435 139.78 168.962C139.272 169.284 138.717 169.558 138.21 169.928Z" fill="white"/>
<path d="M138.729 170.888C138.723 170.882 138.83 170.775 139.045 170.59C139.266 170.411 139.6 170.149 140.072 169.88C141.003 169.349 142.555 168.741 144.518 168.92C145.485 169.015 146.53 169.212 147.646 169.379C148.762 169.54 149.968 169.689 151.215 169.552C152.469 169.427 153.752 169.057 155.083 168.664C156.408 168.276 157.817 167.865 159.309 167.763C160.789 167.644 162.269 167.739 163.624 168.133C164.299 168.33 164.943 168.592 165.546 168.908C166.143 169.218 166.698 169.636 167.134 170.119C168.017 171.079 168.584 172.218 168.847 173.345C168.978 173.906 169.014 174.49 168.901 175.021C168.793 175.552 168.584 176.041 168.328 176.458C167.814 177.305 167.116 177.895 166.471 178.313C165.821 178.736 165.212 179.005 164.711 179.213C164.209 179.416 163.815 179.559 163.547 179.649C163.278 179.738 163.135 179.78 163.129 179.774C163.123 179.762 163.26 179.702 163.523 179.589C163.786 179.476 164.174 179.321 164.663 179.1C165.152 178.873 165.743 178.593 166.376 178.164C167.003 177.74 167.659 177.156 168.143 176.345C168.632 175.54 168.895 174.484 168.596 173.405C168.334 172.331 167.773 171.234 166.925 170.322C166.089 169.397 164.848 168.819 163.547 168.431C162.234 168.049 160.795 167.96 159.345 168.079C156.432 168.294 153.848 169.618 151.257 169.844C149.962 169.976 148.738 169.815 147.616 169.642C146.494 169.463 145.456 169.254 144.506 169.147C142.596 168.938 141.074 169.499 140.137 169.994C139.182 170.489 138.747 170.912 138.729 170.888Z" fill="#5A5A5A"/>
<path d="M163.125 179.774C163.107 179.786 162.993 179.661 162.802 179.41C162.701 179.291 162.593 179.13 162.48 178.939C162.361 178.754 162.223 178.539 162.104 178.283C161.829 177.794 161.591 177.168 161.358 176.464C161.149 175.754 160.976 174.955 160.88 174.102C160.797 173.25 160.803 172.433 160.868 171.693C160.952 170.954 161.059 170.292 161.232 169.761C161.298 169.487 161.394 169.254 161.471 169.045C161.543 168.837 161.62 168.658 161.692 168.521C161.829 168.24 161.919 168.091 161.937 168.097C161.991 168.121 161.698 168.747 161.441 169.815C161.304 170.345 161.221 170.995 161.149 171.717C161.107 172.439 161.107 173.238 161.185 174.073C161.274 174.908 161.435 175.689 161.626 176.387C161.841 177.078 162.056 177.699 162.295 178.194C162.755 179.189 163.172 179.738 163.125 179.774Z" fill="#262626"/>
<path d="M140.413 168.765C140.491 168.807 140.395 169.117 140.24 169.475C140.085 169.833 139.93 170.113 139.846 170.089C139.763 170.065 139.792 169.725 139.954 169.356C140.115 168.98 140.336 168.723 140.413 168.765Z" fill="#5A5A5A"/>
<path d="M142.963 167.77C143.04 167.806 142.981 168.116 142.861 168.474C142.742 168.831 142.611 169.118 142.527 169.1C142.443 169.082 142.443 168.754 142.569 168.378C142.688 167.996 142.885 167.734 142.963 167.77Z" fill="#5A5A5A"/>
<path d="M146.231 167.709C146.315 167.732 146.273 168.084 146.136 168.496C146.005 168.901 145.826 169.211 145.748 169.182C145.664 169.158 145.706 168.806 145.844 168.394C145.975 167.989 146.154 167.685 146.231 167.709Z" fill="#5A5A5A"/>
<path d="M149.307 168.091C149.391 168.115 149.361 168.467 149.242 168.878C149.122 169.29 148.961 169.606 148.878 169.582C148.794 169.558 148.824 169.206 148.943 168.795C149.063 168.383 149.23 168.067 149.307 168.091Z" fill="#5A5A5A"/>
<path d="M151.903 169.713C151.82 169.713 151.748 169.296 151.754 168.783C151.754 168.27 151.826 167.858 151.915 167.858C151.999 167.858 152.071 168.276 152.065 168.789C152.059 169.302 151.987 169.713 151.903 169.713Z" fill="#5A5A5A"/>
<path d="M154.785 168.986C154.701 168.998 154.576 168.629 154.516 168.163C154.451 167.698 154.469 167.311 154.552 167.299C154.636 167.287 154.761 167.656 154.821 168.122C154.886 168.587 154.875 168.974 154.785 168.986Z" fill="#5A5A5A"/>
<path d="M157.442 166.373C157.525 166.356 157.662 166.707 157.746 167.155C157.83 167.602 157.83 167.978 157.746 167.996C157.662 168.013 157.525 167.662 157.442 167.214C157.358 166.767 157.358 166.391 157.442 166.373Z" fill="#5A5A5A"/>
<path d="M160.88 165.741C160.963 165.759 160.933 166.248 160.808 166.839C160.683 167.423 160.515 167.888 160.432 167.87C160.348 167.852 160.378 167.363 160.504 166.773C160.623 166.188 160.796 165.723 160.88 165.741Z" fill="#5A5A5A"/>
<path d="M163.822 165.825C163.899 165.861 163.69 166.404 163.35 167.036C163.01 167.668 162.681 168.145 162.604 168.104C162.532 168.056 162.741 167.513 163.075 166.893C163.41 166.267 163.744 165.79 163.822 165.825Z" fill="#5A5A5A"/>
<path d="M166.83 166.619C166.901 166.666 166.627 167.215 166.215 167.847C165.803 168.479 165.409 168.956 165.338 168.909C165.266 168.861 165.54 168.312 165.952 167.68C166.364 167.042 166.758 166.571 166.83 166.619Z" fill="#5A5A5A"/>
<path d="M168.759 168.425C168.83 168.473 168.568 168.974 168.174 169.54C167.78 170.107 167.404 170.524 167.332 170.477C167.26 170.429 167.523 169.928 167.917 169.361C168.311 168.795 168.687 168.377 168.759 168.425Z" fill="#5A5A5A"/>
<path d="M170.112 170.728C170.178 170.775 169.915 171.258 169.462 171.759C169.008 172.26 168.555 172.57 168.495 172.511C168.435 172.445 168.787 172.04 169.229 171.551C169.671 171.068 170.041 170.68 170.112 170.728Z" fill="#5A5A5A"/>
<path d="M169.917 174.239C169.982 174.287 169.827 174.579 169.475 174.734C169.123 174.889 168.807 174.806 168.813 174.728C168.813 174.639 169.069 174.579 169.35 174.454C169.63 174.329 169.851 174.186 169.917 174.239Z" fill="#5A5A5A"/>
<path d="M168.005 177.246C168.035 177.329 167.945 177.425 167.82 177.407C167.689 177.383 167.647 177.264 167.701 177.192C167.754 177.126 167.826 177.091 167.874 177.097C167.921 177.109 167.975 177.168 168.005 177.246Z" fill="#5A5A5A"/>
<path d="M147.194 178.439C147.11 178.391 147.892 177.264 148.167 175.648C148.471 174.031 148.131 172.708 148.226 172.69C148.292 172.654 148.787 174.008 148.471 175.701C148.179 177.401 147.241 178.498 147.194 178.439Z" fill="#262626"/>
<path d="M149.653 178.158C149.569 178.11 150.31 177.072 150.548 175.581C150.811 174.09 150.453 172.874 150.548 172.856C150.614 172.814 151.133 174.055 150.859 175.635C150.596 177.209 149.701 178.217 149.653 178.158Z" fill="#262626"/>
<path d="M152.75 178.176C152.666 178.122 153.544 177.037 153.83 175.403C154.146 173.775 153.717 172.451 153.812 172.427C153.848 172.415 154.003 172.725 154.123 173.274C154.242 173.823 154.29 174.61 154.134 175.457C153.979 176.303 153.645 177.019 153.341 177.49C153.036 177.961 152.774 178.2 152.75 178.176Z" fill="#262626"/>
<path d="M156.248 177.967C156.159 177.925 156.857 176.733 157.054 175.093C157.275 173.453 156.899 172.129 156.994 172.111C157.06 172.075 157.591 173.417 157.364 175.134C157.149 176.852 156.302 178.021 156.248 177.967Z" fill="#262626"/>
<path d="M146.568 175.348C146.574 175.366 146.394 175.426 146.06 175.42C145.732 175.408 145.243 175.301 144.729 174.985C144.216 174.674 143.715 174.162 143.243 173.553C143.01 173.249 142.742 172.927 142.598 172.486C142.533 172.271 142.503 172.027 142.545 171.788C142.586 171.544 142.724 171.305 142.921 171.144C143.315 170.816 143.846 170.756 144.282 170.888C144.717 171.019 145.063 171.287 145.344 171.561C145.905 172.122 146.257 172.748 146.466 173.303C146.675 173.857 146.741 174.335 146.759 174.663C146.771 174.991 146.747 175.169 146.729 175.169C146.669 175.175 146.705 174.436 146.263 173.386C146.042 172.867 145.684 172.283 145.147 171.77C144.878 171.52 144.562 171.287 144.198 171.186C143.84 171.078 143.416 171.138 143.124 171.388C142.825 171.627 142.777 172.044 142.897 172.402C143.01 172.766 143.249 173.076 143.476 173.386C143.923 173.995 144.383 174.496 144.855 174.812C145.798 175.444 146.58 175.295 146.568 175.348Z" fill="#262626"/>
<path d="M146.399 175.254C146.417 175.26 146.381 175.421 146.285 175.707C146.19 175.993 146.041 176.405 145.778 176.882C145.515 177.353 145.104 177.907 144.447 178.277C144.125 178.456 143.731 178.587 143.313 178.587C142.901 178.581 142.418 178.45 142.149 178.021C141.886 177.573 142.048 177.067 142.28 176.733C142.519 176.393 142.847 176.142 143.182 175.981C143.85 175.653 144.495 175.558 145.02 175.456C146.07 175.26 146.727 175.158 146.739 175.2C146.751 175.242 146.106 175.421 145.068 175.671C144.548 175.802 143.922 175.922 143.313 176.238C143.014 176.393 142.734 176.613 142.537 176.906C142.346 177.186 142.244 177.579 142.424 177.86C142.597 178.146 142.979 178.277 143.325 178.283C143.683 178.289 144.023 178.182 144.316 178.027C144.913 177.711 145.312 177.216 145.593 176.774C146.118 175.868 146.345 175.23 146.399 175.254Z" fill="#262626"/>
<path d="M146.178 177.794C146.113 177.734 146.453 177.275 146.554 176.613C146.668 175.951 146.489 175.409 146.572 175.373C146.638 175.325 146.99 175.898 146.859 176.661C146.739 177.43 146.226 177.86 146.178 177.794Z" fill="#262626"/>
<path d="M147.504 173.626C147.581 173.65 147.515 174.103 147.253 174.592C146.99 175.081 146.656 175.392 146.59 175.338C146.525 175.284 146.734 174.908 146.978 174.443C147.229 173.99 147.42 173.602 147.504 173.626Z" fill="#262626"/>
<path d="M157.066 169.188C157.084 169.224 156.588 169.492 155.735 169.815C154.887 170.137 153.67 170.488 152.297 170.697C150.918 170.9 149.659 170.912 148.751 170.852C147.844 170.793 147.295 170.679 147.295 170.637C147.301 170.536 149.539 170.799 152.249 170.387C154.971 169.999 157.03 169.099 157.066 169.188Z" fill="#DD0000"/>
<path d="M155.585 178.861C155.591 178.945 154.123 179.118 152.308 179.243C150.494 179.368 149.02 179.398 149.014 179.315C149.008 179.231 150.476 179.058 152.291 178.933C154.099 178.808 155.579 178.778 155.585 178.861Z" fill="#DD0000"/>
<path d="M163.506 179.094C163.488 179.022 164.437 179.1 165.607 178.319C166.174 177.931 166.777 177.329 167.165 176.5C167.559 175.683 167.684 174.645 167.487 173.613C167.284 172.582 166.789 171.663 166.162 171.001C165.541 170.327 164.819 169.88 164.187 169.588C162.903 169.015 161.996 169.015 162.008 168.95C162.008 168.932 162.229 168.914 162.629 168.962C163.029 169.004 163.602 169.117 164.276 169.385C164.939 169.66 165.703 170.101 166.371 170.799C167.046 171.49 167.577 172.456 167.792 173.548C168.001 174.639 167.857 175.748 167.422 176.619C166.992 177.49 166.335 178.11 165.726 178.498C165.106 178.879 164.527 179.04 164.127 179.088C163.727 179.142 163.506 179.106 163.506 179.094Z" fill="#DD0000"/>
<path d="M125.748 164.431L141.291 171.319C141.291 171.319 141.601 174.503 140.336 177.091C139.196 179.417 135.752 178.952 135.752 178.952L122.102 175.779L125.146 173.996L125.748 164.431Z" fill="#FFBE9D"/>
<path d="M139.615 178.313C139.018 177.86 138.415 177.401 137.943 176.822C137.472 176.244 137.132 175.522 137.155 174.771C137.173 174.091 137.49 173.459 137.824 172.868C138.2 172.218 138.66 171.55 139.364 171.282C140.223 170.96 141.178 171.33 141.996 171.741L142.163 175.194L139.615 178.313Z" fill="white"/>
<path d="M141.291 171.317C141.255 171.395 137.745 169.916 133.46 168.013C129.168 166.111 125.718 164.507 125.754 164.429C125.79 164.352 129.294 165.831 133.591 167.733C137.877 169.635 141.327 171.24 141.291 171.317Z" fill="#EB996E"/>
<path d="M158.94 108.789C159.561 108.807 160.086 108.33 160.11 107.71C160.283 102.813 157.048 91.7032 155.496 87.0993C154.547 84.2785 151.342 82.227 149.097 80.7122C146.388 78.8814 136.802 76.639 133.65 75.7683H132.588L117.947 74.677L109.889 78.5355C109.889 78.5355 98.7092 82.7637 95.4682 88.6558C92.2272 94.5478 89.7621 111.836 89.7621 111.836C89.7621 111.836 88.2759 116.774 89.7621 119.005C90.6873 120.394 94.1253 121.593 97.229 122.189C95.5518 127.771 96.8768 131.91 96.8172 132.626C96.6918 134.093 95.5697 137.51 98.2079 137.295C100.852 137.086 121.528 131.63 127.67 131.385C133.811 131.141 139.207 133.162 142.562 135.035C145.659 136.764 145.63 136.896 146.734 133.836C147.838 130.777 144.31 127.348 144.31 127.348C144.31 127.348 147.48 115.927 148.948 108.461L158.94 108.789Z" fill="#5A5A5A"/>
<path d="M109.715 102.164C109.697 102.176 109.536 101.997 109.25 101.669C108.927 101.288 108.528 100.817 108.062 100.256C107.047 99.0813 105.651 97.4293 103.866 95.8788C102.971 95.1095 102.069 94.4296 101.198 93.8989C100.315 93.386 99.4969 92.9566 98.7687 92.7002C97.3243 92.1456 96.3573 92.0144 96.3692 91.9488C96.3752 91.9249 96.614 91.9547 97.0437 92.0263C97.2646 92.0561 97.5272 92.1038 97.8256 92.1933C98.13 92.2708 98.4762 92.3543 98.8403 92.4974C99.5924 92.736 100.44 93.1474 101.341 93.6603C102.237 94.1851 103.162 94.8709 104.069 95.6522C105.883 97.2266 107.256 98.9083 108.229 100.125C108.713 100.739 109.089 101.246 109.345 101.604C109.602 101.95 109.733 102.153 109.715 102.164Z" fill="#262626"/>
<path d="M107.042 118.648C107.042 118.672 106.785 118.69 106.319 118.708C105.854 118.725 105.179 118.731 104.35 118.725C102.684 118.708 100.381 118.618 97.8558 118.248C95.331 117.873 93.1047 117.229 91.5528 116.608C90.7768 116.298 90.1621 116.024 89.7502 115.803C89.3384 115.589 89.1116 115.457 89.1235 115.439C89.1474 115.392 90.0725 115.845 91.6304 116.406C93.1882 116.966 95.4026 117.569 97.9035 117.944C100.404 118.314 102.696 118.439 104.356 118.511C105.138 118.541 105.794 118.57 106.319 118.588C106.785 118.606 107.042 118.63 107.042 118.648Z" fill="#262626"/>
<path d="M138.037 124.247C138.055 124.259 137.977 124.414 137.822 124.689C137.673 124.963 137.422 125.351 137.088 125.804C136.426 126.716 135.375 127.891 134.014 128.959C132.647 130.02 131.251 130.754 130.206 131.171C129.681 131.38 129.251 131.529 128.947 131.613C128.642 131.696 128.469 131.732 128.463 131.714C128.445 131.666 129.108 131.44 130.117 130.974C131.131 130.509 132.48 129.758 133.823 128.714C135.16 127.665 136.217 126.537 136.915 125.667C137.619 124.802 137.995 124.218 138.037 124.247Z" fill="#262626"/>
<path d="M138.305 128.827C138.329 128.857 137.977 129.173 137.333 129.596C136.694 130.014 135.751 130.521 134.647 130.914C133.536 131.302 132.492 131.505 131.728 131.582C130.964 131.66 130.492 131.636 130.486 131.594C130.474 131.493 132.373 131.397 134.539 130.616C136.718 129.859 138.252 128.743 138.305 128.827Z" fill="#262626"/>
<path d="M155.496 87.0995C155.52 87.1055 155.49 87.2844 155.424 87.6064C155.365 87.9285 155.245 88.3877 155.072 88.9482C154.732 90.0694 154.129 91.5842 153.228 93.1347C152.32 94.6853 151.306 95.9555 150.5 96.8083C150.1 97.2317 149.754 97.5657 149.509 97.7744C149.264 97.9891 149.121 98.1024 149.103 98.0845C149.068 98.0487 149.581 97.5418 150.339 96.6592C151.097 95.7826 152.07 94.5063 152.965 92.9797C153.854 91.453 154.481 89.974 154.869 88.8826C155.257 87.7853 155.442 87.0876 155.496 87.0995Z" fill="#262626"/>
<path d="M159.249 106.171C159.249 106.213 158.7 106.26 157.805 106.284C156.909 106.308 155.674 106.308 154.313 106.254C152.952 106.201 151.716 106.105 150.827 106.01C149.938 105.914 149.389 105.831 149.395 105.789C149.401 105.747 149.95 105.753 150.845 105.795C151.854 105.837 153.024 105.891 154.325 105.944C155.626 105.986 156.802 106.028 157.805 106.064C158.7 106.093 159.249 106.123 159.249 106.171Z" fill="#262626"/>
<path d="M147.587 89.0677C147.611 89.0618 147.683 89.342 147.79 89.8549C147.909 90.4274 148.065 91.155 148.244 92.0197C148.614 93.8506 149.145 96.3851 149.461 99.2297C149.778 102.074 149.688 104.686 149.425 106.547C149.294 107.477 149.157 108.223 149.026 108.73C148.9 109.237 148.823 109.517 148.805 109.511C148.787 109.505 148.823 109.219 148.906 108.706C149.002 108.193 149.103 107.448 149.211 106.523C149.414 104.675 149.467 102.092 149.157 99.2655C148.841 96.4388 148.351 93.9042 148.035 92.0674C147.874 91.149 147.748 90.3976 147.677 89.8847C147.599 89.3599 147.569 89.0737 147.587 89.0677Z" fill="#262626"/>
<path d="M109.715 104.228C109.738 104.234 109.721 104.478 109.673 104.913C109.625 105.355 109.547 105.987 109.446 106.774C109.237 108.343 108.921 110.501 108.485 112.875C108.049 115.248 107.554 117.383 107.076 118.898C106.844 119.656 106.605 120.258 106.432 120.663C106.235 121.063 106.121 121.278 106.097 121.272C106.05 121.248 106.468 120.365 106.861 118.839C107.279 117.318 107.739 115.189 108.175 112.821C108.61 110.454 108.962 108.301 109.225 106.744C109.35 106.017 109.458 105.402 109.547 104.902C109.637 104.46 109.697 104.222 109.715 104.228Z" fill="#262626"/>
<path d="M107.71 94.7215C107.746 94.7036 107.991 95.1449 108.307 95.8963C108.623 96.6418 108.999 97.7033 109.304 98.9079C109.608 100.113 109.781 101.222 109.859 102.033C109.937 102.844 109.931 103.345 109.895 103.345C109.799 103.351 109.614 101.359 109.005 98.9855C108.403 96.6 107.621 94.7573 107.71 94.7215Z" fill="#262626"/>
<path d="M124.602 115.874C124.596 115.868 124.65 115.755 124.769 115.534C124.9 115.296 125.08 114.974 125.294 114.574C125.778 113.715 126.458 112.517 127.306 111.02C129.055 107.978 131.484 103.756 134.277 98.9016L134.474 99.1103C132.714 99.9631 130.81 100.81 128.816 101.603C126.417 102.557 124.047 103.356 121.844 104.006L121.379 104.144L121.689 103.768C125.062 99.6769 127.974 96.1464 130.063 93.6119C131.096 92.3774 131.92 91.3934 132.511 90.6897C132.785 90.3677 133.006 90.1112 133.173 89.9144C133.328 89.7415 133.412 89.652 133.418 89.658C133.424 89.664 133.352 89.7594 133.215 89.9442C133.06 90.147 132.851 90.4154 132.588 90.7493C132.015 91.465 131.209 92.4728 130.207 93.7311C128.136 96.2836 125.259 99.8379 121.922 103.953L121.767 103.714C123.963 103.058 126.321 102.253 128.714 101.305C130.702 100.518 132.6 99.6769 134.355 98.8301L134.803 98.6154L134.552 99.0388C131.723 103.869 129.258 108.074 127.485 111.103C126.608 112.582 125.897 113.769 125.396 114.61C125.157 114.997 124.966 115.308 124.823 115.546C124.68 115.773 124.608 115.88 124.602 115.874Z" fill="white"/>
<g opacity="0.3">
<path opacity="0.3" d="M135.31 132.196C136.014 132.381 137.369 130.246 138.145 128.946C135.745 130.27 133.454 131.856 130.78 131.278C133.782 130.539 136.205 128.177 137.226 125.261C135.25 128.159 132.695 130.217 129.383 131.373C129.383 131.367 134.188 131.904 135.31 132.196Z" fill="black"/>
</g>
<path d="M107.711 68.8571C107.723 68.8273 108.123 69.0241 108.887 69.197C109.639 69.3521 110.845 69.4893 112.104 68.881C112.719 68.5768 113.322 68.0699 113.728 67.3722C114.14 66.6863 114.301 65.7739 113.99 64.9271C113.698 64.0922 112.97 63.305 112.015 63.1618C111.084 63.0187 110.021 63.6151 109.639 64.5454C109.442 65.0106 109.484 65.5354 109.693 65.9707C109.908 66.4061 110.278 66.7639 110.702 66.9965C111.125 67.229 111.603 67.3543 112.062 67.3483C112.528 67.3423 112.988 67.2231 113.399 67.0382C114.229 66.6625 114.886 66.0482 115.393 65.4161C115.9 64.772 116.276 64.0981 116.539 63.4481C117.07 62.148 117.166 60.9911 117.166 60.2098C117.154 59.4227 117.07 58.9933 117.1 58.9873C117.112 58.9873 117.136 59.0887 117.184 59.2974C117.225 59.5002 117.267 59.8103 117.291 60.2098C117.333 61.003 117.267 62.1898 116.748 63.5316C116.491 64.2055 116.121 64.9032 115.602 65.5771C115.083 66.245 114.408 66.8891 113.525 67.3006C113.083 67.5034 112.594 67.6405 112.08 67.6525C111.561 67.6644 111.036 67.5272 110.564 67.2708C110.093 67.0203 109.675 66.6207 109.424 66.1138C109.174 65.6069 109.132 64.9748 109.359 64.4381C109.806 63.3586 110.976 62.7086 112.068 62.8696C113.167 63.0426 113.955 63.9311 114.271 64.8376C114.605 65.7739 114.414 66.7818 113.96 67.5093C113.519 68.2548 112.868 68.7736 112.212 69.0837C110.869 69.698 109.627 69.5131 108.869 69.3223C108.481 69.2209 108.195 69.1076 108.004 69.0181C107.801 68.9227 107.705 68.869 107.711 68.8571Z" fill="#262626"/>
<path d="M154.506 55.7316C154.739 53.3104 153.951 50.7759 152.256 49.0345C150.561 47.2931 147.952 46.4284 145.583 46.983C143.893 47.3826 142.24 48.0445 141.04 49.3506C140.545 49.9052 140.455 50.0066 140.115 50.6685C140.073 50.746 140.038 50.8236 140.002 50.9011C139.954 50.9965 139.912 51.0979 139.865 51.1993C139.859 51.2172 139.847 51.2291 139.841 51.247L139.847 51.241C139.124 52.9287 138.904 54.8311 139.321 56.6143C139.954 59.3277 142.049 61.6714 144.705 62.5063C147.361 63.3412 150.477 62.5898 152.393 60.5622C153.623 59.2562 154.333 57.5088 154.506 55.7316Z" fill="#262626"/>
<path d="M153.432 59.7072C153.378 59.7192 153.27 59.0333 152.853 58.0076C152.441 56.9938 151.659 55.646 150.405 54.5308C149.152 53.4156 147.725 52.7894 146.663 52.5032C145.601 52.205 144.902 52.1752 144.908 52.1215C144.908 52.1036 145.081 52.0857 145.398 52.1036C145.714 52.1155 146.168 52.1692 146.717 52.2944C147.815 52.5389 149.307 53.1472 150.608 54.3042C151.91 55.4611 152.686 56.8745 153.056 57.936C153.241 58.4668 153.348 58.9141 153.396 59.2242C153.45 59.5283 153.455 59.7072 153.432 59.7072Z" fill="#5A5A5A"/>
<path d="M151.106 54.9975C151.135 55.0095 150.974 55.5641 150.557 56.399C150.139 57.2279 149.44 58.3312 148.438 59.351C147.435 60.3708 146.343 61.0864 145.519 61.5158C144.689 61.9452 144.14 62.1181 144.128 62.0823C144.068 61.9869 146.253 61.1341 148.223 59.1303C150.192 57.1385 151.004 54.9439 151.106 54.9975Z" fill="#5A5A5A"/>
<path d="M144.663 52.4385C144.567 52.3849 145.284 51.2339 145.881 49.7191C146.495 48.1924 146.418 46.8387 146.507 46.8387C146.543 46.8327 146.621 47.1727 146.609 47.7273C146.603 48.2819 146.471 49.0452 146.167 49.8324C145.552 51.3949 144.717 52.4743 144.663 52.4385Z" fill="#DD0000"/>
<path d="M134.272 81.6064C134.272 81.6064 134.266 81.7021 134.272 81.6064V81.6064Z" fill="#FFBE9D"/>
<path d="M144.753 50.3577C145.034 43.3922 139.859 37.1125 132.792 36.4088C125.289 35.6574 118.771 41.138 118.288 48.4315L117.082 77.868C117.058 78.4405 117.231 78.9951 117.56 79.4603C119.332 81.9531 122.502 83.8674 125.307 84.2014C128.023 84.5294 130.757 83.772 133.031 82.448C133.801 82.0008 134.266 81.1659 134.266 80.2713L134.26 73.6875C134.26 73.6636 134.278 73.6398 134.302 73.6457C134.708 73.6696 135.752 73.6636 136.146 73.5622C137.883 73.103 142.288 71.3139 143.655 64.7778C144.121 62.607 144.503 56.4705 144.753 50.3577Z" fill="#FFBE9D"/>
<path d="M135.257 60.1547C135.257 60.0891 135.985 60.0056 137.161 59.9162C137.459 59.8983 137.746 59.8565 137.799 59.6597C137.877 59.451 137.77 59.129 137.638 58.7831C137.394 58.0615 137.131 57.3101 136.862 56.5169C135.788 53.2906 135.024 50.6487 135.155 50.6069C135.287 50.5652 136.265 53.1474 137.34 56.3678C137.597 57.161 137.847 57.9184 138.08 58.6459C138.175 58.9858 138.355 59.3675 138.181 59.7969C138.092 60.0116 137.865 60.1607 137.674 60.1965C137.483 60.2442 137.316 60.2382 137.167 60.2382C135.991 60.2501 135.257 60.2144 135.257 60.1547Z" fill="#262626"/>
<path d="M141.919 54.747C141.913 55.3076 141.423 55.7608 140.826 55.7668C140.229 55.7668 139.752 55.3135 139.758 54.7529C139.764 54.1924 140.253 53.7332 140.85 53.7332C141.441 53.7332 141.925 54.1864 141.919 54.747Z" fill="#262626"/>
<path d="M142.993 51.5092C142.885 51.6285 142.02 51.5689 140.916 51.9446C139.811 52.3084 139.089 52.8928 138.952 52.857C138.886 52.8451 138.976 52.6662 139.286 52.4098C139.591 52.1533 140.146 51.8134 140.832 51.5868C141.518 51.3602 142.139 51.3005 142.509 51.3363C142.891 51.3602 143.046 51.4556 142.993 51.5092Z" fill="#262626"/>
<path d="M130.721 54.0185C130.715 54.5791 130.226 55.0323 129.629 55.0383C129.032 55.0383 128.555 54.5851 128.561 54.0245C128.567 53.4639 129.056 53.0047 129.653 53.0047C130.244 52.9987 130.727 53.452 130.721 54.0185Z" fill="#262626"/>
<path d="M131.103 52.4618C130.936 52.4678 130.297 51.782 129.163 51.2452C128.035 50.6966 127.038 50.5952 126.955 50.47C126.913 50.4103 127.11 50.3447 127.552 50.3865C127.981 50.4222 128.662 50.5833 129.366 50.9232C130.07 51.2631 130.59 51.6806 130.858 51.9788C131.133 52.2769 131.181 52.4618 131.103 52.4618Z" fill="#262626"/>
<path d="M134.265 73.6453C134.265 73.6453 129.758 73.7765 124.291 70.1804C124.291 70.1804 125.795 76.1023 134.265 75.7564V73.6453Z" fill="#EB996E"/>
<path d="M134.635 62.8818C134.241 62.3153 133.525 61.9813 132.791 62.023C132.283 62.0529 131.764 62.2616 131.436 62.6492C131.113 63.0369 131.018 63.6094 131.281 64.0089C131.573 64.4562 132.224 64.5934 132.791 64.4622C133.352 64.3369 133.847 64.003 134.319 63.669C134.45 63.5736 134.581 63.4782 134.665 63.347C134.748 63.2158 134.772 63.0369 134.683 62.9235" fill="#EB996E"/>
<path d="M131.794 60.7694C131.985 60.7694 131.931 62.0098 132.969 62.9402C134.008 63.8764 135.357 63.8049 135.363 63.9778C135.375 64.0554 135.052 64.2044 134.485 64.1925C133.93 64.1806 133.125 63.9659 132.486 63.3934C131.853 62.8209 131.603 62.0874 131.579 61.5745C131.555 61.0556 131.71 60.7575 131.794 60.7694Z" fill="#262626"/>
<path d="M131.884 47.853C131.717 48.1392 130.6 47.7933 129.228 47.7218C127.855 47.6204 126.703 47.8172 126.572 47.5131C126.512 47.3699 126.751 47.1135 127.24 46.8928C127.723 46.6722 128.464 46.5112 129.287 46.5648C130.111 46.6185 130.827 46.8749 131.287 47.1552C131.752 47.4296 131.955 47.7158 131.884 47.853Z" fill="#262626"/>
<path d="M142.968 48.0315C142.753 48.282 141.965 47.9719 140.998 47.9063C140.037 47.8109 139.213 47.9898 139.034 47.7095C138.957 47.5723 139.1 47.3218 139.464 47.0952C139.828 46.8686 140.425 46.6957 141.081 46.7493C141.744 46.803 142.305 47.0654 142.627 47.3517C142.962 47.6379 143.063 47.9063 142.968 48.0315Z" fill="#262626"/>
<path d="M133.795 34.9177C133.168 33.8979 132.028 33.4447 130.763 33.2777C125.594 32.5919 119.894 35.8063 117.089 40.1955C114.283 44.5847 114.247 51.0613 116.45 55.7785L118.39 56.0826C122.413 55.7666 128.978 44.4297 134.505 38.1321C135.198 37.3449 134.344 35.8063 133.795 34.9177Z" fill="#262626"/>
<path d="M143.728 38.1083C141.525 35.699 137.968 32.7768 133.521 34.56C132.882 35.8243 134.243 37.4225 135.371 38.3528C137.019 39.7125 138.457 40.625 139.543 41.603C141.734 43.577 144.468 46.857 144.748 50.5425C144.766 50.7751 144.945 50.8049 145.178 50.7632C145.476 50.7095 146.145 49.1888 146.461 47.179C147.136 42.8971 145.93 40.5236 143.728 38.1083Z" fill="#262626"/>
<path d="M118.706 49.3435C118.479 48.3655 118.001 47.4411 117.351 46.6658C116.921 46.1589 116.414 45.7116 115.841 45.3658C113.757 44.1074 111.012 44.1253 108.863 45.2644C106.714 46.4034 105.18 48.5742 104.655 50.9477C104.267 52.6951 104.404 54.5736 105.174 56.1897C106.368 58.7064 109.102 60.3822 111.889 60.406C114.677 60.4299 117.398 58.8436 118.831 56.4581C119.846 54.7704 119.577 51.7945 118.706 49.3435Z" fill="#262626"/>
<path d="M119.631 53.7091C119.512 53.6435 114.713 51.8544 114.504 56.8639C114.295 61.8733 119.375 61.0503 119.387 60.9072C119.405 60.7641 119.631 53.7091 119.631 53.7091Z" fill="#FFBE9D"/>
<path d="M117.936 58.9443C117.912 58.9264 117.847 59.0039 117.697 59.0635C117.548 59.1232 117.303 59.159 117.047 59.0516C116.527 58.8369 116.116 57.9782 116.128 57.0717C116.134 56.6125 116.247 56.1831 116.426 55.8313C116.593 55.4734 116.844 55.223 117.112 55.1872C117.381 55.1395 117.56 55.3065 117.62 55.4496C117.679 55.5927 117.644 55.6881 117.673 55.7C117.685 55.712 117.787 55.6225 117.751 55.4138C117.733 55.3124 117.679 55.1931 117.566 55.0918C117.453 54.9904 117.274 54.9307 117.089 54.9427C116.701 54.9546 116.336 55.2945 116.145 55.6822C115.931 56.0698 115.793 56.5528 115.787 57.0657C115.775 58.0736 116.253 59.0456 116.969 59.2842C117.315 59.3915 117.614 59.2961 117.775 59.1828C117.918 59.0635 117.954 58.9502 117.936 58.9443Z" fill="#EB996E"/>
<path d="M144.759 39.116C144.765 39.1518 144.21 39.2532 143.297 39.3068C142.39 39.3605 141.124 39.3546 139.74 39.1876C138.355 39.0206 137.125 38.7284 136.26 38.46C135.388 38.1916 134.875 37.965 134.887 37.9233C134.905 37.8815 135.442 38.0306 136.319 38.2453C137.197 38.46 138.414 38.7105 139.781 38.8775C141.148 39.0385 142.39 39.0862 143.291 39.0862C144.192 39.0922 144.753 39.0683 144.759 39.116Z" fill="#5A5A5A"/>
<path d="M146.448 42.7068C146.454 42.7426 146.048 42.8797 145.355 42.9632C144.669 43.0467 143.69 43.0467 142.651 42.8201C141.607 42.5935 140.724 42.1879 140.133 41.8241C139.542 41.4604 139.225 41.1622 139.249 41.1324C139.303 41.0429 140.688 42.0866 142.723 42.5159C144.747 42.9751 146.436 42.6054 146.448 42.7068Z" fill="#5A5A5A"/>
<path d="M116.455 41.901C116.461 41.8354 117.541 42.0322 119.29 41.9845C120.168 41.9785 121.2 41.8473 122.34 41.6744C123.474 41.4597 124.71 41.1555 125.981 40.7321C127.247 40.3027 128.411 39.7898 129.449 39.2829C130.476 38.7522 131.389 38.2393 132.117 37.7503C133.585 36.7901 134.403 36.0685 134.439 36.1162C134.451 36.1341 134.26 36.319 133.89 36.653C133.711 36.82 133.478 37.0168 133.197 37.2255C132.923 37.4402 132.607 37.6907 132.237 37.9352C131.52 38.454 130.607 38.9907 129.58 39.5394C128.536 40.0701 127.36 40.589 126.077 41.0303C124.794 41.4597 123.54 41.7578 122.388 41.9606C121.23 42.1276 120.18 42.2349 119.29 42.2111C118.849 42.223 118.449 42.1932 118.097 42.1634C117.744 42.1455 117.446 42.1097 117.201 42.062C116.718 41.9785 116.449 41.9248 116.455 41.901Z" fill="#5A5A5A"/>
<path d="M134.111 37.8689C134.129 37.8808 133.986 38.1253 133.711 38.5666C133.574 38.7873 133.407 39.0556 133.18 39.3479C132.959 39.6401 132.726 39.9919 132.416 40.3378C131.831 41.0594 131.073 41.8645 130.16 42.6875C129.235 43.4926 128.16 44.3156 126.943 45.0431C125.719 45.7588 124.477 46.3134 123.325 46.7249C122.162 47.1244 121.087 47.3928 120.174 47.5419C119.72 47.6373 119.303 47.6612 118.932 47.7089C118.568 47.7566 118.252 47.7685 117.989 47.7745C117.47 47.7924 117.184 47.7924 117.184 47.7685C117.178 47.7029 118.324 47.6791 120.126 47.3272C121.027 47.1543 122.084 46.868 123.224 46.4565C124.358 46.0331 125.576 45.4785 126.781 44.7748C127.981 44.0591 129.049 43.254 129.969 42.4728C130.882 41.6737 131.646 40.8924 132.243 40.2007C133.448 38.8052 134.057 37.8331 134.111 37.8689Z" fill="#5A5A5A"/>
<path d="M130.762 33.2769C130.762 33.2411 131.156 33.1934 131.771 33.3425C132.379 33.4976 133.185 33.915 133.83 34.6426C133.985 34.8275 134.134 35.0123 134.248 35.2151C134.367 35.4179 134.433 35.6445 134.492 35.8294C134.618 36.211 134.731 36.5689 134.773 36.8849C134.874 37.5171 134.731 37.9047 134.701 37.8928C134.647 37.8868 134.707 37.5051 134.558 36.9326C134.486 36.6464 134.361 36.3065 134.218 35.9307C134.146 35.7339 134.086 35.5491 133.979 35.3761C133.872 35.1972 133.734 35.0243 133.591 34.8573C132.988 34.1774 132.254 33.7659 131.699 33.5632C131.138 33.3545 130.756 33.3306 130.762 33.2769Z" fill="#5A5A5A"/>
<path d="M117.529 53.2742C117.481 53.2563 117.631 52.7554 117.738 51.9324C117.845 51.1094 117.869 49.9406 117.553 48.718C117.231 47.4955 116.604 46.5115 116.037 45.9091C115.47 45.3009 115.028 45.0206 115.058 44.9729C115.07 44.955 115.189 45.0146 115.392 45.1339C115.601 45.2472 115.876 45.4619 116.192 45.7541C116.819 46.3385 117.517 47.3583 117.851 48.6405C118.18 49.9167 118.12 51.1333 117.953 51.9682C117.786 52.8031 117.559 53.2862 117.529 53.2742Z" fill="#DD0000"/>
<path d="M117.899 52.1703C117.869 52.212 117.254 51.8184 116.198 51.2996C115.147 50.7748 113.631 50.1665 111.882 49.7789C110.133 49.3912 108.504 49.3018 107.328 49.3256C106.152 49.3495 105.424 49.4449 105.418 49.3972C105.412 49.3733 105.591 49.3316 105.919 49.2719C106.248 49.2063 106.725 49.1467 107.316 49.1109C108.504 49.0274 110.163 49.0871 111.948 49.4807C113.727 49.8802 115.255 50.5362 116.293 51.1147C116.812 51.401 117.224 51.6574 117.493 51.8542C117.767 52.0331 117.911 52.1524 117.899 52.1703Z" fill="#5A5A5A"/>
<path d="M113.34 50.1789C113.376 50.1848 113.274 50.7633 112.964 51.6459C112.654 52.5286 112.105 53.7213 111.281 54.9021C110.457 56.0829 109.538 57.0132 108.816 57.6096C108.094 58.2119 107.586 58.5041 107.568 58.4743C107.497 58.3968 109.425 57.0609 111.03 54.7232C112.66 52.4093 113.239 50.1431 113.34 50.1789Z" fill="#5A5A5A"/>
<path d="M116.641 59.9054C116.677 59.81 116.856 59.7563 117.154 59.8338C117.447 59.9114 117.865 60.132 118.205 60.6151C118.551 61.0862 118.742 61.8973 118.456 62.6904C118.318 63.084 118.056 63.4836 117.656 63.7758C117.262 64.0621 116.778 64.2231 116.283 64.235C115.793 64.2529 115.286 64.1038 114.898 63.8474C114.504 63.5909 114.218 63.251 114.027 62.8872C113.836 62.5175 113.74 62.1597 113.74 61.7541C113.752 61.3784 113.842 61.0802 113.955 60.8178C114.188 60.299 114.558 59.9591 114.874 59.8458C115.191 59.7265 115.382 59.81 115.406 59.9054C115.441 60.1201 115.065 60.4064 115.006 61.1399C114.988 61.3128 114.988 61.5156 115.024 61.6766C115.053 61.8018 115.143 62.0106 115.256 62.1597C115.501 62.4817 115.841 62.6904 116.241 62.6785C116.659 62.6606 116.951 62.4757 117.125 62.1418C117.304 61.8078 117.321 61.4381 117.226 61.122C117.041 60.46 116.552 60.1082 116.641 59.9054Z" fill="#5A5A5A"/>
<path d="M121.719 51.979C121.713 51.9075 122.924 52.0208 124.739 51.4483C126.542 50.9056 128.887 49.528 130.702 47.2678C132.516 45.0076 133.477 42.5088 134.05 40.7078C134.337 39.8013 134.528 39.0558 134.659 38.537C134.79 38.0182 134.862 37.7319 134.886 37.7379C134.904 37.7438 134.874 38.0361 134.778 38.5609C134.683 39.0857 134.522 39.849 134.259 40.7674C133.74 42.5982 132.797 45.1507 130.946 47.4646C129.09 49.7725 126.667 51.1561 124.805 51.657C123.873 51.9194 123.092 52.0089 122.554 52.0148C122.286 52.0327 122.077 52.0089 121.934 52.0029C121.79 52.0029 121.719 51.991 121.719 51.979Z" fill="#262626"/>
<path d="M134.099 78.0643C134.105 78.0583 134.212 78.1 134.397 78.2193C134.582 78.3386 134.845 78.5473 135.107 78.8813C135.37 79.2152 135.621 79.6804 135.764 80.2708C135.913 80.8552 135.931 81.5709 135.71 82.3044C135.298 83.7834 133.925 85.2385 132.051 85.9541C131.12 86.3298 130.088 86.5565 129.019 86.6936C127.951 86.8308 126.823 86.8904 125.677 86.8308C123.385 86.7056 121.212 86.0317 119.559 84.9045C117.887 83.7953 116.759 82.2925 116.204 80.891C115.924 80.1873 115.78 79.5015 115.798 78.8932C115.81 78.2849 115.989 77.772 116.204 77.4082C116.419 77.0385 116.67 76.8119 116.849 76.6807C117.028 76.5495 117.141 76.5137 117.147 76.5197C117.177 76.5495 116.706 76.7403 116.312 77.4679C116.121 77.8257 115.971 78.3147 115.971 78.8932C115.971 79.4717 116.121 80.1277 116.407 80.8016C116.974 82.1553 118.084 83.5925 119.714 84.666C121.331 85.7514 123.444 86.4014 125.689 86.5207C126.811 86.5863 127.915 86.5266 128.971 86.3954C130.028 86.2642 131.031 86.0436 131.938 85.6917C133.752 85.0119 135.071 83.6402 135.489 82.2448C135.937 80.8373 135.465 79.5969 135 78.9528C134.528 78.2849 134.075 78.1 134.099 78.0643Z" fill="#262626"/>
<path d="M120.967 85.7994C120.884 85.7994 120.872 85.1076 121.26 84.3741C121.642 83.6346 122.221 83.2589 122.269 83.3245C122.328 83.3901 121.887 83.8433 121.534 84.5172C121.176 85.1851 121.057 85.8054 120.967 85.7994Z" fill="#262626"/>
<path d="M126.567 86.8544C126.483 86.8484 126.435 86.2938 126.459 85.602C126.489 84.9162 126.579 84.3616 126.662 84.3616C126.746 84.3675 126.794 84.9221 126.77 85.6139C126.746 86.3057 126.656 86.8603 126.567 86.8544Z" fill="#262626"/>
<path d="M132.189 86.0263C132.105 86.0442 131.908 85.4359 131.753 84.6726C131.598 83.9092 131.538 83.2771 131.622 83.2592C131.705 83.2413 131.902 83.8496 132.058 84.6129C132.213 85.3763 132.272 86.0084 132.189 86.0263Z" fill="#262626"/>
<path d="M135.472 82.4482C135.394 82.4899 135.156 82.1798 134.774 81.9294C134.392 81.6729 134.016 81.5775 134.022 81.488C134.022 81.4045 134.487 81.3628 134.947 81.6729C135.406 81.9771 135.55 82.4243 135.472 82.4482Z" fill="#262626"/>
<path d="M118 80.224C118.012 80.3135 117.683 80.4268 117.367 80.6832C117.045 80.9337 116.86 81.2259 116.776 81.1961C116.699 81.1722 116.782 80.7548 117.176 80.4387C117.564 80.1286 117.994 80.1405 118 80.224Z" fill="#262626"/>
<path d="M127.813 120.126C126.929 120.096 126.344 119.184 126.703 118.379C128.314 114.753 132.707 107.775 133 107.328C133.411 106.69 133.632 105.915 134.969 105.754C135.483 105.694 143.546 105.509 145.433 105.468C145.743 105.462 146.047 105.563 146.274 105.778C146.65 106.135 147.038 106.815 146.447 107.883C145.779 109.087 140.908 116.631 138.927 119.542C138.533 120.12 137.876 120.454 137.178 120.43L127.813 120.126Z" fill="#262626"/>
<path d="M140.245 108.068C140.126 107.848 139.738 107.824 139.601 107.895C139.374 107.955 139.207 108.098 139.034 108.259C138.861 108.42 138.777 108.701 138.914 108.891C139.034 109.052 139.261 109.088 139.457 109.07C139.708 109.046 139.959 108.957 140.132 108.766C140.305 108.581 140.365 108.289 140.245 108.068Z" fill="white"/>
<path d="M144.393 109.713C144.375 109.701 144.488 109.456 144.709 109.015C144.829 108.776 144.966 108.514 145.115 108.222C145.199 108.067 145.282 107.9 145.372 107.727C145.461 107.542 145.581 107.381 145.575 107.196C145.581 107.011 145.491 106.814 145.33 106.695C145.163 106.564 144.972 106.564 144.697 106.588C144.178 106.612 143.629 106.629 143.05 106.653C141.886 106.695 140.615 106.737 139.284 106.785C137.953 106.82 136.681 106.862 135.512 106.892C135.368 106.898 135.231 106.898 135.094 106.904C134.98 106.916 134.873 106.957 134.783 107.029C134.622 107.154 134.497 107.441 134.354 107.643C134.079 108.073 133.822 108.478 133.584 108.848C133.13 109.54 132.748 110.124 132.444 110.583C132.169 110.989 132.008 111.21 131.99 111.198C131.972 111.186 132.097 110.947 132.342 110.518C132.623 110.041 132.975 109.444 133.399 108.729C133.631 108.347 133.876 107.936 134.139 107.5C134.204 107.393 134.276 107.28 134.342 107.166C134.407 107.065 134.485 106.916 134.616 106.814C134.742 106.713 134.903 106.641 135.07 106.624C135.213 106.618 135.362 106.612 135.506 106.606C136.669 106.564 137.941 106.522 139.278 106.474C140.609 106.439 141.88 106.397 143.05 106.367C143.629 106.355 144.178 106.343 144.697 106.331C144.93 106.313 145.276 106.313 145.485 106.51C145.706 106.683 145.82 106.957 145.802 107.208C145.796 107.333 145.76 107.458 145.706 107.56C145.652 107.649 145.605 107.739 145.557 107.828C145.461 107.995 145.366 108.156 145.276 108.311C145.109 108.597 144.96 108.854 144.823 109.081C144.56 109.492 144.411 109.719 144.393 109.713Z" fill="#5A5A5A"/>
<path d="M157.882 108.802C157.882 108.802 157.065 114.479 156.229 118.129C155.483 121.379 154.301 132.364 151.275 133.748C148.249 135.132 144.488 134.267 143.098 131.595C141.701 128.917 140.215 121.785 140.215 121.785L133.894 119.125C133.894 119.125 132.438 113.829 133.267 113.227C134.097 112.631 142.262 113.525 142.262 113.525L144.453 113.03C144.453 113.03 140.973 112.535 140.221 112.333C139.475 112.136 138.979 111.539 139.158 110.842C139.337 110.144 139.475 109.446 141.367 109.446C143.259 109.446 146.213 109.166 146.745 109.345C147.407 109.571 148.165 109.959 148.314 111.635C148.458 113.269 147.67 116.418 147.67 116.418L147.843 116.68L148.959 108.462L157.882 108.802Z" fill="#FFBE9D"/>
<path d="M147.257 118.611C147.263 118.629 147.078 118.7 146.744 118.813C146.41 118.933 145.914 119.064 145.294 119.201C144.058 119.475 142.297 119.702 140.357 119.577C138.412 119.446 136.699 118.98 135.517 118.521C134.926 118.289 134.454 118.08 134.144 117.913C133.828 117.746 133.661 117.645 133.672 117.627C133.696 117.579 134.401 117.913 135.588 118.312C136.776 118.712 138.465 119.135 140.375 119.261C142.285 119.38 144.016 119.195 145.252 118.974C146.487 118.772 147.239 118.557 147.257 118.611Z" fill="#EB996E"/>
<path d="M146.059 116.329C146.064 116.347 145.879 116.406 145.545 116.49C145.211 116.573 144.722 116.681 144.113 116.776C142.895 116.973 141.176 117.146 139.284 116.955C137.392 116.764 135.733 116.198 134.64 115.613C134.091 115.327 133.667 115.047 133.393 114.838C133.118 114.629 132.975 114.498 132.987 114.48C133.017 114.438 133.632 114.898 134.736 115.416C135.834 115.941 137.464 116.46 139.314 116.651C141.17 116.842 142.865 116.705 144.083 116.561C145.301 116.424 146.047 116.287 146.059 116.329Z" fill="#EB996E"/>
<path d="M148.028 110.472C148.063 110.46 148.177 110.752 148.153 111.235C148.135 111.474 148.099 111.772 147.92 112.076C147.837 112.225 147.663 112.368 147.514 112.446C147.359 112.535 147.192 112.607 147.013 112.667C146.309 112.893 145.658 112.947 145.192 112.977C144.733 113.001 144.458 113.072 144.44 113.036C144.422 112.995 144.691 112.846 145.163 112.762C145.622 112.679 146.255 112.583 146.911 112.374C147.228 112.261 147.544 112.13 147.675 111.921C147.825 111.701 147.89 111.432 147.932 111.212C148.016 110.764 147.986 110.478 148.028 110.472Z" fill="#EB996E"/>
<path d="M145.026 120.018C145.05 120 145.241 120.412 145.032 121.05C144.924 121.36 144.721 121.712 144.393 122.004C144.065 122.296 143.611 122.511 143.116 122.595C142.62 122.678 142.137 122.642 141.719 122.535C141.301 122.422 140.961 122.255 140.681 122.112C140.125 121.813 139.785 121.646 139.797 121.605C139.809 121.563 140.197 121.664 140.77 121.909C141.337 122.153 142.149 122.452 143.062 122.291C143.51 122.213 143.91 122.034 144.208 121.79C144.507 121.545 144.709 121.241 144.829 120.973C145.062 120.424 144.972 120.024 145.026 120.018Z" fill="#EB996E"/>
<path d="M147.657 109.899C147.663 109.893 147.699 109.917 147.771 109.965C147.842 110.019 147.932 110.114 148.022 110.257C148.201 110.549 148.332 111.026 148.38 111.635C148.469 112.851 148.26 114.545 147.801 116.459L147.795 116.37C148.075 117.133 148.463 117.932 148.929 118.726C149.573 119.841 150.29 120.843 150.982 121.719C151.668 122.59 152.391 123.335 152.749 124.146C153.119 124.946 153.089 125.709 152.922 126.168C152.838 126.401 152.737 126.562 152.659 126.663C152.576 126.759 152.528 126.806 152.516 126.8C152.492 126.782 152.683 126.586 152.803 126.138C152.928 125.697 152.922 124.987 152.546 124.248C152.188 123.496 151.466 122.787 150.749 121.904C150.039 121.027 149.311 120.02 148.648 118.887C148.183 118.081 147.789 117.264 147.502 116.477L147.484 116.435L147.496 116.388C147.968 114.509 148.207 112.833 148.177 111.647C148.159 111.056 148.057 110.591 147.92 110.305C147.795 110.019 147.64 109.917 147.657 109.899Z" fill="#EB996E"/>
<path d="M91.8046 120.507C91.8046 120.507 90.8795 133.186 96.7826 135.309C104.918 138.243 114.199 130.138 114.235 130.007C114.271 129.876 124.107 121.962 124.107 121.962L121.034 113.536C121.034 113.536 119.81 113.536 117.816 114.955C117.094 115.468 105.694 121.473 105.694 121.473C105.694 121.473 100.722 121.431 91.8046 120.507Z" fill="#FFBE9D"/>
<path d="M106.111 121.287C106.152 121.383 104.004 122.254 101.407 123.417C100.112 124.001 98.972 124.591 98.1543 125.039C97.3366 125.486 96.8412 125.784 96.8173 125.742C96.7934 125.713 97.253 125.349 98.0469 124.848C98.8407 124.347 99.9807 123.721 101.282 123.13C102.583 122.54 103.789 122.075 104.666 121.747C105.544 121.425 106.093 121.246 106.111 121.287Z" fill="#EB996E"/>
<path d="M131.945 108.95C131.945 108.95 130.405 106.768 129.796 106.78C129.187 106.786 125.517 107.388 125.517 107.388L120.33 113.012C120.33 113.012 119.972 114.842 121.094 115.504C121.094 115.504 120.718 118.385 122.102 119.208C122.102 119.208 123.129 121.915 124.102 121.969C125.069 122.023 125.332 121.969 125.332 121.969C125.332 121.969 125.117 123.597 126.597 123.698C127.671 123.77 129.85 123.442 130.948 123.263C131.378 123.192 131.76 122.953 132.011 122.601L133.282 120.818C133.688 120.251 133.682 119.488 133.276 118.922C133.276 118.922 133.885 118.194 134.04 117.592C134.195 116.989 134.04 115.892 134.04 115.892C134.04 115.892 136.231 114.037 136.284 113.554C136.338 113.071 136.23 112.606 135.264 112.66C135.264 112.66 135.061 111.163 133.837 111.199C132.613 111.234 126.824 111.199 126.824 111.199L127.922 110.125C127.922 110.125 130.805 111.222 131.109 110.495L131.945 108.95Z" fill="#FFBE9D"/>
<path d="M123.623 115.431C123.623 115.407 123.957 115.395 124.56 115.366C125.163 115.336 126.046 115.282 127.133 115.151C128.219 115.026 129.508 114.817 130.929 114.477C131.639 114.304 132.379 114.101 133.143 113.863C133.883 113.66 134.522 113.087 135.149 112.527L135.185 112.491L135.226 112.485C135.477 112.449 135.769 112.408 136.068 112.569C136.217 112.652 136.325 112.807 136.366 112.956C136.414 113.105 136.42 113.254 136.426 113.392C136.42 113.463 136.438 113.487 136.42 113.588C136.402 113.702 136.36 113.737 136.331 113.809C136.259 113.916 136.187 114.018 136.11 114.107C135.954 114.292 135.793 114.459 135.632 114.62C135.304 114.948 134.976 115.252 134.641 115.544L134.635 115.55L134.629 115.556C133.376 116.493 132.218 117.423 131.054 118.097C129.896 118.783 128.726 119.135 127.741 119.272C126.751 119.415 125.945 119.337 125.414 119.212C125.145 119.152 124.942 119.093 124.811 119.039C124.68 118.985 124.608 118.956 124.614 118.95C124.614 118.884 125.772 119.403 127.712 119.075C128.667 118.908 129.801 118.55 130.917 117.864C132.045 117.19 133.185 116.254 134.444 115.312L134.432 115.318C134.761 115.026 135.089 114.721 135.405 114.405C135.561 114.244 135.722 114.083 135.865 113.91C135.937 113.827 136.002 113.737 136.056 113.648C136.074 113.612 136.11 113.553 136.104 113.547C136.116 113.535 136.104 113.439 136.11 113.398C136.11 113.141 136.062 112.92 135.907 112.837C135.746 112.747 135.501 112.753 135.274 112.795L135.352 112.753C135.029 113.052 134.701 113.326 134.355 113.576C134.015 113.821 133.621 114.054 133.221 114.149C132.451 114.387 131.699 114.584 130.977 114.745C129.538 115.067 128.231 115.258 127.139 115.36C126.04 115.461 125.157 115.485 124.548 115.479C124.244 115.479 124.011 115.467 123.85 115.461C123.707 115.449 123.623 115.443 123.623 115.431Z" fill="#EB996E"/>
<path d="M134.039 115.873C134.069 115.873 134.135 116.201 134.164 116.779C134.17 116.922 134.176 117.083 134.17 117.262C134.17 117.352 134.164 117.441 134.152 117.537C134.146 117.638 134.105 117.763 134.063 117.847C133.979 118.038 133.878 118.222 133.764 118.419C133.705 118.515 133.645 118.616 133.585 118.711L133.49 118.861C133.466 118.89 133.472 118.896 133.424 118.956C133.412 118.968 133.394 118.98 133.382 118.992C133.359 118.992 133.388 119.033 133.239 118.98C133.156 118.914 133.18 118.825 133.185 118.813C133.191 118.789 133.197 118.783 133.197 118.783L133.203 118.771L133.227 118.729L133.472 118.872C133.12 119.511 132.612 120.173 131.95 120.739C130.738 121.795 129.276 122.206 128.249 122.266C127.73 122.302 127.312 122.272 127.026 122.23C126.739 122.182 126.584 122.146 126.59 122.123C126.596 122.063 127.229 122.17 128.225 122.045C129.216 121.932 130.589 121.502 131.747 120.501C132.38 119.964 132.869 119.338 133.221 118.735L133.466 118.878C134.194 117.316 133.944 115.855 134.039 115.873Z" fill="#EB996E"/>
<path d="M128.059 110.16C128.035 110.226 127.45 110.011 127.176 109.319C127.05 108.979 127.068 108.645 127.128 108.431C127.188 108.21 127.265 108.097 127.307 108.109C127.403 108.132 127.259 108.657 127.468 109.218C127.671 109.76 128.119 110.082 128.059 110.16Z" fill="#EB996E"/>
<path d="M125.462 122.022C125.468 122.04 125.307 122.106 125.002 122.13C124.704 122.153 124.244 122.124 123.737 121.891C123.235 121.664 122.704 121.187 122.418 120.502C122.268 120.168 122.209 119.75 122.203 119.38C122.185 119.196 122.143 119.082 122.012 118.981C121.874 118.879 121.678 118.742 121.54 118.569C121.158 118.122 121.003 117.561 120.961 117.055C120.919 116.542 120.973 116.071 121.021 115.641L121.087 115.766C120.263 115.248 120.06 114.389 120.084 113.876C120.108 113.339 120.305 113.077 120.317 113.089C120.352 113.101 120.215 113.375 120.239 113.876C120.257 114.353 120.496 115.116 121.218 115.54L121.29 115.582L121.284 115.665C121.254 116.088 121.212 116.554 121.26 117.025C121.301 117.496 121.451 117.991 121.773 118.367C121.892 118.516 122.03 118.605 122.209 118.742C122.4 118.873 122.507 119.16 122.507 119.357C122.513 119.756 122.561 120.078 122.686 120.394C122.931 121.02 123.385 121.462 123.838 121.694C124.763 122.165 125.468 121.957 125.462 122.022Z" fill="#EB996E"/>
<g opacity="0.3">
<path opacity="0.3" d="M109.609 104.979C108.911 111.307 107.926 116.137 106.439 120.503C108.505 118.749 109.925 116.256 110.319 113.579C110.713 110.895 110.086 107.645 109.609 104.979Z" fill="black"/>
</g>
<g opacity="0.3">
<path opacity="0.3" d="M150.267 101.502C150.082 99.2532 149.431 97.0705 148.596 94.9773C149.533 99.4381 149.634 104.066 148.906 108.568L149.127 108.085C150.142 106.064 150.446 103.75 150.267 101.502Z" fill="black"/>
</g>
<path d="M228.173 97.3156C224.933 98.8904 221.199 99.1148 217.793 97.9392C214.387 96.7637 211.588 94.2846 210.012 91.0472C208.435 87.8096 208.211 84.0789 209.387 80.6759C210.564 77.2729 213.045 74.4762 216.286 72.9012C219.526 71.3261 223.26 71.1017 226.666 72.2772C230.072 73.4528 232.871 75.9321 234.447 79.1696C236.023 82.4072 236.248 86.1378 235.072 89.5408C233.895 92.9438 231.414 95.7405 228.173 97.3156Z" fill="url(#paint4_linear_11422_159718)"/>
<path d="M230.771 90.7181L230.64 90.8081C230.418 90.963 230.168 91.0727 229.904 91.1308C229.639 91.1889 229.366 91.1944 229.099 91.1468C228.833 91.0993 228.578 90.9997 228.35 90.8537C228.122 90.7078 227.925 90.5184 227.771 90.2963L227.267 89.5736L226.258 88.1267C226.007 87.7683 225.753 87.4128 225.511 87.05C225.434 86.9233 225.33 86.8165 225.204 86.738C225.085 86.6812 224.953 86.6581 224.822 86.6711C224.69 86.6841 224.565 86.7327 224.46 86.8118C224.384 86.8558 224.318 86.9151 224.266 86.9861C224.215 87.0571 224.179 87.138 224.16 87.2238C224.142 87.3095 224.142 87.3981 224.16 87.4839C224.178 87.5697 224.214 87.6507 224.265 87.7218C224.516 88.0852 224.673 88.5046 224.723 88.9431C224.742 89.3011 224.67 89.6581 224.516 89.9816C224.361 90.3052 224.128 90.5849 223.837 90.7955C223.554 91.0038 223.224 91.1395 222.875 91.191C222.527 91.2424 222.172 91.2079 221.84 91.0905C221.283 90.8417 220.816 90.4277 220.502 89.9047C220.129 89.356 219.772 88.8088 219.395 88.2631L218.668 87.2203L218.333 86.741C218.214 86.5926 218.104 86.4361 218.006 86.2727C217.913 86.1115 217.78 85.9764 217.62 85.8796C217.532 85.8395 217.436 85.8195 217.34 85.821C217.243 85.8225 217.148 85.8456 217.061 85.8885C216.922 85.9455 216.805 86.0442 216.724 86.1709C216.644 86.2975 216.605 86.446 216.613 86.5957C216.692 86.8828 216.839 87.147 217.04 87.3664L217.39 87.8685C217.641 88.2265 217.775 88.6529 217.775 89.0898C217.775 89.4348 217.692 89.7748 217.533 90.0808C217.373 90.3869 217.142 90.6498 216.859 90.8472C216.628 91.0079 216.368 91.1216 216.093 91.1819C215.818 91.2421 215.534 91.2477 215.258 91.1982C214.981 91.1488 214.716 91.0453 214.48 90.8937C214.243 90.7421 214.038 90.5454 213.877 90.3147L211.685 87.1702C211.434 86.8126 211.3 86.3867 211.301 85.9504C211.3 85.6053 211.383 85.2652 211.543 84.9593C211.703 84.6533 211.935 84.3907 212.218 84.1938C212.572 83.9507 212.99 83.8183 213.419 83.8136C213.848 83.8088 214.269 83.932 214.628 84.1672C214.82 84.2973 214.99 84.4563 215.132 84.6385C215.197 84.7277 215.281 84.8015 215.378 84.8544C215.475 84.9073 215.583 84.9381 215.693 84.9445C215.807 84.9471 215.919 84.9231 216.022 84.8743C216.124 84.8255 216.214 84.7533 216.284 84.6635C216.352 84.5723 216.397 84.4664 216.417 84.3543C216.436 84.2421 216.429 84.127 216.395 84.0182C216.342 83.8916 216.274 83.7714 216.194 83.6599C216.143 83.5676 216.101 83.4711 216.067 83.3715C215.923 82.9333 215.925 82.4603 216.072 82.023C216.219 81.5858 216.503 81.2077 216.883 80.9452C217.18 80.7209 217.532 80.58 217.902 80.537C218.272 80.4939 218.646 80.5504 218.987 80.7004C219.351 80.9082 219.665 81.1923 219.908 81.533C220.794 82.648 221.556 83.8774 222.37 85.0433C222.538 85.2837 222.72 85.6473 223.003 85.7528C223.059 85.7737 223.118 85.7866 223.177 85.7911C223.38 85.8027 223.579 85.734 223.731 85.6001C223.833 85.5129 223.91 85.3994 223.952 85.2719C224.078 84.873 223.731 84.5175 223.52 84.2115L222.782 83.1502L221.927 81.9246L221.24 80.9393L220.999 80.5928C220.844 80.3708 220.734 80.1205 220.676 79.8562C220.618 79.5919 220.613 79.3188 220.66 79.0524C220.708 78.786 220.807 78.5316 220.953 78.3037C221.099 78.0757 221.289 77.8788 221.511 77.724L221.64 77.634C221.862 77.4791 222.113 77.3694 222.377 77.3113C222.642 77.2531 222.915 77.2477 223.182 77.2952C223.448 77.3427 223.703 77.4423 223.931 77.5883C224.159 77.7342 224.356 77.9237 224.511 78.1459L231.285 87.8568C231.595 88.3047 231.715 88.8572 231.619 89.3934C231.523 89.9296 231.218 90.4059 230.771 90.7181Z" fill="white"/>
<path d="M22.9428 75.5774C20.0969 76.2537 17.0986 75.7732 14.6072 74.2413C12.1158 72.7095 10.3353 70.2517 9.65711 67.4085C8.97993 64.5649 9.4608 61.5691 10.994 59.0798C12.5272 56.5905 14.9872 54.8115 17.833 54.1341C20.6789 53.4575 23.6773 53.938 26.1688 55.4699C28.6602 57.0018 30.4407 59.4597 31.1187 62.303C31.7957 65.1465 31.3147 68.1423 29.7815 70.6315C28.2483 73.1208 25.7885 74.8998 22.9428 75.5774Z" fill="#FF7F76"/>
<path d="M17.1526 69.3704L14.4161 59.8407L16.0775 59.365L18.9534 61.0467L21.0252 68.2615L21.6189 68.0915L19.6984 61.4035L22.5698 63.0827L23.8264 67.4587L25.3395 67.0254L25.1593 66.3979C24.8833 66.3994 24.6161 66.3009 24.407 66.1208C24.1979 65.9407 24.0611 65.691 24.0219 65.418C23.9827 65.145 24.0437 64.867 24.1936 64.6355C24.3436 64.404 24.5723 64.2347 24.8376 64.1587C25.1029 64.0827 25.3868 64.1053 25.6368 64.2223C25.8868 64.3393 26.086 64.5427 26.1976 64.795C26.3093 65.0473 26.3257 65.3314 26.244 65.5948C26.1623 65.8582 25.9879 66.0831 25.7531 66.2279L25.9333 66.8554L26.7342 66.626L26.9046 67.2195L16.7758 70.1197L16.6054 69.5263L17.1526 69.3704ZM22.1089 66.7688L22.7027 66.5988L22.4604 65.7551L21.8667 65.9251L22.1089 66.7688ZM21.5639 64.8708L22.1577 64.7008L21.915 63.8556L21.3212 64.0257L21.5639 64.8708ZM19.0394 67.6477L19.6331 67.4777L19.3909 66.634L18.7971 66.804L19.0394 67.6477ZM18.4944 65.7497L19.0881 65.5797L18.8454 64.7346L18.2517 64.9046L18.4944 65.7497ZM17.9493 63.8517L18.5431 63.6817L18.3004 62.8366L17.7067 63.0066L17.9493 63.8517ZM17.9178 67.9689L18.5116 67.7988L18.2693 66.9551L17.6755 67.1251L17.9178 67.9689ZM17.3728 66.0709L17.9666 65.9008L17.7239 65.0557L17.1301 65.2257L17.3728 66.0709ZM16.8278 64.1729L17.4216 64.0028L17.1789 63.1577L16.5851 63.3277L16.8278 64.1729ZM16.2828 62.2749L16.8765 62.1049L16.6339 61.2597L16.0401 61.4297L16.2828 62.2749Z" fill="white"/>
</g>
<defs>
<linearGradient id="paint0_linear_11422_159718" x1="68.7726" y1="35.3987" x2="68.7726" y2="39.9582" gradientUnits="userSpaceOnUse">
<stop stop-color="#DD0000"/>
<stop offset="1" stop-color="#840000"/>
</linearGradient>
<linearGradient id="paint1_linear_11422_159718" x1="187.915" y1="44.1902" x2="187.915" y2="62.9756" gradientUnits="userSpaceOnUse">
<stop stop-color="#DD0000"/>
<stop offset="1" stop-color="#840000"/>
</linearGradient>
<linearGradient id="paint2_linear_11422_159718" x1="124.848" y1="193.722" x2="124.848" y2="247.562" gradientUnits="userSpaceOnUse">
<stop stop-color="#DD0000"/>
<stop offset="1" stop-color="#840000"/>
</linearGradient>
<linearGradient id="paint3_linear_11422_159718" x1="24.5042" y1="87.9097" x2="24.5042" y2="99.4195" gradientUnits="userSpaceOnUse">
<stop stop-color="#DD0000"/>
<stop offset="1" stop-color="#840000"/>
</linearGradient>
<linearGradient id="paint4_linear_11422_159718" x1="222.229" y1="71.5332" x2="222.229" y2="98.6833" gradientUnits="userSpaceOnUse">
<stop stop-color="#DD0000"/>
<stop offset="1" stop-color="#840000"/>
</linearGradient>
<clipPath id="clip0_11422_159718">
<rect width="248" height="250" fill="white" transform="translate(0.5)"/>
</clipPath>
</defs>
</svg>
