<svg width="302" height="164" viewBox="0 0 302 164" fill="none" xmlns="http://www.w3.org/2000/svg">
<path d="M107.525 37.6723C104.182 37.6723 100.977 36.3456 98.6134 33.9841C96.25 31.6225 94.9222 28.4196 94.9222 25.0799C94.9222 21.7401 96.25 18.5371 98.6134 16.1756C100.977 13.814 104.182 12.4873 107.525 12.4873C110.867 12.4873 114.073 13.814 116.436 16.1756C118.799 18.5371 120.127 21.7401 120.127 25.0799C120.127 28.4196 118.799 31.6225 116.436 33.9841C114.073 36.3456 110.867 37.6723 107.525 37.6723Z" fill="#FFD6D3"/>
<path d="M113.984 24.926C114.041 24.8638 114.085 24.7908 114.114 24.7114C114.142 24.6319 114.154 24.5477 114.149 24.4635C114.144 24.3793 114.123 24.297 114.085 24.2213C114.048 24.1456 113.996 24.0782 113.932 24.023L108.011 18.8453C107.875 18.7317 107.704 18.6703 107.527 18.6724C107.35 18.6745 107.18 18.74 107.047 18.8568L101.106 24.299C101.043 24.3553 100.992 24.4238 100.957 24.5002C100.921 24.5766 100.901 24.6595 100.899 24.7437C100.896 24.828 100.91 24.912 100.941 24.9906C100.971 25.0692 101.018 25.1407 101.077 25.201L101.226 25.3562C101.337 25.4794 101.492 25.555 101.658 25.5676C101.824 25.5802 101.988 25.5288 102.117 25.4239L102.561 25.027V30.8442C102.561 31.0154 102.629 31.1797 102.75 31.3008C102.871 31.4219 103.036 31.4899 103.207 31.4899H105.523C105.695 31.4899 105.859 31.4219 105.98 31.3008C106.102 31.1797 106.17 31.0154 106.17 30.8442V26.7748H109.123V30.8442C109.118 30.9269 109.13 31.0098 109.158 31.0877C109.187 31.1656 109.23 31.2369 109.287 31.2973C109.344 31.3577 109.412 31.406 109.488 31.4391C109.565 31.4722 109.646 31.4895 109.729 31.4899H112.184C112.356 31.4899 112.52 31.4219 112.641 31.3008C112.762 31.1797 112.831 31.0154 112.831 30.8442V25.1093L113.105 25.35C113.256 25.4822 113.573 25.376 113.813 25.1114L113.984 24.926Z" fill="white"/>
<path d="M124.413 0L126.139 3.15279L129.294 4.87662L126.139 6.60145L124.413 9.75425L122.687 6.60145L119.531 4.87662L122.687 3.15279L124.413 0Z" fill="#F5F5F5"/>
<path d="M196.388 85.4204L197.683 87.7847L200.049 89.0783L197.683 90.372L196.388 92.7363L195.093 90.372L192.727 89.0783L195.093 87.7847L196.388 85.4204Z" fill="#EBEBEB"/>
<path d="M200.047 73.7466L200.63 74.8131L201.698 75.3964L200.63 75.9797L200.047 77.0463L199.463 75.9797L198.396 75.3964L199.463 74.8131L200.047 73.7466Z" fill="#E0E0E0"/>
<path d="M112.09 1.18604L112.674 2.25258L113.742 2.83586L112.674 3.41913L112.09 4.48574L111.507 3.41913L110.439 2.83586L111.507 2.25258L112.09 1.18604Z" fill="#E0E0E0"/>
<path d="M82.8166 100.295C83.4952 99.9854 84.068 99.4832 84.4639 98.8511C84.8598 98.2191 85.0616 97.485 85.0441 96.7395C85.066 95.7596 84.698 94.8111 84.0209 94.1019C83.3438 93.3928 82.4129 92.9808 81.4323 92.9565C80.4526 92.9972 79.5291 93.4246 78.8646 94.145C78.2001 94.8654 77.8489 95.82 77.8882 96.7989C77.8833 97.551 78.1017 98.2877 78.5156 98.916C78.9295 99.5442 79.5204 100.036 80.2137 100.329C74.7183 101.229 75.0456 107.203 75.0456 107.203L88.0661 107.099C88.0661 107.099 88.285 101.054 82.8166 100.295Z" fill="#E0E0E0"/>
<path d="M216.004 141.328C215.898 140.86 215.635 140.444 215.259 140.147C214.884 139.85 214.417 139.69 213.938 139.695C213.464 139.726 213.015 139.916 212.664 140.234C212.312 140.552 212.079 140.981 212.003 141.448C211.923 140.981 211.686 140.555 211.332 140.24C210.977 139.925 210.526 139.739 210.053 139.713C209.574 139.713 209.109 139.877 208.737 140.178C208.364 140.478 208.106 140.897 208.004 141.365C207.908 142.061 208.084 142.768 208.495 143.338C208.905 143.9 209.386 144.407 209.925 144.847C210.654 145.494 211.324 146.102 212.052 146.749C212.773 146.095 213.387 145.481 214.11 144.828C214.645 144.384 215.121 143.873 215.525 143.307C215.934 142.733 216.105 142.024 216.004 141.328Z" fill="#DE5E56"/>
<path d="M216.183 62.2177L217.579 61.9417L219.782 57.0984L219.23 54.3154C219.23 54.3154 221.36 53.756 221.83 57.4494C222.3 61.1428 222.389 60.1575 222.389 60.1575C222.389 60.1575 226.976 59.2669 227.432 59.5898C227.765 59.8242 228.793 64.3435 229.33 66.7995C229.478 67.388 229.426 68.0093 229.18 68.5644C228.935 69.1195 228.51 69.5765 227.975 69.8628C227.822 69.9371 227.661 69.992 227.495 70.0263C226.348 70.2523 220.334 70.4815 220.334 70.4815L217.924 70.9585L216.183 62.2177Z" fill="#FFD6D3"/>
<path d="M212.04 62.247L214.79 71.6117L217.18 71.1378L215.325 61.7949L212.04 62.247Z" fill="#FFD6D3"/>
<path d="M230.451 163.731C230.451 163.784 193.968 163.827 148.979 163.827C103.991 163.827 67.5 163.784 67.5 163.731C67.5 163.678 103.973 163.635 148.979 163.635C193.985 163.635 230.451 163.678 230.451 163.731Z" fill="#263238"/>
<path d="M209.187 53.3244C206.561 54.6003 203.536 54.7817 200.776 53.8289C198.017 52.8761 195.749 50.867 194.472 48.2437C193.195 45.6202 193.014 42.5973 193.967 39.8401C194.921 37.0828 196.931 34.8169 199.557 33.5409C202.182 32.265 205.208 32.0836 207.967 33.0364C210.727 33.9892 212.994 35.9982 214.271 38.6216C215.548 41.2451 215.73 44.268 214.776 47.0252C213.823 49.7825 211.812 52.0484 209.187 53.3244Z" fill="#DD0000"/>
<path d="M211.294 47.9807L211.19 48.0537C211.01 48.1791 210.807 48.2678 210.593 48.3148C210.379 48.3617 210.157 48.3659 209.941 48.3272C209.726 48.2885 209.519 48.2076 209.335 48.0892C209.15 47.9708 208.991 47.8171 208.866 47.637L208.457 47.0516L207.639 45.8799C207.437 45.5893 207.23 45.3018 207.033 45.007C206.972 44.9043 206.887 44.8176 206.785 44.754C206.689 44.7076 206.582 44.6884 206.475 44.6985C206.369 44.7086 206.267 44.7476 206.182 44.8112C206.12 44.8468 206.067 44.895 206.025 44.9525C205.983 45.01 205.954 45.0756 205.939 45.1451C205.924 45.2145 205.924 45.2863 205.939 45.3559C205.953 45.4254 205.983 45.4911 206.024 45.5487C206.227 45.8431 206.355 46.1829 206.395 46.5382C206.41 46.8282 206.353 47.1174 206.227 47.3795C206.102 47.6417 205.913 47.8684 205.678 48.039C205.448 48.2075 205.181 48.3172 204.899 48.3586C204.617 48.4 204.329 48.3718 204.06 48.2765C203.609 48.0751 203.23 47.7398 202.976 47.3162C202.674 46.8715 202.385 46.4288 202.078 45.9861L201.489 45.1414L201.218 44.7529C201.121 44.6325 201.032 44.5055 200.953 44.3728C200.877 44.2421 200.769 44.1325 200.64 44.054C200.569 44.0215 200.491 44.0053 200.413 44.0066C200.334 44.0079 200.257 44.0266 200.187 44.0613C200.074 44.1075 199.979 44.1875 199.914 44.2901C199.849 44.3927 199.818 44.5129 199.824 44.6342C199.888 44.867 200.007 45.0812 200.17 45.2591L200.454 45.6664C200.657 45.9563 200.766 46.3018 200.766 46.6558C200.767 46.9354 200.699 47.2109 200.57 47.4588C200.441 47.7067 200.254 47.9197 200.024 48.0797C199.647 48.342 199.18 48.444 198.727 48.3632C198.274 48.2824 197.872 48.0253 197.609 47.6485L195.837 45.1008C195.634 44.8113 195.524 44.4661 195.524 44.1124C195.524 43.8327 195.591 43.5571 195.72 43.3091C195.85 43.0611 196.038 42.8482 196.267 42.6886C196.554 42.4915 196.893 42.3842 197.24 42.3803C197.588 42.3764 197.929 42.4761 198.22 42.6667C198.375 42.7719 198.513 42.9005 198.628 43.0479C198.681 43.1202 198.749 43.18 198.828 43.2228C198.906 43.2657 198.994 43.2906 199.083 43.2958C199.175 43.298 199.267 43.2785 199.35 43.2389C199.433 43.1993 199.506 43.1406 199.562 43.0676C199.617 42.9939 199.654 42.9084 199.669 42.8179C199.685 42.7275 199.679 42.6346 199.652 42.5469C199.609 42.4442 199.554 42.3467 199.489 42.2563C199.448 42.1817 199.413 42.1036 199.385 42.023C199.268 41.6678 199.269 41.2844 199.388 40.93C199.508 40.5755 199.738 40.2691 200.046 40.0565C200.287 39.8746 200.572 39.7603 200.872 39.7253C201.171 39.6904 201.475 39.736 201.751 39.8576C202.046 40.026 202.301 40.2563 202.498 40.5325C203.213 41.4356 203.832 42.4323 204.492 43.377C204.628 43.5718 204.775 43.8665 205.005 43.9519C205.05 43.9689 205.097 43.9795 205.145 43.9832C205.31 43.9926 205.471 43.9368 205.595 43.828C205.678 43.7578 205.741 43.6659 205.776 43.5624C205.88 43.2385 205.599 42.951 205.426 42.7031L204.826 41.8438L204.134 40.8502L203.578 40.0524L203.382 39.7711C203.256 39.5913 203.167 39.3885 203.12 39.1742C203.073 38.96 203.069 38.7386 203.107 38.5227C203.146 38.3069 203.227 38.1007 203.346 37.9162C203.464 37.7317 203.618 37.5723 203.799 37.4474L203.903 37.3744C204.083 37.2489 204.286 37.16 204.5 37.113C204.715 37.0659 204.936 37.0617 205.152 37.1004C205.368 37.1391 205.575 37.22 205.759 37.3385C205.944 37.4571 206.103 37.6109 206.228 37.7911L211.717 45.6601C211.842 45.8401 211.93 46.043 211.976 46.2571C212.023 46.4712 212.026 46.6924 211.987 46.9079C211.948 47.1234 211.866 47.3291 211.748 47.5132C211.629 47.6973 211.475 47.8562 211.294 47.9807Z" fill="white"/>
<path d="M221.939 102.584C219.385 101.609 217.324 99.6599 216.208 97.1662C215.092 94.6724 215.013 91.8378 215.989 89.286C216.472 88.0224 217.2 86.8663 218.13 85.8836C219.061 84.901 220.176 84.1111 221.411 83.559C222.647 83.0069 223.98 82.7035 225.333 82.6661C226.686 82.6286 228.034 82.8578 229.298 83.3407C230.563 83.8235 231.72 84.5505 232.703 85.4801C233.687 86.4098 234.477 87.5238 235.03 88.7587C235.582 89.9937 235.886 91.3252 235.924 92.6774C235.961 94.0296 235.732 95.3759 235.248 96.6395C234.765 97.903 234.037 99.059 233.107 100.042C232.177 101.024 231.062 101.814 229.826 102.366C228.59 102.918 227.257 103.221 225.904 103.259C224.551 103.296 223.204 103.067 221.939 102.584Z" fill="#DD0000"/>
<path fill-rule="evenodd" clip-rule="evenodd" d="M230.999 94.7116C231.475 93.3508 231.399 91.8582 230.789 90.5522C230.179 89.2462 229.082 88.2302 227.732 87.7207C226.403 87.2083 224.927 87.2279 223.612 87.7754C222.297 88.3229 221.243 89.356 220.671 90.6599C220.64 90.7339 220.609 90.8089 220.58 90.8839C220.22 91.8204 220.126 92.8376 220.306 93.8242L218.318 96.226L221.539 96.4104C222.145 97.1247 222.923 97.674 223.8 98.0071C224.477 98.2689 225.2 98.3947 225.926 98.3774C226.652 98.36 227.368 98.1999 228.032 97.9062C228.696 97.6124 229.296 97.1908 229.797 96.6654C230.298 96.1399 230.691 95.521 230.952 94.8439C230.968 94.7991 230.985 94.7543 230.999 94.7116Z" fill="white"/>
<path fill-rule="evenodd" clip-rule="evenodd" d="M227.746 94.8106C227.642 94.6982 227.134 94.1545 227.033 94.0691C226.932 93.9837 226.856 93.9295 226.72 94.0232C226.585 94.117 226.234 94.3076 226.129 94.3618C226.025 94.4159 225.945 94.4003 225.841 94.2878C225.522 93.9974 225.257 93.6533 225.058 93.2712C224.877 92.9101 224.751 92.5239 224.685 92.1255C224.66 91.9713 224.751 91.9286 224.839 91.8891C224.926 91.8495 225.021 91.7849 225.115 91.7412L225.184 91.6985C225.232 91.6613 225.278 91.6213 225.321 91.5787C225.352 91.5508 225.375 91.5154 225.388 91.476C225.401 91.4366 225.404 91.3945 225.396 91.3537C225.389 91.2787 225.371 90.5611 225.361 90.2673C225.351 89.9736 225.23 89.9778 225.153 89.9497C225.075 89.9215 224.999 89.8778 224.914 89.8455C224.849 89.8226 224.78 89.8133 224.711 89.8181C224.642 89.823 224.575 89.8418 224.514 89.8736C224.319 89.9539 224.143 90.0739 223.997 90.226C223.851 90.378 223.739 90.5589 223.667 90.7569C223.614 90.9031 223.581 91.0559 223.568 91.211C223.547 91.5642 223.588 91.9184 223.688 92.2578C223.902 93.2862 224.402 94.2335 225.131 94.9909C226.232 95.9866 226.296 95.8241 226.538 95.8866C226.728 95.9212 226.923 95.9149 227.11 95.868C227.298 95.8212 227.473 95.7348 227.624 95.6148C227.78 95.4587 227.886 95.2601 227.928 95.044C227.921 94.9846 227.848 94.9211 227.746 94.8106Z" fill="#DD0000"/>
<path d="M82.9973 53.0615C80.9125 53.0615 78.9132 52.2339 77.439 50.7609C75.9649 49.2879 75.1367 47.2901 75.1367 45.207C75.1367 43.1239 75.9649 41.1261 77.439 39.6531C78.9132 38.1801 80.9125 37.3525 82.9973 37.3525C85.0821 37.3525 87.0815 38.1801 88.5557 39.6531C90.0298 41.1261 90.858 43.1239 90.858 45.207C90.858 47.2901 90.0298 49.2879 88.5557 50.7609C87.0815 52.2339 85.0821 53.0615 82.9973 53.0615Z" fill="#DD0000"/>
<path fill-rule="evenodd" clip-rule="evenodd" d="M80.2263 47.7348C80.1709 47.737 80.1157 47.7282 80.0638 47.7088C80.0119 47.6895 79.9643 47.66 79.9239 47.622C79.8836 47.5841 79.8512 47.5385 79.8286 47.488C79.8061 47.4374 79.7939 47.3829 79.7927 47.3275C79.7905 47.2721 79.7993 47.2168 79.8187 47.1649C79.8381 47.113 79.8678 47.0654 79.9058 47.025C79.9439 46.9847 79.9896 46.9523 80.0404 46.9299C80.0911 46.9074 80.1458 46.8953 80.2013 46.8942H80.2263C80.6922 46.8942 80.7194 45.2673 80.7194 44.6975C80.6807 44.1627 80.837 43.6319 81.1595 43.2033C81.482 42.7746 81.9487 42.477 82.4737 42.3655C82.4419 42.2971 82.424 42.2231 82.4209 42.1478C82.4179 42.0725 82.4297 41.9973 82.4557 41.9266C82.4818 41.8559 82.5215 41.791 82.5727 41.7356C82.6239 41.6803 82.6855 41.6356 82.7541 41.6041C82.8923 41.5404 83.0502 41.534 83.1931 41.5866C83.336 41.6391 83.4522 41.7462 83.5161 41.8843C83.5509 41.9597 83.569 42.0418 83.569 42.1249C83.569 42.208 83.5509 42.29 83.5161 42.3655C84.0418 42.4761 84.5096 42.7734 84.8328 43.2021C85.1561 43.6309 85.3131 44.1621 85.2746 44.6975C85.2746 45.2673 85.3027 46.8942 85.7677 46.8942C85.823 46.8921 85.8782 46.9011 85.9301 46.9206C85.9819 46.9401 86.0294 46.9697 86.0697 47.0077C86.1099 47.0457 86.1422 47.0913 86.1647 47.1419C86.1871 47.1926 86.1992 47.2472 86.2002 47.3025C86.2023 47.3578 86.1933 47.413 86.1738 47.4648C86.1543 47.5166 86.1247 47.5641 86.0867 47.6043C86.0486 47.6445 86.0029 47.6768 85.9523 47.6992C85.9016 47.7216 85.847 47.7337 85.7916 47.7348H80.2294H80.2263Z" fill="white"/>
<path fill-rule="evenodd" clip-rule="evenodd" d="M83.517 47.9358C83.5585 48.0045 83.586 48.0807 83.598 48.1601C83.6099 48.2394 83.6061 48.3203 83.5868 48.3982C83.5674 48.4761 83.5329 48.5494 83.4852 48.6139C83.4374 48.6784 83.3774 48.7329 83.3086 48.7742C83.2398 48.8157 83.1635 48.8432 83.0841 48.8552C83.0047 48.8671 82.9237 48.8633 82.8458 48.844C82.7678 48.8246 82.6945 48.7901 82.6299 48.7424C82.5653 48.6947 82.5108 48.6347 82.4694 48.5659C82.4113 48.4703 82.3805 48.3607 82.3805 48.2488C82.3805 48.1369 82.4113 48.0272 82.4694 47.9316L83.517 47.9358Z" fill="white"/>
<path d="M97.1235 141.048C93.6306 141.879 89.9502 141.29 86.8921 139.41C83.8339 137.53 81.6484 134.513 80.8164 131.023C79.9844 127.533 80.574 123.855 82.4555 120.799C84.3371 117.744 87.3565 115.56 90.8494 114.729C94.3423 113.897 98.0226 114.486 101.081 116.366C104.139 118.247 106.324 121.263 107.156 124.754C107.988 128.244 107.399 131.921 105.517 134.977C103.636 138.033 100.616 140.217 97.1235 141.048Z" fill="#FF7F76"/>
<path d="M92.9724 127.013C94.1335 127.013 95.0749 126.072 95.0749 124.912C95.0749 123.752 94.1335 122.811 92.9724 122.811C91.8112 122.811 90.8699 123.752 90.8699 124.912C90.8699 126.072 91.8112 127.013 92.9724 127.013Z" fill="white"/>
<path d="M93.7165 127.795L93.9062 127.74C95.0585 127.403 96.2975 127.537 97.3508 128.113C98.404 128.689 99.1853 129.659 99.5226 130.81L99.583 131.019C99.6018 131.082 99.608 131.149 99.6009 131.214C99.5939 131.28 99.574 131.344 99.5422 131.402C99.5104 131.46 99.4674 131.512 99.4158 131.553C99.3641 131.594 99.3048 131.625 99.2411 131.644L91.3273 133.959C91.2639 133.978 91.1973 133.984 91.1315 133.977C91.0657 133.97 91.0019 133.95 90.9438 133.919C90.8856 133.887 90.8344 133.844 90.7929 133.793C90.7513 133.741 90.7204 133.682 90.7019 133.618L90.6404 133.41C90.473 132.84 90.4198 132.242 90.4838 131.651C90.5478 131.06 90.7278 130.487 91.0135 129.965C91.2992 129.444 91.685 128.984 92.1488 128.611C92.6126 128.239 93.1453 127.962 93.7165 127.795Z" fill="white"/>
<path d="M88.9384 128.256C89.7017 128.256 90.3206 127.638 90.3206 126.875C90.3206 126.112 89.7017 125.494 88.9384 125.494C88.175 125.494 87.5562 126.112 87.5562 126.875C87.5562 127.638 88.175 128.256 88.9384 128.256Z" fill="white"/>
<path d="M90.0107 128.573L88.9486 128.886C87.631 129.271 86.9586 130.945 87.4506 132.623C87.4654 132.705 87.5118 132.779 87.58 132.827C87.6482 132.876 87.7327 132.896 87.8155 132.883L89.8189 132.297C89.7883 131.645 89.8857 130.994 90.1056 130.38C90.3127 129.768 90.6526 129.208 91.1011 128.742C90.9418 128.638 90.7621 128.569 90.5741 128.54C90.3861 128.511 90.194 128.522 90.0107 128.573Z" fill="white"/>
<path d="M97.6439 125.708C98.4073 125.708 99.0261 125.09 99.0261 124.327C99.0261 123.564 98.4073 122.946 97.6439 122.946C96.8806 122.946 96.2617 123.564 96.2617 124.327C96.2617 125.09 96.8806 125.708 97.6439 125.708Z" fill="white"/>
<path d="M97.6594 126.338L98.7216 126.025C100.04 125.64 101.508 126.687 102 128.366C102.032 128.443 102.033 128.53 102.002 128.608C101.97 128.686 101.91 128.748 101.833 128.782L99.8286 129.369C99.5031 128.804 99.0704 128.309 98.5548 127.91C98.0491 127.506 97.4604 127.219 96.8307 127.069C96.9086 126.895 97.0228 126.74 97.1658 126.613C97.3087 126.487 97.477 126.393 97.6594 126.338Z" fill="white"/>
<path d="M201.698 124.304C200.023 124.304 198.417 123.639 197.233 122.456C196.049 121.273 195.384 119.668 195.384 117.995C195.384 116.322 196.049 114.717 197.233 113.534C198.417 112.351 200.023 111.686 201.698 111.686C203.372 111.686 204.978 112.351 206.162 113.534C207.346 114.717 208.012 116.322 208.012 117.995C208.012 119.668 207.346 121.273 206.162 122.456C204.978 123.639 203.372 124.304 201.698 124.304Z" fill="#FF7F76"/>
<path d="M200.964 119.065L200.866 119.647C200.861 119.675 200.861 119.703 200.867 119.73C200.873 119.758 200.885 119.784 200.901 119.806C200.917 119.829 200.938 119.849 200.962 119.863C200.986 119.878 201.012 119.888 201.04 119.892C201.086 119.9 201.133 119.893 201.174 119.871L201.696 119.598L202.217 119.871C202.241 119.884 202.268 119.893 202.296 119.895C202.324 119.898 202.352 119.895 202.379 119.887C202.406 119.879 202.431 119.865 202.452 119.847C202.473 119.829 202.491 119.806 202.503 119.781C202.525 119.74 202.532 119.694 202.524 119.648L202.426 119.066L202.843 118.649C202.864 118.63 202.88 118.606 202.891 118.581C202.902 118.555 202.908 118.527 202.908 118.499C202.908 118.47 202.902 118.443 202.891 118.417C202.88 118.391 202.864 118.368 202.843 118.348C202.811 118.315 202.769 118.293 202.723 118.287L202.138 118.199L201.874 117.67C201.862 117.645 201.845 117.622 201.824 117.603C201.803 117.585 201.779 117.571 201.752 117.562C201.725 117.553 201.697 117.549 201.669 117.551C201.641 117.554 201.614 117.561 201.589 117.574C201.548 117.595 201.514 117.628 201.493 117.67L201.23 118.199L200.644 118.287C200.616 118.29 200.589 118.3 200.565 118.314C200.541 118.328 200.52 118.347 200.503 118.37C200.487 118.392 200.475 118.418 200.468 118.445C200.462 118.472 200.461 118.501 200.466 118.528C200.473 118.574 200.494 118.616 200.527 118.648L200.964 119.065Z" fill="white"/>
<path d="M204.209 115.631H203.54V115.26C203.54 115.177 203.507 115.097 203.448 115.039C203.39 114.98 203.31 114.947 203.227 114.947H203.178C203.095 114.947 203.016 114.98 202.957 115.039C202.898 115.097 202.865 115.177 202.865 115.26V115.631H200.503V115.26C200.503 115.177 200.47 115.097 200.412 115.039C200.353 114.98 200.274 114.947 200.191 114.947H200.142C200.059 114.947 199.979 114.98 199.921 115.039C199.862 115.097 199.829 115.177 199.829 115.26V115.631H199.167C198.999 115.631 198.837 115.698 198.718 115.817C198.599 115.936 198.533 116.097 198.532 116.265V120.706C198.533 120.874 198.599 121.035 198.718 121.154C198.837 121.273 198.999 121.34 199.167 121.34H204.209C204.377 121.34 204.539 121.273 204.658 121.154C204.777 121.035 204.844 120.874 204.844 120.706V116.265C204.844 116.097 204.777 115.936 204.658 115.817C204.539 115.698 204.377 115.631 204.209 115.631ZM204.127 120.624H199.268V117.163H204.127V120.624Z" fill="white"/>
<path d="M178.14 164L127.417 163.97C124.487 163.968 121.679 162.804 119.608 160.734C117.537 158.663 116.374 155.856 116.374 152.929L116.399 25.8633C116.399 24.4129 116.685 22.9768 117.24 21.6369C117.796 20.2969 118.611 19.0795 119.637 18.0543C120.664 17.029 121.883 16.2159 123.224 15.6614C124.565 15.1069 126.003 14.8219 127.454 14.8228L178.178 14.853C181.107 14.8546 183.916 16.0186 185.987 18.0889C188.058 20.1592 189.221 22.9665 189.221 25.8936L189.196 152.959C189.196 154.41 188.91 155.846 188.354 157.186C187.799 158.526 186.984 159.743 185.957 160.768C184.931 161.794 183.712 162.607 182.371 163.161C181.029 163.716 179.592 164.001 178.14 164Z" fill="#263238"/>
<path d="M178.124 19.3487L168.289 19.3425C167.641 19.357 167.026 19.6277 166.578 20.0953C166.13 20.5629 165.887 21.1889 165.901 21.836V23.6181C165.908 23.9385 165.852 24.2572 165.735 24.5559C165.619 24.8546 165.445 25.1275 165.224 25.3591C165.002 25.5906 164.737 25.7762 164.443 25.9053C164.149 26.0345 163.833 26.1045 163.513 26.1116L144.343 26.1001C143.695 26.0848 143.079 25.8129 142.632 25.3441C142.184 24.8753 141.941 24.2481 141.956 23.6003V21.8162C141.964 21.4954 141.908 21.1762 141.792 20.8769C141.676 20.5777 141.502 20.3042 141.28 20.072C141.058 19.8399 140.793 19.6537 140.499 19.524C140.206 19.3944 139.889 19.3238 139.568 19.3164H136.109H127.501C126.485 19.3159 125.478 19.5154 124.539 19.9036C123.6 20.2918 122.746 20.8611 122.027 21.579C121.308 22.2969 120.738 23.1492 120.349 24.0874C119.959 25.0256 119.759 26.0313 119.758 27.0469L119.734 151.074C119.734 153.125 120.548 155.091 121.999 156.542C123.449 157.992 125.416 158.808 127.468 158.809L178.09 158.838C179.107 158.839 180.113 158.639 181.053 158.251C181.992 157.863 182.845 157.293 183.564 156.576C184.283 155.858 184.854 155.005 185.243 154.067C185.632 153.129 185.833 152.123 185.833 151.108L185.857 27.0823C185.858 25.0322 185.043 23.066 183.593 21.6157C182.143 20.1655 180.175 19.3501 178.124 19.3487Z" fill="white"/>
<path d="M178.863 29.422C178.863 29.4553 177.584 29.4928 176.007 29.5064C174.43 29.5199 173.15 29.5064 173.15 29.4699C173.15 29.4335 174.428 29.3991 176.006 29.3856C177.584 29.372 178.863 29.3887 178.863 29.422Z" fill="#263238"/>
<path d="M178.879 30.8876C178.879 30.9209 177.6 30.9584 176.023 30.972C174.446 30.9855 173.166 30.9719 173.166 30.9355C173.166 30.899 174.444 30.8647 176.022 30.8522C177.6 30.8397 178.879 30.8501 178.879 30.8876Z" fill="#263238"/>
<path d="M178.889 32.3441C178.889 32.3774 177.61 32.4149 176.033 32.4274C174.456 32.4399 173.176 32.4274 173.176 32.3909C173.176 32.3545 174.454 32.3201 176.032 32.3076C177.61 32.2951 178.889 32.3097 178.889 32.3441Z" fill="#263238"/>
<path d="M125.077 33.7677C125.126 33.7608 125.177 33.7573 125.227 33.7573L125.644 33.7437L127.181 33.7073L127.138 33.75C127.133 33.4094 127.127 33.0376 127.121 32.6366C127.121 32.4282 127.103 32.2345 127.121 31.9949C127.145 31.8713 127.208 31.7586 127.301 31.6733C127.394 31.588 127.511 31.5347 127.637 31.5211C127.885 31.5211 128.103 31.5054 128.366 31.5211C128.508 31.5433 128.636 31.6154 128.729 31.7244C128.821 31.8334 128.871 31.9719 128.87 32.1148C128.876 32.6355 128.882 33.1771 128.889 33.7396L128.818 33.6698L130.758 33.65L130.684 33.725C130.677 32.9448 130.67 32.1376 130.663 31.3106C130.663 31.1023 130.663 30.8975 130.663 30.6961C130.654 30.6044 130.625 30.5156 130.578 30.4364C130.53 30.3572 130.466 30.2894 130.39 30.2379L129.542 29.4045L128.724 28.5984L128.328 28.2068C128.191 28.0755 128.084 27.9402 127.926 27.9079C127.851 27.8877 127.771 27.8849 127.694 27.8997C127.617 27.9145 127.544 27.9464 127.481 27.9932C127.364 28.0922 127.239 28.2328 127.12 28.3474L126.424 29.0494C125.987 29.5035 125.53 29.9191 125.199 30.3107C125.101 30.5388 125.068 30.7889 125.101 31.0346C125.101 31.2749 125.101 31.5026 125.101 31.7179C125.101 32.1345 125.101 32.5032 125.094 32.8178C125.094 33.099 125.088 33.3313 125.086 33.5208C125.087 33.6053 125.084 33.6898 125.077 33.7739C125.067 33.6965 125.062 33.6186 125.063 33.5406C125.063 33.3531 125.052 33.124 125.044 32.848C125.037 32.5307 125.028 32.1609 125.019 31.7387C125.015 31.52 125.011 31.288 125.007 31.0429C125.007 30.919 125.007 30.7919 125.001 30.6618C124.999 30.5199 125.035 30.3801 125.105 30.2565C125.463 29.817 125.892 29.4233 126.333 28.9609L127.023 28.2536C127.147 28.1318 127.249 28.0099 127.397 27.8828C127.476 27.8233 127.568 27.7824 127.666 27.7633C127.763 27.7442 127.864 27.7473 127.96 27.7725C128.143 27.8376 128.305 27.9527 128.426 28.1047L128.824 28.4943L129.644 29.2983L130.494 30.1316C130.574 30.2023 130.646 30.2809 130.711 30.3659C130.775 30.4634 130.811 30.5765 130.815 30.693C130.815 30.8978 130.817 31.104 130.82 31.3116C130.826 32.1387 130.833 32.9459 130.839 33.7261V33.801H130.765L128.825 33.8135H128.754V33.7427C128.754 33.1796 128.751 32.638 128.746 32.1179C128.748 32.0056 128.709 31.8964 128.637 31.8101C128.565 31.7239 128.465 31.6664 128.354 31.6481C128.131 31.6367 127.868 31.6481 127.65 31.6481C127.55 31.6586 127.455 31.7008 127.38 31.7686C127.305 31.8364 127.254 31.9263 127.233 32.0252C127.215 32.22 127.233 32.447 127.225 32.6439C127.225 33.0449 127.225 33.4177 127.225 33.7583V33.8021H127.182L125.619 33.7906L125.211 33.7833C125.166 33.782 125.121 33.7767 125.077 33.7677Z" fill="#263238"/>
<path d="M158.534 130.684C158.358 130.713 158.18 130.725 158.002 130.721L156.553 130.751C155.329 130.769 153.634 130.779 151.772 130.779C149.909 130.779 148.213 130.769 146.989 130.751L145.54 130.721C145.362 130.725 145.184 130.713 145.009 130.684C145.184 130.655 145.362 130.642 145.54 130.646L146.989 130.616C148.213 130.598 149.908 130.588 151.772 130.588C153.635 130.588 155.329 130.599 156.553 130.616L158.002 130.646C158.18 130.642 158.358 130.655 158.534 130.684Z" fill="#455A64"/>
<path d="M179.797 134.007C179.797 134.06 172.01 134.103 162.405 134.103C152.8 134.103 145.012 134.06 145.012 134.007C145.012 133.954 152.797 133.911 162.405 133.911C172.013 133.911 179.797 133.954 179.797 134.007Z" fill="#455A64"/>
<path d="M168.923 137.135C168.923 137.188 163.569 137.231 156.966 137.231C150.362 137.231 145.008 137.188 145.008 137.135C145.008 137.082 150.36 137.04 156.966 137.04C163.572 137.04 168.923 137.082 168.923 137.135Z" fill="#455A64"/>
<path d="M180.484 143.225L179.404 142.142L178.375 143.167V140.067H180.485L180.484 143.225ZM179.404 142.008L179.437 142.041L180.389 142.995V140.165H178.47V142.94L179.404 142.008Z" fill="#263238"/>
<path d="M151.7 142.82L151.319 142.65C151.169 142.74 150.999 142.791 150.825 142.8C150.544 142.802 150.274 142.693 150.074 142.496C149.874 142.299 149.76 142.031 149.757 141.75C149.756 141.47 149.865 141.2 150.062 141C150.259 140.8 150.527 140.686 150.808 140.684C151.089 140.682 151.359 140.791 151.559 140.988C151.759 141.185 151.873 141.453 151.876 141.734C151.878 141.993 151.784 142.244 151.612 142.439L151.7 142.82ZM150.809 140.755C150.548 140.758 150.298 140.864 150.114 141.05C149.93 141.236 149.828 141.488 149.83 141.749C149.833 142.01 149.939 142.26 150.125 142.443C150.312 142.627 150.563 142.729 150.825 142.727C150.993 142.717 151.157 142.666 151.3 142.577L151.316 142.569L151.597 142.694L151.534 142.418L151.546 142.404C151.714 142.221 151.806 141.982 151.804 141.734C151.801 141.473 151.695 141.225 151.51 141.042C151.325 140.859 151.075 140.756 150.814 140.756L150.809 140.755Z" fill="#263238"/>
<path d="M154.157 142.657L153.72 141.591L152.9 140.845L154.888 140.828L154.157 142.657ZM153.085 140.916L153.784 141.556L154.156 142.464L154.781 140.902L153.085 140.916Z" fill="#263238"/>
<path d="M154.85 140.828L153.766 141.533L153.806 141.594L154.89 140.889L154.85 140.828Z" fill="#263238"/>
<path d="M148.576 141.068C148.544 140.927 148.464 140.801 148.35 140.711C148.237 140.621 148.096 140.573 147.951 140.574C147.807 140.584 147.671 140.642 147.565 140.739C147.459 140.836 147.389 140.967 147.366 141.109C147.34 140.968 147.268 140.84 147.16 140.745C147.052 140.65 146.916 140.595 146.773 140.588C146.628 140.588 146.487 140.639 146.374 140.73C146.262 140.822 146.184 140.949 146.154 141.091C146.126 141.302 146.18 141.516 146.305 141.689C146.43 141.859 146.576 142.012 146.74 142.145C146.961 142.341 147.167 142.524 147.388 142.72C147.607 142.521 147.792 142.334 148.013 142.135C148.175 141.999 148.319 141.843 148.441 141.671C148.562 141.495 148.611 141.279 148.576 141.068Z" fill="#E8505B"/>
<path d="M182.699 145.965C182.699 145.965 182.699 145.846 182.692 145.619C182.686 145.392 182.692 145.054 182.686 144.613C182.686 143.726 182.678 142.426 182.671 140.732C182.663 137.353 182.651 132.439 182.636 126.274L182.699 126.337L123.872 126.369L123.967 126.273C123.967 133.116 123.967 139.754 123.967 145.959L123.875 145.866L165.97 145.909L178.259 145.935L181.556 145.946L182.411 145.952C182.604 145.952 182.705 145.959 182.705 145.959C182.705 145.959 182.611 145.959 182.422 145.965L181.579 145.971L178.301 145.983L166.033 146.009L123.874 146.051H123.781V145.959C123.781 139.749 123.781 133.111 123.781 126.273V126.177H123.885L182.712 126.21H182.776V126.273C182.761 132.454 182.75 137.381 182.741 140.769C182.735 142.452 182.729 143.752 182.726 144.636C182.726 145.071 182.724 145.402 182.72 145.631C182.703 145.855 182.699 145.965 182.699 145.965Z" fill="#263238"/>
<path d="M126.317 129.565L126.239 142.583L142.536 142.681L142.614 129.663L126.317 129.565Z" fill="#EBEBEB"/>
<path d="M142.608 129.659C142.581 129.661 142.554 129.661 142.527 129.659H142.295H141.405H138.064L126.311 129.635L126.398 129.549C126.379 133.425 126.356 137.866 126.334 142.569C126.354 142.592 126.155 142.388 126.242 142.474H126.52H126.801H127.363L128.479 142.48L130.674 142.494L134.902 142.521L142.533 142.576L142.453 142.655C142.492 138.746 142.525 135.504 142.548 133.227C142.563 132.095 142.575 131.203 142.583 130.584C142.589 130.285 142.593 130.052 142.597 129.884C142.597 129.724 142.607 129.638 142.607 129.638C142.607 129.638 142.607 129.713 142.614 129.867C142.622 130.021 142.614 130.26 142.614 130.552C142.614 131.168 142.614 132.053 142.62 133.178C142.62 135.47 142.612 138.728 142.607 142.656V142.736H142.527L134.894 142.704L130.667 142.684L128.471 142.672L127.356 142.666H126.794H126.234C126.318 142.751 126.114 142.549 126.136 142.568C126.167 137.868 126.195 133.427 126.221 129.548V129.462H126.306L138.114 129.572L141.435 129.614L142.308 129.63L142.53 129.636C142.557 129.641 142.583 129.648 142.608 129.659Z" fill="#263238"/>
<path d="M126.871 130.388L126.803 141.768L141.954 141.858L142.022 130.479L126.871 130.388Z" fill="#E0E0E0"/>
<path d="M126.803 141.767L132.135 134.724L135.388 139.167L137.625 136.814L141.954 141.852L126.803 141.767Z" fill="#F5F5F5"/>
<path d="M136.809 133.884C136.808 134.04 136.776 134.195 136.716 134.34C136.655 134.484 136.566 134.615 136.455 134.725C136.344 134.835 136.211 134.922 136.066 134.981C135.921 135.04 135.766 135.07 135.609 135.069C135.453 135.068 135.298 135.037 135.153 134.976C135.009 134.915 134.878 134.827 134.767 134.715C134.657 134.604 134.57 134.472 134.511 134.327C134.452 134.182 134.422 134.027 134.423 133.87C134.425 133.554 134.552 133.252 134.777 133.03C135.002 132.807 135.306 132.683 135.623 132.685C135.939 132.687 136.242 132.814 136.464 133.039C136.687 133.264 136.811 133.568 136.809 133.884Z" fill="#F5F5F5"/>
<path d="M153.792 45.2091C153.735 45.2237 153.676 45.23 153.618 45.2278L153.118 45.2456L151.283 45.2758C149.733 45.2935 147.593 45.3039 145.227 45.3039C142.862 45.3039 140.721 45.2935 139.171 45.2758L137.335 45.2456L136.836 45.2278C136.778 45.23 136.719 45.2237 136.662 45.2091C136.719 45.1941 136.778 45.1874 136.836 45.1893L137.335 45.1716L139.171 45.1414C140.721 45.1237 142.862 45.1133 145.227 45.1133C147.593 45.1133 149.733 45.1247 151.283 45.1414L153.118 45.1716L153.618 45.1893C153.676 45.1874 153.735 45.1941 153.792 45.2091Z" fill="#263238"/>
<path d="M177.868 117.171L176.262 115.562L174.733 117.086L174.74 112.478H177.876L177.868 117.171ZM176.263 115.361L176.313 115.411L177.728 116.829L177.734 112.624H174.882L174.876 116.747L176.263 115.361Z" fill="#263238"/>
<path d="M137.089 116.692L136.338 116.357C136.044 116.534 135.71 116.635 135.367 116.652C135.093 116.655 134.821 116.603 134.567 116.5C134.314 116.398 134.082 116.246 133.887 116.054C133.692 115.862 133.536 115.634 133.43 115.382C133.323 115.13 133.267 114.859 133.264 114.586C133.262 114.312 133.314 114.041 133.417 113.787C133.52 113.533 133.671 113.302 133.864 113.107C134.056 112.912 134.284 112.757 134.537 112.651C134.789 112.544 135.06 112.488 135.333 112.486C135.607 112.484 135.879 112.535 136.133 112.638C136.386 112.741 136.617 112.892 136.813 113.084C137.008 113.276 137.163 113.505 137.27 113.756C137.377 114.008 137.433 114.279 137.435 114.552C137.439 115.064 137.253 115.559 136.914 115.942L137.089 116.692ZM135.335 112.63C134.819 112.634 134.327 112.843 133.966 113.209C133.604 113.576 133.404 114.071 133.407 114.586C133.412 115.1 133.621 115.592 133.988 115.953C134.355 116.314 134.85 116.514 135.365 116.511C135.697 116.492 136.02 116.39 136.303 116.216L136.334 116.198L136.888 116.445L136.763 115.901L136.788 115.874C137.117 115.514 137.298 115.042 137.294 114.554C137.29 114.04 137.081 113.548 136.713 113.187C136.346 112.826 135.85 112.625 135.335 112.63Z" fill="#263238"/>
<path d="M141.913 116.364L141.053 114.265L139.44 112.797L143.353 112.766L141.913 116.364ZM139.805 112.936L141.179 114.197L141.908 115.984L143.138 112.909L139.805 112.936Z" fill="#263238"/>
<path d="M143.276 112.768L141.142 114.154L141.219 114.274L143.353 112.887L143.276 112.768Z" fill="#263238"/>
<path d="M130.93 113.235C130.866 112.956 130.708 112.708 130.484 112.531C130.259 112.355 129.98 112.26 129.695 112.264C129.413 112.284 129.146 112.399 128.938 112.589C128.73 112.78 128.592 113.036 128.548 113.315C128.499 113.036 128.357 112.782 128.144 112.594C127.932 112.407 127.662 112.297 127.379 112.283C127.093 112.283 126.816 112.382 126.594 112.562C126.373 112.743 126.219 112.994 126.16 113.273C126.104 113.689 126.21 114.11 126.457 114.45C126.703 114.785 126.991 115.087 127.314 115.349C127.75 115.734 128.148 116.096 128.589 116.48C129.018 116.088 129.384 115.721 129.813 115.328C130.132 115.061 130.415 114.755 130.656 114.416C130.895 114.072 130.993 113.649 130.93 113.235Z" fill="#E8505B"/>
<path d="M130.575 47.8614C132.041 47.8614 133.23 46.6737 133.23 45.2085C133.23 43.7434 132.041 42.5557 130.575 42.5557C129.108 42.5557 127.92 43.7434 127.92 45.2085C127.92 46.6737 129.108 47.8614 130.575 47.8614Z" fill="#EBEBEB"/>
<path d="M176.866 101.955C176.866 102.008 165.734 102.05 152.006 102.05C138.277 102.05 127.143 102.008 127.143 101.955C127.143 101.902 138.272 101.859 152.006 101.859C165.739 101.859 176.866 101.898 176.866 101.955Z" fill="#455A64"/>
<path d="M176.866 97.819C176.866 97.8721 165.734 97.9148 152.006 97.9148C138.278 97.9148 127.143 97.8721 127.143 97.819C127.143 97.7659 138.273 97.7231 152.006 97.7231C165.74 97.7231 176.866 97.7638 176.866 97.819Z" fill="#455A64"/>
<path d="M154.208 106.147C154.208 106.2 148.15 106.243 140.677 106.243C133.204 106.243 127.144 106.2 127.144 106.147C127.144 106.094 133.202 106.051 140.677 106.051C148.152 106.051 154.208 106.094 154.208 106.147Z" fill="#455A64"/>
<path d="M150.868 151.224C150.869 151.506 150.757 151.777 150.558 151.977C150.36 152.176 150.089 152.289 149.807 152.29C149.525 152.286 149.256 152.171 149.059 151.969C148.861 151.768 148.752 151.496 148.755 151.214C148.755 150.932 148.866 150.662 149.065 150.462C149.264 150.262 149.535 150.149 149.817 150.148C150.099 150.152 150.368 150.267 150.565 150.469C150.762 150.671 150.871 150.942 150.868 151.224Z" fill="#263238"/>
<path d="M154.141 151.237C154.141 151.376 154.114 151.514 154.061 151.644C154.008 151.773 153.93 151.89 153.831 151.989C153.733 152.088 153.616 152.167 153.487 152.22C153.358 152.274 153.22 152.302 153.08 152.302C152.94 152.3 152.802 152.271 152.674 152.216C152.545 152.161 152.429 152.082 152.331 151.982C152.233 151.882 152.156 151.764 152.104 151.634C152.052 151.504 152.026 151.366 152.028 151.226C152.028 151.087 152.055 150.948 152.108 150.819C152.161 150.69 152.239 150.573 152.338 150.474C152.436 150.375 152.553 150.296 152.682 150.242C152.811 150.189 152.95 150.161 153.089 150.161C153.229 150.162 153.367 150.191 153.496 150.246C153.624 150.301 153.741 150.381 153.838 150.481C153.936 150.581 154.013 150.699 154.065 150.829C154.117 150.958 154.143 151.097 154.141 151.237Z" fill="#263238"/>
<path d="M157.415 151.257C157.416 151.397 157.389 151.535 157.336 151.664C157.282 151.793 157.204 151.911 157.106 152.01C157.007 152.109 156.89 152.187 156.761 152.241C156.632 152.295 156.494 152.322 156.354 152.323C156.214 152.321 156.076 152.293 155.947 152.238C155.818 152.183 155.701 152.103 155.603 152.003C155.505 151.903 155.428 151.785 155.376 151.655C155.324 151.525 155.298 151.387 155.299 151.247C155.299 151.107 155.326 150.969 155.379 150.84C155.432 150.711 155.51 150.593 155.609 150.495C155.707 150.396 155.824 150.317 155.953 150.263C156.082 150.209 156.22 150.182 156.359 150.181C156.5 150.182 156.638 150.211 156.767 150.266C156.896 150.32 157.013 150.4 157.111 150.5C157.209 150.6 157.287 150.718 157.339 150.848C157.391 150.978 157.417 151.117 157.415 151.257Z" fill="#263238"/>
<path d="M183.051 50.4595H124.22V86.4091H183.051V50.4595Z" fill="#E0E0E0"/>
<path d="M129.653 86.4174L146.511 63.8706L156.962 77.9703L164.051 70.4293L177.943 86.4028L129.653 86.4174Z" fill="#F5F5F5"/>
<path d="M161.39 61.1096C161.39 61.6084 161.292 62.1024 161.101 62.5633C160.91 63.0242 160.63 63.443 160.277 63.7959C159.924 64.1487 159.505 64.4286 159.044 64.6196C158.583 64.8106 158.089 64.9091 157.59 64.9092C157.09 64.9093 156.596 64.8112 156.135 64.6204C155.673 64.4297 155.254 64.15 154.901 63.7973C154.548 63.4447 154.268 63.026 154.077 62.5652C153.885 62.1044 153.787 61.6105 153.787 61.1117C153.787 60.6128 153.885 60.1188 154.076 59.6579C154.267 59.197 154.547 58.7782 154.9 58.4253C155.252 58.0725 155.672 57.7926 156.133 57.6016C156.594 57.4106 157.088 57.3121 157.587 57.312C158.087 57.3119 158.581 57.41 159.042 57.6008C159.504 57.7915 159.923 58.0712 160.276 58.4238C160.629 58.7765 160.909 59.1952 161.1 59.656C161.291 60.1168 161.39 60.6107 161.39 61.1096Z" fill="#F5F5F5"/>
<path d="M182.895 119.818C182.895 119.048 182.86 86.5724 182.808 38.4958L182.894 38.5822L124.07 38.5906H124.064L124.16 38.4947C124.153 68.9084 124.147 97.0526 124.142 119.817L124.064 119.739L182.895 119.817L124.064 119.895H123.986V119.817C123.986 97.0536 123.974 68.9074 123.968 38.4947V38.3989H124.072L182.896 38.4073H182.984V38.4937C182.966 62.5539 182.951 82.8956 182.941 97.2213C182.931 104.375 182.923 110.026 182.917 113.892C182.917 115.819 182.91 117.301 182.907 118.304C182.907 118.8 182.907 119.179 182.907 119.436C182.907 119.693 182.895 119.818 182.895 119.818Z" fill="#263238"/>
<path d="M155.25 129.905L156.552 125.531C156.779 124.583 157.081 123.465 157.49 122.19C157.966 120.973 158.702 119.875 159.645 118.971C160.516 118.175 161.473 117.479 162.498 116.895C162.579 116.843 162.67 116.769 162.747 116.728C162.916 116.634 163.064 116.506 163.182 116.353C163.951 115.519 163.212 114.233 161.649 114.356C160.472 114.448 158.554 114.785 155.434 118.001C155.395 118.05 155.353 118.091 155.316 118.141C153.678 120.268 152.141 114.196 151.863 111.936C151.808 111.587 151.675 111.254 151.474 110.962C151.273 110.67 151.009 110.428 150.702 110.251C150.395 110.075 150.052 109.97 149.698 109.944C149.345 109.918 148.99 109.971 148.66 110.1L141.06 113.652C140.331 113.439 139.553 113.465 138.841 113.727C138.308 113.912 137.865 114.29 137.597 114.786C137.329 115.281 137.256 115.859 137.393 116.406L140.475 128.701L131.421 158.803H150.936L155.25 129.905Z" fill="#FFBE9D"/>
<path d="M170.243 102.257L164.211 114.068L161.195 113.235L146.033 125.559C145.413 126.063 144.62 126.306 143.823 126.235C143.026 126.164 142.289 125.785 141.767 125.179L135.994 118.477C135.994 118.477 147.634 113.467 149.787 109.319C151.94 105.172 149.452 104.231 149.452 104.231L154.93 98.0112L170.243 102.257Z" fill="url(#paint0_linear)"/>
<path d="M162.42 78.1283C162.42 78.1283 153.59 76.1764 141.163 64.2369C128.737 52.2975 122.899 36.4417 121.378 36.5188C119.857 36.5959 113.216 33.5149 100.584 60.9695C87.9525 88.4241 92.9289 94.7995 95.4421 94.7485C97.9553 94.6974 115.022 89.9448 125.682 91.1551C136.341 92.3654 150.044 97.917 150.044 97.917L162.42 78.1283Z" fill="url(#paint1_linear)"/>
<path d="M181.178 93.0938L178.166 98.8172L176.816 101.382C175.924 103.073 174.417 104.359 172.605 104.974C170.793 105.589 168.814 105.486 167.076 104.686L148.149 98.0974L159.171 72.9541L178.08 83.0239C179.823 83.9528 181.128 85.5334 181.708 87.4202C182.289 89.3071 182.098 91.3469 181.178 93.0938Z" fill="#AA0000"/>
<path d="M101.607 61.4709C94.8849 76.3434 92.086 89.5931 95.3529 91.0721C98.6197 92.5511 106.723 81.6876 113.446 66.8151C120.168 51.9426 122.966 38.6929 119.7 37.2139C116.434 35.7349 108.33 46.5984 101.607 61.4709Z" fill="#DD0000"/>
<g opacity="0.5">
<path opacity="0.5" d="M101.607 61.4709C94.8849 76.3434 92.086 89.5931 95.3529 91.0721C98.6197 92.5511 106.723 81.6876 113.446 66.8151C120.168 51.9426 122.966 38.6929 119.7 37.2139C116.434 35.7349 108.33 46.5984 101.607 61.4709Z" fill="black"/>
</g>
<path d="M182.804 101.363L177.675 99.7528L180.849 93.7212L184.696 96.1105L182.804 101.363Z" fill="#DD0000"/>
<g opacity="0.6">
<path opacity="0.6" d="M180.849 93.7241L177.675 99.7558L178.729 100.087L181.31 94.0105L180.849 93.7241Z" fill="black"/>
</g>
<path d="M177.312 95.1129C177.237 95.2795 174.677 94.2796 171.595 92.8922C168.512 91.5049 166.07 90.2373 166.147 90.0717C166.224 89.9061 168.781 90.9049 171.866 92.2933C174.95 93.6817 177.387 94.9473 177.312 95.1129Z" fill="#DD0000"/>
<path d="M178.888 91.5207C178.807 91.6843 176.491 90.7083 173.714 89.3417C170.937 87.9752 168.749 86.7379 168.83 86.5712C168.912 86.4046 171.228 87.3837 174.005 88.7512C176.782 90.1188 178.969 91.3583 178.888 91.5207Z" fill="#DD0000"/>
<path d="M175.322 98.8831C175.295 98.9706 174.685 98.83 173.714 98.53C173.228 98.38 172.653 98.1905 172.016 97.9697C171.379 97.7489 170.727 97.4093 170.024 97.0906C168.287 96.395 166.647 95.4784 165.144 94.3638C165.228 94.1846 167.518 95.2033 170.299 96.4927C170.996 96.8052 171.644 97.1562 172.253 97.4114C172.863 97.6666 173.416 97.8895 173.873 98.0926C174.792 98.4998 175.349 98.7967 175.322 98.8831Z" fill="#DD0000"/>
<path d="M115.308 58.1633C115.308 58.1633 107.633 53.4085 103.434 63.769C99.2355 74.1294 107.311 75.8334 107.311 75.8334C110.795 70.3488 113.488 64.4 115.308 58.1633Z" fill="#DD0000"/>
<g opacity="0.5">
<path opacity="0.5" d="M123.472 45.8159C123.429 46.483 123.329 47.1452 123.171 47.7949C122.928 49.0604 122.585 50.8988 122.093 53.1548C121.769 54.2662 121.415 55.4796 121.034 56.7805C120.842 57.4325 120.643 58.1057 120.438 58.8001L120.125 59.8563C120.011 60.2104 119.862 60.5572 119.727 60.9145C119.175 62.3404 118.594 63.8309 117.994 65.3849L117.537 66.5566C117.388 66.9524 117.177 67.3253 116.998 67.7148L115.858 70.0657L114.711 72.4154C114.515 72.7977 114.353 73.1934 114.134 73.5559L113.494 74.6402L111.048 78.7658C110.849 79.0918 110.668 79.4241 110.46 79.7335L109.822 80.6334L108.601 82.353L106.4 85.4298C104.933 87.2067 103.703 88.6087 102.856 89.5815C102.441 90.106 101.982 90.5939 101.483 91.0396C101.828 90.4654 102.221 89.9218 102.658 89.4148L106.039 85.1309L108.157 82.0301L109.341 80.3074L109.966 79.4075C110.167 79.095 110.344 78.7658 110.539 78.4398L112.936 74.3215L113.561 73.2424C113.777 72.8821 113.938 72.4884 114.132 72.1082L115.265 69.774L116.401 67.4419C116.58 67.0555 116.791 66.6858 116.941 66.2962L117.399 65.1349L119.157 60.7083C119.294 60.3541 119.447 60.0114 119.565 59.6615C119.682 59.3115 119.782 58.9605 119.89 58.6199L120.515 56.6232C120.921 55.3369 121.299 54.138 121.646 53.0392L122.923 47.747C123.051 47.0888 123.234 46.4428 123.472 45.8159Z" fill="black"/>
</g>
<g opacity="0.4">
<path opacity="0.4" d="M137.836 117.649C138.474 118.953 139.3 120.157 140.286 121.223C140.784 121.754 141.39 122.17 142.064 122.444C142.737 122.718 143.462 122.844 144.189 122.812C144.914 122.754 145.595 122.442 146.112 121.931C146.629 121.42 146.949 120.743 147.016 120.019C147.389 120.242 147.829 120.323 148.257 120.247C148.684 120.172 149.07 119.945 149.345 119.609C149.875 118.914 150.167 118.068 150.179 117.195C150.672 117.432 151.234 117.484 151.763 117.341C152.291 117.198 152.75 116.87 153.057 116.417C153.345 115.951 153.527 115.428 153.59 114.885C153.652 114.341 153.594 113.791 153.419 113.272C153.062 112.239 152.553 111.264 151.908 110.381C152.628 110.504 153.369 110.429 154.049 110.162C154.381 110.015 154.642 109.743 154.775 109.404C154.907 109.066 154.901 108.689 154.757 108.356C154.497 108.013 154.123 107.775 153.702 107.684C152.717 107.275 151.65 107.104 150.587 107.182C150.313 107.182 151.06 110.297 143.641 114.555C141.761 115.688 139.824 116.72 137.836 117.649Z" fill="black"/>
</g>
<path d="M154.542 122.148C154.542 122.182 154.043 122.087 153.242 122.109C152.201 122.138 151.177 122.383 150.235 122.829C149.298 123.283 148.465 123.928 147.79 124.721C147.269 125.332 147.036 125.775 147.006 125.763C147.037 125.649 147.086 125.54 147.151 125.441C147.307 125.16 147.485 124.892 147.684 124.64C148.345 123.801 149.189 123.124 150.152 122.661C151.116 122.201 152.173 121.968 153.241 121.979C153.563 121.982 153.884 122.01 154.2 122.065C154.318 122.075 154.433 122.103 154.542 122.148Z" fill="#EB996E"/>
<path d="M138.316 115.676C139.512 116.822 140.329 118.09 141.582 119.245C142.152 119.765 143.041 120.764 143.8 120.897C144.559 121.029 145.051 120.928 145.355 120.214C145.6 119.637 145.16 118.848 144.857 118.372C144.058 117.122 143.293 116.141 142.696 115.168C142.416 114.712 142.778 114.618 142.911 114.829C143.486 115.425 144.344 115.942 144.86 116.59C145.566 117.478 145.694 118.655 147.54 118.282C147.787 118.24 148.021 118.143 148.225 117.998C148.528 117.73 148.734 117.37 148.812 116.973C148.89 116.576 148.835 116.165 148.656 115.802C148.397 115.234 148.05 114.71 147.629 114.248C148.303 115.243 149.342 115.933 150.521 116.169C150.875 116.212 151.233 116.144 151.546 115.974C151.86 115.805 152.113 115.542 152.27 115.223C152.382 114.813 152.376 114.379 152.253 113.972C152.131 113.565 151.897 113.2 151.578 112.918C150.634 111.755 149.584 110.683 148.441 109.715C148.014 109.355 147.474 109.155 146.916 109.151C146.575 109.114 146.23 109.156 145.909 109.273C145.587 109.391 145.297 109.582 145.061 109.83C144.851 110.099 144.698 110.408 144.611 110.739C144.525 111.069 144.508 111.414 144.56 111.752C144.105 111.526 143.604 111.411 143.096 111.418C142.588 111.424 142.09 111.551 141.641 111.789C140.84 112.351 140.264 113.178 140.017 114.124L138.316 115.676Z" fill="#FFBE9D"/>
<path d="M146.939 108.795C146.684 108.496 146.525 108.127 146.484 107.737C146.443 107.346 146.522 106.952 146.71 106.607C146.985 106.068 147.335 105.543 147.686 105.424C149.227 104.903 155.963 106.069 155.903 107.562C155.839 109.097 155.349 109.772 151.694 109.244C151.051 109.152 150.042 109.025 150.042 109.025L149.159 110.348L146.939 108.795Z" fill="#FFBE9D"/>
<path d="M148.145 115.049C147.677 114.345 147.136 113.691 146.532 113.1C145.884 112.557 145.18 112.083 144.433 111.687C144.683 111.728 144.925 111.813 145.146 111.938C145.697 112.203 146.207 112.547 146.66 112.958C147.114 113.369 147.506 113.843 147.825 114.365C147.971 114.573 148.079 114.804 148.145 115.049Z" fill="#EB996E"/>
<path d="M149.284 110.46C149.25 110.491 148.805 110.129 148.199 109.758C147.944 109.597 147.68 109.452 147.409 109.323C147.2 109.225 147.062 109.198 147.063 109.17C147.065 109.142 147.222 109.125 147.455 109.196C147.753 109.292 148.037 109.426 148.3 109.596C148.696 109.795 149.035 110.093 149.284 110.46Z" fill="#EB996E"/>
<path d="M150.412 109.069C149.974 109.119 149.53 109.069 149.114 108.923C148.81 108.835 148.527 108.687 148.28 108.489C148.096 108.331 148.019 108.2 148.037 108.185C148.39 108.413 148.77 108.6 149.166 108.741C149.589 108.822 150.005 108.932 150.412 109.069Z" fill="#EB996E"/>
<path d="M143.866 116.899C143.633 116.656 143.428 116.389 143.252 116.102C142.83 115.424 142.299 114.821 141.68 114.316C141.038 113.848 140.244 113.637 139.454 113.727C139.13 113.788 138.815 113.888 138.516 114.026C138.509 114.017 138.58 113.949 138.73 113.856C138.947 113.727 139.184 113.638 139.432 113.593C139.843 113.526 140.264 113.541 140.67 113.639C141.075 113.736 141.457 113.914 141.793 114.161C142.433 114.676 142.967 115.31 143.367 116.028C143.558 116.304 143.725 116.595 143.866 116.899Z" fill="#EB996E"/>
<path d="M149.02 131.786C148.113 131.98 147.193 132.112 146.267 132.18C145.348 132.313 144.422 132.383 143.493 132.389C144.401 132.194 145.321 132.062 146.247 131.994C147.166 131.861 148.092 131.791 149.02 131.786Z" fill="#EB996E"/>
<path d="M207.103 10.5278L207.52 11.2861L208.279 11.7028L207.52 12.1194L207.103 12.8776L206.686 12.1194L205.927 11.7028L206.686 11.2861L207.103 10.5278Z" fill="#DD0000"/>
<path d="M215.783 29.3438L216.199 30.102L216.958 30.5186L216.199 30.9352L215.783 31.6935L215.366 30.9352L214.607 30.5186L215.366 30.102L215.783 29.3438Z" fill="#DD0000"/>
<path d="M76.6092 79.5239L77.0261 80.2832L77.785 80.6998L77.0261 81.1165L76.6092 81.8758L76.1922 81.1165L75.4333 80.6998L76.1922 80.2832L76.6092 79.5239Z" fill="#DD0000"/>
<path d="M195.706 15.2095L196.665 16.9614L198.418 17.9196L196.665 18.8778L195.706 20.6298L194.747 18.8778L192.993 17.9196L194.747 16.9614L195.706 15.2095Z" fill="#DD0000"/>
<path d="M84.3927 67.5996L85.3496 69.3474L87.0987 70.3035L85.3496 71.2597L84.3927 73.0074L83.4358 71.2597L81.6866 70.3035L83.4358 69.3474L84.3927 67.5996Z" fill="#DD0000"/>
<path d="M218.148 109.307L219.105 111.055L220.854 112.011L219.105 112.967L218.148 114.715L217.191 112.967L215.442 112.011L217.191 111.055L218.148 109.307Z" fill="#DD0000"/>
<defs>
<linearGradient id="paint0_linear" x1="135.994" y1="112.129" x2="170.243" y2="112.129" gradientUnits="userSpaceOnUse">
<stop stop-color="#DD0000"/>
<stop offset="1" stop-color="#6F0000"/>
</linearGradient>
<linearGradient id="paint1_linear" x1="92.3336" y1="67.1833" x2="162.42" y2="67.1833" gradientUnits="userSpaceOnUse">
<stop stop-color="#DD0000"/>
<stop offset="1" stop-color="#6F0000"/>
</linearGradient>
</defs>
</svg>
