<svg width="18" height="18" viewBox="0 0 18 18" fill="none" xmlns="http://www.w3.org/2000/svg">
<path d="M2.7196 16.7347L8.99961 10.4547L15.2796 16.7347C15.474 16.9193 15.7328 17.0208 16.0008 17.0173C16.2689 17.0139 16.525 16.9059 16.7145 16.7163C16.9041 16.5267 17.0121 16.2706 17.0155 16.0026C17.019 15.7345 16.9176 15.4757 16.7329 15.2814L10.4529 9.00137L16.7329 2.72138C16.9176 2.52702 17.019 2.26822 17.0155 2.00017C17.0121 1.73211 16.9041 1.476 16.7145 1.28644C16.525 1.09688 16.2689 0.988874 16.0008 0.985436C15.7328 0.981998 15.474 1.08339 15.2796 1.26803L8.99961 7.54804L2.7196 1.26803C2.52524 1.08339 2.26647 0.981998 1.99841 0.985436C1.73036 0.988874 1.47424 1.09688 1.28469 1.28644C1.09513 1.476 0.987099 1.73211 0.98366 2.00017C0.980223 2.26822 1.08164 2.52702 1.26627 2.72138L7.54628 9.00137L1.26627 15.2814C1.08164 15.4757 0.980223 15.7345 0.98366 16.0026C0.987099 16.2706 1.09513 16.5267 1.28469 16.7163C1.47424 16.9059 1.73036 17.0139 1.99841 17.0173C2.26647 17.0208 2.52524 16.9193 2.7196 16.7347Z" fill="#A7A7A7"/>
</svg>
