<svg width="13" height="12" viewBox="0 0 13 12" fill="none" xmlns="http://www.w3.org/2000/svg">
<path d="M10.875 0.375H2.125C1.62772 0.375 1.15081 0.572544 0.799175 0.924175C0.447544 1.27581 0.25 1.75272 0.25 2.25V7.25C0.25 7.74728 0.447544 8.22419 0.799175 8.57583C1.15081 8.92746 1.62772 9.125 2.125 9.125H5.875V10.375H3.375C3.20924 10.375 3.05027 10.4408 2.93306 10.5581C2.81585 10.6753 2.75 10.8342 2.75 11C2.75 11.1658 2.81585 11.3247 2.93306 11.4419C3.05027 11.5592 3.20924 11.625 3.375 11.625H9.625C9.79076 11.625 9.94973 11.5592 10.0669 11.4419C10.1842 11.3247 10.25 11.1658 10.25 11C10.25 10.8342 10.1842 10.6753 10.0669 10.5581C9.94973 10.4408 9.79076 10.375 9.625 10.375H7.125V9.125H10.875C11.3723 9.125 11.8492 8.92746 12.2008 8.57583C12.5525 8.22419 12.75 7.74728 12.75 7.25V2.25C12.75 1.75272 12.5525 1.27581 12.2008 0.924175C11.8492 0.572544 11.3723 0.375 10.875 0.375ZM11.5 7.25C11.5 7.41576 11.4342 7.57473 11.3169 7.69194C11.1997 7.80915 11.0408 7.875 10.875 7.875H2.125C1.95924 7.875 1.80027 7.80915 1.68306 7.69194C1.56585 7.57473 1.5 7.41576 1.5 7.25V2.25C1.5 2.08424 1.56585 1.92527 1.68306 1.80806C1.80027 1.69085 1.95924 1.625 2.125 1.625H10.875C11.0408 1.625 11.1997 1.69085 11.3169 1.80806C11.4342 1.92527 11.5 2.08424 11.5 2.25V7.25Z" fill="#FB4D4D"/>
</svg>
