<svg width="15" height="12" viewBox="0 0 15 12" fill="none" xmlns="http://www.w3.org/2000/svg">
<path d="M0.431641 2.87314C2.43107 1.25334 4.92717 0.371206 7.50039 0.375012C10.1785 0.375012 12.6379 1.31064 14.5691 2.87314L13.7841 3.84564C12.0068 2.40568 9.78785 1.62154 7.50039 1.62501C5.11977 1.62501 2.93414 2.45626 1.21664 3.84564L0.431641 2.87314ZM2.39477 5.30439C3.83889 4.13439 5.64179 3.49722 7.50039 3.50001C9.43414 3.50001 11.2104 4.17564 12.606 5.30376L11.8204 6.27626C10.5984 5.28647 9.07294 4.74752 7.50039 4.75001C5.86414 4.75001 4.36102 5.32189 3.18039 6.27626L2.39477 5.30376V5.30439ZM4.35852 7.73564C5.24717 7.01557 6.35663 6.62339 7.50039 6.62501C8.69039 6.62501 9.78352 7.04064 10.6423 7.73501L9.85664 8.70751C9.19014 8.16765 8.35811 7.87368 7.50039 7.87501C6.60789 7.87501 5.78789 8.18689 5.14414 8.70751L4.35852 7.73501V7.73564ZM6.32227 10.1669C6.65542 9.89671 7.07145 9.7495 7.50039 9.75001C7.94664 9.75001 8.35664 9.90626 8.67852 10.1663L7.50039 11.625L6.32227 10.1663V10.1669Z" fill="#FB4D4D"/>
</svg>
