<svg width="17" height="15" viewBox="0 0 17 15" fill="none" xmlns="http://www.w3.org/2000/svg">
<path d="M1.14967 0.111115H15.8497C16.0663 0.111115 16.274 0.197611 16.4271 0.351576C16.5803 0.505541 16.6663 0.714363 16.6663 0.932102V14.0679C16.6663 14.2856 16.5803 14.4945 16.4271 14.6484C16.274 14.8024 16.0663 14.8889 15.8497 14.8889H1.14967C0.933081 14.8889 0.725359 14.8024 0.572204 14.6484C0.419049 14.4945 0.333008 14.2856 0.333008 14.0679V0.932102C0.333008 0.714363 0.419049 0.505541 0.572204 0.351576C0.725359 0.197611 0.933081 0.111115 1.14967 0.111115ZM8.54867 7.23975L3.31221 2.76947L2.25462 4.02066L8.55929 9.40223L14.7504 4.01655L13.6822 2.7744L8.54949 7.23975H8.54867Z" fill="url(#paint0_linear)"/>
<defs>
<linearGradient id="paint0_linear" x1="8.49967" y1="0.111115" x2="8.49967" y2="14.8889" gradientUnits="userSpaceOnUse">
<stop stop-color="#DD0000"/>
<stop offset="1" stop-color="#840000"/>
</linearGradient>
</defs>
</svg>
