<svg width="17" height="17" viewBox="0 0 17 17" fill="none" xmlns="http://www.w3.org/2000/svg">
<path d="M0 3.64287C0.000114795 2.98169 0.180141 2.333 0.520798 1.76632C0.861455 1.19965 1.34991 0.736351 1.93378 0.426082C2.51765 0.115812 3.17495 -0.0297343 3.83523 0.00504497C4.49551 0.0398242 5.13388 0.253613 5.68192 0.623505L6.59305 5.77804L3.70904 7.28727C4.22867 8.65668 5.03289 9.9003 6.0686 10.936C7.1043 11.9717 8.34794 12.7759 9.71738 13.2955L11.2231 10.4089L16.3777 11.32C16.7472 11.8681 16.9606 12.5065 16.995 13.1666C17.0295 13.8268 16.8837 14.4838 16.5733 15.0675C16.2628 15.6511 15.7995 16.1393 15.2328 16.4797C14.6661 16.8201 14.0175 17 13.3565 17C9.81439 16.9986 6.41782 15.5908 3.91328 13.0862C1.40874 10.5815 0.00118833 7.18488 0 3.64287Z" fill="url(#paint0_linear)"/>
<defs>
<linearGradient id="paint0_linear" x1="8.5" y1="0" x2="8.5" y2="17" gradientUnits="userSpaceOnUse">
<stop stop-color="#DD0000"/>
<stop offset="1" stop-color="#840000"/>
</linearGradient>
</defs>
</svg>
