<svg width="143" height="35" viewBox="0 0 143 35" fill="none" xmlns="http://www.w3.org/2000/svg">
<g clip-path="url(#clip0)">
<path d="M60.1202 5.41333C60.7901 5.39509 61.457 5.51338 62.0829 5.76149C62.5815 5.96442 63.0311 6.27795 63.4002 6.68006C63.7348 7.05351 63.9874 7.49762 64.1404 7.98182C64.2959 8.47112 64.3745 8.98307 64.3733 9.49818C64.3731 10.0101 64.2945 10.5187 64.1404 11.005C63.9891 11.4927 63.7364 11.9402 63.4002 12.3159C63.031 12.718 62.5814 13.0316 62.0829 13.2349C61.4569 13.4826 60.7901 13.6007 60.1202 13.5827H57.2795V18.1489H54.5762V5.41408L60.1202 5.41333ZM59.38 11.4065C59.6799 11.4073 59.9793 11.3833 60.2756 11.3349C60.5429 11.2943 60.8001 11.2005 61.033 11.0587C61.2548 10.9173 61.436 10.7171 61.558 10.4788C61.7015 10.174 61.7694 9.83697 61.7556 9.49818C61.7694 9.15914 61.7015 8.82186 61.558 8.51682C61.4362 8.2785 61.2549 8.07838 61.033 7.9373C60.8002 7.79511 60.543 7.70115 60.2756 7.66065C59.9793 7.61238 59.6799 7.5886 59.38 7.5895H57.2795V11.4061L59.38 11.4065Z" fill="white"/>
<path d="M72.6892 5.41307C73.1983 5.40507 73.7041 5.499 74.1788 5.6897C74.6023 5.86176 74.9885 6.11929 75.315 6.44731C75.6275 6.76339 75.8737 7.14279 76.0383 7.56184C76.207 7.9955 76.292 8.45922 76.2885 8.92676C76.3054 9.60513 76.1478 10.276 75.8319 10.8704C75.4884 11.4511 74.9628 11.8919 74.343 12.1189V12.1551C74.6466 12.2347 74.9291 12.384 75.1695 12.5919C75.3872 12.7877 75.5681 13.0235 75.7029 13.2875C75.8443 13.5651 75.9459 13.8624 76.0045 14.1703C76.0673 14.4882 76.1104 14.8098 76.1338 15.1334C76.1451 15.3363 76.1567 15.5743 76.1687 15.8472C76.1801 16.1208 76.1999 16.3997 76.229 16.6844C76.2554 16.9581 76.3013 17.2294 76.3664 17.496C76.4198 17.7299 76.5163 17.9508 76.6507 18.1467H73.947C73.7857 17.6817 73.6928 17.1943 73.6715 16.7007C73.6372 16.1426 73.5855 15.6075 73.5165 15.0953C73.4774 14.5555 73.2723 14.0429 72.9313 13.6326C72.5215 13.2843 71.9956 13.1176 71.4678 13.1688H68.7645V18.1478H66.0615V5.41307H72.6892ZM71.7253 11.1741C72.2255 11.2138 72.7223 11.0616 73.1212 10.7464C73.2901 10.5624 73.419 10.343 73.4991 10.103C73.5793 9.86301 73.6089 9.60804 73.5859 9.35522C73.6076 9.10926 73.5773 8.86136 73.497 8.62878C73.4167 8.39621 73.2885 8.18456 73.1212 8.00857C72.7198 7.69926 72.2241 7.55061 71.7253 7.59H68.7634V11.1745L71.7253 11.1741Z" fill="white"/>
<path d="M78.3712 9.18546C78.6297 8.40189 79.0332 7.67807 79.5592 7.05457C80.0854 6.44087 80.7347 5.95373 81.4617 5.62725C82.264 5.27205 83.1295 5.09585 84.0019 5.11012C84.8771 5.09418 85.7456 5.27043 86.5502 5.62725C87.2738 5.95534 87.9199 6.44235 88.4439 7.05457C88.9704 7.6779 89.3742 8.40174 89.6327 9.18546C89.914 10.0377 90.0536 10.9332 90.0456 11.8339C90.0528 12.7171 89.9131 13.5949 89.6327 14.429C89.3739 15.2021 88.9699 15.9144 88.4439 16.5249C87.9172 17.1271 87.2713 17.6046 86.5502 17.9248C85.7442 18.276 84.8763 18.4491 84.0019 18.4332C83.1304 18.4475 82.2654 18.2744 81.4617 17.9248C80.7373 17.6062 80.0882 17.1286 79.5592 16.5249C79.0337 15.9143 78.6299 15.2019 78.3712 14.429C78.0908 13.5949 77.9511 12.7171 77.9583 11.8339C77.9503 10.9332 78.0899 10.0377 78.3712 9.18546ZM80.8424 13.3944C80.9544 13.8812 81.1498 14.3434 81.4191 14.7589C81.6833 15.164 82.0376 15.4974 82.4521 15.7311C82.9301 15.9879 83.4637 16.1137 84.0019 16.0964C84.5402 16.1136 85.0737 15.9879 85.5518 15.7311C85.9662 15.4972 86.3204 15.1639 86.5848 14.7589C86.8539 14.3433 87.0493 13.8812 87.1615 13.3944C87.2827 12.8838 87.3435 12.36 87.3426 11.8342C87.3438 11.2878 87.283 10.7431 87.1615 10.2113C87.0514 9.71281 86.8561 9.2387 86.5848 8.81141C86.322 8.40266 85.9676 8.06595 85.5518 7.83007C85.0736 7.57355 84.5402 7.4478 84.0019 7.46476C83.4637 7.44772 82.9302 7.57347 82.4521 7.83007C82.0362 8.06581 81.6817 8.40255 81.4191 8.81141C81.1476 9.2386 80.9523 9.71275 80.8424 10.2113C80.7207 10.7431 80.6599 11.2878 80.6613 11.8342C80.6602 12.36 80.721 12.8839 80.8424 13.3944V13.3944Z" fill="white"/>
<path d="M97.4317 5.41332C98.1018 5.39511 98.7688 5.5134 99.3948 5.76149C99.8933 5.96453 100.343 6.27804 100.712 6.68006C101.046 7.05377 101.299 7.4978 101.452 7.98182C101.607 8.4712 101.686 8.98311 101.685 9.49817C101.685 10.01 101.606 10.5186 101.452 11.005C101.301 11.4926 101.048 11.9399 100.712 12.3159C100.343 12.7179 99.8932 13.0315 99.3948 13.2349C98.7687 13.4826 98.1017 13.6007 97.4317 13.5827H94.5906V18.1489H91.8877V5.41408L97.4317 5.41332ZM96.6915 11.4065C96.9914 11.4073 97.2909 11.3833 97.5871 11.3349C97.8544 11.2943 98.1116 11.2005 98.3446 11.0587C98.5667 10.9175 98.7482 10.7172 98.8702 10.4788C99.0137 10.174 99.0817 9.83697 99.0679 9.49817C99.0817 9.15913 99.0138 8.82186 98.8702 8.51682C98.7483 8.27832 98.5668 8.07817 98.3446 7.93729C98.1118 7.7951 97.8545 7.70114 97.5871 7.66065C97.2909 7.61238 96.9914 7.58859 96.6915 7.5895H94.591V11.4061L96.6915 11.4065Z" fill="white"/>
<path d="M111.259 8.81124C111.098 8.54287 110.894 8.3046 110.656 8.10651C110.411 7.90234 110.135 7.74244 109.839 7.63354C109.532 7.52047 109.209 7.46318 108.884 7.46421C108.345 7.44716 107.812 7.57291 107.334 7.8295C106.918 8.06526 106.563 8.402 106.3 8.81086C106.029 9.23826 105.834 9.71232 105.724 10.2108C105.602 10.7426 105.542 11.2873 105.543 11.8337C105.542 12.3594 105.603 12.8833 105.724 13.3938C105.836 13.8805 106.031 14.3426 106.3 14.7583C106.565 15.1634 106.919 15.4968 107.334 15.7306C107.812 15.9874 108.345 16.1132 108.884 16.0959C109.242 16.1167 109.6 16.0574 109.934 15.922C110.269 15.7867 110.571 15.5783 110.82 15.3112C111.309 14.7325 111.607 14.0081 111.672 13.2424H114.29C114.233 13.9883 114.053 14.7185 113.756 15.4007C113.485 16.0197 113.099 16.5773 112.619 17.0415C112.141 17.4982 111.579 17.8501 110.966 18.0761C110.298 18.3204 109.593 18.4413 108.884 18.433C108.012 18.4474 107.147 18.2743 106.343 17.9246C105.619 17.6061 104.97 17.1285 104.441 16.5247C103.915 15.9142 103.511 15.2019 103.253 14.4288C102.972 13.5948 102.832 12.7169 102.839 11.8337C102.831 10.933 102.971 10.0375 103.253 9.18529C103.511 8.40162 103.915 7.67776 104.441 7.05439C104.967 6.44059 105.616 5.95343 106.343 5.62707C107.146 5.27181 108.011 5.09561 108.884 5.10994C109.535 5.10646 110.183 5.20919 110.803 5.41436C111.389 5.60758 111.937 5.90643 112.422 6.29715C112.903 6.68994 113.304 7.17814 113.601 7.73323C113.922 8.3396 114.121 9.0068 114.186 9.6948H111.569C111.526 9.38116 111.42 9.08026 111.259 8.81124Z" fill="white"/>
<path d="M116.011 9.18547C116.269 8.40175 116.673 7.6779 117.2 7.05458C117.726 6.44067 118.375 5.95349 119.102 5.62726C119.904 5.272 120.769 5.09579 121.642 5.11013C122.517 5.09413 123.385 5.27038 124.19 5.62726C124.914 5.95535 125.56 6.44235 126.084 7.05458C126.61 7.67808 127.013 8.40189 127.272 9.18547C127.553 10.0377 127.693 10.9332 127.685 11.8339C127.692 12.7171 127.552 13.5949 127.272 14.429C127.013 15.2019 126.609 15.9143 126.084 16.5249C125.557 17.1271 124.911 17.6046 124.19 17.9248C123.384 18.2761 122.516 18.4492 121.642 18.4332C120.77 18.4475 119.906 18.2744 119.102 17.9248C118.378 17.6064 117.728 17.1288 117.2 16.5249C116.674 15.9145 116.27 15.2021 116.011 14.429C115.73 13.5949 115.591 12.7171 115.598 11.8339C115.59 10.9332 115.73 10.0377 116.011 9.18547V9.18547ZM118.482 13.3944C118.594 13.8812 118.79 14.3433 119.059 14.7589C119.323 15.164 119.677 15.4974 120.092 15.7311C120.57 15.9879 121.103 16.1136 121.642 16.0964C122.18 16.1136 122.713 15.9879 123.191 15.7311C123.606 15.4971 123.96 15.1637 124.225 14.7589C124.494 14.3431 124.689 13.8811 124.801 13.3944C124.923 12.8839 124.983 12.36 124.982 11.8342C124.984 11.2878 124.923 10.7431 124.801 10.2113C124.691 9.71292 124.496 9.23885 124.225 8.81142C123.962 8.40274 123.607 8.06605 123.191 7.83007C122.713 7.57356 122.18 7.44781 121.642 7.46477C121.103 7.44781 120.57 7.57356 120.092 7.83007C119.676 8.06582 119.321 8.40256 119.059 8.81142C118.787 9.23871 118.592 9.71282 118.482 10.2113C118.361 10.7431 118.3 11.2878 118.301 11.8342C118.3 12.36 118.361 12.8839 118.482 13.3944H118.482Z" fill="white"/>
<path d="M133.333 5.41333L136.209 14.1709H136.244L138.962 5.41333H142.768V18.1481H140.236V9.12299H140.202L137.19 18.1481H135.106L132.094 9.21279H132.059V18.1481H129.528V5.41333H133.333Z" fill="white"/>
<path d="M47.061 33.7304L46.7455 33.9546C46.2091 34.3426 45.6041 34.6173 44.9651 34.7628C44.3261 34.9084 43.6656 34.922 43.0216 34.8029C42.3775 34.6838 41.7624 34.4343 41.2115 34.0687C40.6606 33.7031 40.1847 33.2286 39.8111 32.6722L38.5922 30.8613L36.153 27.2369C35.5487 26.3385 34.9353 25.4485 34.3479 24.5383C34.1639 24.2207 33.91 23.9527 33.6069 23.7563C33.3199 23.6128 33.0003 23.5535 32.683 23.5848C32.3657 23.616 32.0627 23.7367 31.8069 23.9336C31.6236 24.0439 31.4647 24.1928 31.3403 24.3705C31.2159 24.5483 31.1289 24.7511 31.0847 24.9658C31.0405 25.1806 31.0403 25.4025 31.084 25.6174C31.1276 25.8322 31.2142 26.0352 31.3382 26.2133C31.9438 27.1242 32.3237 28.1754 32.4446 29.2742C32.4894 30.1714 32.3171 31.066 31.9433 31.8767C31.5696 32.6874 31.0062 33.3886 30.3045 33.9165C29.6189 34.4377 28.8206 34.7773 27.9792 34.9055C27.1378 35.0337 26.279 34.9467 25.4775 34.6521C24.0853 34.1037 23.0611 32.9291 22.2449 31.6806C21.3441 30.3054 20.4816 28.9359 19.5632 27.568C18.9784 26.6966 18.3931 25.8257 17.8073 24.9553L16.9991 23.7529C16.7096 23.3812 16.4456 22.9889 16.209 22.579C15.9822 22.1755 15.6616 21.8372 15.2763 21.595C15.0633 21.4944 14.8314 21.4441 14.5973 21.4477C14.3633 21.4513 14.133 21.5088 13.923 21.6159C13.5877 21.7589 13.3035 22.0062 13.1098 22.3236C12.916 22.641 12.8221 23.0129 12.8411 23.388C12.9344 24.1315 13.4748 24.7278 13.8726 25.3187L14.7194 26.5767C15.3248 27.474 15.6492 28.5425 15.6488 29.6372C15.6496 30.5014 15.4488 31.353 15.0634 32.1195C14.6779 32.8859 14.1193 33.5445 13.4351 34.039C12.3091 34.8512 10.9178 35.1671 9.56702 34.9174C8.21623 34.6677 7.01639 33.8728 6.23108 32.7072L0.93135 24.8305C0.325891 23.9346 0.00139528 22.8674 0.00196046 21.7738C0.000554203 20.9091 0.201508 20.057 0.587611 19.2904C0.973715 18.5238 1.53346 17.8655 2.21891 17.372C3.07355 16.7629 4.08394 16.4313 5.12125 16.4195C6.15856 16.4076 7.17578 16.716 8.0432 17.3054C8.50559 17.631 8.9164 18.0289 9.26095 18.485C9.41814 18.7084 9.62116 18.893 9.8554 19.0254C10.0897 19.1579 10.3493 19.2349 10.6157 19.251C10.8912 19.2585 11.1644 19.1986 11.4133 19.0762C11.6623 18.9539 11.8798 18.7724 12.0484 18.5467C12.2128 18.318 12.3228 18.0524 12.3696 17.7714C12.4164 17.4904 12.3986 17.202 12.3177 16.9295C12.1884 16.6116 12.0251 16.3097 11.8309 16.0295C11.7091 15.7983 11.6072 15.5563 11.5264 15.3066C10.7502 13.071 11.6619 10.5881 13.4976 9.22664C14.9563 8.14483 16.9811 7.77686 18.5835 8.61362C19.4627 9.13381 20.2224 9.84554 20.81 10.6996C22.9428 13.4922 24.7909 16.5729 26.761 19.4941C27.1651 20.0957 27.6059 21.0067 28.2903 21.2715C28.4253 21.3238 28.5666 21.3565 28.7102 21.3686C29.1999 21.3974 29.6809 21.2252 30.0488 20.8891C30.2988 20.672 30.4857 20.3874 30.5888 20.0668C30.8922 19.0664 30.0598 18.1768 29.5437 17.41L27.7554 14.7518L25.6891 11.6806L24.0283 9.21219L23.4442 8.34384C22.6886 7.22066 22.3946 5.83263 22.6267 4.48492C22.8589 3.13722 23.5982 1.94019 24.6822 1.15701L24.9945 0.932879C25.5312 0.54479 26.1365 0.270096 26.7758 0.1245C27.415 -0.0210957 28.0757 -0.0347291 28.7201 0.0843675C29.3645 0.203464 29.9799 0.452959 30.5311 0.818589C31.0823 1.18422 31.5585 1.65882 31.9326 2.21523L48.3027 26.5467C49.0571 27.67 49.35 29.0577 49.1172 30.4047C48.8844 31.7518 48.1448 32.948 47.061 33.7304V33.7304Z" fill="white"/>
<path d="M57.2467 30.9053L55.4467 28.484L54.7487 29.3722V30.9057H54.208V25.3177H54.7487V28.5278H54.7631L57.232 25.3177H57.9223L55.7876 28.0453L57.9223 30.9053H57.2467Z" fill="white"/>
<path d="M62.3522 29.0328H58.7232C58.7328 29.234 58.7817 29.431 58.8667 29.6122C58.9517 29.7933 59.0712 29.9548 59.218 30.0868C59.5 30.3706 59.8777 30.5292 60.2708 30.529C60.5761 30.5315 60.8754 30.4418 61.1323 30.271C61.393 30.1038 61.5921 29.8508 61.6976 29.5526H62.2387C62.0975 29.9767 61.8311 30.3441 61.4772 30.6028C61.1294 30.8664 60.7091 31.0073 60.2782 31.0047C60.0036 31.0087 59.7311 30.9542 59.4776 30.8445C59.2242 30.7348 58.9953 30.5722 58.8051 30.3669C58.6097 30.1692 58.4552 29.9322 58.3512 29.6705C58.2473 29.4088 58.196 29.1278 58.2005 28.8448C58.1968 28.5609 58.2485 28.279 58.3524 28.0162C58.4563 27.7534 58.6102 27.5149 58.8051 27.3152C58.9932 27.1086 59.2205 26.9446 59.4728 26.8336C59.725 26.7226 59.9968 26.667 60.2708 26.6702C60.5485 26.6664 60.8238 26.7232 61.0789 26.8368C61.3339 26.9505 61.563 27.1185 61.7512 27.33C61.9474 27.5336 62.1022 27.7758 62.2067 28.0422C62.3112 28.3087 62.3631 28.5942 62.3596 28.8817L62.3522 29.0328ZM61.8379 28.5572C61.7807 28.1667 61.5932 27.8093 61.3079 27.5473C61.0269 27.2827 60.659 27.1391 60.2793 27.1458C59.8997 27.1399 59.5321 27.2834 59.2507 27.5473C58.9657 27.8091 58.7792 28.1668 58.7239 28.5572H61.8379ZM60.9343 26.0808L60.3098 25.5317L59.6691 26.0808H59.0039L60.0603 25.1375H60.5408L61.5834 26.0808H60.9343ZM61.2046 25.5279L60.9662 25.0926L62.4139 24.2672L62.649 24.7204L61.2046 25.5279Z" fill="white"/>
<path d="M64.1093 27.2527V30.9057H63.6005V27.2527H62.7607V26.777H63.6005V25.3177H64.1093V26.777H65.0644V27.2527H64.1093Z" fill="white"/>
<path d="M70.6177 30.9051V28.6361C70.6197 28.4288 70.5908 28.2224 70.5321 28.0242C70.4803 27.8259 70.3789 27.6453 70.2382 27.5006C70.0064 27.269 69.6955 27.1418 69.3735 27.1471C69.0504 27.1414 68.7383 27.2685 68.5054 27.5006C68.3676 27.6414 68.2672 27.8166 68.2137 28.0094C68.1581 28.1993 68.1306 28.3969 68.1322 28.5954V30.9062H67.623V26.7772H68.1322V27.3043H68.1465C68.2782 27.0951 68.4614 26.9262 68.6771 26.8148C68.8928 26.7033 69.1333 26.6535 69.3738 26.6703C69.6174 26.6566 69.8609 26.6991 70.0868 26.7947C70.3126 26.8903 70.5151 27.0367 70.6797 27.2232C70.9927 27.6199 71.1524 28.1228 71.1279 28.6345V30.9051H70.6177Z" fill="white"/>
<path d="M75.4494 30.3631C75.2595 30.5689 75.0307 30.7321 74.7773 30.8425C74.5239 30.9529 74.2513 31.0081 73.9764 31.0046C73.7044 31.0073 73.4348 30.9524 73.1841 30.8434C72.9333 30.7344 72.7067 30.5736 72.518 30.3707C72.3204 30.1777 72.1634 29.9445 72.0568 29.6857C71.9502 29.427 71.8964 29.1482 71.8987 28.8669C71.8946 28.5807 71.946 28.2967 72.0499 28.0315C72.1538 27.7663 72.3079 27.5254 72.5033 27.3231C72.6911 27.1136 72.9192 26.9473 73.173 26.8349C73.4267 26.7225 73.7004 26.6665 73.9764 26.6705C74.2506 26.6679 74.5224 26.7234 74.7751 26.8336C75.0278 26.9439 75.256 27.1066 75.4458 27.3117C75.644 27.5088 75.8012 27.7459 75.9077 28.0083C76.0141 28.2707 76.0676 28.5529 76.0647 28.8376C76.0683 29.1219 76.0155 29.404 75.9097 29.6663C75.8038 29.9287 75.6472 30.1658 75.4494 30.3631V30.3631ZM75.0975 27.6431C74.9559 27.484 74.7835 27.3575 74.5916 27.2718C74.3998 27.1862 74.1927 27.1432 73.9837 27.1458C73.7709 27.1424 73.5598 27.1867 73.3651 27.2758C73.1704 27.3648 72.9965 27.4965 72.8556 27.6618C72.5609 27.9851 72.4 28.415 72.4074 28.8596C72.4048 29.0768 72.4441 29.2923 72.5229 29.4936C72.6018 29.6948 72.7186 29.8778 72.8666 30.0316C73.0087 30.1911 73.1816 30.3178 73.3741 30.4035C73.5665 30.4893 73.7742 30.5322 73.9837 30.5293C74.1965 30.5338 74.4077 30.4907 74.6029 30.4029C74.7981 30.3151 74.9727 30.1847 75.1148 30.0206C75.4073 29.6935 75.5654 29.2613 75.5556 28.8155C75.5583 28.5983 75.5192 28.3828 75.4405 28.1815C75.3619 27.9802 75.2453 27.7972 75.0975 27.6431V27.6431ZM74.6244 26.0807L73.9999 25.5316L73.3592 26.0807H72.694L73.7505 25.1374H74.2309L75.2735 26.0807H74.6244ZM74.9623 25.5643L74.7236 25.1294L76.1716 24.3041L76.4064 24.7573L74.9623 25.5643Z" fill="white"/>
<path d="M76.8369 26.2721V25.3177H77.3457V26.2721H76.8369ZM76.8369 30.9049V26.777H77.3457V30.9053L76.8369 30.9049Z" fill="white"/>
<path d="M85.6778 30.9052V28.5132C85.6946 28.1752 85.6088 27.8401 85.4325 27.5551C85.3367 27.4196 85.2096 27.3111 85.0629 27.2396C84.9162 27.1682 84.7545 27.136 84.5927 27.146C84.4313 27.1357 84.2701 27.1678 84.1239 27.2393C83.9778 27.3108 83.8514 27.4195 83.7566 27.5551C83.5782 27.8393 83.4911 28.1747 83.5079 28.5132V30.9052H82.9988V28.5132C83.0156 28.1746 82.9284 27.8392 82.7497 27.5551C82.655 27.4195 82.5287 27.3109 82.3826 27.2394C82.2365 27.1678 82.0753 27.1357 81.914 27.146C81.7521 27.1354 81.5902 27.1674 81.4434 27.2389C81.2966 27.3104 81.1696 27.4192 81.0742 27.5551C80.8955 27.8392 80.8083 28.1746 80.8252 28.5132V30.9052H80.3164V26.7773H80.8252V27.253C80.9394 27.0635 81.1008 26.9095 81.2924 26.807C81.484 26.7046 81.6988 26.6575 81.914 26.6708C82.1868 26.6563 82.4579 26.7233 82.695 26.8638C82.9322 27.0043 83.1253 27.2124 83.2515 27.4634C83.385 27.218 83.5803 27.0146 83.8166 26.8751C84.0528 26.7355 84.3212 26.6649 84.5931 26.6708C84.8143 26.6599 85.0351 26.7003 85.2394 26.7889C85.4437 26.8776 85.6264 27.0123 85.7741 27.1833C86.0617 27.5366 86.2105 27.9891 86.1907 28.4508V30.9056L85.6778 30.9052Z" fill="white"/>
<path d="M90.5276 30.363C90.3376 30.5689 90.1089 30.7321 89.8554 30.8424C89.602 30.9528 89.3294 31.008 89.0545 31.0045C88.7825 31.0072 88.5129 30.9524 88.262 30.8433C88.0112 30.7343 87.7845 30.5735 87.5958 30.3706C87.3982 30.1776 87.2413 29.9444 87.1347 29.6856C87.0282 29.4268 86.9745 29.1481 86.9768 28.8668C86.9727 28.5806 87.024 28.2965 87.1279 28.0314C87.2318 27.7662 87.386 27.5253 87.5814 27.323C87.7692 27.1135 87.9973 26.9471 88.2511 26.8346C88.5048 26.7221 88.7785 26.666 89.0545 26.6701C89.3287 26.6673 89.6006 26.7228 89.8533 26.8331C90.106 26.9434 90.3342 27.1061 90.5239 27.3112C90.7223 27.5083 90.8796 27.7453 90.9861 28.0077C91.0926 28.2702 91.1461 28.5524 91.1432 28.8371C91.1468 29.1215 91.094 29.4037 90.9881 29.6661C90.8822 29.9286 90.7254 30.1658 90.5276 30.363V30.363ZM90.1753 27.643C90.0337 27.4839 89.8615 27.3574 89.6696 27.2717C89.4778 27.186 89.2707 27.1431 89.0619 27.1457C88.849 27.1423 88.638 27.1866 88.4432 27.2757C88.2485 27.3648 88.0747 27.4964 87.9337 27.6617C87.639 27.985 87.4782 28.4149 87.4856 28.8596C87.4829 29.0767 87.5221 29.2922 87.6009 29.4935C87.6796 29.6947 87.7964 29.8777 87.9444 30.0315C88.0866 30.191 88.2595 30.3177 88.452 30.4035C88.6445 30.4892 88.8523 30.5321 89.0619 30.5293C89.2747 30.5338 89.4859 30.4907 89.6812 30.4029C89.8765 30.3151 90.0511 30.1846 90.1933 30.0205C90.4856 29.6933 90.6437 29.2611 90.6341 28.8154C90.6367 28.5983 90.5975 28.3828 90.5187 28.1815C90.4399 27.9803 90.3232 27.7973 90.1753 27.6434V27.643ZM89.7025 26.0806L89.078 25.5315L88.4374 26.0806H87.7721L88.8286 25.1373H89.3091L90.3516 26.0806H89.7025Z" fill="white"/>
<path d="M91.916 26.2721V25.3177H92.4248V26.2721H91.916ZM91.916 30.9049V26.777H92.4248V30.9053L91.916 30.9049Z" fill="white"/>
<path d="M99.3271 30.2563C99.3271 30.4136 99.3234 30.5476 99.3161 30.6582C99.3082 30.788 99.2927 30.9172 99.2698 31.0451C99.2216 31.3055 99.117 31.5512 98.9638 31.7636C98.7798 32.0146 98.5394 32.2152 98.2636 32.3482C97.9877 32.4811 97.6847 32.5424 97.3809 32.5265C96.9273 32.5374 96.4819 32.4007 96.1073 32.1357C95.7316 31.8667 95.4604 31.4682 95.3421 31.0113H95.8828C95.9863 31.3302 96.1885 31.605 96.458 31.7928C96.7275 31.9807 97.0493 32.0713 97.3735 32.0505C97.5691 32.0608 97.7645 32.0284 97.9471 31.9553C98.1298 31.8823 98.2956 31.7703 98.4337 31.6266C98.5652 31.4763 98.6668 31.3006 98.7327 31.1097C98.7987 30.9187 98.8276 30.7161 98.8179 30.5136V30.1486H98.8036C98.6586 30.4291 98.4304 30.6539 98.1527 30.7898C97.8781 30.9335 97.5742 31.0068 97.2666 31.0037C96.9931 31.0091 96.7214 30.9567 96.4681 30.8496C96.2148 30.7425 95.9853 30.583 95.7936 30.3808C95.596 30.1843 95.4396 29.9478 95.3344 29.6859C95.2291 29.4239 95.1772 29.1423 95.1819 28.8587C95.1774 28.5724 95.2286 28.2882 95.3325 28.0229C95.4364 27.7576 95.5908 27.5167 95.7866 27.3145C95.9766 27.1065 96.2063 26.9417 96.4611 26.8307C96.7159 26.7196 96.9902 26.6648 97.2666 26.6696C97.5722 26.6556 97.8759 26.7266 98.1461 26.875C98.4163 27.0235 98.6433 27.2441 98.8036 27.5139H98.8179V26.7773H99.3271V30.2563ZM98.3911 27.6547C98.2494 27.4919 98.0758 27.3623 97.8819 27.2745C97.688 27.1868 97.4782 27.143 97.2666 27.146C97.055 27.1425 96.8451 27.1861 96.6511 27.2739C96.4571 27.3617 96.2836 27.4915 96.1422 27.6547C95.995 27.8126 95.8794 27.999 95.8018 28.2032C95.7243 28.4075 95.6864 28.6256 95.6903 28.845C95.6866 29.0628 95.7247 29.2792 95.8022 29.4817C95.8798 29.6841 95.9953 29.8687 96.1422 30.0246C96.2841 30.1868 96.4578 30.3158 96.6518 30.4028C96.8457 30.4899 97.0553 30.5331 97.2666 30.5295C97.4772 30.5319 97.686 30.4881 97.8791 30.4011C98.0722 30.3141 98.2455 30.1858 98.3874 30.0246C98.5359 29.8695 98.653 29.6853 98.7318 29.4828C98.8107 29.2802 98.8497 29.0634 98.8466 28.845C98.853 28.4014 98.6892 27.9733 98.3911 27.6547V27.6547Z" fill="white"/>
<path d="M100.291 26.2721V25.3177H100.8V26.2721H100.291ZM100.291 30.9049V26.777H100.8V30.9053L100.291 30.9049Z" fill="white"/>
<path d="M105.169 27.3592C105.355 27.554 105.501 27.7848 105.6 28.0385C105.699 28.2921 105.749 28.5636 105.746 28.8371C105.749 29.1216 105.697 29.4037 105.591 29.6662C105.485 29.9286 105.328 30.1658 105.13 30.363C104.94 30.5689 104.711 30.7321 104.458 30.8425C104.205 30.9528 103.932 31.008 103.657 31.0046C103.385 31.0072 103.115 30.9524 102.865 30.8434C102.614 30.7344 102.387 30.5735 102.198 30.3706C102.001 30.1775 101.844 29.9443 101.737 29.6856C101.631 29.4268 101.577 29.1481 101.579 28.8668C101.575 28.5807 101.627 28.2966 101.73 28.0314C101.834 27.7662 101.989 27.5253 102.184 27.323C102.372 27.1137 102.6 26.9475 102.854 26.8353C103.107 26.723 103.381 26.6671 103.657 26.6712C104.085 26.6654 104.503 26.8037 104.849 27.0654C104.882 27.0479 104.91 27.035 104.931 27.0251C105 26.9856 105.066 26.9387 105.126 26.8851C105.167 26.8539 105.2 26.8147 105.226 26.7697C105.251 26.7247 105.267 26.6749 105.273 26.6233H105.056V25.9589H105.681V26.6438C105.669 26.748 105.641 26.8494 105.597 26.9441C105.561 27.0191 105.513 27.0872 105.455 27.145C105.409 27.1908 105.36 27.2326 105.308 27.2702C105.273 27.2953 105.226 27.3253 105.169 27.3592ZM104.778 27.6431C104.636 27.4839 104.464 27.3574 104.272 27.2717C104.08 27.1861 103.873 27.1431 103.664 27.1457C103.452 27.1423 103.241 27.1865 103.046 27.2753C102.852 27.3642 102.678 27.4956 102.537 27.6606C102.242 27.9839 102.081 28.4138 102.089 28.8584C102.086 29.0756 102.125 29.2911 102.204 29.4923C102.283 29.6936 102.4 29.8765 102.548 30.0304C102.69 30.1899 102.863 30.3166 103.055 30.4023C103.248 30.4881 103.456 30.5309 103.665 30.5281C103.878 30.5327 104.089 30.4895 104.284 30.4017C104.48 30.3139 104.654 30.1835 104.797 30.0194C105.089 29.6922 105.247 29.26 105.237 28.8143C105.24 28.5972 105.2 28.3818 105.122 28.1807C105.043 27.9796 104.926 27.7968 104.778 27.6431V27.6431ZM103.319 26.2317L103.081 25.7968L104.529 24.9711L104.763 25.4243L103.319 26.2317Z" fill="white"/>
<path d="M106.518 26.2721V25.3177H107.026V26.2721H106.518ZM106.518 30.9049V26.777H107.026V30.9053L106.518 30.9049Z" fill="white"/>
<path d="M113.607 30.3817C113.407 30.5856 113.17 30.7458 112.909 30.8528C112.648 30.9598 112.368 31.0114 112.088 31.0046C111.782 31.0173 111.478 30.948 111.206 30.8034C110.933 30.6587 110.701 30.4436 110.533 30.1789H110.519V30.9049H110.01V25.3177H110.519V27.4996H110.533C110.702 27.2354 110.934 27.0203 111.206 26.8748C111.478 26.7294 111.782 26.6584 112.088 26.6686C112.366 26.6624 112.643 26.7136 112.902 26.8193C113.161 26.9251 113.397 27.0831 113.596 27.2843C113.801 27.4805 113.964 27.7197 114.073 27.9859C114.182 28.2521 114.236 28.5392 114.23 28.8284C114.237 29.118 114.185 29.406 114.078 29.6735C113.97 29.9411 113.81 30.1824 113.607 30.3817V30.3817ZM113.259 27.6324C113.106 27.4722 112.924 27.3462 112.722 27.2625C112.521 27.1788 112.305 27.1392 112.088 27.1461C111.874 27.1424 111.663 27.1855 111.466 27.2725C111.27 27.3596 111.094 27.4886 110.949 27.6511C110.8 27.8087 110.683 27.9954 110.604 28.2004C110.525 28.4054 110.486 28.6245 110.49 28.8451C110.486 29.0647 110.525 29.2828 110.603 29.4866C110.682 29.6904 110.8 29.8757 110.949 30.0316C111.095 30.1923 111.271 30.3196 111.468 30.4053C111.664 30.491 111.875 30.5332 112.088 30.5293C112.303 30.536 112.517 30.4973 112.717 30.4155C112.917 30.3338 113.099 30.2106 113.251 30.0537C113.404 29.8973 113.525 29.7098 113.605 29.5031C113.685 29.2963 113.723 29.0747 113.717 28.852C113.724 28.6272 113.687 28.4034 113.608 28.1939C113.529 27.9843 113.41 27.7934 113.259 27.6324V27.6324Z" fill="white"/>
<path d="M118.91 29.0328H115.281C115.291 29.2339 115.34 29.431 115.424 29.6121C115.509 29.7932 115.629 29.9547 115.776 30.0868C116.058 30.3706 116.436 30.5292 116.829 30.529C117.134 30.5314 117.433 30.4418 117.69 30.271C117.951 30.1038 118.15 29.8508 118.256 29.5526H118.796C118.655 29.9767 118.389 30.3441 118.035 30.6028C117.687 30.8664 117.267 31.0073 116.836 31.0046C116.561 31.0086 116.289 30.9541 116.035 30.8444C115.782 30.7347 115.553 30.5721 115.363 30.3669C115.167 30.1691 115.013 29.9322 114.909 29.6704C114.805 29.4087 114.754 29.1278 114.758 28.8448C114.754 28.5608 114.806 28.279 114.91 28.0162C115.014 27.7533 115.168 27.5149 115.363 27.3151C115.551 27.1085 115.778 26.9445 116.031 26.8335C116.283 26.7225 116.555 26.6669 116.829 26.6701C117.106 26.6663 117.382 26.7231 117.637 26.8368C117.892 26.9505 118.121 27.1185 118.309 27.33C118.505 27.5336 118.66 27.7757 118.764 28.0422C118.869 28.3087 118.921 28.5941 118.917 28.8817L118.91 29.0328ZM118.396 28.5571C118.338 28.1667 118.151 27.8094 117.865 27.5472C117.585 27.2826 117.217 27.139 116.837 27.1458C116.457 27.14 116.09 27.2835 115.808 27.5472C115.523 27.8089 115.337 28.1667 115.282 28.5571H118.396ZM117.492 26.0807L116.867 25.5316L116.227 26.0807H115.561L116.618 25.1374H117.098L118.141 26.0807H117.492ZM117.741 25.2329L116.297 24.4259L116.531 23.9727L117.979 24.798L117.741 25.2329Z" fill="white"/>
<path d="M122.688 30.9051V28.6361C122.69 28.4288 122.661 28.2224 122.602 28.0242C122.55 27.8261 122.449 27.6455 122.309 27.5006C122.077 27.269 121.766 27.1418 121.444 27.1471C121.121 27.1414 120.809 27.2685 120.576 27.5006C120.438 27.6414 120.337 27.8166 120.284 28.0094C120.228 28.1993 120.201 28.3969 120.202 28.5954V30.9062H119.693V26.7772H120.202V27.3043H120.217C120.349 27.0951 120.532 26.9262 120.747 26.8148C120.963 26.7033 121.204 26.6535 121.444 26.6703C121.688 26.6566 121.931 26.6991 122.157 26.7948C122.383 26.8904 122.585 27.0367 122.75 27.2232C123.063 27.6199 123.223 28.1228 123.198 28.6345V30.9051H122.688Z" fill="white"/>
<path d="M127.974 30.9048H127.412L125.729 26.777H126.278L127.683 30.2492L129.11 26.777H129.658L127.974 30.9048Z" fill="white"/>
<path d="M133.653 27.3891V30.9055H133.172V30.2639H133.158C133.047 30.5068 132.86 30.704 132.628 30.8241C132.397 30.947 132.14 31.0091 131.881 31.0048C131.621 31.0211 131.362 30.9734 131.124 30.8657C130.886 30.758 130.676 30.5934 130.511 30.3853C130.374 30.199 130.278 29.9839 130.23 29.7552C130.182 29.5252 130.159 29.2903 130.162 29.055V26.7773H130.672V29.0478C130.648 29.4216 130.74 29.7935 130.935 30.1094C131.048 30.2536 131.193 30.3671 131.358 30.44C131.523 30.5129 131.702 30.5432 131.881 30.528C132.195 30.5366 132.499 30.4158 132.726 30.1924C132.885 30.037 133.001 29.8413 133.064 29.6247C133.122 29.4075 133.148 29.1827 133.142 28.9576V26.7773H133.651V26.899C133.657 26.8934 133.663 26.8884 133.669 26.8842C133.709 26.853 133.743 26.8138 133.768 26.7688C133.794 26.7238 133.81 26.674 133.816 26.6224H133.599V25.9591H134.224V26.6441C134.212 26.7481 134.183 26.8495 134.14 26.9443C134.104 27.0194 134.056 27.0874 133.997 27.1452C133.951 27.1918 133.901 27.2343 133.848 27.2723C133.804 27.3027 133.738 27.3427 133.654 27.3918L133.653 27.3891ZM133.354 25.6977C133.152 25.8729 132.901 25.9762 132.639 25.9926C132.536 25.9918 132.434 25.9757 132.336 25.9447C132.247 25.9143 132.159 25.8786 132.073 25.8378L131.828 25.7308C131.749 25.701 131.666 25.6848 131.583 25.6829C131.398 25.6888 131.223 25.7696 131.095 25.9078L130.838 25.5318C131.041 25.3277 131.313 25.214 131.596 25.2148C131.695 25.2157 131.795 25.2319 131.89 25.2628C131.977 25.2934 132.063 25.3291 132.147 25.3697C132.158 25.3739 132.168 25.3789 132.179 25.3846C132.189 25.3884 132.198 25.3934 132.207 25.3994L132.268 25.4249L132.389 25.4766C132.466 25.5067 132.548 25.5229 132.631 25.5246C132.716 25.5222 132.798 25.4994 132.873 25.458L133.037 25.3621L133.09 25.329L133.354 25.6977Z" fill="white"/>
<path d="M137.613 30.9051V28.636C137.615 28.4288 137.586 28.2224 137.528 28.0242C137.476 27.826 137.374 27.6454 137.234 27.5006C137.002 27.2689 136.691 27.1418 136.369 27.1471C136.046 27.1415 135.734 27.2686 135.502 27.5006C135.364 27.6414 135.263 27.8166 135.21 28.0093C135.154 28.1992 135.126 28.3968 135.128 28.5953V30.9062H134.619V26.7772H135.128V27.3042H135.142C135.274 27.0952 135.457 26.9263 135.673 26.8148C135.889 26.7034 136.129 26.6535 136.37 26.6703C136.613 26.6566 136.856 26.6992 137.082 26.7948C137.308 26.8904 137.51 27.0367 137.675 27.2232C137.988 27.6197 138.148 28.1227 138.123 28.6345V30.9051H137.613Z" fill="white"/>
<path d="M143.001 30.2563C143.001 30.4136 142.997 30.5475 142.99 30.6582C142.982 30.788 142.967 30.9172 142.944 31.0451C142.895 31.3055 142.791 31.5512 142.638 31.7636C142.454 32.0146 142.213 32.2153 141.937 32.3482C141.662 32.4812 141.359 32.5424 141.055 32.5265C140.601 32.5374 140.156 32.4007 139.781 32.1357C139.405 31.8667 139.134 31.4682 139.016 31.0113H139.557C139.66 31.3302 139.862 31.605 140.132 31.7928C140.401 31.9807 140.723 32.0713 141.047 32.0505C141.243 32.0608 141.438 32.0284 141.621 31.9553C141.804 31.8823 141.969 31.7703 142.108 31.6266C142.239 31.4763 142.341 31.3007 142.407 31.1097C142.473 30.9187 142.502 30.7161 142.492 30.5136V30.1486H142.477C142.332 30.4291 142.104 30.6539 141.827 30.7898C141.552 30.9335 141.248 31.0068 140.94 31.0037C140.667 31.0091 140.395 30.9567 140.142 30.8496C139.889 30.7425 139.659 30.583 139.467 30.3808C139.27 30.1843 139.113 29.9478 139.008 29.6858C138.903 29.4239 138.851 29.1423 138.856 28.8587C138.851 28.5724 138.902 28.2882 139.006 28.0229C139.11 27.7576 139.265 27.5167 139.46 27.3145C139.65 27.1065 139.88 26.9417 140.135 26.8307C140.39 26.7196 140.664 26.6648 140.94 26.6696C141.246 26.6556 141.55 26.7266 141.82 26.875C142.09 27.0235 142.317 27.2441 142.477 27.5139H142.492V26.7773H143.001V30.2563ZM142.065 27.6547C141.923 27.4919 141.75 27.3623 141.556 27.2745C141.362 27.1868 141.152 27.143 140.94 27.146C140.729 27.1425 140.519 27.1862 140.325 27.2739C140.131 27.3617 139.957 27.4916 139.816 27.6547C139.669 27.8126 139.553 27.999 139.476 28.2032C139.398 28.4075 139.36 28.6256 139.364 28.845C139.36 29.0628 139.398 29.2792 139.476 29.4817C139.554 29.6841 139.669 29.8687 139.816 30.0246C139.958 30.1868 140.132 30.3157 140.326 30.4028C140.52 30.4899 140.729 30.5331 140.94 30.5295C141.151 30.5319 141.36 30.4881 141.553 30.4011C141.746 30.3141 141.919 30.1858 142.061 30.0246C142.21 29.8695 142.327 29.6853 142.406 29.4828C142.485 29.2802 142.524 29.0634 142.52 28.845C142.527 28.4014 142.363 27.9733 142.065 27.6547V27.6547Z" fill="white"/>
</g>
<defs>
<clipPath id="clip0">
<rect width="143" height="35" fill="white"/>
</clipPath>
</defs>
</svg>
