<svg width="129" height="88" viewBox="0 0 129 88" fill="none" xmlns="http://www.w3.org/2000/svg">
<rect width="129" height="88" rx="3" fill="#F2F7FA"/>
<g clip-path="url(#clip0)">
<path d="M44.4974 35.4344H39.2812V56.1494H44.4974V35.4344Z" fill="#DAEDFF"/>
<path d="M43.647 33.9471H40.1348V42.6536H43.647V33.9471Z" fill="#DAEDFF"/>
<path d="M42.8624 33.0047H40.915V37.8339H42.8624V33.0047Z" fill="#DAEDFF"/>
<path d="M42.554 35.4891H41.2227V32.1969H41.7045H42.1765H42.554V35.4891Z" fill="#DAEDFF"/>
<path d="M41.7984 34.0559H41.6543V30.7637H41.7089H41.7586H41.7984V34.0559Z" fill="#DAEDFF"/>
<path d="M42.1206 32.9158H41.9766V29.6237H42.0262H42.0759H42.1206V32.9158Z" fill="#DAEDFF"/>
<path d="M44.636 35.3802H39.1416V35.5984H44.636V35.3802Z" fill="#DAEDFF"/>
<path d="M43.7714 33.8428H40.0059V34.056H43.7714V33.8428Z" fill="#DAEDFF"/>
<path d="M42.9424 32.916H40.7715V33.0796H42.9424V32.916Z" fill="#DAEDFF"/>
<path opacity="0.29" d="M40.6219 34.2989H40.458V35.2112H40.6219V34.2989Z" fill="#DAEDFF"/>
<path opacity="0.29" d="M41.0741 34.2989H40.9102V35.2112H41.0741V34.2989Z" fill="#DAEDFF"/>
<path opacity="0.29" d="M41.5223 34.2989H41.3584V35.2112H41.5223V34.2989Z" fill="#DAEDFF"/>
<path opacity="0.29" d="M41.9735 34.2989H41.8096V35.2112H41.9735V34.2989Z" fill="#DAEDFF"/>
<path opacity="0.29" d="M42.4257 34.2989H42.2617V35.2112H42.4257V34.2989Z" fill="#DAEDFF"/>
<path opacity="0.29" d="M42.8778 34.2989H42.7139V35.2112H42.8778V34.2989Z" fill="#DAEDFF"/>
<path opacity="0.29" d="M43.329 34.2989H43.165V35.2112H43.329V34.2989Z" fill="#DAEDFF"/>
<path d="M40.1307 36.2573H39.7383V37.3382H40.1307V36.2573Z" fill="#DAEDFF"/>
<path opacity="0.29" d="M40.909 36.2573H40.5166V37.3382H40.909V36.2573Z" fill="#DAEDFF"/>
<path d="M41.6942 36.2573H41.3018V37.3382H41.6942V36.2573Z" fill="#DAEDFF"/>
<path d="M42.4745 36.2573H42.082V37.3382H42.4745V36.2573Z" fill="#DAEDFF"/>
<path d="M43.2548 36.2573H42.8623V37.3382H43.2548V36.2573Z" fill="#DAEDFF"/>
<path d="M44.035 36.2573H43.6426V37.3382H44.035V36.2573Z" fill="#DAEDFF"/>
<path d="M40.1307 37.9478H39.7383V39.0287H40.1307V37.9478Z" fill="#DAEDFF"/>
<path d="M40.909 37.9478H40.5166V39.0287H40.909V37.9478Z" fill="#DAEDFF"/>
<path d="M41.6942 37.9478H41.3018V39.0287H41.6942V37.9478Z" fill="#DAEDFF"/>
<path opacity="0.29" d="M42.4745 37.9478H42.082V39.0287H42.4745V37.9478Z" fill="#DAEDFF"/>
<path d="M43.2548 37.9478H42.8623V39.0287H43.2548V37.9478Z" fill="#DAEDFF"/>
<path d="M44.035 37.9478H43.6426V39.0287H44.035V37.9478Z" fill="#DAEDFF"/>
<path d="M40.1307 39.6343H39.7383V40.7151H40.1307V39.6343Z" fill="#DAEDFF"/>
<path d="M40.909 39.6343H40.5166V40.7151H40.909V39.6343Z" fill="#DAEDFF"/>
<path d="M41.6942 39.6343H41.3018V40.7151H41.6942V39.6343Z" fill="#DAEDFF"/>
<path d="M42.4745 39.6343H42.082V40.7151H42.4745V39.6343Z" fill="#DAEDFF"/>
<path opacity="0.29" d="M43.2548 39.6343H42.8623V40.7151H43.2548V39.6343Z" fill="#DAEDFF"/>
<path opacity="0.29" d="M44.035 39.6343H43.6426V40.7151H44.035V39.6343Z" fill="#DAEDFF"/>
<path opacity="0.29" d="M40.1307 41.3198H39.7383V42.4006H40.1307V41.3198Z" fill="#DAEDFF"/>
<path d="M40.909 41.3198H40.5166V42.4006H40.909V41.3198Z" fill="#DAEDFF"/>
<path d="M41.6942 41.3198H41.3018V42.4006H41.6942V41.3198Z" fill="#DAEDFF"/>
<path d="M42.4745 41.3198H42.082V42.4006H42.4745V41.3198Z" fill="#DAEDFF"/>
<path d="M43.2548 41.3198H42.8623V42.4006H43.2548V41.3198Z" fill="#DAEDFF"/>
<path d="M44.035 41.3198H43.6426V42.4006H44.035V41.3198Z" fill="#DAEDFF"/>
<path d="M40.1307 43.0057H39.7383V44.0865H40.1307V43.0057Z" fill="#DAEDFF"/>
<path opacity="0.29" d="M40.909 43.0057H40.5166V44.0865H40.909V43.0057Z" fill="#DAEDFF"/>
<path d="M41.6942 43.0057H41.3018V44.0865H41.6942V43.0057Z" fill="#DAEDFF"/>
<path opacity="0.29" d="M42.4745 43.0057H42.082V44.0865H42.4745V43.0057Z" fill="#DAEDFF"/>
<path d="M43.2548 43.0057H42.8623V44.0865H43.2548V43.0057Z" fill="#DAEDFF"/>
<path d="M44.035 43.0057H43.6426V44.0865H44.035V43.0057Z" fill="#DAEDFF"/>
<path d="M40.1307 44.6967H39.7383V45.7776H40.1307V44.6967Z" fill="#DAEDFF"/>
<path d="M40.909 44.6967H40.5166V45.7776H40.909V44.6967Z" fill="#DAEDFF"/>
<path d="M41.6942 44.6967H41.3018V45.7776H41.6942V44.6967Z" fill="#DAEDFF"/>
<path d="M42.4745 44.6967H42.082V45.7776H42.4745V44.6967Z" fill="#DAEDFF"/>
<path d="M43.2548 44.6967H42.8623V45.7776H43.2548V44.6967Z" fill="#DAEDFF"/>
<path opacity="0.29" d="M44.035 44.6967H43.6426V45.7776H44.035V44.6967Z" fill="#DAEDFF"/>
<path d="M40.1307 46.3821H39.7383V47.463H40.1307V46.3821Z" fill="#DAEDFF"/>
<path opacity="0.29" d="M40.909 46.3821H40.5166V47.463H40.909V46.3821Z" fill="#DAEDFF"/>
<path opacity="0.29" d="M41.6942 46.3821H41.3018V47.463H41.6942V46.3821Z" fill="#DAEDFF"/>
<path d="M42.4745 46.3821H42.082V47.463H42.4745V46.3821Z" fill="#DAEDFF"/>
<path d="M43.2548 46.3821H42.8623V47.463H43.2548V46.3821Z" fill="#DAEDFF"/>
<path d="M44.035 46.3821H43.6426V47.463H44.035V46.3821Z" fill="#DAEDFF"/>
<path d="M40.1307 48.0677H39.7383V49.1486H40.1307V48.0677Z" fill="#DAEDFF"/>
<path d="M40.909 48.0677H40.5166V49.1486H40.909V48.0677Z" fill="#DAEDFF"/>
<path d="M41.6942 48.0677H41.3018V49.1486H41.6942V48.0677Z" fill="#DAEDFF"/>
<path d="M42.4745 48.0677H42.082V49.1486H42.4745V48.0677Z" fill="#DAEDFF"/>
<path opacity="0.29" d="M43.2548 48.0677H42.8623V49.1486H43.2548V48.0677Z" fill="#DAEDFF"/>
<path d="M44.035 48.0677H43.6426V49.1486H44.035V48.0677Z" fill="#DAEDFF"/>
<path d="M40.1307 49.7542H39.7383V50.835H40.1307V49.7542Z" fill="#DAEDFF"/>
<path opacity="0.29" d="M40.909 49.7542H40.5166V50.835H40.909V49.7542Z" fill="#DAEDFF"/>
<path d="M41.6942 49.7542H41.3018V50.835H41.6942V49.7542Z" fill="#DAEDFF"/>
<path d="M42.4745 49.7542H42.082V50.835H42.4745V49.7542Z" fill="#DAEDFF"/>
<path d="M43.2548 49.7542H42.8623V50.835H43.2548V49.7542Z" fill="#DAEDFF"/>
<path d="M44.035 49.7542H43.6426V50.835H44.035V49.7542Z" fill="#DAEDFF"/>
<path d="M40.1307 51.4442H39.7383V52.525H40.1307V51.4442Z" fill="#DAEDFF"/>
<path d="M40.909 51.4442H40.5166V52.525H40.909V51.4442Z" fill="#DAEDFF"/>
<path d="M41.6942 51.4442H41.3018V52.525H41.6942V51.4442Z" fill="#DAEDFF"/>
<path opacity="0.29" d="M42.4745 51.4442H42.082V52.525H42.4745V51.4442Z" fill="#DAEDFF"/>
<path d="M43.2548 51.4442H42.8623V52.525H43.2548V51.4442Z" fill="#DAEDFF"/>
<path opacity="0.29" d="M44.035 51.4442H43.6426V52.525H44.035V51.4442Z" fill="#DAEDFF"/>
<path opacity="0.29" d="M40.1307 53.1296H39.7383V54.2104H40.1307V53.1296Z" fill="#DAEDFF"/>
<path d="M40.909 53.1296H40.5166V54.2104H40.909V53.1296Z" fill="#DAEDFF"/>
<path opacity="0.29" d="M41.6942 53.1296H41.3018V54.2104H41.6942V53.1296Z" fill="#DAEDFF"/>
<path d="M42.4745 53.1296H42.082V54.2104H42.4745V53.1296Z" fill="#DAEDFF"/>
<path d="M43.2548 53.1296H42.8623V54.2104H43.2548V53.1296Z" fill="#DAEDFF"/>
<path d="M44.035 53.1296H43.6426V54.2104H44.035V53.1296Z" fill="#DAEDFF"/>
<path d="M32.5145 36.2236H24.1338V53.6761H32.5145V36.2236Z" fill="#DAEDFF"/>
<path d="M32.758 35.921H23.9004V36.4119H32.758V35.921Z" fill="#DAEDFF"/>
<path d="M32.2363 35.2913H24.417V37.6364H32.2363V35.2913Z" fill="#DAEDFF"/>
<path d="M28.1135 34.3298H25.0186V36.8932H28.1135V34.3298Z" fill="#DAEDFF"/>
<path d="M26.807 35.0533H25.0186V33.7047H26.3002L26.807 35.0533Z" fill="#DAEDFF"/>
<path d="M25.9122 32.5847H25.7383V35.5893H25.9122V32.5847Z" fill="#DAEDFF"/>
<path d="M25.8278 32.5844C25.9129 32.5844 25.9818 32.5156 25.9818 32.4307C25.9818 32.3459 25.9129 32.277 25.8278 32.277C25.7428 32.277 25.6738 32.3459 25.6738 32.4307C25.6738 32.5156 25.7428 32.5844 25.8278 32.5844Z" fill="#DAEDFF"/>
<path d="M101.939 55.0046H92.7588L91.6162 29.3415L101.939 31.4834V55.0046Z" fill="#DAEDFF"/>
<path d="M61.9042 40.3484V31.7709H60.4635V29.4703H59.9518V26.1038H57.1202V23.6247H56.8668V26.1038H56.3104V23H56.0571V26.1038H54.2687V31.7709H53.3447V40.3484H52.5498V55.9714H62.4606V40.3484H61.9042Z" fill="#DAEDFF"/>
<path d="M122.059 54.6826H12.4199V57.2856H122.059V54.6826Z" fill="#DAEDFF"/>
<path d="M76.957 56.6511H72.1035L73.9962 46.9481H76.957V56.6511Z" fill="#DAEDFF"/>
<path d="M123.599 57.0286H8.48535V64.55H123.599V57.0286Z" fill="#DAEDFF"/>
<path d="M72.9773 38.6936V34.3949H71.4175V32.7587H70.5878V31.3853H70.2947V29.0253H70.2153V31.3853H69.9222V32.7587H69.0925V34.3949H67.5426V38.6936H67.2197V46.5026H64.8252V55.3974H67.2197H69.6191H73.2903V38.6936H72.9773Z" fill="#DAEDFF"/>
<path d="M81.9397 43.6321H74.3936V43.7709H74.7314V56.5033H81.5969V43.7709H81.9397V43.6321Z" fill="#DAEDFF"/>
<path d="M47.5315 46.8054H40.8398V57.4107H47.5315V46.8054Z" fill="#DAEDFF"/>
<path d="M39.8326 52.2391H28.3271V57.4104H39.8326V52.2391Z" fill="#DAEDFF"/>
<path d="M37.0197 40.6821H34.4961V53.3848H37.0197V40.6821Z" fill="#DAEDFF"/>
<path d="M35.1829 37.2957H35.0537V44.2023H35.1829V37.2957Z" fill="#DAEDFF"/>
<path d="M35.6087 37.8215H35.4795V44.7281H35.6087V37.8215Z" fill="#DAEDFF"/>
<path d="M36.2354 39.8978H34.6904V41.5985H36.2354V39.8978Z" fill="#DAEDFF"/>
<path d="M43.7774 48.704H39.3809V57.4105H43.7774V48.704Z" fill="#DAEDFF"/>
<path d="M56.8667 39.4869H48.6152V57.4104H56.8667V39.4869Z" fill="#DAEDFF"/>
<path d="M56.0558 38.8723H49.4238V41.857H56.0558V38.8723Z" fill="#DAEDFF"/>
<path d="M57.5028 39.8638H47.9746V40.072H57.5028V39.8638Z" fill="#DAEDFF"/>
<path d="M51.0089 48.3619H47.1191V57.4154H51.0089V48.3619Z" fill="#DAEDFF"/>
<path d="M23.7374 48.0151H19.2764V57.4107H23.7374V48.0151Z" fill="#DAEDFF"/>
<path d="M29.6042 45.4612H20.7168V57.4102H29.6042V45.4612Z" fill="#DAEDFF"/>
<path d="M29.8377 45.0056H20.2002V45.4617H29.8377V45.0056Z" fill="#DAEDFF"/>
<path d="M25.0189 43.7606H21.1143V46.1851H25.0189V43.7606Z" fill="#DAEDFF"/>
<path d="M26.9507 43.7606H26.2949V45.2332H26.9507V43.7606Z" fill="#DAEDFF"/>
<path d="M28.3268 43.7606H27.6064V45.2332H28.3268V43.7606Z" fill="#DAEDFF"/>
<path d="M21.5055 53.7811H16.8457V57.4154H21.5055V53.7811Z" fill="#DAEDFF"/>
<path d="M17.2926 52.2391H15.0869V57.4104H17.2926V52.2391Z" fill="#DAEDFF"/>
<path d="M16.1905 55.5955H12.4199V57.4102H16.1905V55.5955Z" fill="#DAEDFF"/>
<path d="M102.506 53.3842H56.0566V57.4102H102.506V53.3842Z" fill="#DAEDFF"/>
<path d="M98.7966 42.2388C98.5035 42.2388 98.2651 42.4619 98.2402 42.7495L97.5845 42.7296C97.5845 42.6652 97.5895 42.6007 97.5895 42.5363C97.5895 41.7231 97.4504 40.9348 97.1821 40.1911L97.7286 39.9927C97.813 40.1911 98.0117 40.3299 98.2402 40.3299C98.5482 40.3299 98.7966 40.082 98.7966 39.7746C98.7966 39.4672 98.5482 39.2193 98.2402 39.2193C97.9322 39.2193 97.6839 39.4672 97.6839 39.7746C97.6839 39.8291 97.6938 39.8886 97.7087 39.9382L97.1622 40.1365C96.8493 39.3036 96.3773 38.5351 95.7563 37.8657L96.1836 37.4641C96.2829 37.5583 96.4171 37.6178 96.5711 37.6178C96.8791 37.6178 97.1275 37.3699 97.1275 37.0625C97.1275 36.7551 96.8791 36.5072 96.5711 36.5072C96.2631 36.5072 96.0147 36.7551 96.0147 37.0625C96.0147 37.1964 96.0643 37.3253 96.1438 37.4195L95.7166 37.8211C95.6719 37.7765 95.6272 37.7269 95.5825 37.6823C94.9367 37.0377 94.1816 36.537 93.3619 36.1948L93.5954 35.6247C93.65 35.6395 93.7046 35.6494 93.7643 35.6494C94.0723 35.6494 94.3206 35.4015 94.3206 35.0941C94.3206 34.7867 94.0723 34.5388 93.7643 34.5388C93.4563 34.5388 93.2079 34.7867 93.2079 35.0941C93.2079 35.3222 93.342 35.5156 93.5407 35.6048L93.3072 36.175C92.572 35.8775 91.7871 35.7089 90.9773 35.6792L91.0022 34.9008C91.0071 34.9008 91.0121 34.9008 91.022 34.9008C91.33 34.9008 91.5784 34.6529 91.5784 34.3455C91.5784 34.0381 91.33 33.7902 91.022 33.7902C90.714 33.7902 90.4656 34.0381 90.4656 34.3455C90.4656 34.6281 90.6743 34.8562 90.9425 34.8958L90.9177 35.6792C90.8531 35.6792 90.7885 35.6742 90.724 35.6742C89.944 35.6742 89.1839 35.8031 88.4636 36.0511L88.2401 35.4115C88.4437 35.3272 88.5878 35.1288 88.5878 34.8958C88.5878 34.5884 88.3394 34.3405 88.0314 34.3405C87.7234 34.3405 87.475 34.5884 87.475 34.8958C87.475 35.2032 87.7234 35.4511 88.0314 35.4511C88.0861 35.4511 88.1357 35.4412 88.1854 35.4313L88.409 36.0709C87.5396 36.3783 86.7398 36.8642 86.0443 37.5087L85.6369 37.0724C85.7264 36.9733 85.786 36.8394 85.786 36.6956C85.786 36.3882 85.5376 36.1403 85.2296 36.1403C84.9216 36.1403 84.6732 36.3882 84.6732 36.6956C84.6732 37.003 84.9216 37.2509 85.2296 37.2509C85.3687 37.2509 85.4978 37.2013 85.5972 37.1121L86.0046 37.5434C85.9598 37.5881 85.9102 37.6327 85.8655 37.6773C85.2892 38.2525 84.8272 38.9119 84.4943 39.6258L83.9777 39.3879C83.9976 39.3333 84.0075 39.2738 84.0075 39.2094C84.0075 38.902 83.7591 38.6541 83.4511 38.6541C83.1431 38.6541 82.8947 38.902 82.8947 39.2094C82.8947 39.5168 83.1431 39.7647 83.4511 39.7647C83.6747 39.7647 83.8684 39.6308 83.9578 39.4424L84.4745 39.6804C84.1069 40.4886 83.8932 41.3661 83.8634 42.2784L83.1977 42.2586C83.1878 41.9562 82.9444 41.7182 82.6414 41.7182C82.3333 41.7182 82.085 41.9661 82.085 42.2735C82.085 42.5809 82.3333 42.8288 82.6414 42.8288C82.9345 42.8288 83.1729 42.6057 83.1977 42.3181L83.8634 42.3379C83.8634 42.4024 83.8585 42.4668 83.8585 42.5313C83.8585 43.3444 83.9976 44.1328 84.2658 44.8765L83.7194 45.0748C83.6349 44.8765 83.4362 44.7377 83.2077 44.7377C82.8997 44.7377 82.6513 44.9856 82.6513 45.293C82.6513 45.6004 82.8997 45.8483 83.2077 45.8483C83.5157 45.8483 83.7641 45.6004 83.7641 45.293C83.7641 45.2384 83.7541 45.1839 83.7392 45.1293L84.2857 44.931C84.5987 45.764 85.0706 46.5325 85.6916 47.2018L85.2644 47.6034C85.165 47.5092 85.0309 47.4497 84.8769 47.4497C84.5689 47.4497 84.3205 47.6976 84.3205 48.005C84.3205 48.3124 84.5689 48.5604 84.8769 48.5604C85.1849 48.5604 85.4333 48.3124 85.4333 48.005C85.4333 47.8712 85.3836 47.7423 85.3041 47.6481L85.7313 47.2465C85.776 47.2911 85.8207 47.3407 85.8655 47.3853C86.3026 47.8216 86.7845 48.1885 87.3061 48.486L83.9379 54.6787H83.3319V54.8571H83.0338V55.2092H98.4141V54.8571H98.116V54.6787H97.51L94.1368 48.4959C94.5839 48.2381 95.0062 47.9307 95.3937 47.5687L95.9402 48.1488C95.8209 48.2529 95.7514 48.4017 95.7514 48.5703C95.7514 48.8777 95.9998 49.1256 96.3078 49.1256C96.6158 49.1256 96.8642 48.8777 96.8642 48.5703C96.8642 48.2629 96.6158 48.015 96.3078 48.015C96.1885 48.015 96.0793 48.0497 95.9898 48.1141L95.4384 47.5291C95.4831 47.4844 95.5328 47.4398 95.5775 47.3952C96.1538 46.8201 96.6158 46.1606 96.9486 45.4467L97.5547 45.7243C97.5448 45.7689 97.5398 45.8136 97.5398 45.8631C97.5398 46.1705 97.7882 46.4185 98.0962 46.4185C98.4042 46.4185 98.6526 46.1705 98.6526 45.8631C98.6526 45.5557 98.4042 45.3078 98.0962 45.3078C97.8577 45.3078 97.654 45.4566 97.5746 45.6698L96.9735 45.3921C97.3411 44.584 97.5547 43.7064 97.5845 42.7941L98.2402 42.8139C98.2502 43.1164 98.4936 43.3543 98.7966 43.3543C99.1046 43.3543 99.353 43.1064 99.353 42.799C99.358 42.4867 99.1046 42.2388 98.7966 42.2388ZM97.4057 42.5363C97.4057 42.6007 97.4057 42.6602 97.4007 42.7247L95.4732 42.6602C95.4732 42.6205 95.4732 42.5759 95.4732 42.5363C95.4732 41.971 95.3738 41.4256 95.19 40.9199L97.0033 40.2555C97.2666 40.9794 97.4057 41.7479 97.4057 42.5363ZM95.3838 42.6552L91.0866 42.5164C91.0866 42.4867 91.0816 42.4619 91.0717 42.4371L95.1056 40.9546C95.2844 41.4504 95.3838 41.9809 95.3838 42.5363C95.3838 42.5759 95.3838 42.6156 95.3838 42.6552ZM86.0443 42.4173L90.3414 42.5561C90.3414 42.5858 90.3464 42.6106 90.3563 42.6354L86.3225 44.1179C86.1436 43.6221 86.0443 43.0916 86.0443 42.5363C86.0393 42.4966 86.0393 42.4569 86.0443 42.4173ZM91.0071 42.3032L94.1418 39.373C94.5492 39.8093 94.8721 40.3299 95.0857 40.8951L91.0518 42.3776C91.0419 42.3528 91.027 42.328 91.0071 42.3032ZM90.9624 42.2586C90.9376 42.2388 90.9127 42.2189 90.8829 42.2041L92.5173 38.2376C93.1184 38.4904 93.655 38.8623 94.1021 39.3284L90.9624 42.2586ZM90.8283 42.1793C90.8034 42.1743 90.7836 42.1694 90.7587 42.1644L90.8978 37.8756C91.4493 37.8955 91.9759 38.0145 92.4627 38.2078L90.8283 42.1793ZM90.6942 42.1644C90.6693 42.1644 90.6445 42.1694 90.6196 42.1743L89.1889 38.1285C89.6658 37.9649 90.1775 37.8756 90.714 37.8756C90.7538 37.8756 90.7935 37.8756 90.8333 37.8756L90.6942 42.1644ZM90.56 42.1941C90.5302 42.209 90.5054 42.2239 90.4805 42.2437L87.5446 39.1152C88.0016 38.6937 88.5381 38.3615 89.1343 38.1483L90.56 42.1941ZM90.4358 42.2834C90.416 42.3032 90.4011 42.328 90.3862 42.3478L86.4864 40.5481C86.7348 40.0225 87.0826 39.5465 87.4999 39.1499L90.4358 42.2834ZM90.3613 42.4073C90.3514 42.4321 90.3464 42.4619 90.3414 42.4916L86.0443 42.3528C86.0691 41.733 86.2132 41.143 86.4566 40.6076L90.3613 42.4073ZM90.3712 42.6949C90.3812 42.7147 90.3911 42.7346 90.406 42.7544L90.3812 42.799L87.2813 45.6995C86.8739 45.2632 86.551 44.7426 86.3374 44.1774L90.3712 42.6949ZM90.2868 42.9775L88.3394 46.5573C87.9619 46.3342 87.6191 46.0615 87.321 45.7491L90.2868 42.9775ZM90.5004 42.8437C90.5153 42.8536 90.5253 42.8585 90.5402 42.8684L88.9057 46.8349C88.7468 46.7705 88.5977 46.6961 88.4487 46.6118L90.5004 42.8437ZM90.5998 42.8932C90.6246 42.8982 90.6445 42.9032 90.6693 42.9081L90.5302 47.1969C89.9788 47.177 89.4522 47.058 88.9654 46.8647L90.5998 42.8932ZM90.714 47.2018C90.6743 47.2018 90.6345 47.2018 90.5948 47.2018L90.7339 42.9131C90.7587 42.9131 90.7836 42.9081 90.8084 42.9032L92.2391 46.949C91.7573 47.1076 91.2456 47.2018 90.714 47.2018ZM90.868 42.8784C90.8879 42.8684 90.9078 42.8585 90.9276 42.8437L92.9793 46.6118C92.7608 46.7308 92.5372 46.8349 92.2988 46.9192L90.868 42.8784ZM91.2108 43.1114L93.8835 45.9573C93.6401 46.1854 93.3718 46.3837 93.0837 46.5523L91.2108 43.1114ZM91.0966 42.8982L91.0171 42.7544C91.027 42.7445 91.032 42.7296 91.0369 42.7197L94.9367 44.5195C94.6883 45.0451 94.3405 45.521 93.9232 45.9177L91.0966 42.8982ZM91.0667 42.6652C91.0767 42.6404 91.0816 42.6106 91.0866 42.5809L95.3838 42.7197C95.3589 43.3395 95.2149 43.9295 94.9714 44.465L91.0667 42.6652ZM88.8759 46.9242L88.1407 48.7041C87.9172 48.6099 87.6986 48.5058 87.485 48.3868L88.404 46.6911C88.558 46.7804 88.712 46.8548 88.8759 46.9242ZM88.9306 46.949C89.4274 47.1473 89.9639 47.2663 90.5253 47.2911L90.4607 49.2148C89.6708 49.1851 88.9058 49.0215 88.1954 48.7339L88.9306 46.949ZM90.5898 47.2911C90.6296 47.2911 90.6743 47.2911 90.714 47.2911C91.2605 47.2911 91.7821 47.1969 92.269 47.0333L92.9098 48.8479C92.2143 49.0909 91.4741 49.2148 90.714 49.2148C90.6494 49.2148 90.5898 49.2148 90.5253 49.2099L90.5898 47.2911ZM92.3236 47.0134C92.562 46.9291 92.7955 46.8201 93.0141 46.7011L93.9332 48.3967C93.6202 48.5703 93.2973 48.7141 92.9595 48.833L92.3236 47.0134ZM96.9834 40.201L95.1701 40.8654C94.9516 40.2853 94.6187 39.7597 94.2064 39.3085L95.6123 37.9897C96.2233 38.6392 96.6804 39.3879 96.9834 40.201ZM95.4434 37.8161C95.4881 37.8608 95.5328 37.9054 95.5725 37.95L94.1666 39.2689C93.7146 38.7929 93.1632 38.4111 92.5521 38.1533L93.2873 36.3733C94.0822 36.6956 94.8174 37.1865 95.4434 37.8161ZM93.2277 36.3436L92.4925 38.1235C91.9957 37.9252 91.4592 37.8062 90.8978 37.7814L90.9624 35.8577C91.7473 35.8924 92.5124 36.056 93.2277 36.3436ZM90.714 35.8577C90.7786 35.8577 90.8382 35.8577 90.9028 35.8626L90.8382 37.7864C90.7985 37.7864 90.7538 37.7864 90.714 37.7864C90.1676 37.7864 89.646 37.8806 89.1591 38.0442L88.5183 36.2295C89.2138 35.9816 89.954 35.8577 90.714 35.8577ZM88.4586 36.2444L89.0995 38.0591C88.4934 38.2772 87.942 38.6144 87.48 39.0458L86.1586 37.6426C86.8342 37.0179 87.6141 36.5469 88.4586 36.2444ZM85.9797 37.8161C86.0244 37.7715 86.0691 37.7269 86.1138 37.6872L87.4353 39.0904C87.008 39.4969 86.6553 39.9779 86.402 40.5183L84.6483 39.7101C84.9713 39.011 85.4184 38.3714 85.9797 37.8161ZM84.6185 39.7647L86.3722 40.5728C86.1238 41.1182 85.9747 41.7182 85.9499 42.3528L84.0224 42.2884C84.0572 41.4058 84.2609 40.5481 84.6185 39.7647ZM84.0224 42.5363C84.0224 42.4718 84.0224 42.4123 84.0274 42.3478L85.9549 42.4123C85.9549 42.452 85.9549 42.4966 85.9549 42.5363C85.9549 43.1015 86.0542 43.6469 86.238 44.1526L84.4248 44.817C84.1565 44.0931 84.0224 43.3246 84.0224 42.5363ZM84.4397 44.8765L86.2529 44.2121C86.4715 44.7922 86.8044 45.3177 87.2167 45.7689L85.8108 47.0878C85.2047 46.4333 84.7427 45.6846 84.4397 44.8765ZM85.9797 47.2613C85.935 47.2167 85.8903 47.1721 85.8505 47.1275L87.2564 45.8086C87.5644 46.1309 87.9122 46.4085 88.2947 46.6366L87.3757 48.3323C86.8739 48.0397 86.402 47.6828 85.9797 47.2613ZM97.3609 54.6836H84.0621L87.3955 48.5504C87.6141 48.6694 87.8377 48.7785 88.0662 48.8727L87.8327 49.4429C87.7781 49.428 87.7234 49.4181 87.6638 49.4181C87.3558 49.4181 87.1074 49.666 87.1074 49.9734C87.1074 50.2808 87.3558 50.5287 87.6638 50.5287C87.9718 50.5287 88.2202 50.2808 88.2202 49.9734C88.2202 49.7453 88.0861 49.552 87.8873 49.4627L88.1208 48.8925C88.8561 49.19 89.641 49.3586 90.4507 49.3884L90.4309 49.9734C90.1278 49.9784 89.8844 50.2263 89.8844 50.5287C89.8844 50.8361 90.1328 51.084 90.4408 51.084C90.7488 51.084 90.9972 50.8361 90.9972 50.5287C90.9972 50.2362 90.7736 49.9982 90.4905 49.9734L90.5103 49.3884C90.5749 49.3884 90.6395 49.3933 90.7041 49.3933C91.484 49.3933 92.2441 49.2644 92.9644 49.0165L93.1632 49.5867C92.9744 49.6759 92.8402 49.8693 92.8402 50.0924C92.8402 50.3998 93.0886 50.6477 93.3966 50.6477C93.7046 50.6477 93.953 50.3998 93.953 50.0924C93.953 49.785 93.7046 49.5371 93.3966 49.5371C93.3321 49.5371 93.2724 49.547 93.2178 49.5668L93.0191 49.0016C93.3619 48.8777 93.6947 48.7289 94.0176 48.5504L97.3609 54.6836ZM94.0474 48.3323L93.1284 46.6366C93.4215 46.4631 93.6997 46.2598 93.9481 46.0268L95.2695 47.4299C94.8919 47.7819 94.4796 48.0794 94.0474 48.3323ZM95.4434 47.2613C95.3987 47.306 95.354 47.3506 95.3092 47.3902L93.9878 45.9871C94.415 45.5805 94.7678 45.0996 95.0211 44.5592L96.7747 45.3673C96.4518 46.0615 96.0047 46.7011 95.4434 47.2613ZM96.8045 45.3078L95.0509 44.4997C95.2993 43.9543 95.4483 43.3543 95.4732 42.7197L97.4007 42.7842C97.3659 43.6667 97.1622 44.5245 96.8045 45.3078Z" fill="#DAEDFF"/>
<path d="M107.315 46.9243H100.142V57.4156H107.315V46.9243Z" fill="#DAEDFF"/>
<path d="M113.44 50.9997H106.267V57.351H113.44V50.9997Z" fill="#DAEDFF"/>
<path d="M82.477 50.0674H78.4531V55.3973H82.477V50.0674Z" fill="#DAEDFF"/>
<path d="M108.801 36.9489H103.729V57.4109H108.801V36.9489Z" fill="#DAEDFF"/>
<path d="M117.156 57.4155H110.465V45.4615H115.537L117.156 57.4155Z" fill="#DAEDFF"/>
<path d="M120.086 54.6837H114.224V57.4107H120.086V54.6837Z" fill="#DAEDFF"/>
<path d="M107.666 32.6747H107.492V38.2377H107.666V32.6747Z" fill="#DAEDFF"/>
<path d="M108.253 33.8694H108.079V39.4324H108.253V33.8694Z" fill="#DAEDFF"/>
<path d="M107.131 34.6331H106.957V40.1961H107.131V34.6331Z" fill="#DAEDFF"/>
<path d="M113.122 44.4996H110.728V46.3837H113.122V44.4996Z" fill="#DAEDFF"/>
<path d="M112.859 43.8253H110.991V44.8814H112.859V43.8253Z" fill="#DAEDFF"/>
<path d="M114.532 45.0501H114.075V45.8087H114.532V45.0501Z" fill="#DAEDFF"/>
<path d="M115.352 44.3557H114.696V45.8084H115.352V44.3557Z" fill="#DAEDFF"/>
<path d="M106.992 39.8879C106.992 39.8036 106.932 39.7342 106.863 39.7342C106.793 39.7342 106.733 39.8036 106.733 39.8879C106.733 39.9722 106.793 40.0416 106.863 40.0416C106.932 40.0416 106.992 39.9722 106.992 39.8879Z" fill="#BDD7F0"/>
<path d="M121.264 58.8131L120.455 53.384H118.79V48.882H118.994V48.4755H118.189V46.7253H118.09V48.4755H117.534V47.0426H117.434V48.4755H114.076V48.882H114.304V58.0198H110.464V53.9244H108.279V43.8744H108.477V43.3786H108.045V42.7489H107.538V42.5109V41.787V41.1623H106.932V40.0417H106.863H106.788V41.1623H106.46L106.267 41.787H104.94V42.7489H101.478V43.3786H101.045V43.8744H101.244V50.4141H98.3479V56.8398L95.1337 55.4218V49.1795H95.6504V48.7234H94.7363V47.4789H90.8316V48.7234H89.5549V47.4789H88.8991V48.7234H88.2434V47.4789H87.5231V48.7234H86.0128V49.1795H86.2414V57.8265H84.7759V57.7372H84.5126V55.273H84.7759V55.0747H84.5126V52.6105H84.7759V52.4122H84.5126V49.948H84.7759V49.7547H84.5126V47.2905H84.7759V47.0922H84.5126V44.628H84.7759V44.4297H84.5126V41.8812H84.9646V41.6829H85.1981V41.1424H80.8811V40.5376H81.0252V40.364H78.6754V40.5376H78.8145V41.1424H77.7464V41.6829H77.9749V41.8812H78.432V44.4297H78.1637V44.628H78.432V47.0922H78.1637V47.2905H78.432V49.7547H78.1637V49.948H78.432V52.4122H78.1637V52.6105H78.432V55.0747H78.1637V55.273H78.432V57.7372H78.1637V57.9355H78.432V59.9485H76.9566V52.1693H71.03V57.8265H70.0662V40.1955H69.3558V40.6516L68.0443 40.9689V40.6764H67.329V41.1424L66.0175 41.4647V41.1276H65.3071V41.6383L63.9906 41.9605V41.6779H63.2802V42.1341L61.9687 42.4514V42.2134H61.2533V59.5271H60.2548V50.2951H56.5439V55.9721H52.7385V51.133H52.2716V49.5415H52.5498V49.3828H51.3177V48.882H51.1886V49.3828H50.7961V46.8195H50.6968V49.3828H50.1851V49.5415H50.4831V51.133H47.9744V54.8268H45.5303L44.2535 59.5271H41.6951V44.1718H38.3071V43.6215H38.4958V43.4331H35.9325V43.6215H36.1312V44.1718V45.0593V55.5755H34.5315V51.604H35.1028V51.2421H31.0789V48.8424H30.3139V48.3466H28.6V48.8424H27.204V57.4149H22.6337V51.0537H18.7836V56.0763H15.4453V59.2891H13.0359V55.2483H9.86642V58.6941H7V64.5497H9.86642H10.8351H12.4199H13.0359H15.4453H18.7836H19.9063H20.5074H22.6337H27.204H28.6H30.3139H31.0789H34.0795H34.5315H36.1312H38.8138H40.1352H41.6951H47.9744H49.425H51.8741H52.7385H56.6084H57.6467H61.2533H61.611H61.9687H63.2802H63.9906H65.3071H65.8982H66.0175H67.329H68.0443H69.172H69.3558H69.7135H70.0662H71.03H75.9282H76.6287H76.9566H78.432H81.0252H83.3948H84.5126H86.2414H90.5385H95.0841H95.1337H98.3479H100.141H101.244H101.94H107.315H108.279H109.431H110.464H114.304H117.156H117.742H118.79H125.179V58.8131H121.264Z" fill="#BDD7F0"/>
<g opacity="0.52">
<path opacity="0.52" d="M27.8995 49.462H27.6064V49.7545H27.8995V49.462Z" fill="white"/>
<path opacity="0.52" d="M28.4904 49.4619H28.1973V49.7544H28.4904V49.4619Z" fill="white"/>
<path opacity="0.52" d="M27.8986 50.1508H27.6055V50.4433H27.8986V50.1508Z" fill="white"/>
<path opacity="0.52" d="M28.4904 50.1508H28.1973V50.4433H28.4904V50.1508Z" fill="white"/>
<path opacity="0.52" d="M27.8986 50.8152H27.6055V51.1077H27.8986V50.8152Z" fill="white"/>
<path opacity="0.52" d="M29.1408 49.4619H28.8477V49.7544H29.1408V49.4619Z" fill="white"/>
</g>
<path opacity="0.5" d="M49.2612 40.676H49.0625V41.7817H49.2612V40.676Z" fill="white"/>
<path opacity="0.5" d="M49.9516 40.676H49.7529V41.7817H49.9516V40.676Z" fill="white"/>
<path opacity="0.5" d="M50.6421 40.676H50.4434V41.7817H50.6421V40.676Z" fill="white"/>
<path opacity="0.5" d="M51.3276 40.676H51.1289V41.7817H51.3276V40.676Z" fill="white"/>
<path opacity="0.5" d="M52.018 40.676H51.8193V41.7817H52.018V40.676Z" fill="white"/>
<path opacity="0.5" d="M52.7085 40.676H52.5098V41.7817H52.7085V40.676Z" fill="white"/>
<path opacity="0.5" d="M53.3999 40.676H53.2012V41.7817H53.3999V40.676Z" fill="white"/>
<path opacity="0.5" d="M54.0845 40.676H53.8857V41.7817H54.0845V40.676Z" fill="white"/>
<path opacity="0.5" d="M54.7759 40.676H54.5771V41.7817H54.7759V40.676Z" fill="white"/>
<path opacity="0.5" d="M55.4653 40.676H55.2666V41.7817H55.4653V40.676Z" fill="white"/>
<path opacity="0.5" d="M56.1557 40.676H55.957V41.7817H56.1557V40.676Z" fill="white"/>
<path opacity="0.5" d="M49.2612 42.213H49.0625V43.3187H49.2612V42.213Z" fill="white"/>
<path opacity="0.5" d="M49.9516 42.213H49.7529V43.3187H49.9516V42.213Z" fill="white"/>
<path opacity="0.5" d="M50.6421 42.213H50.4434V43.3187H50.6421V42.213Z" fill="white"/>
<path opacity="0.5" d="M51.3276 42.213H51.1289V43.3187H51.3276V42.213Z" fill="white"/>
<path opacity="0.5" d="M52.018 42.213H51.8193V43.3187H52.018V42.213Z" fill="white"/>
<path opacity="0.5" d="M52.7085 42.213H52.5098V43.3187H52.7085V42.213Z" fill="white"/>
<path opacity="0.5" d="M53.3999 42.213H53.2012V43.3187H53.3999V42.213Z" fill="white"/>
<path opacity="0.5" d="M54.0845 42.213H53.8857V43.3187H54.0845V42.213Z" fill="white"/>
<path opacity="0.5" d="M54.7759 42.213H54.5771V43.3187H54.7759V42.213Z" fill="white"/>
<path opacity="0.5" d="M55.4653 42.213H55.2666V43.3187H55.4653V42.213Z" fill="white"/>
<path opacity="0.5" d="M56.1557 42.213H55.957V43.3187H56.1557V42.213Z" fill="white"/>
<path opacity="0.5" d="M49.2612 43.7495H49.0625V44.8551H49.2612V43.7495Z" fill="white"/>
<path opacity="0.5" d="M49.9516 43.7495H49.7529V44.8551H49.9516V43.7495Z" fill="white"/>
<path opacity="0.5" d="M50.6421 43.7495H50.4434V44.8551H50.6421V43.7495Z" fill="white"/>
<path opacity="0.5" d="M51.3276 43.7495H51.1289V44.8551H51.3276V43.7495Z" fill="white"/>
<path opacity="0.5" d="M52.018 43.7495H51.8193V44.8551H52.018V43.7495Z" fill="white"/>
<path opacity="0.5" d="M52.7085 43.7495H52.5098V44.8551H52.7085V43.7495Z" fill="white"/>
<path opacity="0.5" d="M53.3999 43.7495H53.2012V44.8551H53.3999V43.7495Z" fill="white"/>
<path opacity="0.5" d="M54.0845 43.7495H53.8857V44.8551H54.0845V43.7495Z" fill="white"/>
<path opacity="0.5" d="M54.7759 43.7495H54.5771V44.8551H54.7759V43.7495Z" fill="white"/>
<path opacity="0.5" d="M55.4653 43.7495H55.2666V44.8551H55.4653V43.7495Z" fill="white"/>
<path opacity="0.5" d="M56.1557 43.7495H55.957V44.8551H56.1557V43.7495Z" fill="white"/>
<path opacity="0.5" d="M51.3276 45.2864H51.1289V46.392H51.3276V45.2864Z" fill="white"/>
<path opacity="0.5" d="M52.018 45.2864H51.8193V46.392H52.018V45.2864Z" fill="white"/>
<path opacity="0.5" d="M52.7085 45.2864H52.5098V46.392H52.7085V45.2864Z" fill="white"/>
<path opacity="0.5" d="M53.3999 45.2864H53.2012V46.392H53.3999V45.2864Z" fill="white"/>
<path opacity="0.5" d="M54.0845 45.2864H53.8857V46.392H54.0845V45.2864Z" fill="white"/>
<path opacity="0.5" d="M54.7759 45.2864H54.5771V46.392H54.7759V45.2864Z" fill="white"/>
<path opacity="0.5" d="M55.4653 45.2864H55.2666V46.392H55.4653V45.2864Z" fill="white"/>
<path opacity="0.5" d="M56.1557 45.2864H55.957V46.392H56.1557V45.2864Z" fill="white"/>
<path opacity="0.5" d="M52.018 46.9131H51.8193V48.0188H52.018V46.9131Z" fill="white"/>
<path opacity="0.5" d="M52.7085 46.9131H52.5098V48.0188H52.7085V46.9131Z" fill="white"/>
<path opacity="0.5" d="M53.3999 46.9131H53.2012V48.0188H53.3999V46.9131Z" fill="white"/>
<path opacity="0.5" d="M54.0845 46.9131H53.8857V48.0188H54.0845V46.9131Z" fill="white"/>
<path opacity="0.5" d="M54.7759 46.9131H54.5771V48.0188H54.7759V46.9131Z" fill="white"/>
<path opacity="0.5" d="M55.4653 46.9131H55.2666V48.0188H55.4653V46.9131Z" fill="white"/>
<path opacity="0.5" d="M56.1557 46.9131H55.957V48.0188H56.1557V46.9131Z" fill="white"/>
<path opacity="0.33" d="M62.8567 43.4178H62.3848V44.6127H62.8567V43.4178Z" fill="white"/>
<path opacity="0.33" d="M62.8567 45.7034H62.3848V46.8983H62.8567V45.7034Z" fill="white"/>
<path opacity="0.33" d="M62.8567 47.989H62.3848V49.1839H62.8567V47.989Z" fill="white"/>
<path opacity="0.33" d="M62.8567 50.2801H62.3848V51.475H62.8567V50.2801Z" fill="white"/>
<path opacity="0.33" d="M62.8567 52.4368H62.3848V53.6317H62.8567V52.4368Z" fill="white"/>
<path opacity="0.33" d="M62.8567 54.7224H62.3848V55.9173H62.8567V54.7224Z" fill="white"/>
<path opacity="0.33" d="M64.8841 43.4178H64.4121V44.6127H64.8841V43.4178Z" fill="white"/>
<path opacity="0.33" d="M64.8841 45.7034H64.4121V46.8983H64.8841V45.7034Z" fill="white"/>
<path opacity="0.33" d="M64.8841 47.989H64.4121V49.1839H64.8841V47.989Z" fill="white"/>
<path opacity="0.33" d="M64.8841 50.2801H64.4121V51.475H64.8841V50.2801Z" fill="white"/>
<path opacity="0.33" d="M64.8841 52.4368H64.4121V53.6317H64.8841V52.4368Z" fill="white"/>
<path opacity="0.33" d="M64.8841 54.7224H64.4121V55.9173H64.8841V54.7224Z" fill="white"/>
<path opacity="0.33" d="M66.9114 43.4178H66.4395V44.6127H66.9114V43.4178Z" fill="white"/>
<path opacity="0.33" d="M66.9114 45.7034H66.4395V46.8983H66.9114V45.7034Z" fill="white"/>
<path opacity="0.33" d="M66.9114 47.989H66.4395V49.1839H66.9114V47.989Z" fill="white"/>
<path opacity="0.33" d="M66.9114 50.2801H66.4395V51.475H66.9114V50.2801Z" fill="white"/>
<path opacity="0.33" d="M66.9114 52.4368H66.4395V53.6317H66.9114V52.4368Z" fill="white"/>
<path opacity="0.33" d="M66.9114 54.7224H66.4395V55.9173H66.9114V54.7224Z" fill="white"/>
<path opacity="0.33" d="M68.9329 43.4178H68.4609V44.6127H68.9329V43.4178Z" fill="white"/>
<path opacity="0.33" d="M68.9329 45.7034H68.4609V46.8983H68.9329V45.7034Z" fill="white"/>
<path opacity="0.33" d="M68.9329 47.989H68.4609V49.1839H68.9329V47.989Z" fill="white"/>
<path opacity="0.33" d="M68.9329 50.2801H68.4609V51.475H68.9329V50.2801Z" fill="white"/>
<path opacity="0.33" d="M68.9329 52.4368H68.4609V53.6317H68.9329V52.4368Z" fill="white"/>
<path opacity="0.33" d="M68.9329 54.7224H68.4609V55.9173H68.9329V54.7224Z" fill="white"/>
<path opacity="0.5" d="M55.1688 26.7386H54.7764V27.7848H55.1688V26.7386Z" fill="white"/>
<path opacity="0.5" d="M56.1415 26.7386H55.749V27.7848H56.1415V26.7386Z" fill="white"/>
<path opacity="0.5" d="M57.1102 26.7386H56.7178V27.7848H57.1102V26.7386Z" fill="white"/>
<path opacity="0.5" d="M58.079 26.7386H57.6865V27.7848H58.079V26.7386Z" fill="white"/>
<path opacity="0.5" d="M55.1688 28.4844H54.7764V29.5305H55.1688V28.4844Z" fill="white"/>
<path opacity="0.5" d="M56.1415 28.4844H55.749V29.5305H56.1415V28.4844Z" fill="white"/>
<path opacity="0.5" d="M57.1102 28.4844H56.7178V29.5305H57.1102V28.4844Z" fill="white"/>
<path opacity="0.5" d="M58.079 28.4844H57.6865V29.5305H58.079V28.4844Z" fill="white"/>
<path opacity="0.5" d="M55.1688 30.224H54.7764V31.2702H55.1688V30.224Z" fill="white"/>
<path opacity="0.5" d="M56.1415 30.224H55.749V31.2702H56.1415V30.224Z" fill="white"/>
<path opacity="0.5" d="M59.1825 26.7386H58.79V27.7848H59.1825V26.7386Z" fill="white"/>
<path opacity="0.4" d="M28.848 37.3443H28.5996V38.3062H28.848V37.3443Z" fill="white"/>
<path opacity="0.4" d="M29.7328 37.3443H29.4844V38.3062H29.7328V37.3443Z" fill="white"/>
<path opacity="0.4" d="M30.7611 37.3443H30.5127V38.3062H30.7611V37.3443Z" fill="white"/>
<path opacity="0.4" d="M31.6449 37.3443H31.3965V38.3062H31.6449V37.3443Z" fill="white"/>
<path opacity="0.4" d="M26.891 37.3443H26.6426V38.3062H26.891V37.3443Z" fill="white"/>
<path opacity="0.4" d="M27.7699 37.3443H27.5215V38.3062H27.7699V37.3443Z" fill="white"/>
<path opacity="0.4" d="M28.848 39.0101H28.5996V39.972H28.848V39.0101Z" fill="white"/>
<path opacity="0.4" d="M29.7328 39.0101H29.4844V39.972H29.7328V39.0101Z" fill="white"/>
<path opacity="0.4" d="M30.7611 39.0101H30.5127V39.972H30.7611V39.0101Z" fill="white"/>
<path opacity="0.4" d="M31.6449 39.0101H31.3965V39.972H31.6449V39.0101Z" fill="white"/>
<path opacity="0.4" d="M26.891 39.0101H26.6426V39.972H26.891V39.0101Z" fill="white"/>
<path opacity="0.4" d="M27.7699 39.0101H27.5215V39.972H27.7699V39.0101Z" fill="white"/>
<path opacity="0.4" d="M28.848 40.676H28.5996V41.6379H28.848V40.676Z" fill="white"/>
<path opacity="0.4" d="M29.7328 40.676H29.4844V41.6379H29.7328V40.676Z" fill="white"/>
<path opacity="0.4" d="M30.7611 40.676H30.5127V41.6379H30.7611V40.676Z" fill="white"/>
<path opacity="0.4" d="M31.6449 40.676H31.3965V41.6379H31.6449V40.676Z" fill="white"/>
<path opacity="0.4" d="M26.891 40.676H26.6426V41.6379H26.891V40.676Z" fill="white"/>
<path opacity="0.4" d="M27.7699 40.676H27.5215V41.6379H27.7699V40.676Z" fill="white"/>
<path opacity="0.5" d="M75.6346 44.6968H75.2471V46.1842H75.6346V44.6968Z" fill="white"/>
<path opacity="0.5" d="M76.823 44.6968H76.4355V46.1842H76.823V44.6968Z" fill="white"/>
<path opacity="0.5" d="M77.9392 44.6968H77.5518V46.1842H77.9392V44.6968Z" fill="white"/>
<path opacity="0.33" d="M102.233 45.0043H101.939V45.8423H102.233V45.0043Z" fill="white"/>
<path opacity="0.33" d="M103.152 45.0043H102.858V45.8423H103.152V45.0043Z" fill="white"/>
<path opacity="0.33" d="M102.233 45.0043H101.939V45.8423H102.233V45.0043Z" fill="white"/>
<path opacity="0.33" d="M103.152 45.0043H102.858V45.8423H103.152V45.0043Z" fill="white"/>
<path opacity="0.33" d="M104.021 45.0043H103.728V45.8423H104.021V45.0043Z" fill="white"/>
<path opacity="0.33" d="M104.945 45.0043H104.652V45.8423H104.945V45.0043Z" fill="white"/>
<path opacity="0.33" d="M102.233 46.5067H101.939V47.3446H102.233V46.5067Z" fill="white"/>
<path opacity="0.33" d="M103.152 46.5067H102.858V47.3446H103.152V46.5067Z" fill="white"/>
<path opacity="0.33" d="M102.233 46.5067H101.939V47.3446H102.233V46.5067Z" fill="white"/>
<path opacity="0.33" d="M103.152 46.5067H102.858V47.3446H103.152V46.5067Z" fill="white"/>
<path opacity="0.33" d="M104.021 46.5067H103.728V47.3446H104.021V46.5067Z" fill="white"/>
<path opacity="0.33" d="M104.945 46.5067H104.652V47.3446H104.945V46.5067Z" fill="white"/>
<path opacity="0.33" d="M102.233 48.1034H101.939V48.9413H102.233V48.1034Z" fill="white"/>
<path opacity="0.33" d="M103.152 48.1034H102.858V48.9413H103.152V48.1034Z" fill="white"/>
<path opacity="0.33" d="M102.233 48.1034H101.939V48.9413H102.233V48.1034Z" fill="white"/>
<path opacity="0.33" d="M103.152 48.1034H102.858V48.9413H103.152V48.1034Z" fill="white"/>
<path opacity="0.33" d="M104.021 48.1034H103.728V48.9413H104.021V48.1034Z" fill="white"/>
<path opacity="0.33" d="M104.945 48.1034H104.652V48.9413H104.945V48.1034Z" fill="white"/>
<path opacity="0.33" d="M105.953 45.0043H105.66V45.8423H105.953V45.0043Z" fill="white"/>
<path opacity="0.33" d="M105.953 46.5067H105.66V47.3446H105.953V46.5067Z" fill="white"/>
<path opacity="0.33" d="M106.873 45.0043H106.58V45.8423H106.873V45.0043Z" fill="white"/>
<path opacity="0.33" d="M79.2965 42.5206H78.9785V43.8246H79.2965V42.5206Z" fill="white"/>
<path opacity="0.33" d="M80.8658 42.5206H80.5479V43.8246H80.8658V42.5206Z" fill="white"/>
<path opacity="0.33" d="M82.4361 42.5206H82.1182V43.8246H82.4361V42.5206Z" fill="white"/>
<path opacity="0.33" d="M84.0113 42.5206H83.6934V43.8246H84.0113V42.5206Z" fill="white"/>
<path opacity="0.33" d="M79.2965 45.2077H78.9785V46.5117H79.2965V45.2077Z" fill="white"/>
<path opacity="0.33" d="M80.8658 45.2077H80.5479V46.5117H80.8658V45.2077Z" fill="white"/>
<path opacity="0.33" d="M82.4361 45.2077H82.1182V46.5117H82.4361V45.2077Z" fill="white"/>
<path opacity="0.33" d="M84.0113 45.2077H83.6934V46.5117H84.0113V45.2077Z" fill="white"/>
<path opacity="0.33" d="M79.2965 47.9594H78.9785V49.2634H79.2965V47.9594Z" fill="white"/>
<path opacity="0.33" d="M80.8658 47.9594H80.5479V49.2634H80.8658V47.9594Z" fill="white"/>
<path opacity="0.33" d="M82.4361 47.9594H82.1182V49.2634H82.4361V47.9594Z" fill="white"/>
<path opacity="0.33" d="M84.0113 47.9594H83.6934V49.2634H84.0113V47.9594Z" fill="white"/>
<path opacity="0.33" d="M79.2965 50.7106H78.9785V52.0146H79.2965V50.7106Z" fill="white"/>
<path opacity="0.33" d="M80.8658 50.7106H80.5479V52.0146H80.8658V50.7106Z" fill="white"/>
<path opacity="0.33" d="M82.4361 50.7106H82.1182V52.0146H82.4361V50.7106Z" fill="white"/>
<path opacity="0.33" d="M84.0113 50.7106H83.6934V52.0146H84.0113V50.7106Z" fill="white"/>
<path opacity="0.33" d="M79.2965 53.21H78.9785V54.514H79.2965V53.21Z" fill="white"/>
<path opacity="0.33" d="M80.8658 53.21H80.5479V54.514H80.8658V53.21Z" fill="white"/>
<path opacity="0.33" d="M82.4361 53.21H82.1182V54.514H82.4361V53.21Z" fill="white"/>
<path opacity="0.33" d="M79.2965 55.9964H78.9785V57.3004H79.2965V55.9964Z" fill="white"/>
<path opacity="0.33" d="M80.8658 55.9964H80.5479V57.3004H80.8658V55.9964Z" fill="white"/>
<path opacity="0.33" d="M82.4361 55.9964H82.1182V57.3004H82.4361V55.9964Z" fill="white"/>
<path opacity="0.33" d="M84.0113 53.21H83.6934V54.514H84.0113V53.21Z" fill="white"/>
<path opacity="0.33" d="M115.026 49.4171H114.703V50.1657H115.026V49.4171Z" fill="white"/>
<path opacity="0.33" d="M115.026 50.6263H114.703V51.375H115.026V50.6263Z" fill="white"/>
<path opacity="0.33" d="M115.849 49.4171H115.526V50.1657H115.849V49.4171Z" fill="white"/>
</g>
<defs>
<clipPath id="clip0">
<rect width="110" height="41" fill="white" transform="translate(10 23)"/>
</clipPath>
</defs>
</svg>
