<svg width="14" height="13" viewBox="0 0 14 13" fill="none" xmlns="http://www.w3.org/2000/svg">
<path d="M11.0153 5.74024C11.0288 4.14763 9.67242 2.68765 7.99158 2.48575C7.95816 2.48178 7.92173 2.47576 7.88319 2.46936C7.79997 2.45557 7.71393 2.44141 7.62711 2.44141C7.28263 2.44141 7.19054 2.68339 7.16629 2.82772C7.14271 2.96804 7.16521 3.08587 7.23301 3.17812C7.34709 3.33324 7.54782 3.36077 7.70905 3.38286C7.75631 3.38939 7.8009 3.39546 7.83823 3.40384C9.34839 3.74129 9.85688 4.2718 10.1054 5.76912C10.1115 5.8057 10.1142 5.85079 10.1171 5.8986C10.1279 6.0776 10.1505 6.44997 10.5509 6.44997H10.5509C10.5843 6.44997 10.6201 6.4471 10.6574 6.44141C11.0302 6.38475 11.0185 6.04437 11.0129 5.88082C11.0113 5.83476 11.0098 5.79118 11.0137 5.76221C11.0147 5.75491 11.0152 5.74756 11.0153 5.74024Z" fill="white"/>
<path d="M7.52903 1.90117C7.57375 1.90439 7.61611 1.90748 7.65137 1.91288C10.1312 2.29425 11.2716 3.46917 11.5877 5.96839C11.593 6.01089 11.5939 6.06269 11.5948 6.11756C11.5979 6.31281 11.6044 6.71903 12.0406 6.72743L12.0542 6.72756C12.191 6.72756 12.2998 6.68631 12.3777 6.60485C12.5135 6.46281 12.504 6.25181 12.4963 6.08221C12.4945 6.0406 12.4927 6.00142 12.4931 5.96711C12.5247 3.41106 10.3121 1.09324 7.75837 1.00706C7.74778 1.00671 7.73768 1.00728 7.72746 1.00871C7.72245 1.00944 7.71314 1.01037 7.69721 1.01037C7.67175 1.01037 7.64042 1.00816 7.6072 1.00591C7.56702 1.00315 7.52149 1 7.47533 1C7.06863 1 6.99132 1.28906 6.98144 1.46137C6.95863 1.85962 7.34388 1.88764 7.52903 1.90117Z" fill="white"/>
<path d="M11.4679 9.19851C11.4152 9.15824 11.3607 9.11657 11.3096 9.07544C11.0389 8.85755 10.7508 8.65672 10.4722 8.46248C10.4144 8.42222 10.3566 8.38191 10.299 8.34149C9.94217 8.09084 9.62135 7.96903 9.31826 7.96903C8.91001 7.96903 8.5541 8.1946 8.26034 8.63938C8.13019 8.83657 7.97229 8.93243 7.7777 8.93243C7.66264 8.93243 7.53188 8.89961 7.38913 8.83481C6.23732 8.3125 5.41485 7.51167 4.94454 6.45457C4.71719 5.94365 4.7909 5.60968 5.19102 5.33787C5.41824 5.18366 5.84118 4.89656 5.81122 4.34678C5.77729 3.72246 4.39975 1.8439 3.81933 1.63055C3.5736 1.54018 3.3154 1.53935 3.05054 1.62846C2.38328 1.85277 1.90446 2.24669 1.6657 2.76757C1.43497 3.27088 1.44538 3.86185 1.69583 4.4766C2.41984 6.254 3.43774 7.80367 4.72138 9.08246C5.97784 10.3343 7.52213 11.3597 9.31131 12.1301C9.47259 12.1995 9.64174 12.2374 9.76525 12.265C9.80734 12.2744 9.84368 12.2825 9.87018 12.2898C9.88474 12.2937 9.89974 12.2959 9.91481 12.296L9.92895 12.2961C9.92899 12.2961 9.92895 12.2961 9.92902 12.2961C10.7705 12.2961 11.781 11.5271 12.0913 10.6504C12.3632 9.8828 11.8668 9.50337 11.4679 9.19851Z" fill="white"/>
<path d="M7.90143 3.93152C7.75736 3.93516 7.45751 3.9426 7.35232 4.24799C7.3031 4.39069 7.30899 4.51459 7.36986 4.61625C7.45917 4.76542 7.63031 4.81113 7.78596 4.83622C8.35045 4.9268 8.64035 5.23895 8.69833 5.81848C8.72527 6.08871 8.90724 6.27741 9.14088 6.27741H9.14093C9.15818 6.27741 9.17583 6.27639 9.19341 6.27425C9.4744 6.24083 9.61064 6.03437 9.59833 5.66069C9.60283 5.27069 9.39873 4.82794 9.0516 4.47527C8.70323 4.12152 8.28336 3.9223 7.90143 3.93152Z" fill="white"/>
</svg>
