<svg width="21" height="20" viewBox="0 0 21 20"
  xmlns="http://www.w3.org/2000/svg">
  <path d="M10.6098 13.39L6.72984 17.27C6.26007 17.7234 5.6327 17.9767 4.97984 17.9767C4.32698 17.9767 3.6996 17.7234 3.22984 17.27C2.99944 17.0405 2.81663 16.7678 2.69189 16.4675C2.56715 16.1672 2.50294 15.8452 2.50294 15.52C2.50294 15.1948 2.56715 14.8728 2.69189 14.5725C2.81663 14.2722 2.99944 13.9995 3.22984 13.77L7.10984 9.89C7.29814 9.7017 7.40393 9.44631 7.40393 9.18C7.40393 8.9137 7.29814 8.65831 7.10984 8.47C6.92153 8.2817 6.66614 8.17591 6.39984 8.17591C6.13353 8.17591 5.87814 8.2817 5.68984 8.47L1.80984 12.36C1.02819 13.2108 0.605457 14.3307 0.629911 15.4858C0.654365 16.6408 1.12412 17.7418 1.94107 18.5588C2.75802 19.3757 3.859 19.8455 5.01408 19.8699C6.16917 19.8944 7.28904 19.4716 8.13984 18.69L12.0298 14.81C12.2181 14.6217 12.3239 14.3663 12.3239 14.1C12.3239 13.8337 12.2181 13.5783 12.0298 13.39C11.8415 13.2017 11.5861 13.0959 11.3198 13.0959C11.0535 13.0959 10.7981 13.2017 10.6098 13.39ZM19.1898 1.31C18.3486 0.47401 17.2108 0.00479126 16.0248 0.00479126C14.8389 0.00479126 13.7011 0.47401 12.8598 1.31L8.96984 5.19C8.8766 5.28324 8.80264 5.39393 8.75218 5.51575C8.70172 5.63758 8.67575 5.76814 8.67575 5.9C8.67575 6.03186 8.70172 6.16243 8.75218 6.28425C8.80264 6.40607 8.8766 6.51676 8.96984 6.61C9.06308 6.70324 9.17377 6.7772 9.29559 6.82766C9.41741 6.87812 9.54798 6.90409 9.67984 6.90409C9.8117 6.90409 9.94226 6.87812 10.0641 6.82766C10.1859 6.7772 10.2966 6.70324 10.3898 6.61L14.2698 2.73C14.7396 2.27663 15.367 2.02326 16.0198 2.02326C16.6727 2.02326 17.3001 2.27663 17.7698 2.73C18.0002 2.95949 18.183 3.23221 18.3078 3.53252C18.4325 3.83283 18.4967 4.15482 18.4967 4.48C18.4967 4.80519 18.4325 5.12717 18.3078 5.42748C18.183 5.72779 18.0002 6.00052 17.7698 6.23L13.8898 10.11C13.7961 10.203 13.7217 10.3136 13.6709 10.4354C13.6202 10.5573 13.594 10.688 13.594 10.82C13.594 10.952 13.6202 11.0827 13.6709 11.2046C13.7217 11.3264 13.7961 11.437 13.8898 11.53C13.9828 11.6237 14.0934 11.6981 14.2153 11.7489C14.3371 11.7997 14.4678 11.8258 14.5998 11.8258C14.7318 11.8258 14.8626 11.7997 14.9844 11.7489C15.1063 11.6981 15.2169 11.6237 15.3098 11.53L19.1898 7.64C20.0258 6.79878 20.495 5.66098 20.495 4.475C20.495 3.28903 20.0258 2.15122 19.1898 1.31ZM7.32984 13.17C7.42328 13.2627 7.53409 13.336 7.65593 13.3858C7.77777 13.4355 7.90823 13.4608 8.03984 13.46C8.17144 13.4608 8.30191 13.4355 8.42374 13.3858C8.54558 13.336 8.6564 13.2627 8.74984 13.17L13.6698 8.25C13.8581 8.0617 13.9639 7.8063 13.9639 7.54C13.9639 7.2737 13.8581 7.01831 13.6698 6.83C13.4815 6.6417 13.2261 6.53591 12.9598 6.53591C12.6935 6.53591 12.4381 6.6417 12.2498 6.83L7.32984 11.75C7.23611 11.843 7.16171 11.9536 7.11095 12.0754C7.06018 12.1973 7.03404 12.328 7.03404 12.46C7.03404 12.592 7.06018 12.7227 7.11095 12.8446C7.16171 12.9664 7.23611 13.077 7.32984 13.17Z" fill="#dd0000"/>
</svg>
