<svg width="14" height="13" viewBox="0 0 14 13" fill="none" xmlns="http://www.w3.org/2000/svg">
<path d="M10.471 2.249C10.3167 2.249 10.1659 2.29475 10.0377 2.38045C9.90938 2.46616 9.80941 2.58798 9.75037 2.73051C9.69134 2.87303 9.67589 3.02987 9.70599 3.18117C9.73608 3.33248 9.81037 3.47146 9.91946 3.58054C10.0285 3.68963 10.1675 3.76392 10.3188 3.79401C10.4701 3.82411 10.627 3.80866 10.7695 3.74963C10.912 3.69059 11.0338 3.59062 11.1195 3.46234C11.2053 3.33407 11.251 3.18327 11.251 3.029C11.251 2.82213 11.1688 2.62373 11.0225 2.47746C10.8763 2.33118 10.6779 2.249 10.471 2.249ZM13.461 3.822C13.4484 3.28269 13.3474 2.74911 13.162 2.2425C12.9967 1.80904 12.7395 1.41653 12.408 1.092C12.0861 0.758827 11.6927 0.503215 11.2575 0.3445C10.7522 0.153505 10.2181 0.0501865 9.678 0.039C8.989 -3.63216e-08 8.768 0 7 0C5.232 0 5.011 -3.63216e-08 4.322 0.039C3.78195 0.0501865 3.24777 0.153505 2.7425 0.3445C2.30809 0.504822 1.91501 0.760214 1.592 1.092C1.25883 1.41387 1.00321 1.80729 0.8445 2.2425C0.653505 2.74777 0.550186 3.28195 0.539 3.822C0.5 4.511 0.5 4.732 0.5 6.5C0.5 8.268 0.5 8.489 0.539 9.178C0.550186 9.71805 0.653505 10.2522 0.8445 10.7575C1.00321 11.1927 1.25883 11.5861 1.592 11.908C1.91501 12.2398 2.30809 12.4952 2.7425 12.6555C3.24777 12.8465 3.78195 12.9498 4.322 12.961C5.011 13 5.232 13 7 13C8.768 13 8.989 13 9.678 12.961C10.2181 12.9498 10.7522 12.8465 11.2575 12.6555C11.6927 12.4968 12.0861 12.2412 12.408 11.908C12.741 11.5847 12.9984 11.1918 13.162 10.7575C13.3474 10.2509 13.4484 9.71731 13.461 9.178C13.461 8.489 13.5 8.268 13.5 6.5C13.5 4.732 13.5 4.511 13.461 3.822ZM12.291 9.1C12.2863 9.5126 12.2115 9.92141 12.07 10.309C11.9662 10.5919 11.7995 10.8475 11.5825 11.0565C11.3717 11.2713 11.1166 11.4377 10.835 11.544C10.4474 11.6855 10.0386 11.7603 9.626 11.765C8.976 11.7975 8.7355 11.804 7.026 11.804C5.3165 11.804 5.076 11.804 4.426 11.765C3.99758 11.773 3.57099 11.7071 3.165 11.57C2.89576 11.4582 2.65238 11.2923 2.45 11.0825C2.23426 10.8737 2.06965 10.6179 1.969 10.335C1.81031 9.94185 1.72229 9.52376 1.709 9.1C1.709 8.45 1.67 8.2095 1.67 6.5C1.67 4.7905 1.67 4.55 1.709 3.9C1.71191 3.47819 1.78892 3.06016 1.9365 2.665C2.05093 2.39064 2.22657 2.14608 2.45 1.95C2.64748 1.72651 2.89154 1.54901 3.165 1.43C3.56121 1.28703 3.9788 1.2123 4.4 1.209C5.05 1.209 5.2905 1.17 7 1.17C8.7095 1.17 8.95 1.17 9.6 1.209C10.0126 1.21373 10.4214 1.28846 10.809 1.43C11.1044 1.53962 11.3695 1.71785 11.5825 1.95C11.7955 2.14967 11.9619 2.39378 12.07 2.665C12.2145 3.06081 12.2892 3.47866 12.291 3.9C12.3235 4.55 12.33 4.7905 12.33 6.5C12.33 8.2095 12.3235 8.45 12.291 9.1ZM7 3.1655C6.34078 3.16678 5.69673 3.36344 5.14923 3.73062C4.60173 4.0978 4.17535 4.61903 3.92396 5.22844C3.67258 5.83785 3.60747 6.5081 3.73687 7.1545C3.86626 7.8009 4.18435 8.39445 4.65095 8.86014C5.11755 9.32582 5.71171 9.64276 6.35836 9.7709C7.00501 9.89903 7.67513 9.83262 8.28405 9.58005C8.89298 9.32748 9.41337 8.90009 9.77948 8.35187C10.1456 7.80366 10.341 7.15922 10.341 6.5C10.3419 6.06132 10.256 5.62679 10.0883 5.22142C9.92063 4.81605 9.67446 4.44783 9.36397 4.13793C9.05347 3.82804 8.68477 3.58259 8.27907 3.4157C7.87337 3.24882 7.43868 3.16379 7 3.1655ZM7 8.6645C6.5719 8.6645 6.15342 8.53755 5.79747 8.29972C5.44152 8.06188 5.16409 7.72383 5.00026 7.32832C4.83644 6.93281 4.79357 6.4976 4.87709 6.07773C4.96061 5.65786 5.16676 5.27218 5.46947 4.96947C5.77218 4.66676 6.15786 4.46061 6.57773 4.37709C6.9976 4.29357 7.43281 4.33644 7.82832 4.50026C8.22383 4.66409 8.56188 4.94152 8.79972 5.29747C9.03755 5.65342 9.1645 6.0719 9.1645 6.5C9.1645 6.78425 9.10851 7.06571 8.99974 7.32832C8.89096 7.59093 8.73152 7.82954 8.53053 8.03053C8.32954 8.23152 8.09093 8.39096 7.82832 8.49974C7.56571 8.60851 7.28425 8.6645 7 8.6645Z" fill="white"/>
</svg>
