<svg width="14" height="13" viewBox="0 0 14 13" fill="none" xmlns="http://www.w3.org/2000/svg">
<path d="M12.4943 3.552C11.7739 3.552 11.1092 3.31334 10.5754 2.91073C9.9632 2.44919 9.52335 1.77217 9.36803 0.991841C9.32957 0.79904 9.30886 0.600075 9.30688 0.396179H7.24894V6.01946L7.24647 9.0996C7.24647 9.92307 6.71023 10.6213 5.96689 10.8669C5.75116 10.9381 5.51817 10.9719 5.27556 10.9586C4.9659 10.9416 4.67571 10.8481 4.42349 10.6972C3.88675 10.3762 3.52285 9.79388 3.51299 9.1277C3.49745 8.08653 4.33917 7.23766 5.37961 7.23766C5.58498 7.23766 5.78222 7.27119 5.96689 7.33209V5.7951V5.24259C5.77211 5.21374 5.57389 5.1987 5.37344 5.1987C4.23464 5.1987 3.16954 5.67208 2.4082 6.52489C1.83276 7.16937 1.48759 7.99161 1.43433 8.85379C1.36456 9.98643 1.77901 11.0631 2.58276 11.8575C2.70086 11.9741 2.82487 12.0823 2.95455 12.1822C3.64366 12.7125 4.48611 13 5.37344 13C5.57389 13 5.77211 12.9852 5.96689 12.9564C6.79578 12.8336 7.56058 12.4541 8.16413 11.8575C8.90575 11.1245 9.31551 10.1514 9.31995 9.11562L9.30935 4.51601C9.66315 4.78894 10.05 5.01478 10.4652 5.19007C11.1109 5.46251 11.7955 5.60058 12.5002 5.60033V4.106V3.55151C12.5007 3.552 12.4948 3.552 12.4943 3.552Z" fill="white"/>
</svg>
