<svg width="23" height="16" viewBox="0 0 23 16" fill="none" xmlns="http://www.w3.org/2000/svg">
<path d="M7.33922 15.5201C5.57922 14.8001 4.15922 13.7601 3.07922 12.4001C1.99922 11.0001 1.45922 9.32009 1.45922 7.36009C1.45922 7.16009 1.45922 6.94009 1.45922 6.70009C1.45922 6.46009 1.47922 6.24009 1.51922 6.04009C1.55922 5.64009 1.73922 5.44009 2.05922 5.44009C2.25922 5.44009 2.45922 5.54009 2.65922 5.74009C2.85922 5.94009 3.11922 6.16009 3.43922 6.40009C3.71922 6.64009 4.05922 6.86009 4.45922 7.06009C4.81922 7.26009 5.27922 7.36009 5.83922 7.36009C6.75922 7.36009 7.57922 7.02009 8.29922 6.34009C8.97922 5.62009 9.31922 4.80009 9.31922 3.88009C9.31922 2.92009 8.93922 2.10009 8.17922 1.42009C7.41922 0.700088 6.51922 0.340088 5.47922 0.340088C4.59922 0.340088 3.85922 0.540088 3.25922 0.940087C2.65922 1.30009 2.17922 1.80009 1.81922 2.44009C1.45922 3.04009 1.19922 3.72009 1.03922 4.48009C0.879219 5.24009 0.799217 5.98009 0.799217 6.70009C0.799217 9.14009 1.39922 11.1201 2.59922 12.6401C3.75922 14.1201 5.27922 15.2201 7.15922 15.9401L7.33922 15.5201ZM20.7192 15.5201C18.9592 14.8001 17.5392 13.7601 16.4592 12.4001C15.3792 11.0001 14.8392 9.32009 14.8392 7.36009C14.8392 7.16009 14.8392 6.94009 14.8392 6.70009C14.8392 6.46009 14.8592 6.24009 14.8992 6.04009C14.9392 5.64009 15.1192 5.44009 15.4392 5.44009C15.6392 5.44009 15.8392 5.54009 16.0392 5.74009C16.2392 5.94009 16.4992 6.16009 16.8192 6.40009C17.0992 6.64009 17.4392 6.86009 17.8392 7.06009C18.1992 7.26009 18.6592 7.36009 19.2192 7.36009C20.1392 7.36009 20.9592 7.02009 21.6792 6.34009C22.3592 5.62009 22.6992 4.80009 22.6992 3.88009C22.6992 2.92009 22.3192 2.10009 21.5592 1.42009C20.7992 0.700088 19.8992 0.340088 18.8592 0.340088C17.9792 0.340088 17.2392 0.540088 16.6392 0.940087C16.0392 1.30009 15.5592 1.80009 15.1992 2.44009C14.8392 3.04009 14.5792 3.72009 14.4192 4.48009C14.2592 5.24009 14.1792 5.98009 14.1792 6.70009C14.1792 9.14009 14.7792 11.1201 15.9792 12.6401C17.1392 14.1201 18.6592 15.2201 20.5392 15.9401L20.7192 15.5201Z" fill="url(#paint0_linear)"/>
<defs>
<linearGradient id="paint0_linear" x1="11.7492" y1="0.340088" x2="11.7492" y2="15.9401" gradientUnits="userSpaceOnUse">
<stop stop-color="#DD0000"/>
<stop offset="1" stop-color="#840000"/>
</linearGradient>
</defs>
</svg>
