<svg width="14" height="14" viewBox="0 0 14 14" fill="none" xmlns="http://www.w3.org/2000/svg">
<path d="M11.7975 0H2.67284C2.02511 0 1.5 0.525068 1.5 1.17284V10.2975C1.5 10.9453 2.02507 11.4704 2.67284 11.4704H4.50245V13.0654L6.72343 11.4704H11.7975C12.4453 11.4704 12.9704 10.9453 12.9704 10.2975V1.1728C12.9704 0.525068 12.4453 0 11.7975 0Z" fill="#FAFAFA"/>
<path d="M12.9707 10.067V8.22916C12.7323 7.98574 12.4001 7.83453 12.0324 7.83453H9.36159L12.9707 2.91735V1.34147C12.7849 1.17554 12.542 1.07892 12.2841 1.07892H6.825C6.09954 1.07892 5.51139 1.66707 5.51139 2.39253C5.51139 3.11799 6.09954 3.70613 6.825 3.70613H9.12051L5.40471 8.82488C5.17694 9.13857 5.14444 9.55354 5.32049 9.8989C5.49654 10.2443 5.85142 10.4617 6.2391 10.4617H12.0325C12.4001 10.4617 12.7323 10.3105 12.9707 10.067Z" fill="#DD0000"/>
</svg>
