<svg width="23" height="16" viewBox="0 0 23 16" fill="none" xmlns="http://www.w3.org/2000/svg">
<path d="M15.6608 15.5201C17.4208 14.8001 18.8408 13.7601 19.9208 12.4001C21.0008 11.0001 21.5408 9.32009 21.5408 7.36009C21.5408 7.16009 21.5408 6.94009 21.5408 6.70009C21.5408 6.46009 21.5208 6.24009 21.4808 6.04009C21.4408 5.64009 21.2608 5.44009 20.9408 5.44009C20.7408 5.44009 20.5408 5.54009 20.3408 5.74009C20.1408 5.94009 19.8808 6.16009 19.5608 6.40009C19.2808 6.64009 18.9408 6.86009 18.5408 7.06009C18.1808 7.26009 17.7208 7.36009 17.1608 7.36009C16.2408 7.36009 15.4208 7.02009 14.7008 6.34009C14.0208 5.62009 13.6808 4.80009 13.6808 3.88009C13.6808 2.92009 14.0608 2.10009 14.8208 1.42009C15.5808 0.700088 16.4808 0.340088 17.5208 0.340088C18.4008 0.340088 19.1408 0.540088 19.7408 0.940087C20.3408 1.30009 20.8208 1.80009 21.1808 2.44009C21.5408 3.04009 21.8008 3.72009 21.9608 4.48009C22.1208 5.24009 22.2008 5.98009 22.2008 6.70009C22.2008 9.14009 21.6008 11.1201 20.4008 12.6401C19.2408 14.1201 17.7208 15.2201 15.8408 15.9401L15.6608 15.5201ZM2.28078 15.5201C4.04078 14.8001 5.46078 13.7601 6.54078 12.4001C7.62078 11.0001 8.16078 9.32009 8.16078 7.36009C8.16078 7.16009 8.16078 6.94009 8.16078 6.70009C8.16078 6.46009 8.14078 6.24009 8.10078 6.04009C8.06078 5.64009 7.88078 5.44009 7.56078 5.44009C7.36078 5.44009 7.16078 5.54009 6.96078 5.74009C6.76078 5.94009 6.50078 6.16009 6.18078 6.40009C5.90078 6.64009 5.56078 6.86009 5.16078 7.06009C4.80078 7.26009 4.34078 7.36009 3.78078 7.36009C2.86078 7.36009 2.04078 7.02009 1.32078 6.34009C0.640781 5.62009 0.300781 4.80009 0.300781 3.88009C0.300781 2.92009 0.680781 2.10009 1.44078 1.42009C2.20078 0.700088 3.10078 0.340088 4.14078 0.340088C5.02078 0.340088 5.76078 0.540088 6.36078 0.940087C6.96078 1.30009 7.44078 1.80009 7.80078 2.44009C8.16078 3.04009 8.42078 3.72009 8.58078 4.48009C8.74078 5.24009 8.82078 5.98009 8.82078 6.70009C8.82078 9.14009 8.22078 11.1201 7.02078 12.6401C5.86078 14.1201 4.34078 15.2201 2.46078 15.9401L2.28078 15.5201Z" fill="url(#paint0_linear)"/>
<defs>
<linearGradient id="paint0_linear" x1="11.2508" y1="0.340088" x2="11.2508" y2="15.9401" gradientUnits="userSpaceOnUse">
<stop stop-color="#DD0000"/>
<stop offset="1" stop-color="#840000"/>
</linearGradient>
</defs>
</svg>
