<svg width="14" height="13" viewBox="0 0 14 13" fill="none" xmlns="http://www.w3.org/2000/svg">
<path d="M11.5962 1.90382C10.3685 0.676103 8.73623 0 7.00001 0C5.2638 0 3.63148 0.676103 2.40382 1.90379C1.1761 3.13148 0.5 4.7638 0.5 6.50001C0.5 8.23623 1.1761 9.86852 2.40382 11.0962C3.63148 12.3239 5.2638 13 7.00001 13C8.73625 13 10.3685 12.3239 11.5962 11.0962C12.8239 9.86852 13.5 8.2362 13.5 6.49999C13.5 4.76377 12.8239 3.13148 11.5962 1.90382ZM2.94299 2.44299C3.51456 1.87142 4.18556 1.43546 4.91691 1.15091C4.72211 1.3941 4.53983 1.67363 4.37279 1.98801C4.17878 2.35313 4.01138 2.75413 3.87196 3.18244C3.38898 3.10228 2.94147 3.00372 2.54166 2.88804C2.66697 2.73402 2.80065 2.58533 2.94299 2.44299ZM2.08004 3.54416C2.54766 3.69389 3.08243 3.82015 3.66596 3.92017C3.50346 4.60993 3.40782 5.35218 3.38499 6.11877H1.27533C1.33525 5.19879 1.61155 4.32078 2.08004 3.54416ZM2.03852 9.38536C1.59533 8.6262 1.33345 7.77353 1.2753 6.88125H3.38644C3.41137 7.62594 3.50511 8.34708 3.66213 9.01879C3.06662 9.11533 2.51841 9.2384 2.03852 9.38536ZM2.94299 10.557C2.781 10.395 2.63013 10.2249 2.49025 10.0478C2.9047 9.93291 3.36803 9.83559 3.86678 9.75753C4.00719 10.1918 4.17639 10.5981 4.37276 10.9677C4.55481 11.3103 4.75497 11.6113 4.9697 11.8692C4.21788 11.5853 3.5283 11.1423 2.94299 10.557ZM6.61875 12.1397C6.03964 11.9774 5.49181 11.4486 5.04615 10.6099C4.89028 10.3166 4.75337 9.99659 4.63609 9.65554C5.264 9.58643 5.93216 9.54557 6.61875 9.53598V12.1397ZM6.61875 8.77342C5.85733 8.7838 5.11519 8.83161 4.42017 8.91324C4.26686 8.27947 4.17461 7.59349 4.1493 6.88128H6.61877V8.77342H6.61875ZM6.61875 6.11875H4.14785C4.17098 5.38663 4.2647 4.68151 4.42278 4.03161C5.11336 4.11794 5.85395 4.17044 6.61875 4.18548V6.11875ZM6.61875 3.42287C5.92949 3.40898 5.26281 3.36404 4.63934 3.29071C4.75591 2.95321 4.89175 2.63644 5.04615 2.34579C5.49178 1.50709 6.03964 0.978252 6.61875 0.816031V3.42287ZM11.944 3.58466C12.3978 4.35128 12.6658 5.21471 12.7247 6.11875H10.6151C10.5925 5.36099 10.4987 4.62707 10.3396 3.94411C10.927 3.84925 11.4684 3.72857 11.944 3.58466ZM11.057 2.44299C11.2101 2.59607 11.3531 2.75654 11.4865 2.92313C11.0784 3.03457 10.6239 3.12915 10.1356 3.20527C9.99472 2.76835 9.82473 2.35963 9.62726 1.98801C9.46022 1.67363 9.27794 1.3941 9.08314 1.15091C9.81444 1.43546 10.4855 1.87142 11.057 2.44299ZM7.38128 6.88128H9.85075C9.82526 7.59902 9.73177 8.29021 9.57628 8.92807C8.8858 8.84223 8.14554 8.7902 7.38128 8.77558V6.88128ZM7.38128 6.11875V4.18801C8.14313 4.17801 8.88585 4.13061 9.58153 4.04928C9.73705 4.69428 9.82924 5.39326 9.85217 6.11875H7.38128ZM7.38123 0.816031H7.38125C7.96036 0.978252 8.50819 1.50709 8.95385 2.34579C9.11071 2.64101 9.24841 2.96324 9.3662 3.30678C8.73745 3.37564 8.06853 3.41619 7.38123 3.42546V0.816031ZM7.38128 12.1397V9.53819C8.06987 9.55169 8.73605 9.59623 9.35929 9.6691C9.24302 10.0051 9.10764 10.3205 8.95388 10.6099C8.50822 11.4486 7.96039 11.9774 7.38128 12.1397ZM11.057 10.557C10.4717 11.1423 9.78215 11.5853 9.0303 11.8692C9.24503 11.6113 9.44519 11.3103 9.62724 10.9677C9.82071 10.6036 9.98773 10.2038 10.1269 9.77673C10.6212 9.85831 11.0784 9.95919 11.4857 10.0778C11.3526 10.244 11.2098 10.4042 11.057 10.557ZM11.9412 9.42017C11.468 9.26805 10.9256 9.14006 10.3333 9.03905C10.4932 8.36163 10.5884 7.63343 10.6136 6.88128H12.7248C12.6657 7.78717 12.3968 8.65236 11.9412 9.42017Z" fill="white"/>
</svg>
