<svg width="25" height="24" viewBox="0 0 25 24"
  xmlns="http://www.w3.org/2000/svg">
  <path d="M22.5 7.23999C22.5008 7.10838 22.4756 6.97792 22.4258 6.85608C22.376 6.73424 22.3027 6.62343 22.21 6.52999L17.97 2.28999C17.8766 2.1973 17.7658 2.12398 17.6439 2.07421C17.5221 2.02445 17.3916 1.99923 17.26 1.99999C17.1284 1.99923 16.9979 2.02445 16.8761 2.07421C16.7543 2.12398 16.6435 2.1973 16.55 2.28999L13.72 5.11999L2.79002 16.05C2.69734 16.1434 2.62401 16.2542 2.57425 16.3761C2.52448 16.4979 2.49926 16.6284 2.50002 16.76V21C2.50002 21.2652 2.60537 21.5196 2.79291 21.7071C2.98045 21.8946 3.2348 22 3.50002 22H7.74002C7.87994 22.0076 8.01991 21.9857 8.15084 21.9358C8.28176 21.8858 8.40073 21.8089 8.50002 21.71L19.37 10.78L22.21 7.99999C22.3013 7.90307 22.3757 7.79152 22.43 7.66999C22.4397 7.59028 22.4397 7.5097 22.43 7.42999C22.4347 7.38344 22.4347 7.33654 22.43 7.28999L22.5 7.23999ZM7.33002 20H4.50002V17.17L14.43 7.23999L17.26 10.07L7.33002 20ZM18.67 8.65999L15.84 5.82999L17.26 4.41999L20.08 7.23999L18.67 8.65999Z" fill="#dd0000"/>
</svg>
