<svg width="28" height="28" viewBox="0 0 28 28" fill="none" xmlns="http://www.w3.org/2000/svg">
<path d="M22.5335 13.2366C22.7683 12.9965 22.9318 12.696 23.0058 12.3684C23.0797 12.0409 23.0612 11.6992 22.9524 11.3816C22.8502 11.063 22.6606 10.7795 22.4052 10.5634C22.1498 10.3473 21.8388 10.2072 21.5077 10.1592L17.8404 9.59498C17.8233 9.59002 17.8076 9.58131 17.7943 9.56948C17.7809 9.55765 17.7704 9.543 17.7635 9.52659L16.1564 6.10726C16.0155 5.78707 15.7845 5.51477 15.4916 5.32354C15.1986 5.1323 14.8564 5.03037 14.5066 5.03017C14.1608 5.02874 13.822 5.1272 13.5308 5.31373C13.2397 5.50025 13.0086 5.7669 12.8653 6.08161L11.2582 9.50095C11.2495 9.51762 11.2373 9.5323 11.2226 9.54406C11.2079 9.55583 11.1909 9.56443 11.1727 9.56933L7.51406 10.1592C7.18246 10.2086 6.87107 10.349 6.61452 10.5648C6.35796 10.7806 6.1663 11.0633 6.06084 11.3816C5.95595 11.7003 5.94033 12.0417 6.01568 12.3687C6.09102 12.6957 6.25446 12.9959 6.48826 13.2366L9.18953 16.0148C9.19731 16.0323 9.20133 16.0512 9.20133 16.0703C9.20133 16.0895 9.19731 16.1084 9.18953 16.1259L8.55695 20.0068C8.49815 20.3448 8.53648 20.6926 8.66751 21.0096C8.79853 21.3267 9.01685 21.6 9.2971 21.7979C9.57735 21.9958 9.908 22.11 10.2506 22.1274C10.5932 22.1448 10.9338 22.0645 11.2326 21.896L14.4211 20.1265C14.437 20.1183 14.4545 20.114 14.4724 20.114C14.4903 20.114 14.5079 20.1183 14.5237 20.1265L17.7122 21.896C18.0114 22.0609 18.351 22.1383 18.6921 22.1193C19.0332 22.1004 19.3622 21.9858 19.6412 21.7888C19.9203 21.5917 20.1383 21.3201 20.2704 21.005C20.4024 20.6899 20.4431 20.344 20.3878 20.0068L19.798 16.143C19.789 16.1274 19.7843 16.1097 19.7843 16.0917C19.7843 16.0737 19.789 16.056 19.798 16.0404L22.5335 13.2366Z" fill="white"/>
</svg>
