<svg width="17" height="12" viewBox="0 0 17 12" fill="none" xmlns="http://www.w3.org/2000/svg">
<path d="M15.7824 2.35625C15.603 1.66475 15.0746 1.12014 14.4037 0.935325C13.1876 0.599487 8.31119 0.599487 8.31119 0.599487C8.31119 0.599487 3.43482 0.599487 2.21869 0.935325C1.54777 1.12017 1.01936 1.66475 0.840013 2.35625C0.51416 3.60963 0.51416 6.22469 0.51416 6.22469C0.51416 6.22469 0.51416 8.83976 0.840013 10.0931C1.01936 10.7846 1.54777 11.3066 2.21869 11.4914C3.43482 11.8272 8.31119 11.8272 8.31119 11.8272C8.31119 11.8272 13.1876 11.8272 14.4037 11.4914C15.0746 11.3066 15.603 10.7846 15.7824 10.0931C16.1082 8.83976 16.1082 6.22469 16.1082 6.22469C16.1082 6.22469 16.1082 3.60963 15.7824 2.35625ZM6.71633 8.59898V3.85041L10.792 6.22475L6.71633 8.59898Z" fill="#FB4D4D"/>
</svg>
