<svg width="28" height="28" viewBox="0 0 28 28" fill="none" xmlns="http://www.w3.org/2000/svg">
<path d="M9.43156 21.0312L4.97656 24.5312V6.03125C4.97656 5.76603 5.08192 5.51168 5.26946 5.32414C5.45699 5.13661 5.71135 5.03125 5.97656 5.03125H23.9766C24.2418 5.03125 24.4961 5.13661 24.6837 5.32414C24.8712 5.51168 24.9766 5.76603 24.9766 6.03125V20.0312C24.9766 20.2965 24.8712 20.5508 24.6837 20.7384C24.4961 20.9259 24.2418 21.0312 23.9766 21.0312H9.43156ZM13.9766 16.0312V18.0312H15.9766V16.0312H13.9766ZM11.5436 10.8442L13.5056 11.2373C13.5612 10.9587 13.6949 10.7017 13.8909 10.4961C14.087 10.2905 14.3374 10.1448 14.613 10.076C14.8886 10.0071 15.1781 10.018 15.4478 10.1072C15.7175 10.1965 15.9563 10.3605 16.1364 10.5802C16.3165 10.7998 16.4306 11.0661 16.4652 11.3481C16.4999 11.63 16.4538 11.9161 16.3323 12.1728C16.2108 12.4296 16.0189 12.6466 15.7789 12.7986C15.5389 12.9505 15.2606 13.0312 14.9766 13.0312H13.9766V15.0312H14.9766C15.6393 15.031 16.2884 14.8427 16.8483 14.488C17.4082 14.1334 17.8559 13.627 18.1393 13.0279C18.4227 12.4288 18.5302 11.7615 18.4493 11.1037C18.3683 10.4459 18.1022 9.82462 17.682 9.3121C17.2618 8.79958 16.7047 8.41692 16.0755 8.20861C15.4463 8.00031 14.7709 7.97493 14.1279 8.13543C13.4848 8.29593 12.9006 8.63572 12.4431 9.11525C11.9856 9.59479 11.6737 10.1944 11.5436 10.8442Z" fill="white"/>
</svg>
