<svg width="28" height="28" viewBox="0 0 28 28" fill="none" xmlns="http://www.w3.org/2000/svg">
<path d="M4.36719 6.85329C4.36733 6.02381 4.59318 5.21002 5.02053 4.49911C5.44789 3.7882 6.06065 3.20698 6.79312 2.81773C7.5256 2.42849 8.35017 2.2459 9.1785 2.28953C10.0068 2.33316 10.8077 2.60137 11.4952 3.06541L12.6382 9.53191L9.02019 11.4253C9.67207 13.1433 10.681 14.7034 11.9803 16.0027C13.2796 17.302 14.8397 18.3109 16.5577 18.9628L18.4466 15.3414L24.9131 16.4844C25.3766 17.1721 25.6443 17.9729 25.6875 18.8011C25.7308 19.6292 25.5479 20.4536 25.1584 21.1858C24.769 21.9179 24.1877 22.5304 23.4768 22.9574C22.7659 23.3845 21.9522 23.6102 21.1229 23.6102C16.6794 23.6084 12.4184 21.8423 9.27641 18.7001C6.13445 15.558 4.36868 11.2968 4.36719 6.85329Z" fill="white"/>
</svg>
