<svg width="28" height="28" viewBox="0 0 28 28" fill="none" xmlns="http://www.w3.org/2000/svg">
<path d="M14.4843 3.40625C8.92308 3.40625 4.35938 7.97003 4.35938 13.5313C4.35938 15.4669 4.94461 17.3354 5.98049 18.9558L4.40181 22.8428C4.31373 23.0629 4.36531 23.3144 4.53332 23.4824C4.69872 23.6478 4.94924 23.703 5.17294 23.6139L9.0598 22.0351C10.6803 23.071 12.5487 23.6562 14.4843 23.6562C20.0456 23.6562 24.6094 19.0926 24.6094 13.5313C24.6094 7.97007 20.0456 3.40625 14.4843 3.40625V3.40625Z" fill="white"/>
<ellipse cx="9.98438" cy="13.5312" rx="1.125" ry="1.125" fill="#D51C08"/>
<circle cx="14.4844" cy="13.5312" r="1.125" fill="#D51C08"/>
<ellipse cx="18.9844" cy="13.5312" rx="1.125" ry="1.125" fill="#D51C08"/>
</svg>
