<svg width="12" height="10" viewBox="0 0 12 10" fill="none" xmlns="http://www.w3.org/2000/svg">
<path d="M10.1453 2.64982C10.1522 2.7562 10.1522 2.86261 10.1522 2.96899C10.1522 6.2138 7.88834 9.95259 3.7506 9.95259C2.47584 9.95259 1.29166 9.54982 0.295532 8.85073C0.476651 8.87351 0.65078 8.88111 0.838868 8.88111C1.8907 8.88111 2.85897 8.49357 3.63218 7.83244C2.64303 7.80964 1.81409 7.10292 1.52848 6.13023C1.66781 6.15301 1.80712 6.16821 1.95341 6.16821C2.15542 6.16821 2.35744 6.13781 2.54551 6.08464C1.51456 5.85665 0.741329 4.86877 0.741329 3.67571V3.64532C1.04085 3.8277 1.38917 3.94169 1.75834 3.95687C1.1523 3.51611 0.755267 2.76381 0.755267 1.9127C0.755267 1.45676 0.8667 1.03881 1.06176 0.674045C2.16933 2.16347 3.83419 3.13614 5.70102 3.24255C5.6662 3.06017 5.64529 2.87021 5.64529 2.68023C5.64529 1.32757 6.64838 0.225708 7.89527 0.225708C8.54309 0.225708 9.12822 0.522073 9.53921 1.00082C10.0477 0.894436 10.5353 0.689249 10.9672 0.408088C10.8 0.978036 10.4448 1.45678 9.97806 1.76072C10.4309 1.70756 10.8697 1.57074 11.2737 1.38078C10.9673 1.86711 10.5841 2.30024 10.1453 2.64982Z" fill="#3CB5DB"/>
</svg>
