<svg width="14" height="9" viewBox="0 0 14 9" fill="none" xmlns="http://www.w3.org/2000/svg">
<path d="M7.21509 3.70264C8.18159 3.70264 8.96509 2.91914 8.96509 1.95264C8.96509 0.986138 8.18159 0.202637 7.21509 0.202637C6.24859 0.202637 5.46509 0.986138 5.46509 1.95264C5.46509 2.91914 6.24859 3.70264 7.21509 3.70264Z" fill="#FB4D4D"/>
<path d="M7.21624 4.43066C8.23724 4.43119 9.21624 4.83716 9.93801 5.5593C10.6598 6.28145 11.0652 7.26066 11.0652 8.28166V8.37066C11.0652 8.48418 11.0201 8.59304 10.9399 8.67331C10.8596 8.75357 10.7507 8.79866 10.6372 8.79866H3.79324C3.73695 8.79866 3.68121 8.78756 3.62922 8.76599C3.57722 8.74442 3.53 8.7128 3.49024 8.67295C3.45048 8.6331 3.41898 8.5858 3.39753 8.53376C3.37608 8.48172 3.3651 8.42595 3.36524 8.36966V8.28166C3.36524 7.26032 3.77096 6.2808 4.49317 5.5586C5.21537 4.83639 6.19489 4.43066 7.21624 4.43066Z" fill="#FB4D4D"/>
<path d="M3.5321 3.72973C4.16778 3.72973 4.6831 3.21441 4.6831 2.57873C4.6831 1.94305 4.16778 1.42773 3.5321 1.42773C2.89642 1.42773 2.3811 1.94305 2.3811 2.57873C2.3811 3.21441 2.89642 3.72973 3.5321 3.72973Z" fill="#FB4D4D"/>
<path d="M3.99115 4.18994H3.07115C2.45016 4.27294 1.88604 4.59489 1.49873 5.08734C1.11142 5.57978 0.931476 6.20389 0.997149 6.82694C0.989757 6.89612 1.00966 6.96545 1.05262 7.02017C1.09557 7.0749 1.1582 7.11069 1.22715 7.11994H2.96815C3.09589 6.59254 3.32553 6.09521 3.64415 5.65594C3.95311 5.21456 4.35569 4.84681 4.82315 4.57894C4.72017 4.45859 4.59267 4.36162 4.44919 4.29453C4.3057 4.22744 4.14953 4.19178 3.99115 4.18994V4.18994Z" fill="#FB4D4D"/>
<path d="M11.0851 3.72973C11.7208 3.72973 12.2361 3.21441 12.2361 2.57873C12.2361 1.94305 11.7208 1.42773 11.0851 1.42773C10.4494 1.42773 9.93408 1.94305 9.93408 2.57873C9.93408 3.21441 10.4494 3.72973 11.0851 3.72973Z" fill="#FB4D4D"/>
<path d="M10.624 4.18994H11.545C12.1655 4.27365 12.7289 4.5959 13.1155 5.08827C13.5022 5.58064 13.6818 6.20434 13.616 6.82694C13.6234 6.89612 13.6035 6.96545 13.5606 7.02017C13.5176 7.0749 13.455 7.11069 13.386 7.11994H11.648C11.5203 6.59254 11.2907 6.09521 10.972 5.65594C10.6622 5.21423 10.2586 4.84646 9.79004 4.57894C9.89324 4.45833 10.0211 4.36122 10.1649 4.29412C10.3088 4.22702 10.4653 4.1915 10.624 4.18994V4.18994Z" fill="#FB4D4D"/>
</svg>
