<svg width="10" height="9" viewBox="0 0 10 9" fill="none" xmlns="http://www.w3.org/2000/svg">
<path d="M5.00314 8.65285C4.27833 8.65296 3.56627 8.46187 2.9382 8.10011L1.27706 8.63429C1.22043 8.65343 1.15945 8.6559 1.10128 8.6421C1.04311 8.62831 0.989983 8.59869 0.947962 8.55617C0.905206 8.51449 0.874874 8.46179 0.86056 8.40382C0.846246 8.34586 0.848466 8.28483 0.866908 8.22804L1.40206 6.56691C0.947003 5.7744 0.766219 4.85453 0.887415 3.94875C1.00861 3.04296 1.42507 2.20214 2.07247 1.55714C2.71987 0.91215 3.56175 0.499185 4.46798 0.381362C5.37422 0.263539 6.29436 0.447768 7.08517 0.905776C7.87597 1.36378 8.49322 2.06988 8.84201 2.91457C9.19079 3.75925 9.25116 4.69513 9.01388 5.57765C8.7766 6.46017 8.25486 7.23954 7.52951 7.79542C6.80415 8.35131 5.91602 8.65318 5.00216 8.65285H5.00314ZM7.02804 3.82472C6.89454 3.82472 6.76404 3.86383 6.65304 3.938C6.54204 4.01217 6.45559 4.1174 6.40451 4.24074C6.35342 4.36408 6.33989 4.50042 6.36593 4.63136C6.39198 4.7623 6.4561 4.88266 6.5505 4.97707C6.6449 5.07147 6.76527 5.13559 6.8962 5.16164C7.02714 5.18768 7.163 5.17366 7.28634 5.12257C7.40968 5.07148 7.51491 4.98553 7.58908 4.87453C7.66325 4.76352 7.70285 4.63303 7.70285 4.49953C7.70271 4.41058 7.68531 4.32283 7.65109 4.24074C7.61687 4.15864 7.5667 4.08372 7.50363 4.02101C7.44055 3.9583 7.36571 3.90826 7.28341 3.87453C7.20111 3.84079 7.11308 3.82433 7.02413 3.82472H7.02804ZM5.00314 3.82472C4.86964 3.82472 4.73914 3.86383 4.62814 3.938C4.51713 4.01217 4.43069 4.1174 4.3796 4.24074C4.32851 4.36408 4.31498 4.50042 4.34103 4.63136C4.36707 4.7623 4.4312 4.88266 4.5256 4.97707C4.62 5.07147 4.74037 5.13559 4.8713 5.16164C5.00224 5.18768 5.1381 5.17366 5.26144 5.12257C5.38478 5.07148 5.49 4.98553 5.56417 4.87453C5.63834 4.76352 5.67794 4.63303 5.67794 4.49953C5.67794 4.3205 5.60678 4.14857 5.48019 4.02199C5.3536 3.8954 5.18216 3.82472 5.00314 3.82472ZM2.98019 3.82472C2.8466 3.82433 2.71597 3.8631 2.6047 3.93703C2.49343 4.01096 2.40658 4.11646 2.35519 4.23976C2.30379 4.36307 2.28982 4.49834 2.31564 4.62941C2.34146 4.76048 2.40589 4.88149 2.50021 4.97609C2.59453 5.07069 2.71443 5.13543 2.84542 5.16164C2.97641 5.18784 3.11259 5.17458 3.23605 5.12355C3.3595 5.07252 3.46501 4.98557 3.53927 4.87453C3.61353 4.76348 3.65304 4.63311 3.65304 4.49953C3.65291 4.41075 3.63538 4.3227 3.60128 4.24074C3.56719 4.15877 3.51718 4.08467 3.45431 4.02199C3.39144 3.95931 3.31665 3.90935 3.23458 3.8755C3.15252 3.84165 3.06506 3.82459 2.97628 3.82472H2.98019Z" fill="#FB4D4D"/>
</svg>
