<svg width="15" height="9" viewBox="0 0 15 9" fill="none" xmlns="http://www.w3.org/2000/svg" transform="scale(1 -1)">
<path d="M7.01594 8.46867L0.25443 2.14675C0.105159 2.00832 0.014204 1.81324 0.00152775 1.60434C-0.0111485 1.39544 0.0554886 1.18979 0.186814 1.03252C0.318424 0.875504 0.503881 0.779832 0.702482 0.766498C0.901082 0.753164 1.0966 0.823257 1.24612 0.961394L7.51179 6.81707L13.7775 0.961394C13.9282 0.833667 14.12 0.772082 14.3129 0.78948C14.5058 0.806877 14.6848 0.901915 14.8127 1.05478C14.9406 1.20764 15.0075 1.40652 14.9993 1.60996C14.9912 1.81341 14.9088 2.0057 14.7691 2.14675L8.00763 8.46867C7.87053 8.59536 7.69428 8.66523 7.51179 8.66523C7.3293 8.66523 7.15304 8.59536 7.01594 8.46867Z" fill="#ffffff"/>
</svg>
