<svg width="22" height="29" viewBox="0 0 22 29" fill="none" xmlns="http://www.w3.org/2000/svg">
<path d="M1 0.99968L14.365 0.84668L21.307 8.02068L20.831 28.1207H1V0.99968Z" fill="white"/>
<path d="M14 0.953125L20.495 7.62413L14 8.11713V0.953125Z" fill="#FF7F76"/>
<path d="M16.0631 11.4453H5.22108C5.06195 11.4453 4.90935 11.5085 4.79683 11.621C4.68431 11.7336 4.62109 11.8862 4.62109 12.0453C4.62109 12.2044 4.68431 12.3571 4.79683 12.4696C4.90935 12.5821 5.06195 12.6453 5.22108 12.6453H16.0631C16.2222 12.6453 16.3748 12.5821 16.4874 12.4696C16.5999 12.3571 16.6631 12.2044 16.6631 12.0453C16.6631 11.8862 16.5999 11.7336 16.4874 11.621C16.3748 11.5085 16.2222 11.4453 16.0631 11.4453Z" fill="#FFD6D3"/>
<path d="M16.0631 16.2637H5.22108C5.14229 16.2637 5.06427 16.2792 4.99147 16.3093C4.91867 16.3395 4.85254 16.3837 4.79683 16.4394C4.74111 16.4951 4.69692 16.5613 4.66676 16.6341C4.63661 16.7069 4.62109 16.7849 4.62109 16.8637C4.62109 16.9425 4.63661 17.0205 4.66676 17.0933C4.69692 17.1661 4.74111 17.2322 4.79683 17.2879C4.85254 17.3436 4.91867 17.3878 4.99147 17.418C5.06427 17.4482 5.14229 17.4637 5.22108 17.4637H16.0631C16.2222 17.4637 16.3748 17.4005 16.4874 17.2879C16.5999 17.1754 16.6631 17.0228 16.6631 16.8637C16.6631 16.7045 16.5999 16.5519 16.4874 16.4394C16.3748 16.3269 16.2222 16.2637 16.0631 16.2637Z" fill="#FFD6D3"/>
<path d="M16.0631 21.082H5.22108C5.06195 21.082 4.90935 21.1453 4.79683 21.2578C4.68431 21.3703 4.62109 21.5229 4.62109 21.682C4.62109 21.8412 4.68431 21.9938 4.79683 22.1063C4.90935 22.2188 5.06195 22.282 5.22108 22.282H16.0631C16.2222 22.282 16.3748 22.2188 16.4874 22.1063C16.5999 21.9938 16.6631 21.8412 16.6631 21.682C16.6631 21.5229 16.5999 21.3703 16.4874 21.2578C16.3748 21.1453 16.2222 21.082 16.0631 21.082Z" fill="#FFD6D3"/>
<path d="M21.082 7.228H15.058C14.8989 7.228 14.7463 7.16479 14.6337 7.05226C14.5212 6.93974 14.458 6.78713 14.458 6.628V0.6C14.458 0.44087 14.3948 0.288258 14.2823 0.175736C14.1697 0.0632141 14.0171 0 13.858 0L1.807 0C1.32792 0.000529375 0.86861 0.191079 0.529846 0.529843C0.191083 0.868606 0.000529375 1.32792 0 1.807V27.107C0.000529375 27.5861 0.191083 28.0454 0.529846 28.3842C0.86861 28.7229 1.32792 28.9135 1.807 28.914H19.877C20.3561 28.9135 20.8154 28.7229 21.1542 28.3842C21.4929 28.0454 21.6835 27.5861 21.684 27.107V7.83C21.6843 7.75087 21.6689 7.67247 21.6387 7.59931C21.6086 7.52615 21.5642 7.45969 21.5083 7.40373C21.4523 7.34778 21.3858 7.30345 21.3127 7.27329C21.2395 7.24313 21.1611 7.22774 21.082 7.228ZM20.482 27.105C20.482 27.2641 20.4188 27.4167 20.3063 27.5293C20.1937 27.6418 20.0411 27.705 19.882 27.705H1.807C1.64787 27.705 1.49526 27.6418 1.38274 27.5293C1.27021 27.4167 1.207 27.2641 1.207 27.105V1.807C1.207 1.64787 1.27021 1.49526 1.38274 1.38274C1.49526 1.27021 1.64787 1.207 1.807 1.207H13.251V6.626C13.2515 7.10508 13.4421 7.56439 13.7808 7.90316C14.1196 8.24192 14.5789 8.43247 15.058 8.433H20.479L20.482 27.105Z" fill="black"/>
<path d="M21.5069 7.40543L14.2789 0.177432C14.223 0.121488 14.1566 0.0771119 14.0835 0.0468357C14.0104 0.0165595 13.9321 0.000976568 13.8529 0.000976563C13.7738 0.000976557 13.6955 0.0165595 13.6224 0.0468357C13.5493 0.0771119 13.4829 0.121488 13.4269 0.177432C13.371 0.233375 13.3266 0.299789 13.2963 0.372882C13.266 0.445975 13.2505 0.524316 13.2505 0.603432C13.2505 0.682547 13.266 0.760888 13.2963 0.833981C13.3266 0.907074 13.371 0.973488 13.4269 1.02943L20.6549 8.25743C20.7679 8.37041 20.9212 8.43389 21.0809 8.43389C21.2407 8.43389 21.3939 8.37041 21.5069 8.25743C21.6199 8.14445 21.6834 7.99121 21.6834 7.83143C21.6834 7.67165 21.6199 7.51841 21.5069 7.40543Z" fill="black"/>
<path d="M16.462 10.8418H5.62001C5.46088 10.8418 5.30828 10.905 5.19576 11.0175C5.08323 11.1301 5.02002 11.2827 5.02002 11.4418C5.02002 11.6009 5.08323 11.7535 5.19576 11.8661C5.30828 11.9786 5.46088 12.0418 5.62001 12.0418H16.462C16.6211 12.0418 16.7738 11.9786 16.8863 11.8661C16.9988 11.7535 17.062 11.6009 17.062 11.4418C17.062 11.2827 16.9988 11.1301 16.8863 11.0175C16.7738 10.905 16.6211 10.8418 16.462 10.8418Z" fill="black"/>
<path d="M16.462 15.6611H5.62001C5.54122 15.6611 5.46319 15.6766 5.3904 15.7068C5.3176 15.7369 5.25147 15.7811 5.19576 15.8369C5.14004 15.8926 5.09584 15.9587 5.06569 16.0315C5.03554 16.1043 5.02002 16.1823 5.02002 16.2611C5.02002 16.3399 5.03554 16.4179 5.06569 16.4907C5.09584 16.5635 5.14004 16.6297 5.19576 16.6854C5.25147 16.7411 5.3176 16.7853 5.3904 16.8155C5.46319 16.8456 5.54122 16.8611 5.62001 16.8611H16.462C16.6211 16.8611 16.7738 16.7979 16.8863 16.6854C16.9988 16.5729 17.062 16.4203 17.062 16.2611C17.062 16.102 16.9988 15.9494 16.8863 15.8369C16.7738 15.7243 16.6211 15.6611 16.462 15.6611Z" fill="black"/>
<path d="M16.462 20.4785H5.62001C5.46088 20.4785 5.30828 20.5417 5.19576 20.6543C5.08323 20.7668 5.02002 20.9194 5.02002 21.0785C5.02002 21.2377 5.08323 21.3903 5.19576 21.5028C5.30828 21.6153 5.46088 21.6785 5.62001 21.6785H16.462C16.6211 21.6785 16.7738 21.6153 16.8863 21.5028C16.9988 21.3903 17.062 21.2377 17.062 21.0785C17.062 20.9194 16.9988 20.7668 16.8863 20.6543C16.7738 20.5417 16.6211 20.4785 16.462 20.4785Z" fill="black"/>
</svg>
