<svg width="15" height="15" viewBox="0 0 15 15" fill="none" xmlns="http://www.w3.org/2000/svg">
<path d="M3.42319 11.058L3.29417 11.3718L3.53816 11.6076C4.60088 12.6347 6.02084 13.2099 7.49924 13.2121L7.50076 13.2121C8.97915 13.2099 10.3991 12.6347 11.4618 11.6076L11.7058 11.3718L11.5768 11.058C11.2447 10.2502 10.6798 9.55932 9.95385 9.07316C9.22794 8.58701 8.37381 8.32746 7.5 8.32746C6.62618 8.32746 5.77206 8.58701 5.04615 9.07316C4.32024 9.55932 3.7553 10.2502 3.42319 11.058ZM11.5685 10.3619L11.9992 11.0979L12.4311 10.3627C12.9399 9.49692 13.2087 8.51136 13.2099 7.50734V7.50673C13.2099 5.99342 12.6082 4.54219 11.5374 3.47226C10.4665 2.40234 9.01422 1.80135 7.5 1.80135C5.98578 1.80135 4.53349 2.40234 3.46265 3.47226C2.39179 4.54219 1.7901 5.99342 1.7901 7.50673L1.7901 7.50734C1.79133 8.51136 2.06014 9.49692 2.56886 10.3627L3.00085 11.0979L3.4315 10.3619C3.95746 9.46309 4.76701 8.76384 5.73342 8.3738L6.38895 8.10924L5.92115 7.57926C5.65324 7.27575 5.47873 6.9015 5.41848 6.50144C5.35822 6.10137 5.41479 5.69242 5.5814 5.32365C5.74802 4.95487 6.01763 4.64189 6.35795 4.42232C6.69827 4.20275 7.09481 4.08593 7.5 4.08593C7.90519 4.08593 8.30173 4.20275 8.64205 4.42232C8.98237 4.64189 9.25198 4.95487 9.4186 5.32365C9.58521 5.69242 9.64178 6.10137 9.58152 6.50144C9.52127 6.9015 9.34676 7.27575 9.07885 7.57926L8.61105 8.10924L9.26658 8.3738C10.233 8.76384 11.0425 9.46309 11.5685 10.3619ZM6.00141 5.20444L6.41703 5.48239L6.00141 5.20444C5.8033 5.50068 5.69753 5.84901 5.69753 6.20538C5.69753 6.68327 5.88753 7.14149 6.22561 7.47928C6.56367 7.81705 7.02209 8.00673 7.5 8.00673C7.8564 8.00673 8.20483 7.90113 8.50123 7.70326C8.79764 7.50537 9.02873 7.22407 9.16521 6.89487C9.30169 6.56566 9.33741 6.20339 9.26782 5.85387C9.19824 5.50436 9.0265 5.18338 8.77439 4.93148C8.52228 4.67959 8.20113 4.5081 7.85156 4.43863C7.502 4.36916 7.13967 4.40481 6.81036 4.5411C6.48105 4.67738 6.19952 4.9082 6.00141 5.20444ZM4.21877 2.48145C5.19412 1.8434 6.33412 1.5024 7.5 1.5C8.66588 1.5024 9.80588 1.8434 10.7812 2.48145C11.7568 3.11967 12.5256 4.02754 12.9939 5.09443C13.4621 6.16131 13.6098 7.34121 13.4188 8.49041C13.2279 9.63937 12.7068 10.7081 11.9188 11.5666C11.3559 12.1761 10.6727 12.6625 9.91234 12.9953C9.15175 13.3282 8.33038 13.5 7.5 13.5C6.66962 13.5 5.84825 13.3282 5.08765 12.9953C4.32723 12.6625 3.64405 12.176 3.08113 11.5665C2.2932 10.7081 1.77208 9.63933 1.58118 8.49041C1.39022 7.34121 1.53786 6.16131 2.00615 5.09443C2.47443 4.02754 3.24316 3.11967 4.21877 2.48145Z" fill="#FB4D4D" stroke="#FB4D4D"/>
</svg>
