<svg width="15" height="15" viewBox="0 0 15 15" fill="none" xmlns="http://www.w3.org/2000/svg">
<path d="M12.9994 10.2011V12.362C12.9995 12.5167 12.9408 12.6657 12.8354 12.7789C12.7299 12.8921 12.5854 12.9611 12.4311 12.9719C12.164 12.9902 11.9459 13 11.7772 13C6.37715 13 2 8.62261 2 3.22222C2 3.05356 2.00917 2.83539 2.02811 2.56833C2.03894 2.41399 2.1079 2.26951 2.22109 2.16403C2.33428 2.05855 2.48325 1.99993 2.63796 2H4.79873C4.87453 1.99992 4.94765 2.02802 5.00389 2.07885C5.06013 2.12967 5.09547 2.19958 5.10305 2.275C5.1171 2.41556 5.12994 2.52739 5.14216 2.61233C5.2636 3.4599 5.51247 4.28423 5.88034 5.05739C5.93839 5.17961 5.90051 5.32567 5.79051 5.40389L4.47181 6.34622C5.2781 8.22505 6.77529 9.72233 8.65402 10.5287L9.59508 9.21233C9.63354 9.15856 9.68966 9.11998 9.75365 9.10334C9.81764 9.0867 9.88544 9.09305 9.94523 9.12128C10.7183 9.48847 11.5423 9.73674 12.3895 9.85767C12.4745 9.86989 12.5863 9.88333 12.7256 9.89678C12.8009 9.9045 12.8707 9.9399 12.9214 9.99613C12.9721 10.0524 13.0001 10.1254 13 10.2011H12.9994Z" fill="#DD0000"/>
</svg>
