<svg width="20" height="20" viewBox="0 0 20 20" fill="none" xmlns="http://www.w3.org/2000/svg">
<path d="M10.1837 0.865234C5.03584 0.865234 0.867188 5.04321 0.867188 10.1911C0.867188 15.3389 5.03584 19.5169 10.1837 19.5169C15.3409 19.5169 19.5189 15.3389 19.5189 10.1911C19.5189 5.04321 15.3409 0.865234 10.1837 0.865234ZM13.9234 13.9214C13.8371 14.0079 13.7346 14.0765 13.6218 14.1233C13.509 14.1701 13.388 14.1941 13.2659 14.1941C13.1438 14.1941 13.0228 14.1701 12.91 14.1233C12.7972 14.0765 12.6947 14.0079 12.6084 13.9214L9.54022 10.8532C9.4521 10.7668 9.382 10.6638 9.33398 10.5502C9.28595 10.4365 9.26096 10.3145 9.26045 10.1911V6.46074C9.26045 5.94782 9.68011 5.52816 10.193 5.52816C10.706 5.52816 11.1256 5.94782 11.1256 6.46074V9.80872L13.9234 12.6065C14.2871 12.9702 14.2871 13.5577 13.9234 13.9214Z" fill="white"/>
</svg>
