<svg width="16" height="16" viewBox="0 0 16 16" fill="none" xmlns="http://www.w3.org/2000/svg">
<path d="M13.6 1.60012H12V0.800122C12 0.587949 11.9157 0.384466 11.7657 0.234437C11.6157 0.0844075 11.4122 0.00012207 11.2 0.00012207C10.9878 0.00012207 10.7843 0.0844075 10.6343 0.234437C10.4843 0.384466 10.4 0.587949 10.4 0.800122V1.60012H5.6V0.800122C5.6 0.587949 5.51571 0.384466 5.36569 0.234437C5.21566 0.0844075 5.01217 0.00012207 4.8 0.00012207C4.58783 0.00012207 4.38434 0.0844075 4.23431 0.234437C4.08429 0.384466 4 0.587949 4 0.800122V1.60012H2.4C1.76348 1.60012 1.15303 1.85298 0.702944 2.30307C0.252856 2.75315 0 3.3636 0 4.00012V13.6001C0 14.2366 0.252856 14.8471 0.702944 15.2972C1.15303 15.7473 1.76348 16.0001 2.4 16.0001H13.6C14.2365 16.0001 14.847 15.7473 15.2971 15.2972C15.7471 14.8471 16 14.2366 16 13.6001V4.00012C16 3.3636 15.7471 2.75315 15.2971 2.30307C14.847 1.85298 14.2365 1.60012 13.6 1.60012ZM14.4 13.6001C14.4 13.8123 14.3157 14.0158 14.1657 14.1658C14.0157 14.3158 13.8122 14.4001 13.6 14.4001H2.4C2.18783 14.4001 1.98434 14.3158 1.83431 14.1658C1.68429 14.0158 1.6 13.8123 1.6 13.6001V8.00012H14.4V13.6001ZM14.4 6.40012H1.6V4.00012C1.6 3.78795 1.68429 3.58447 1.83431 3.43444C1.98434 3.28441 2.18783 3.20012 2.4 3.20012H4V4.00012C4 4.2123 4.08429 4.41578 4.23431 4.56581C4.38434 4.71584 4.58783 4.80012 4.8 4.80012C5.01217 4.80012 5.21566 4.71584 5.36569 4.56581C5.51571 4.41578 5.6 4.2123 5.6 4.00012V3.20012H10.4V4.00012C10.4 4.2123 10.4843 4.41578 10.6343 4.56581C10.7843 4.71584 10.9878 4.80012 11.2 4.80012C11.4122 4.80012 11.6157 4.71584 11.7657 4.56581C11.9157 4.41578 12 4.2123 12 4.00012V3.20012H13.6C13.8122 3.20012 14.0157 3.28441 14.1657 3.43444C14.3157 3.58447 14.4 3.78795 14.4 4.00012V6.40012Z" fill="#5A5A5A"/>
</svg>
