<svg width="18" height="18" viewBox="0 0 18 18" fill="none" xmlns="http://www.w3.org/2000/svg">
<path d="M9.19907 4.37772L10.2273 5.40594C10.291 5.47019 10.3668 5.52119 10.4504 5.55599C10.5339 5.59079 10.6235 5.60871 10.714 5.60871C10.8045 5.60871 10.8941 5.59079 10.9776 5.55599C11.0611 5.52119 11.137 5.47019 11.2007 5.40594C11.3047 5.29675 11.3698 5.15629 11.3859 5.00634C11.402 4.85639 11.3683 4.70531 11.2898 4.57651H13.7987C13.9805 4.57651 14.1548 4.50429 14.2834 4.37573C14.4119 4.24718 14.4842 4.07283 14.4842 3.89102C14.4842 3.70922 14.4119 3.53487 14.2834 3.40631C14.1548 3.27776 13.9805 3.20554 13.7987 3.20554H11.2898C11.3683 3.07674 11.402 2.92566 11.3859 2.77571C11.3698 2.62575 11.3047 2.4853 11.2007 2.3761C11.137 2.31186 11.0611 2.26086 10.9776 2.22606C10.8941 2.19126 10.8045 2.17334 10.714 2.17334C10.6235 2.17334 10.5339 2.19126 10.4504 2.22606C10.3668 2.26086 10.291 2.31186 10.2273 2.3761L9.19907 3.40433C9.13667 3.46952 9.08775 3.5464 9.05512 3.63054C8.98656 3.79743 8.98656 3.98462 9.05512 4.15151C9.08775 4.23565 9.13667 4.31253 9.19907 4.37772ZM16.4858 7.05796C16.4531 6.97382 16.4042 6.89694 16.3418 6.83175L15.3136 5.80352C15.2499 5.73927 15.174 5.68828 15.0905 5.65348C15.007 5.61868 14.9174 5.60076 14.8269 5.60076C14.7364 5.60076 14.6468 5.61868 14.5633 5.65348C14.4797 5.68828 14.4039 5.73927 14.3402 5.80352C14.2362 5.91272 14.1711 6.05317 14.1549 6.20313C14.1388 6.35308 14.1726 6.50416 14.2511 6.63296H11.7422C11.5604 6.63296 11.3861 6.70518 11.2575 6.83373C11.129 6.96229 11.0567 7.13664 11.0567 7.31844C11.0567 7.50025 11.129 7.6746 11.2575 7.80315C11.3861 7.93171 11.5604 8.00393 11.7422 8.00393H14.2511C14.1726 8.13273 14.1388 8.28381 14.1549 8.43376C14.1711 8.58371 14.2362 8.72417 14.3402 8.83336C14.4039 8.89761 14.4797 8.94861 14.5633 8.98341C14.6468 9.01821 14.7364 9.03613 14.8269 9.03613C14.9174 9.03613 15.007 9.01821 15.0905 8.98341C15.174 8.94861 15.2499 8.89761 15.3136 8.83336L16.3418 7.80514C16.4042 7.73994 16.4531 7.66307 16.4858 7.57893C16.5543 7.41204 16.5543 7.22485 16.4858 7.05796ZM8.3148 7.66119C7.7725 7.66119 7.24237 7.822 6.79146 8.12329C6.34055 8.42457 5.98911 8.8528 5.78158 9.35383C5.57405 9.85485 5.51975 10.4062 5.62555 10.938C5.73135 11.4699 5.99249 11.9585 6.37596 12.342C6.75942 12.7254 7.24799 12.9866 7.77987 13.0924C8.31176 13.1982 8.86307 13.1439 9.36409 12.9363C9.86512 12.7288 10.2933 12.3774 10.5946 11.9265C10.8959 11.4755 11.0567 10.9454 11.0567 10.4031C11.0567 9.67591 10.7679 8.97849 10.2536 8.46428C9.73943 7.95007 9.04201 7.66119 8.3148 7.66119ZM8.3148 11.7741C8.04365 11.7741 7.77858 11.6937 7.55313 11.543C7.32768 11.3924 7.15196 11.1783 7.04819 10.9278C6.94442 10.6773 6.91727 10.4016 6.97017 10.1357C7.02307 9.86972 7.15365 9.62543 7.34538 9.4337C7.53711 9.24197 7.78139 9.11139 8.04734 9.0585C8.31328 9.0056 8.58893 9.03275 8.83945 9.13651C9.08996 9.24028 9.30407 9.416 9.45472 9.64145C9.60536 9.86691 9.68577 10.132 9.68577 10.4031C9.68577 10.7667 9.54133 11.1154 9.28422 11.3725C9.02711 11.6296 8.6784 11.7741 8.3148 11.7741ZM14.4842 9.71764C14.3024 9.71764 14.128 9.78986 13.9994 9.91841C13.8709 10.047 13.7987 10.2213 13.7987 10.4031V13.8305C13.7987 14.0123 13.7264 14.1867 13.5979 14.3153C13.4693 14.4438 13.295 14.516 13.1132 14.516H3.51641C3.33461 14.516 3.16026 14.4438 3.0317 14.3153C2.90315 14.1867 2.83093 14.0123 2.83093 13.8305V8.34667C2.83093 8.16487 2.90315 7.99051 3.0317 7.86196C3.16026 7.73341 3.33461 7.66119 3.51641 7.66119H4.88738C5.03772 7.66854 5.1863 7.62621 5.31019 7.54073C5.43407 7.45525 5.52638 7.33136 5.57286 7.1882L5.94303 6.07772C5.98587 5.94569 6.0678 5.82977 6.17796 5.74532C6.28812 5.66086 6.42133 5.61184 6.55996 5.60473H7.62932C7.81112 5.60473 7.98547 5.53251 8.11403 5.40396C8.24258 5.27541 8.3148 5.10105 8.3148 4.91925C8.3148 4.73745 8.24258 4.56309 8.11403 4.43454C7.98547 4.30599 7.81112 4.23377 7.62932 4.23377H6.55996C6.12715 4.23361 5.70533 4.37002 5.35455 4.62356C5.00378 4.8771 4.74195 5.23485 4.60633 5.64586L4.39383 6.29022H3.51641C2.97101 6.29022 2.44794 6.50688 2.06228 6.89254C1.67662 7.2782 1.45996 7.80126 1.45996 8.34667V13.8305C1.45996 14.3759 1.67662 14.899 2.06228 15.2847C2.44794 15.6703 2.97101 15.887 3.51641 15.887H13.1132C13.6586 15.887 14.1817 15.6703 14.5673 15.2847C14.953 14.899 15.1696 14.3759 15.1696 13.8305V10.4031C15.1696 10.2213 15.0974 10.047 14.9689 9.91841C14.8403 9.78986 14.666 9.71764 14.4842 9.71764Z" fill="white"/>
</svg>
