<svg width="20" height="19" viewBox="0 0 20 19" fill="none" xmlns="http://www.w3.org/2000/svg">
<path d="M10.1837 0.173828C5.03584 0.173828 0.867188 4.35181 0.867188 9.49967C0.867188 14.6475 5.03584 18.8255 10.1837 18.8255C15.3409 18.8255 19.5189 14.6475 19.5189 9.49967C19.5189 4.35181 15.3409 0.173828 10.1837 0.173828ZM13.9234 13.23C13.8371 13.3165 13.7346 13.3851 13.6218 13.4318C13.509 13.4786 13.388 13.5027 13.2659 13.5027C13.1438 13.5027 13.0228 13.4786 12.91 13.4318C12.7972 13.3851 12.6947 13.3165 12.6084 13.23L9.54022 10.1618C9.4521 10.0754 9.382 9.97244 9.33398 9.85878C9.28595 9.74512 9.26096 9.62306 9.26045 9.49967V5.76933C9.26045 5.25641 9.68011 4.83675 10.193 4.83675C10.706 4.83675 11.1256 5.25641 11.1256 5.76933V9.11731L13.9234 11.9151C14.2871 12.2788 14.2871 12.8663 13.9234 13.23Z" fill="#C1C1C1"/>
</svg>
