<svg width="49" height="34" viewBox="0 0 49 34" fill="none" xmlns="http://www.w3.org/2000/svg">
<path d="M9.22673 17.7049C9.48709 18.0335 9.81253 18.2964 10.2031 18.4935H11.1794C11.4397 18.2964 11.7001 18.1649 11.9605 17.9678C12.4812 17.3763 12.4812 16.4563 12.0255 15.7991C11.8303 15.6019 11.7001 15.3391 11.635 15.0762C11.4397 14.8791 11.3096 14.6162 11.3747 14.3533V14.2876C10.9841 13.4333 10.9841 12.4475 11.3747 11.5932C11.635 10.5417 12.2859 9.55594 13.1971 8.89877C13.7179 8.37303 14.4338 8.04444 15.1498 7.97873C15.8658 7.71586 16.6468 7.71586 17.3628 7.97873C17.9486 7.97873 18.4693 8.17588 18.8599 8.57018L19.2504 8.83305C19.5108 8.89877 19.706 9.09592 19.8362 9.35879C19.9013 9.42451 19.9664 9.49023 20.0315 9.55594C21.3332 11.396 22.5699 13.1704 23.8717 15.0105C25.0433 16.6534 26.1498 18.3621 27.3865 20.005C27.9072 20.7936 28.8835 20.9908 29.6646 20.465L29.7297 20.3993C30.5108 19.8736 30.706 18.8221 30.1202 18.0335C30.1202 17.9678 30.0551 17.9678 30.0551 17.9021C29.5995 17.2449 29.1439 16.5877 28.6883 15.9305C26.9309 13.4333 25.1735 10.8703 23.4161 8.37303C22.2445 6.73009 21.854 4.95572 22.7001 3.04992C23.8066 0.48694 26.8007 -0.695974 29.3392 0.421223C30.1202 0.74981 30.8362 1.34127 31.3569 1.99844C32.6587 3.70709 33.8303 5.48146 35.067 7.25583C37.2149 10.3446 39.4279 13.499 41.5758 16.5877C43.3983 19.2164 45.2859 21.9108 47.1084 24.5395C48.0847 25.8539 48.8658 27.2339 48.6705 28.9426C48.5403 30.7827 47.3687 32.3599 45.6764 33.0828C44.7001 33.74 42.5522 33.74 41.5758 33.0828L40.99 32.7542C40.6646 32.6885 40.4693 32.4913 40.2741 32.2285C40.1439 32.1627 40.0788 32.097 39.9486 31.9656C39.2977 31.177 38.7119 30.3884 38.1912 29.534C36.7593 27.5625 35.3924 25.5253 34.0255 23.5538C33.4398 22.7651 32.3983 22.568 31.5522 23.1595C30.8362 23.7509 30.706 24.7367 31.1616 25.5253C31.5522 26.1167 31.8125 26.7739 31.9427 27.4311C32.4634 29.7312 31.0315 32.3599 28.9486 33.0828C28.6883 33.3456 28.3628 33.4114 28.0374 33.4114C27.3865 33.6742 26.6054 33.6742 25.9545 33.4114H25.8895H25.8244C25.4989 33.4771 25.1735 33.3456 24.9131 33.1485C24.0019 32.8199 23.2859 32.1627 22.7652 31.3741C22.3096 30.9141 21.919 30.3884 21.6587 29.7969L21.5285 29.3369C21.2031 29.1397 21.0078 28.8111 20.8776 28.4826C20.3569 27.8254 19.9013 27.1025 19.3806 26.4453C18.209 24.7367 17.0374 23.028 15.8007 21.3851C15.4102 20.7936 14.6291 20.5965 13.9782 20.8593C13.1321 21.1879 12.8066 21.7137 12.8066 22.8309C13.067 23.1595 13.2622 23.5538 13.3924 23.9481C13.6528 24.1452 13.848 24.4081 13.9782 24.7367C14.1735 25.0653 14.3687 25.3281 14.6291 25.6567C16.4516 28.154 15.5403 32.0313 12.5463 33.2799C12.2859 33.5428 11.9605 33.6085 11.635 33.6085C10.9841 33.8714 10.2031 33.8714 9.55217 33.6085H9.48709H9.422C9.09655 33.6742 8.77111 33.5428 8.51075 33.2799C7.59951 32.9513 6.81845 32.2942 6.29774 31.4398C4.54034 28.8769 2.78294 26.3796 1.02555 23.8166C-0.21114 22.0423 -0.341317 20.1364 0.700103 18.2964C2.06697 15.8648 5.12614 15.0105 7.59951 16.3906C8.2504 16.5877 8.77111 17.1134 9.22673 17.7049Z" fill="white"/>
</svg>
