<svg width="13" height="17" viewBox="0 0 13 17" fill="none"
  xmlns="http://www.w3.org/2000/svg">
  <path d="M0 8.5C0 8.72543 0.0856026 8.94164 0.237976 9.10104C0.390349 9.26045 0.597012 9.35 0.8125 9.35H6.97937L5.11062 11.2965C5.03447 11.3755 4.97403 11.4695 4.93278 11.5731C4.89153 11.6767 4.87029 11.7878 4.87029 11.9C4.87029 12.0122 4.89153 12.1233 4.93278 12.2269C4.97403 12.3305 5.03447 12.4245 5.11062 12.5035C5.18616 12.5832 5.27602 12.6464 5.37503 12.6896C5.47404 12.7327 5.58024 12.7549 5.6875 12.7549C5.79476 12.7549 5.90096 12.7327 5.99997 12.6896C6.09898 12.6464 6.18884 12.5832 6.26438 12.5035L9.51437 9.1035C9.58835 9.02266 9.64633 8.92734 9.685 8.823C9.76626 8.61606 9.76626 8.38394 9.685 8.177C9.64633 8.07266 9.58835 7.97734 9.51437 7.8965L6.26438 4.4965C6.18862 4.41725 6.09868 4.35438 5.9997 4.31149C5.90072 4.2686 5.79464 4.24652 5.6875 4.24652C5.58036 4.24652 5.47428 4.2686 5.3753 4.31149C5.27632 4.35438 5.18638 4.41725 5.11062 4.4965C5.03487 4.57575 4.97478 4.66984 4.93378 4.77339C4.89278 4.87694 4.87168 4.98792 4.87168 5.1C4.87168 5.21208 4.89278 5.32306 4.93378 5.42661C4.97478 5.53016 5.03487 5.62425 5.11062 5.7035L6.97937 7.65H0.8125C0.597012 7.65 0.390349 7.73955 0.237976 7.89896C0.0856026 8.05837 0 8.27457 0 8.5ZM10.5625 0H2.4375C1.79103 0 1.17105 0.26866 0.713927 0.746878C0.256807 1.2251 0 1.8737 0 2.55V5.1C0 5.32543 0.0856026 5.54164 0.237976 5.70104C0.390349 5.86045 0.597012 5.95 0.8125 5.95C1.02799 5.95 1.23465 5.86045 1.38702 5.70104C1.5394 5.54164 1.625 5.32543 1.625 5.1V2.55C1.625 2.32457 1.7106 2.10837 1.86298 1.94896C2.01535 1.78955 2.22201 1.7 2.4375 1.7H10.5625C10.778 1.7 10.9847 1.78955 11.137 1.94896C11.2894 2.10837 11.375 2.32457 11.375 2.55V14.45C11.375 14.6754 11.2894 14.8916 11.137 15.051C10.9847 15.2104 10.778 15.3 10.5625 15.3H2.4375C2.22201 15.3 2.01535 15.2104 1.86298 15.051C1.7106 14.8916 1.625 14.6754 1.625 14.45V11.9C1.625 11.6746 1.5394 11.4584 1.38702 11.299C1.23465 11.1396 1.02799 11.05 0.8125 11.05C0.597012 11.05 0.390349 11.1396 0.237976 11.299C0.0856026 11.4584 0 11.6746 0 11.9V14.45C0 15.1263 0.256807 15.7749 0.713927 16.2531C1.17105 16.7313 1.79103 17 2.4375 17H10.5625C11.209 17 11.829 16.7313 12.2861 16.2531C12.7432 15.7749 13 15.1263 13 14.45V2.55C13 1.8737 12.7432 1.2251 12.2861 0.746878C11.829 0.26866 11.209 0 10.5625 0Z" fill="#5A5A5A"/>
</svg>
