<svg width="20" height="21" viewBox="0 0 20 21" fill="none" xmlns="http://www.w3.org/2000/svg">
<path d="M15.833 17.167H4.16634C3.94533 17.167 3.73337 17.2548 3.57709 17.4111C3.42081 17.5674 3.33301 17.7793 3.33301 18.0003C3.33301 18.2213 3.42081 18.4333 3.57709 18.5896C3.73337 18.7459 3.94533 18.8337 4.16634 18.8337H15.833C16.054 18.8337 16.266 18.7459 16.4223 18.5896C16.5785 18.4333 16.6663 18.2213 16.6663 18.0003C16.6663 17.7793 16.5785 17.5674 16.4223 17.4111C16.266 17.2548 16.054 17.167 15.833 17.167ZM9.40801 15.2587C9.48726 15.3345 9.58071 15.394 9.68301 15.4337C9.78276 15.4777 9.89061 15.5005 9.99967 15.5005C10.1087 15.5005 10.2166 15.4777 10.3163 15.4337C10.4186 15.394 10.5121 15.3345 10.5913 15.2587L13.9247 11.9253C14.0816 11.7684 14.1697 11.5556 14.1697 11.3337C14.1697 11.1117 14.0816 10.8989 13.9247 10.742C13.7678 10.5851 13.5549 10.4969 13.333 10.4969C13.1111 10.4969 12.8983 10.5851 12.7413 10.742L10.833 12.6587V3.00033C10.833 2.77931 10.7452 2.56735 10.5889 2.41107C10.4326 2.25479 10.2207 2.16699 9.99967 2.16699C9.77866 2.16699 9.5667 2.25479 9.41042 2.41107C9.25414 2.56735 9.16634 2.77931 9.16634 3.00033V12.6587L7.25801 10.742C7.18031 10.6643 7.08807 10.6027 6.98655 10.5606C6.88503 10.5186 6.77622 10.4969 6.66634 10.4969C6.55646 10.4969 6.44765 10.5186 6.34613 10.5606C6.24461 10.6027 6.15237 10.6643 6.07467 10.742C5.99698 10.8197 5.93534 10.9119 5.89329 11.0135C5.85124 11.115 5.8296 11.2238 5.8296 11.3337C5.8296 11.4435 5.85124 11.5523 5.89329 11.6539C5.93534 11.7554 5.99698 11.8476 6.07467 11.9253L9.40801 15.2587Z" fill="#A7A7A7"/>
</svg>
