<svg width="21" height="21" viewBox="0 0 21 21" fill="none" xmlns="http://www.w3.org/2000/svg">
<path fill-rule="evenodd" clip-rule="evenodd" d="M9.85868 15.6807L5.14263 18.2798C4.76609 18.4767 4.3022 18.3373 4.09461 17.965V17.965C4.03456 17.8497 4.00215 17.7218 4 17.5916V6.075C4 3.87857 5.49196 3 7.63893 3H12.6825C14.764 3 16.3214 3.82 16.3214 5.92857V17.5916C16.3214 17.7994 16.2394 17.9986 16.0933 18.1455C15.9473 18.2925 15.7492 18.375 15.5427 18.375C15.411 18.3729 15.2815 18.3403 15.1642 18.2798L10.4191 15.6807C10.2442 15.5857 10.0335 15.5857 9.85868 15.6807Z" stroke="#5A5A5A" stroke-width="1.6" stroke-linecap="round" stroke-linejoin="round"/>
</svg>
