<svg width="21" height="21" viewBox="0 0 21 21" fill="none" xmlns="http://www.w3.org/2000/svg">
<path d="M10.5 19.6833C10.201 19.6833 9.91278 19.575 9.68816 19.3782C8.83981 18.6364 8.0219 17.9393 7.30029 17.3244L7.2966 17.3212C5.18094 15.5183 3.35398 13.9613 2.08282 12.4275C0.661856 10.7129 0 9.08713 0 7.31112C0 5.58558 0.591681 3.99366 1.66594 2.8284C2.75301 1.64936 4.24463 1 5.86651 1C7.07871 1 8.18885 1.38324 9.16601 2.13898C9.65916 2.52046 10.1062 2.98734 10.5 3.53191C10.894 2.98734 11.3408 2.52046 11.8341 2.13898C12.8113 1.38324 13.9214 1 15.1336 1C16.7553 1 18.2471 1.64936 19.3342 2.8284C20.4084 3.99366 21 5.58558 21 7.31112C21 9.08713 20.3383 10.7129 18.9173 12.4273C17.6461 13.9613 15.8193 15.5181 13.704 17.3209C12.9811 17.9367 12.1619 18.635 11.3116 19.3785C11.0872 19.575 10.7988 19.6833 10.5 19.6833ZM5.86651 2.23015C4.5923 2.23015 3.42175 2.73868 2.5702 3.66217C1.70599 4.5996 1.22999 5.89544 1.22999 7.31112C1.22999 8.80483 1.78514 10.1407 3.02986 11.6426C4.23293 13.0943 6.0224 14.6193 8.09432 16.385L8.09817 16.3882C8.82251 17.0055 9.64362 17.7054 10.4982 18.4526C11.3579 17.7039 12.1803 17.003 12.9061 16.3847C14.9779 14.619 16.7672 13.0943 17.9703 11.6426C19.2148 10.1407 19.77 8.80483 19.77 7.31112C19.77 5.89544 19.294 4.5996 18.4298 3.66217C17.5784 2.73868 16.4077 2.23015 15.1336 2.23015C14.2002 2.23015 13.3432 2.52687 12.5865 3.11198C11.9121 3.63365 11.4424 4.29311 11.167 4.75453C11.0253 4.99181 10.776 5.13345 10.5 5.13345C10.2239 5.13345 9.97463 4.99181 9.833 4.75453C9.55774 4.29311 9.08799 3.63365 8.41347 3.11198C7.65677 2.52687 6.79977 2.23015 5.86651 2.23015Z" fill="#FB4D4D"/>
<path d="M8 2L10 4L11.5 3L14 2H17.5L19.5 4L20.5 7L20 9.5L17.5 13L11 18.5L10 19L3 12.5L0.5 9V6.5L2 3.5L5 2H8Z" fill="#FB4D4D"/>
</svg>
