<svg width="25" height="23" viewBox="0 0 25 23" fill="none" xmlns="http://www.w3.org/2000/svg">
<path d="M21.6183 0.456055H3.38327C2.67601 0.456751 1.99796 0.738256 1.49818 1.23869C0.998402 1.73913 0.717785 2.41754 0.718018 3.1248V19.8811C0.718713 20.5875 0.999795 21.2649 1.49953 21.7643C1.99926 22.2637 2.67677 22.5443 3.38327 22.5446H21.6183C22.3245 22.5441 23.0017 22.2633 23.5011 21.7639C24.0005 21.2645 24.2813 20.5873 24.2818 19.8811V3.1248C24.2822 2.41777 24.0019 1.73949 23.5025 1.23906C23.003 0.738618 22.3253 0.456982 21.6183 0.456055ZM15.9561 4.42155C16.4653 4.42155 16.963 4.57253 17.3863 4.85539C17.8097 5.13826 18.1396 5.5403 18.3344 6.01068C18.5293 6.48106 18.5803 6.99866 18.4809 7.49802C18.3816 7.99737 18.1364 8.45606 17.7764 8.81607C17.4164 9.17609 16.9577 9.42126 16.4584 9.52059C15.959 9.61992 15.4414 9.56894 14.971 9.3741C14.5006 9.17926 14.0986 8.84932 13.8157 8.42598C13.5329 8.00265 13.3819 7.50494 13.3819 6.9958C13.3819 6.31322 13.653 5.65858 14.1356 5.17584C14.6181 4.6931 15.2727 4.42179 15.9553 4.42155H15.9561ZM20.7826 20.0841H4.58639C4.44354 20.108 4.2968 20.0887 4.16494 20.0288C4.03308 19.9689 3.9221 19.8709 3.84619 19.7476C3.77028 19.6242 3.73289 19.481 3.7388 19.3363C3.74472 19.1916 3.79367 19.0519 3.87939 18.9352L8.29727 10.1852C8.34177 10.0464 8.4261 9.92368 8.53975 9.83239C8.65341 9.74109 8.79139 9.68522 8.93654 9.6717C9.0817 9.65818 9.22762 9.68762 9.35618 9.75635C9.48474 9.82509 9.59027 9.93009 9.65964 10.0583L14.1055 15.8604C14.1995 15.9922 14.3217 16.1014 14.4633 16.1801C14.6048 16.2587 14.762 16.3048 14.9236 16.3151C15.0852 16.3253 15.247 16.2994 15.3973 16.2392C15.5476 16.179 15.6826 16.0861 15.7925 15.9672L16.8793 14.8664C16.9861 14.7478 17.119 14.6555 17.2674 14.5968C17.4159 14.5381 17.5759 14.5146 17.735 14.5281C17.8941 14.5416 18.0479 14.5917 18.1844 14.6745C18.3208 14.7574 18.4363 14.8707 18.5216 15.0056L21.3356 19.0253C21.7381 19.6089 21.4931 20.0814 20.7818 20.0814L20.7826 20.0841Z" fill="#FF7F76"/>
</svg>
