<svg width="24" height="22" viewBox="0 0 24 22" fill="none" xmlns="http://www.w3.org/2000/svg">
<path d="M20.183 22H3.62524C2.69734 21.9988 1.80783 21.6297 1.1517 20.9736C0.495576 20.3175 0.126402 19.4279 0.125244 18.5V3.625C0.125244 2.69674 0.494044 1.8065 1.15042 1.15012C1.8068 0.493746 2.69699 0.125 3.62524 0.125H20.1821C21.1104 0.125 22.0005 0.493746 22.6569 1.15012C23.3133 1.8065 23.6821 2.69674 23.6821 3.625V18.5C23.6809 19.4277 23.3118 20.3172 22.6559 20.9733C21.9999 21.6294 21.1107 21.9986 20.183 22ZM12.1783 4.0319C12.0808 4.03152 11.9843 4.05051 11.8942 4.08776C11.804 4.12501 11.7222 4.17977 11.6534 4.24889L6.41217 9.49013C5.45238 10.4659 4.91692 11.7814 4.92258 13.1501C4.92823 14.5188 5.47446 15.8299 6.44229 16.7977C7.41012 17.7655 8.7212 18.3117 10.0899 18.3174C11.4586 18.3231 12.7741 17.7877 13.7499 16.8279L18.9911 11.5866C19.3353 11.2425 19.6083 10.8339 19.7946 10.3842C19.9808 9.9346 20.0766 9.4527 20.0766 8.966C20.0766 8.47931 19.9808 7.99735 19.7946 7.54771C19.6083 7.09806 19.3353 6.68953 18.9911 6.34538C18.647 6.00124 18.2383 5.72825 17.7887 5.542C17.339 5.35575 16.8571 5.25986 16.3704 5.25986C15.8837 5.25986 15.4018 5.35575 14.9522 5.542C14.5025 5.72825 14.0941 6.00124 13.7499 6.34538L9.03183 11.0625C8.61481 11.4796 8.38062 12.0454 8.38071 12.6352C8.38079 13.225 8.61512 13.7907 9.03226 14.2077C9.44939 14.6247 10.0151 14.8589 10.6049 14.8588C11.1948 14.8588 11.7604 14.6244 12.1774 14.2072L14.8988 11.486C14.9677 11.4171 15.0223 11.3352 15.0596 11.2451C15.0969 11.1551 15.1162 11.0585 15.1162 10.961C15.1162 10.8635 15.0969 10.7669 15.0596 10.6769C15.0223 10.5868 14.9677 10.5049 14.8988 10.436C14.8298 10.3671 14.7479 10.3123 14.6578 10.275C14.5677 10.2377 14.4712 10.2185 14.3737 10.2185C14.2762 10.2185 14.1796 10.2377 14.0896 10.275C13.9995 10.3123 13.9178 10.3671 13.8488 10.436L11.1275 13.1572C10.9882 13.2965 10.7995 13.3747 10.6026 13.3747C10.4057 13.3747 10.2168 13.2965 10.0775 13.1572C9.93828 13.018 9.86005 12.8292 9.86005 12.6323C9.86005 12.4353 9.93828 12.2465 10.0775 12.1072L14.7945 7.39011C15.001 7.18362 15.2461 7.01987 15.5159 6.90812C15.7857 6.79637 16.075 6.73882 16.367 6.73882C16.659 6.73882 16.9481 6.79637 17.2179 6.90812C17.4877 7.01987 17.7328 7.18362 17.9393 7.39011C18.1458 7.59659 18.3097 7.84172 18.4214 8.11151C18.5332 8.3813 18.5906 8.67046 18.5906 8.96248C18.5906 9.25449 18.5332 9.54366 18.4214 9.81345C18.3097 10.0832 18.1458 10.3284 17.9393 10.5349L12.698 15.7761C11.9997 16.4549 11.0623 16.8315 10.0884 16.8246C9.11456 16.8176 8.18259 16.4277 7.49396 15.739C6.80533 15.0504 6.41548 14.1184 6.40854 13.1446C6.4016 12.1707 6.77804 11.2332 7.45679 10.5349L12.698 5.29361C12.8018 5.18991 12.8724 5.05776 12.901 4.91389C12.9296 4.77003 12.9149 4.62095 12.8587 4.48547C12.8025 4.35 12.7073 4.23423 12.5852 4.15286C12.4632 4.07149 12.3198 4.02817 12.1732 4.02837L12.1783 4.0319Z" fill="#FF7F76"/>
</svg>
