<svg width="25" height="23" viewBox="0 0 25 23" fill="none" xmlns="http://www.w3.org/2000/svg">
<path d="M20.7793 0.5625H4.22168C2.28868 0.5625 0.72168 2.1295 0.72168 4.0625V18.9375C0.72168 20.8705 2.28868 22.4375 4.22168 22.4375H20.7793C22.7123 22.4375 24.2793 20.8705 24.2793 18.9375V4.0625C24.2793 2.1295 22.7123 0.5625 20.7793 0.5625Z" fill="#FF7F76"/>
<path d="M9 10.625H8.125C7.64175 10.625 7.25 11.0168 7.25 11.5V15.875C7.25 16.3582 7.64175 16.75 8.125 16.75H9C9.48325 16.75 9.875 16.3582 9.875 15.875V11.5C9.875 11.0168 9.48325 10.625 9 10.625Z" fill="white"/>
<path d="M13.375 6.25H12.5C12.0168 6.25 11.625 6.64175 11.625 7.125V15.875C11.625 16.3582 12.0168 16.75 12.5 16.75H13.375C13.8582 16.75 14.25 16.3582 14.25 15.875V7.125C14.25 6.64175 13.8582 6.25 13.375 6.25Z" fill="white"/>
<path d="M17.75 12.375H16.875C16.3918 12.375 16 12.7668 16 13.25V15.875C16 16.3582 16.3918 16.75 16.875 16.75H17.75C18.2332 16.75 18.625 16.3582 18.625 15.875V13.25C18.625 12.7668 18.2332 12.375 17.75 12.375Z" fill="white"/>
</svg>
