<svg width="25" height="23" viewBox="0 0 25 23" fill="none" xmlns="http://www.w3.org/2000/svg">
<path d="M20.7756 0.456055H4.21802C2.28502 0.456055 0.718018 2.02306 0.718018 3.95605V18.8311C0.718018 20.7641 2.28502 22.3311 4.21802 22.3311H20.7756C22.7086 22.3311 24.2756 20.7641 24.2756 18.8311V3.95605C24.2756 2.02306 22.7086 0.456055 20.7756 0.456055Z" fill="#FF7F76"/>
<path d="M20.4396 7.03765C20.2351 6.95288 20.0101 6.93067 19.793 6.97381C19.5758 7.01695 19.3764 7.12352 19.2199 7.28002L17.0875 9.4124V8.11302C17.0875 7.89286 17.0441 7.67486 16.9599 7.47145C16.8756 7.26805 16.7521 7.08323 16.5964 6.92756C16.4408 6.77188 16.2559 6.64839 16.0525 6.56414C15.8491 6.47988 15.6311 6.43652 15.411 6.43652H6.22435C5.77972 6.43652 5.35329 6.61315 5.03889 6.92756C4.72448 7.24196 4.54785 7.66839 4.54785 8.11302V14.2818C4.54785 14.7264 4.72448 15.1528 5.03889 15.4672C5.35329 15.7816 5.77972 15.9583 6.22435 15.9583H15.4119C15.8565 15.9583 16.2829 15.7816 16.5973 15.4672C16.9117 15.1528 17.0884 14.7264 17.0884 14.2818V12.9824L19.2207 15.1148C19.377 15.2712 19.5761 15.3779 19.7929 15.4213C20.0097 15.4647 20.2346 15.4429 20.439 15.3587C20.6434 15.2744 20.8184 15.1315 20.9416 14.9479C21.0649 14.7644 21.1311 14.5484 21.1317 14.3273V8.07189C21.1317 7.85035 21.0659 7.63381 20.9427 7.4497C20.8195 7.26558 20.6444 7.12217 20.4396 7.03765ZM12.4229 11.6314L10.1417 13.3875C10.0604 13.4499 9.96325 13.4882 9.86125 13.4981C9.75926 13.508 9.65653 13.4891 9.56475 13.4435C9.47297 13.3979 9.39581 13.3275 9.34204 13.2403C9.28828 13.1531 9.26006 13.0525 9.2606 12.95V9.44215C9.26006 9.33967 9.28828 9.2391 9.34204 9.15187C9.39581 9.06463 9.47297 8.99423 9.56475 8.94866C9.65653 8.90308 9.75926 8.88417 9.86125 8.89407C9.96325 8.90397 10.0604 8.94228 10.1417 9.00465L12.4229 10.7634C12.4895 10.8145 12.5434 10.8803 12.5806 10.9557C12.6177 11.031 12.637 11.1138 12.637 11.1978C12.637 11.2818 12.6177 11.3647 12.5806 11.44C12.5434 11.5153 12.4895 11.5811 12.4229 11.6323V11.6314Z" fill="white"/>
</svg>
