<svg width="13" height="13" viewBox="0 0 13 13" fill="none" xmlns="http://www.w3.org/2000/svg">
<path d="M9.66602 1.43341H12.1993C12.3673 1.43341 12.5284 1.50014 12.6472 1.61891C12.766 1.73769 12.8327 1.89878 12.8327 2.06675V12.2001C12.8327 12.3681 12.766 12.5291 12.6472 12.6479C12.5284 12.7667 12.3673 12.8334 12.1993 12.8334H0.799349C0.631379 12.8334 0.470288 12.7667 0.351515 12.6479C0.232742 12.5291 0.166016 12.3681 0.166016 12.2001V2.06675C0.166016 1.89878 0.232742 1.73769 0.351515 1.61891C0.470288 1.50014 0.631379 1.43341 0.799349 1.43341H3.33268V0.166748H4.59935V1.43341H8.39935V0.166748H9.66602V1.43341ZM8.39935 2.70008H4.59935V3.96675H3.33268V2.70008H1.43268V5.23341H11.566V2.70008H9.66602V3.96675H8.39935V2.70008ZM11.566 6.50008H1.43268V11.5667H11.566V6.50008ZM2.69935 8.40008H3.96602V9.66675H2.69935V8.40008ZM5.23268 8.40008H10.2993V9.66675H5.23268V8.40008Z" fill="#5A5A5A"/>
</svg>
