<svg width="12" height="14" viewBox="0 0 12 14" fill="none" xmlns="http://www.w3.org/2000/svg">
<path d="M11.3248 3.1884L8.69004 0.487947C8.61939 0.415558 8.52435 0.375 8.42527 0.375H1.76425C0.986954 0.375 0.354492 1.03492 0.354492 1.84618V12.3621C0.354492 13.1733 0.986856 13.8333 1.76425 13.8333H10.0281C10.8054 13.8333 11.4378 13.1734 11.4378 12.3621V3.46974C11.4378 3.36388 11.3971 3.26254 11.3248 3.1884ZM8.80309 1.70921L10.1361 3.07546H8.92323C8.85701 3.07546 8.80309 3.01919 8.80309 2.95008V1.70921ZM10.0281 13.0448H1.76425C1.40364 13.0448 1.11014 12.7386 1.11014 12.3621V1.84618C1.11014 1.46976 1.40354 1.16357 1.76425 1.16357H8.04754V2.95008C8.04754 3.45403 8.44042 3.86403 8.92333 3.86403H10.6822V12.3621C10.6822 12.7386 10.3888 13.0448 10.0281 13.0448Z" fill="#5A5A5A" stroke="#5A5A5A" stroke-width="0.3"/>
<path d="M8.66937 6.7085H3.12294C2.90562 6.7085 2.72949 6.88569 2.72949 7.10433C2.72949 7.32296 2.90562 7.50016 3.12294 7.50016H8.66937C8.88669 7.50016 9.06283 7.32296 9.06283 7.10433C9.06283 6.88569 8.88669 6.7085 8.66937 6.7085Z" fill="#5A5A5A" stroke="#5A5A5A" stroke-width="0.3"/>
<path d="M3.08149 9.08317H7.12749C7.32192 9.08317 7.47949 8.90597 7.47949 8.68734C7.47949 8.4687 7.32192 8.2915 7.12749 8.2915H3.08149C2.88707 8.2915 2.72949 8.4687 2.72949 8.68734C2.72949 8.90597 2.88707 9.08317 3.08149 9.08317Z" fill="#5A5A5A" stroke="#5A5A5A" stroke-width="0.3"/>
<path d="M7.89876 9.875H3.10189C2.8962 9.875 2.72949 10.0522 2.72949 10.2708C2.72949 10.4895 2.8962 10.6667 3.10189 10.6667H7.89876C8.10435 10.6667 8.27116 10.4895 8.27116 10.2708C8.27116 10.0522 8.10435 9.875 7.89876 9.875Z" fill="#5A5A5A" stroke="#5A5A5A" stroke-width="0.3"/>
</svg>
