<svg width="14" height="11" viewBox="0 0 14 11" fill="none" xmlns="http://www.w3.org/2000/svg">
<path d="M13.8275 5.11768C12.4997 2.03486 10.0019 0.12207 7.30691 0.12207C4.61191 0.12207 2.1141 2.03486 0.786321 5.11768C0.750127 5.20061 0.731445 5.29012 0.731445 5.38061C0.731445 5.47109 0.750127 5.5606 0.786321 5.64353C2.1141 8.72635 4.61191 10.6391 7.30691 10.6391C10.0019 10.6391 12.4997 8.72635 13.8275 5.64353C13.8637 5.5606 13.8824 5.47109 13.8824 5.38061C13.8824 5.29012 13.8637 5.20061 13.8275 5.11768ZM7.30691 9.32451C5.21664 9.32451 3.25126 7.81925 2.1141 5.38061C3.25126 2.94196 5.21664 1.4367 7.30691 1.4367C9.39717 1.4367 11.3626 2.94196 12.4997 5.38061C11.3626 7.81925 9.39717 9.32451 7.30691 9.32451ZM7.30691 2.75134C6.78689 2.75134 6.27854 2.90554 5.84616 3.19445C5.41378 3.48336 5.07678 3.89399 4.87778 4.37443C4.67878 4.85487 4.62671 5.38352 4.72816 5.89355C4.82961 6.40358 5.08002 6.87207 5.44773 7.23978C5.81544 7.60749 6.28393 7.8579 6.79396 7.95935C7.30399 8.06081 7.83265 8.00874 8.31308 7.80973C8.79352 7.61073 9.20415 7.27373 9.49306 6.84135C9.78197 6.40897 9.93617 5.90063 9.93617 5.38061C9.93617 4.68328 9.65916 4.01452 9.16608 3.52143C8.673 3.02835 8.00423 2.75134 7.30691 2.75134ZM7.30691 6.69524C7.0469 6.69524 6.79273 6.61814 6.57653 6.47368C6.36034 6.32923 6.19184 6.12391 6.09234 5.8837C5.99284 5.64348 5.96681 5.37915 6.01753 5.12413C6.06826 4.86912 6.19347 4.63488 6.37732 4.45102C6.56117 4.26717 6.79542 4.14196 7.05043 4.09123C7.30545 4.04051 7.56978 4.06654 7.80999 4.16604C8.05021 4.26554 8.25553 4.43404 8.39998 4.65024C8.54444 4.86643 8.62154 5.1206 8.62154 5.38061C8.62154 5.72927 8.48303 6.06365 8.23649 6.31019C7.98995 6.55673 7.65557 6.69524 7.30691 6.69524Z" fill="#00860A"/>
</svg>
