<svg width="29" height="30" viewBox="0 0 29 30" fill="none" xmlns="http://www.w3.org/2000/svg">
<path d="M22.7864 9.6586H20.3953C20.7244 9.2209 20.9249 8.70006 20.9742 8.15466C21.0236 7.60925 20.9197 7.0609 20.6745 6.57127C20.4292 6.08163 20.0522 5.67013 19.5859 5.38303C19.1195 5.09593 18.5823 4.94461 18.0347 4.9461C17.5942 4.92604 17.1557 5.01649 16.7591 5.20922C16.3625 5.40194 16.0204 5.69082 15.764 6.04955C15.2327 6.86555 14.8078 7.74605 14.4996 8.6697C14.1914 7.74605 13.7665 6.86554 13.2352 6.04955C12.9793 5.69167 12.6382 5.40332 12.2427 5.21063C11.8472 5.01794 11.4098 4.92702 10.9703 4.9461C10.4227 4.94461 9.8855 5.09593 9.41916 5.38303C8.95282 5.67013 8.57582 6.08163 8.33055 6.57127C8.08528 7.0609 7.98147 7.60925 8.03079 8.15466C8.0801 8.70006 8.28059 9.2209 8.60971 9.6586H6.21286C5.7442 9.65898 5.29484 9.84533 4.96344 10.1767C4.63204 10.5081 4.4457 10.9575 4.44531 11.4261V12.605C4.44586 12.9704 4.55945 13.3267 4.77051 13.625C4.98157 13.9233 5.27976 14.1489 5.62416 14.271V23.2871C5.62455 23.7558 5.81089 24.2052 6.14229 24.5366C6.47369 24.868 6.92305 25.0543 7.39171 25.0547H21.609C22.0776 25.0543 22.527 24.868 22.8584 24.5366C23.1898 24.2052 23.3761 23.7558 23.3765 23.2871V14.271C23.7209 14.1489 24.0191 13.9233 24.2302 13.625C24.4412 13.3267 24.5548 12.9704 24.5554 12.605V11.4261C24.555 10.9572 24.3684 10.5076 24.0367 10.1762C23.705 9.84477 23.2553 9.6586 22.7864 9.6586ZM15.5813 9.13805C16.4803 6.8485 16.8269 6.12495 18.0347 6.12495C18.2668 6.12495 18.4967 6.17067 18.7111 6.25949C18.9256 6.34832 19.1204 6.47852 19.2846 6.64265C19.4487 6.80678 19.5789 7.00164 19.6677 7.21608C19.7565 7.43053 19.8023 7.66038 19.8023 7.8925C19.8023 8.12461 19.7565 8.35446 19.6677 8.56891C19.5789 8.78336 19.4487 8.97821 19.2846 9.14234C19.1204 9.30648 18.9256 9.43667 18.7111 9.5255C18.4967 9.61433 18.2668 9.66005 18.0347 9.66005H15.3754L15.5813 9.13805ZM10.9703 6.12495C12.1782 6.12495 12.5218 6.84995 13.4237 9.1395L13.6296 9.66005H10.9703C10.7382 9.66005 10.5083 9.61433 10.2939 9.5255C10.0795 9.43667 9.8846 9.30648 9.72046 9.14234C9.55633 8.97821 9.42614 8.78336 9.33731 8.56891C9.24848 8.35446 9.20276 8.12461 9.20276 7.8925C9.20276 7.66038 9.24848 7.43053 9.33731 7.21608C9.42614 7.00164 9.55633 6.80678 9.72046 6.64265C9.8846 6.47852 10.0795 6.34832 10.2939 6.25949C10.5083 6.17067 10.7382 6.12495 10.9703 6.12495ZM12.1492 23.8773H7.39026C7.23425 23.8769 7.08473 23.8148 6.97441 23.7044C6.86409 23.5941 6.80194 23.4446 6.80156 23.2886V14.3711H12.1434L12.1492 23.8773ZM12.1492 13.1951H6.21286C6.05685 13.1948 5.90733 13.1326 5.79701 13.0223C5.68669 12.912 5.62455 12.7625 5.62416 12.6064V11.4261C5.62455 11.2701 5.68669 11.1206 5.79701 11.0103C5.90733 10.9 6.05685 10.8378 6.21286 10.8374H12.1434L12.1492 13.1951ZM15.6843 23.8773H13.3208V10.8374H15.6785L15.6843 23.8773ZM22.2093 23.2886C22.2089 23.4446 22.1467 23.5941 22.0364 23.7044C21.9261 23.8148 21.7766 23.8769 21.6206 23.8773H16.8559V14.3711H22.1977L22.2093 23.2886ZM23.3881 12.6064C23.3877 12.7625 23.3256 12.912 23.2153 13.0223C23.1049 13.1326 22.9554 13.1948 22.7994 13.1951H16.8559V10.8374H22.7864C22.9424 10.8378 23.0919 10.9 23.2022 11.0103C23.3125 11.1206 23.3747 11.2701 23.3751 11.4261L23.3881 12.6064Z" fill="#D6D6D6"/>
</svg>
