<svg width="16" height="15" viewBox="0 0 16 15" fill="none" xmlns="http://www.w3.org/2000/svg">
<path d="M7.8115 6.15297C8.74239 6.15297 9.49703 5.41502 9.49703 4.50471C9.49703 3.5944 8.74239 2.85645 7.8115 2.85645C6.88061 2.85645 6.12598 3.5944 6.12598 4.50471C6.12598 5.41502 6.88061 6.15297 7.8115 6.15297Z" stroke="#1890F7"/>
<path d="M7.72313 7.57812H7.90005C8.95897 7.57813 9.97452 7.98948 10.7233 8.72169C11.4721 9.45391 11.8927 10.447 11.8927 11.4825V11.7771C11.8927 11.8205 11.8751 11.8621 11.8437 11.8928C11.8123 11.9235 11.7697 11.9407 11.7254 11.9407H3.89783C3.85344 11.9407 3.81087 11.9235 3.77949 11.8928C3.7481 11.8621 3.73047 11.8205 3.73047 11.7771V11.4825C3.73047 10.447 4.15112 9.45391 4.89989 8.72169C5.64866 7.98948 6.66421 7.57813 7.72313 7.57812V7.57812Z" stroke="#1890F7"/>
<path d="M3.72292 6.28574C4.27696 6.28574 4.7261 5.84653 4.7261 5.30474C4.7261 4.76294 4.27696 4.32373 3.72292 4.32373C3.16887 4.32373 2.71973 4.76294 2.71973 5.30474C2.71973 5.84653 3.16887 6.28574 3.72292 6.28574Z" stroke="#1890F7" stroke-width="0.836585"/>
<path d="M11.9358 6.28574C12.4898 6.28574 12.939 5.84653 12.939 5.30474C12.939 4.76294 12.4898 4.32373 11.9358 4.32373C11.3818 4.32373 10.9326 4.76294 10.9326 5.30474C10.9326 5.84653 11.3818 6.28574 11.9358 6.28574Z" stroke="#1890F7" stroke-width="0.836585"/>
<path d="M3.19836 7.7109C2.76142 7.7109 2.34103 7.93468 2.01464 8.34102C1.70599 8.72528 1.51586 9.22387 1.46711 9.76712H3.76237C3.86465 9.54918 4.02526 9.2726 4.27717 8.94929C4.54363 8.60731 4.82043 8.35347 5.05009 8.17486C4.80383 7.89348 4.41916 7.7109 4.24958 7.7109H3.19836ZM3.19836 7.10303H4.24958C4.7669 7.10303 5.65346 7.62998 5.85238 8.37818C5.85238 8.37818 5.28911 8.65353 4.77161 9.3177C4.25411 9.98188 4.20286 10.375 4.20286 10.375H1.09583C0.950679 10.375 0.833008 10.2285 0.833008 10.0478C0.833008 8.42144 1.89201 7.10303 3.19836 7.10303Z" fill="#1890F7" stroke="#1890F7" stroke-width="0.239024"/>
<path d="M11.4124 7.7109C11.2428 7.7109 10.8581 7.89349 10.6119 8.17487C10.8415 8.35348 11.1183 8.60733 11.3848 8.94931C11.6367 9.27262 11.7973 9.54921 11.8996 9.76716H14.1948C14.1461 9.22389 13.956 8.7253 13.6473 8.34103C13.3209 7.93468 12.9005 7.7109 12.4636 7.7109H11.4124ZM11.4124 7.10303H12.4636C13.7699 7.10303 14.829 8.42146 14.829 10.0478C14.829 10.2285 14.7113 10.375 14.5661 10.375H11.4591C11.4591 10.375 11.4078 9.9819 10.8903 9.31772C10.3728 8.65354 9.80957 8.37819 9.80957 8.37819C10.0085 7.62999 10.8951 7.10303 11.4124 7.10303Z" fill="#1890F7" stroke="#1890F7" stroke-width="0.239024"/>
</svg>
