<svg width="13" height="13" viewBox="0 0 13 13" fill="none" xmlns="http://www.w3.org/2000/svg">
<path d="M7.07438 11.4811H10.7999V5.38056L6.45347 1.69944L2.10706 5.38056V11.4811H5.83255V7.42398H7.07438V11.4811ZM12.0417 12.1572C12.0417 12.3366 11.9763 12.5086 11.8598 12.6354C11.7434 12.7622 11.5855 12.8334 11.4208 12.8334H1.48615C1.32147 12.8334 1.16354 12.7622 1.0471 12.6354C0.930652 12.5086 0.865235 12.3366 0.865235 12.1572V5.05059C0.865169 4.94755 0.886729 4.84585 0.928267 4.75327C0.969806 4.66069 1.03022 4.57967 1.10491 4.5164L6.07223 0.309215C6.18123 0.216879 6.31538 0.166748 6.45347 0.166748C6.59156 0.166748 6.72571 0.216879 6.83471 0.309215L11.802 4.5164C11.8767 4.57967 11.9371 4.66069 11.9787 4.75327C12.0202 4.84585 12.0418 4.94755 12.0417 5.05059V12.1572Z" fill="#5A5A5A"/>
</svg>
