<svg width="10" height="12" viewBox="0 0 10 12" fill="none" xmlns="http://www.w3.org/2000/svg">
<path d="M8.54433 8.25111L5.15764 11.6579L1.77095 8.25111C1.10114 7.57731 0.644988 6.71883 0.46019 5.78424C0.275392 4.84965 0.370243 3.88092 0.732749 3.00056C1.09525 2.1202 1.70913 1.36774 2.49676 0.838335C3.28438 0.308934 4.21037 0.0263672 5.15764 0.0263672C6.1049 0.0263672 7.0309 0.308934 7.81852 0.838335C8.60614 1.36774 9.22002 2.1202 9.58253 3.00056C9.94503 3.88092 10.0399 4.84965 9.85509 5.78424C9.67029 6.71883 9.21414 7.57731 8.54433 8.25111ZM5.15764 6.9856C5.72219 6.9856 6.26362 6.76 6.66282 6.35842C7.06202 5.95685 7.28629 5.41219 7.28629 4.84428C7.28629 4.27637 7.06202 3.73172 6.66282 3.33014C6.26362 2.92857 5.72219 2.70297 5.15764 2.70297C4.59308 2.70297 4.05165 2.92857 3.65245 3.33014C3.25325 3.73172 3.02898 4.27637 3.02898 4.84428C3.02898 5.41219 3.25325 5.95685 3.65245 6.35842C4.05165 6.76 4.59308 6.9856 5.15764 6.9856ZM5.15764 5.91494C4.87536 5.91494 4.60464 5.80214 4.40505 5.60135C4.20545 5.40056 4.09331 5.12824 4.09331 4.84428C4.09331 4.56033 4.20545 4.288 4.40505 4.08721C4.60464 3.88643 4.87536 3.77363 5.15764 3.77363C5.43991 3.77363 5.71063 3.88643 5.91023 4.08721C6.10983 4.288 6.22196 4.56033 6.22196 4.84428C6.22196 5.12824 6.10983 5.40056 5.91023 5.60135C5.71063 5.80214 5.43991 5.91494 5.15764 5.91494Z" fill="white"/>
</svg>
