<svg width="11" height="10" viewBox="0 0 11 10" fill="none" xmlns="http://www.w3.org/2000/svg">
<path d="M1.39423 0H10.4942C10.6283 0 10.7569 0.0532637 10.8517 0.148074C10.9465 0.242884 10.9998 0.371474 10.9998 0.505556V8.59444C10.9998 8.72853 10.9465 8.85712 10.8517 8.95193C10.7569 9.04674 10.6283 9.1 10.4942 9.1H1.39423C1.26015 9.1 1.13156 9.04674 1.03675 8.95193C0.941936 8.85712 0.888672 8.72853 0.888672 8.59444V0.505556C0.888672 0.371474 0.941936 0.242884 1.03675 0.148074C1.13156 0.0532637 1.26015 0 1.39423 0ZM5.97456 4.38974L2.73294 1.63699L2.07824 2.40746L5.98113 5.72137L9.81375 2.40493L9.15248 1.64002L5.97507 4.38974H5.97456Z" fill="white"/>
</svg>
