<svg width="29" height="30" viewBox="0 0 29 30" fill="none" xmlns="http://www.w3.org/2000/svg">
<path d="M14.4944 18.402C14.3676 18.4021 14.2447 18.3583 14.1465 18.2781C14.0483 18.1979 13.9808 18.0862 13.9556 17.962C13.9303 17.8377 13.9488 17.7086 14.0079 17.5964C14.067 17.4842 14.1631 17.3959 14.2798 17.3464C14.4234 17.3017 14.577 17.301 14.721 17.3444C14.8649 17.3879 14.9926 17.4734 15.0875 17.59C15.1385 17.6436 15.1999 17.6863 15.2679 17.7155C15.3358 17.7448 15.409 17.76 15.483 17.7603C15.557 17.7606 15.6303 17.7459 15.6985 17.7172C15.7667 17.6885 15.8284 17.6463 15.8799 17.5931C15.9314 17.54 15.9716 17.477 15.9981 17.4079C16.0247 17.3388 16.037 17.2651 16.0344 17.1912C16.0317 17.1172 16.0142 17.0446 15.9828 16.9776C15.9514 16.9105 15.9068 16.8506 15.8516 16.8012C15.6231 16.5743 15.3466 16.4014 15.0425 16.2952V15.6557C15.0425 15.51 14.9846 15.3702 14.8816 15.2671C14.7785 15.1641 14.6387 15.1062 14.493 15.1062C14.3472 15.1062 14.2074 15.1641 14.1044 15.2671C14.0013 15.3702 13.9434 15.51 13.9434 15.6557V16.2995L13.8506 16.3358C13.5004 16.4841 13.2123 16.7488 13.035 17.0852C12.8577 17.4216 12.8021 17.809 12.8777 18.1817C12.9533 18.5544 13.1554 18.8895 13.4498 19.1302C13.7442 19.3709 14.1127 19.5025 14.493 19.5026C14.6221 19.5026 14.7471 19.5481 14.8461 19.6311C14.945 19.7141 15.0116 19.8293 15.0341 19.9564C15.0566 20.0836 15.0336 20.2146 14.9691 20.3265C14.9046 20.4384 14.8028 20.524 14.6815 20.5683C14.51 20.6063 14.331 20.5898 14.1693 20.5212C14.0076 20.4526 13.8714 20.3353 13.7796 20.1855C13.684 20.0808 13.5516 20.0172 13.4101 20.0078C13.2686 19.9984 13.129 20.0441 13.0204 20.1353C12.9118 20.2264 12.8427 20.3561 12.8274 20.497C12.8122 20.638 12.852 20.7794 12.9386 20.8917C13.2003 21.2213 13.5481 21.4722 13.9434 21.6167V22.2561C13.9434 22.4019 14.0013 22.5417 14.1044 22.6447C14.2074 22.7478 14.3472 22.8057 14.493 22.8057C14.6387 22.8057 14.7785 22.7478 14.8816 22.6447C14.9846 22.5417 15.0425 22.4019 15.0425 22.2561V21.6123H15.057C15.4208 21.4795 15.7262 21.2228 15.9197 20.8872C16.1132 20.5517 16.1823 20.1587 16.115 19.7773C16.0477 19.3959 15.8483 19.0503 15.5517 18.8012C15.2551 18.5522 14.8803 18.4155 14.493 18.4151L14.4944 18.402Z" fill="#D6D6D6"/>
<path d="M20.2206 13.7373C19.5313 12.8728 18.6845 12.1466 17.7251 11.5971C17.9262 11.3597 18.0643 11.0756 18.1269 10.7708C18.1895 10.4661 18.1745 10.1505 18.0832 9.85311C17.992 9.5557 17.8274 9.28599 17.6047 9.06878C17.382 8.85158 17.1083 8.69383 16.8087 8.61005L18.3863 5.85505C18.4328 5.77391 18.4603 5.68327 18.4667 5.58996C18.473 5.49665 18.4581 5.40312 18.4231 5.31641C18.388 5.2297 18.3338 5.15208 18.2643 5.08941C18.1949 5.02673 18.1122 4.98064 18.0224 4.9546C15.7211 4.28857 13.2781 4.28857 10.9768 4.9546C10.887 4.98064 10.8042 5.02673 10.7348 5.08941C10.6654 5.15208 10.6111 5.2297 10.5761 5.31641C10.541 5.40312 10.5261 5.49665 10.5325 5.58996C10.5389 5.68327 10.5663 5.77391 10.6129 5.85505L12.1904 8.61005C11.8909 8.69383 11.6171 8.85158 11.3944 9.06878C11.1717 9.28599 11.0072 9.5557 10.9159 9.85311C10.8247 10.1505 10.8097 10.4661 10.8722 10.7708C10.9348 11.0756 11.073 11.3597 11.2741 11.5971C10.3146 12.1466 9.46789 12.8728 8.7786 13.7373C7.3268 15.4997 6.51286 17.7009 6.46875 19.9839C6.46875 24.4789 10.0532 25.5431 14.5003 25.5431C18.9475 25.5431 22.5319 24.4745 22.5319 19.9839C22.4873 17.7007 21.6729 15.4995 20.2206 13.7373ZM12.0904 5.9493C13.6784 5.60795 15.3208 5.60795 16.9087 5.9493L15.5487 8.3215C14.8527 8.22421 14.1465 8.22421 13.4505 8.3215L12.0904 5.9493ZM12.4935 9.80775C13.543 9.46048 14.6646 9.39153 15.7488 9.60765C16.0023 9.65847 16.2526 9.72432 16.4984 9.80485C16.6331 9.84846 16.7488 9.93705 16.826 10.0558C16.9032 10.1745 16.9373 10.3162 16.9225 10.457C16.9077 10.5979 16.845 10.7293 16.7448 10.8295C16.6446 10.9296 16.5131 10.9922 16.3723 11.0069C15.1508 10.6201 13.8397 10.6201 12.6182 11.0069C12.4767 10.9937 12.3442 10.9321 12.2429 10.8324C12.1417 10.7327 12.078 10.6011 12.0627 10.4599C12.0473 10.3187 12.0812 10.1764 12.1587 10.0573C12.2361 9.93823 12.3524 9.84955 12.4877 9.8063L12.4935 9.80775ZM14.5003 24.3223C9.67325 24.3223 7.70415 23.0608 7.70415 19.9897C7.75467 17.9912 8.46887 16.0665 9.73415 14.5188C10.2545 13.7315 10.9618 13.0855 11.7929 12.6386C12.6241 12.1916 13.553 11.9577 14.4967 11.9577C15.4403 11.9577 16.3693 12.1916 17.2004 12.6386C18.0315 13.0855 18.7389 13.7315 19.2592 14.5188C20.5245 16.0665 21.2387 17.9912 21.2892 19.9897C21.295 23.055 19.3259 24.3223 14.5003 24.3223Z" fill="#D6D6D6"/>
</svg>
