<svg width="9" height="9" viewBox="0 0 9 9" fill="none" xmlns="http://www.w3.org/2000/svg">
<path d="M0 1.82604C5.75417e-05 1.49461 0.0902966 1.16945 0.261052 0.885395C0.431808 0.601341 0.676647 0.369106 0.969316 0.213579C1.26199 0.0580524 1.59146 -0.0149047 1.92242 0.00252886C2.25339 0.0199624 2.57338 0.127127 2.84809 0.312541L3.30479 2.89632L1.85917 3.65284C2.11964 4.33928 2.52276 4.96266 3.04191 5.48182C3.56107 6.00097 4.18444 6.40409 4.87088 6.66456L5.62561 5.21759L8.20939 5.67429C8.3946 5.94906 8.50158 6.26903 8.51884 6.59994C8.53611 6.93085 8.46303 7.26023 8.30742 7.55278C8.15182 7.84533 7.91955 8.09003 7.63551 8.26068C7.35147 8.43132 7.02635 8.52148 6.69499 8.52148C4.91951 8.52077 3.21696 7.81511 1.96155 6.55961C0.706136 5.30412 0.000595655 3.60152 0 1.82604Z" fill="white"/>
</svg>
