<svg width="13" height="25" viewBox="0 0 13 25" fill="none" xmlns="http://www.w3.org/2000/svg">
<path d="M11.8195 13.8854C10.3475 13.824 8.90883 14.3343 7.80443 15.3093C7.53286 15.5889 7.3033 15.9063 7.12292 16.2518L7.11277 13.6795C8.19484 13.678 9.23216 13.2475 9.9973 12.4823C10.7624 11.7172 11.193 10.6798 11.1945 9.59777V4.49087C11.1955 4.18152 11.3184 3.88504 11.5367 3.66582L12.1907 3.01187C12.2796 2.92617 12.3389 2.81431 12.3599 2.69258C12.3808 2.57085 12.3624 2.4456 12.3072 2.33509C12.252 2.22457 12.163 2.13456 12.0531 2.07816C11.9432 2.02176 11.8182 2.00192 11.6962 2.02152L10.0287 2.25932V1.42992C10.0287 1.27609 9.96761 1.12857 9.85884 1.0198C9.75007 0.911026 9.60255 0.849919 9.44873 0.849919C8.38063 0.84596 7.31944 1.02143 6.30947 1.36902C5.4509 1.03386 4.53846 0.857952 3.61683 0.849919C3.463 0.849919 3.31546 0.911026 3.20669 1.0198C3.09792 1.12857 3.03681 1.27609 3.03681 1.42992V2.25642L1.36932 2.01862C1.24736 1.99902 1.12233 2.01886 1.01244 2.07526C0.902547 2.13166 0.813531 2.22167 0.758354 2.33219C0.703178 2.4427 0.684716 2.56795 0.705674 2.68968C0.726632 2.81141 0.785908 2.92327 0.874866 3.00897L1.52882 3.66292C1.74709 3.88214 1.87007 4.17862 1.87103 4.48797V9.59777C1.87257 10.6798 2.30309 11.7172 3.06823 12.4823C3.83337 13.2475 4.87069 13.678 5.95276 13.6795V23.6961C5.95276 23.8499 6.01387 23.9975 6.12264 24.1062C6.23141 24.215 6.37895 24.2761 6.53278 24.2761C6.6866 24.2761 6.83412 24.215 6.94289 24.1062C7.05166 23.9975 7.11277 23.8499 7.11277 23.6961L7.12582 19.6999C7.27082 19.7072 7.39987 19.7115 7.53472 19.7115C8.15935 19.7423 8.78373 19.6461 9.37014 19.4288C9.95656 19.2115 10.4928 18.8775 10.9466 18.4471C11.9197 17.3416 12.4296 15.9037 12.3705 14.4321C12.3624 14.289 12.3016 14.1539 12.1999 14.053C12.0981 13.9521 11.9626 13.8924 11.8195 13.8854ZM8.86582 2.03457V2.45362C8.72082 2.48552 8.56567 2.51307 8.41922 2.55512L8.16693 2.36517C8.06833 2.29122 7.95668 2.23757 7.85518 2.16942C8.1891 2.10451 8.52656 2.05948 8.86582 2.03457ZM9.47338 3.51792L10.3042 3.39902C10.1262 3.73497 10.0326 4.10921 10.0316 4.48942V9.59777C10.026 8.56649 9.80203 7.54809 9.37441 6.60962C8.94679 5.67116 8.32524 4.83391 7.55067 4.15302C8.14961 3.83225 8.79967 3.61785 9.47192 3.51937L9.47338 3.51792ZM4.19971 2.04327C5.23964 2.14509 6.23929 2.49788 7.11277 3.07132C6.91847 3.16992 6.72708 3.28157 6.53278 3.39902C5.81374 2.95436 5.02204 2.63974 4.19392 2.46957L4.19971 2.04327ZM5.94987 12.5137C5.17674 12.5129 4.43551 12.2055 3.88883 11.6588C3.34215 11.1121 3.03468 10.3709 3.03391 9.59777V4.49087C3.03286 4.11067 2.93931 3.73644 2.76133 3.40047L3.59218 3.51937C5.05298 3.73446 6.38824 4.46618 7.35559 5.58172C8.32295 6.69727 8.85827 8.12268 8.86438 9.59922C8.86323 10.3718 8.55579 11.1125 8.00946 11.6588C7.46313 12.2051 6.72249 12.5126 5.94987 12.5137ZM10.123 17.625C9.46991 18.2333 8.60539 18.5631 7.71307 18.5443C7.69464 17.6541 8.02269 16.7916 8.62802 16.1387C9.33659 15.504 10.2391 15.1279 11.1887 15.0715C11.1325 16.019 10.7562 16.9193 10.1215 17.625H10.123Z" fill="#D6D6D6"/>
</svg>
