<svg width="11" height="11" viewBox="0 0 11 11" fill="none" xmlns="http://www.w3.org/2000/svg">
<path d="M8.96232 1.5377C7.97073 0.546083 6.65234 0 5.25001 0C3.84768 0 2.52927 0.546083 1.5377 1.53768C0.546083 2.52927 0 3.84768 0 5.25001C0 6.65234 0.546083 7.97073 1.5377 8.96232C2.52927 9.95392 3.84768 10.5 5.25001 10.5C6.65236 10.5 7.97073 9.95392 8.96234 8.9623C9.95392 7.97073 10.5 6.65232 10.5 5.24999C10.5 3.84766 9.95392 2.52927 8.96232 1.5377ZM1.97318 1.97318C2.43484 1.51153 2.9768 1.15941 3.56751 0.92958C3.41017 1.126 3.26294 1.35178 3.12802 1.6057C2.97132 1.90061 2.83611 2.22449 2.7235 2.57043C2.3334 2.50569 1.97195 2.42608 1.64904 2.33265C1.75024 2.20824 1.85822 2.08815 1.97318 1.97318ZM1.27618 2.86259C1.65388 2.98352 2.08581 3.08551 2.55712 3.16629C2.42587 3.72341 2.34862 4.32291 2.33018 4.94209H0.626228C0.674626 4.19902 0.897793 3.48986 1.27618 2.86259ZM1.24265 7.58048C0.884688 6.96732 0.67317 6.27862 0.626207 5.55794H2.33135C2.35149 6.15941 2.42721 6.74187 2.55403 7.28441C2.07304 7.36238 1.63025 7.46178 1.24265 7.58048ZM1.97318 8.52684C1.84234 8.39598 1.72049 8.25857 1.60751 8.11555C1.94226 8.02273 2.31649 7.94413 2.71932 7.88109C2.83273 8.23183 2.96939 8.56 3.128 8.85853C3.27504 9.13524 3.43671 9.37839 3.61014 9.58666C3.0029 9.35732 2.44593 8.99954 1.97318 8.52684ZM4.94206 9.80511C4.47432 9.67409 4.03184 9.24695 3.67189 8.56953C3.54599 8.33263 3.43541 8.07417 3.34069 7.79871C3.84785 7.74288 4.38751 7.70989 4.94206 7.70213V9.80511ZM4.94206 7.08622C4.32708 7.09461 3.72765 7.13323 3.16629 7.19916C3.04246 6.68726 2.96796 6.1332 2.94751 5.55796H4.94209V7.08622H4.94206ZM4.94206 4.94206H2.94634C2.96503 4.35074 3.04072 3.78122 3.1684 3.2563C3.72617 3.32603 4.32435 3.36844 4.94206 3.38058V4.94206ZM4.94206 2.76462C4.38536 2.7534 3.84688 2.71711 3.34331 2.65788C3.43746 2.38529 3.54718 2.12943 3.67189 1.89468C4.03182 1.21726 4.47432 0.790127 4.94206 0.659102V2.76462ZM9.24324 2.8953C9.6098 3.51449 9.82621 4.21188 9.87383 4.94206H8.16988C8.15165 4.33003 8.07587 3.73725 7.94737 3.18563C8.42178 3.10901 8.85907 3.01154 9.24324 2.8953ZM8.52682 1.97318C8.65046 2.09683 8.76596 2.22644 8.87369 2.36099C8.54406 2.451 8.17699 2.52739 7.78259 2.58887C7.66881 2.23597 7.53151 1.90586 7.37202 1.6057C7.2371 1.35178 7.08987 1.126 6.93254 0.92958C7.5232 1.15941 8.06518 1.51153 8.52682 1.97318ZM5.55796 5.55796H7.55253C7.53194 6.13767 7.45643 6.69594 7.33084 7.21114C6.77315 7.1418 6.17524 7.09978 5.55796 7.08797V5.55796ZM5.55796 4.94206V3.38263C6.17329 3.37455 6.77319 3.33626 7.33508 3.27057C7.4607 3.79153 7.53516 4.35609 7.55368 4.94206H5.55796ZM5.55792 0.659102H5.55794C6.02568 0.790127 6.46816 1.21726 6.82811 1.89468C6.95481 2.13312 7.06602 2.39339 7.16116 2.67086C6.65332 2.72648 6.11304 2.75923 5.55792 2.76671V0.659102ZM5.55796 9.80511V7.70392C6.11413 7.71483 6.65219 7.7508 7.15558 7.80966C7.06167 8.08102 6.95233 8.33577 6.82813 8.56953C6.46818 9.24695 6.0257 9.67409 5.55796 9.80511ZM8.52682 8.52684C8.05409 8.99956 7.49712 9.35732 6.88986 9.58664C7.06329 9.37836 7.22496 9.13524 7.372 8.85853C7.52827 8.56443 7.66317 8.24149 7.77559 7.89659C8.17478 7.96248 8.54408 8.04396 8.87307 8.13979C8.76555 8.27404 8.65023 8.4034 8.52682 8.52684ZM9.24096 7.6086C8.8588 7.48574 8.42065 7.38236 7.94228 7.30078C8.0714 6.75363 8.14834 6.16546 8.16871 5.55796H9.87385C9.82611 6.28964 9.60893 6.98844 9.24096 7.6086Z" fill="white"/>
</svg>
