<svg width="187" height="45" viewBox="0 0 187 45" fill="none" xmlns="http://www.w3.org/2000/svg">
<g clip-path="url(#clip0_6988:97033)">
<path d="M78.2515 6.83385C79.1275 6.81083 79.9996 6.96016 80.8181 7.27339C81.4701 7.52957 82.058 7.92538 82.5407 8.43302C82.9783 8.90447 83.3085 9.46513 83.5087 10.0764C83.7119 10.6941 83.8148 11.3404 83.8133 11.9907C83.813 12.6369 83.7102 13.279 83.5087 13.893C83.3108 14.5087 82.9804 15.0736 82.5407 15.5479C82.0579 16.0555 81.47 16.4514 80.8181 16.708C79.9995 17.0207 79.1275 17.1699 78.2515 17.1471H74.5367V22.9116H71.0016V6.8348L78.2515 6.83385ZM77.2835 14.3998C77.6756 14.4008 78.0673 14.3706 78.4547 14.3095C78.8042 14.2582 79.1406 14.1398 79.4452 13.9607C79.7352 13.7823 79.9722 13.5295 80.1317 13.2286C80.3193 12.8439 80.4081 12.4184 80.3901 11.9907C80.4082 11.5627 80.3193 11.1369 80.1317 10.7518C79.9724 10.4509 79.7353 10.1983 79.4452 10.0202C79.1408 9.84069 78.8043 9.72207 78.4547 9.67095C78.0673 9.61001 77.6756 9.57998 77.2835 9.58113H74.5367V14.3993L77.2835 14.3998Z" fill="white"/>
<path d="M94.6883 6.8336C95.3541 6.8235 96.0155 6.94208 96.6363 7.18283C97.19 7.40005 97.6951 7.72515 98.1221 8.13926C98.5307 8.53829 98.8527 9.01726 99.0679 9.54628C99.2886 10.0938 99.3997 10.6792 99.3951 11.2694C99.4172 12.1258 99.2111 12.9727 98.798 13.7232C98.3489 14.4562 97.6615 15.0127 96.851 15.2993V15.3449C97.248 15.4454 97.6174 15.6339 97.9318 15.8964C98.2165 16.1436 98.453 16.4413 98.6293 16.7745C98.8142 17.1249 98.947 17.5003 99.0237 17.889C99.1058 18.2903 99.1622 18.6964 99.1928 19.1048C99.2076 19.361 99.2228 19.6614 99.2385 20.006C99.2534 20.3514 99.2793 20.7035 99.3172 21.0629C99.3518 21.4084 99.4118 21.7509 99.4969 22.0875C99.5667 22.3827 99.693 22.6617 99.8687 22.909H96.3331C96.1222 22.322 96.0007 21.7066 95.9729 21.0835C95.928 20.379 95.8604 19.7034 95.7701 19.0568C95.719 18.3753 95.4508 17.7281 95.0049 17.2102C94.469 16.7705 93.7812 16.5601 93.0911 16.6247H89.556V22.9104H86.0214V6.8336H94.6883ZM93.4278 14.1065C94.0819 14.1567 94.7317 13.9645 95.2533 13.5666C95.4741 13.3342 95.6426 13.0573 95.7475 12.7543C95.8523 12.4514 95.891 12.1295 95.8609 11.8103C95.8893 11.4998 95.8496 11.1868 95.7447 10.8932C95.6397 10.5996 95.472 10.3324 95.2533 10.1103C94.7284 9.71977 94.0801 9.5321 93.4278 9.58183H89.5545V14.107L93.4278 14.1065Z" fill="white"/>
<path d="M102.118 11.596C102.456 10.6068 102.984 9.69307 103.672 8.90594C104.36 8.13119 105.209 7.5162 106.16 7.10404C107.209 6.65562 108.341 6.43318 109.481 6.4512C110.626 6.43108 111.762 6.65358 112.814 7.10404C113.76 7.51823 114.605 8.13305 115.29 8.90594C115.979 9.69284 116.507 10.6067 116.845 11.596C117.212 12.6719 117.395 13.8025 117.385 14.9395C117.394 16.0544 117.211 17.1627 116.845 18.2156C116.506 19.1916 115.978 20.0909 115.29 20.8616C114.601 21.6219 113.757 22.2247 112.814 22.6289C111.76 23.0722 110.625 23.2908 109.481 23.2707C108.342 23.2888 107.211 23.0702 106.16 22.6289C105.212 22.2266 104.363 21.6237 103.672 20.8616C102.984 20.0907 102.456 19.1914 102.118 18.2156C101.751 17.1627 101.569 16.0544 101.578 14.9395C101.568 13.8025 101.75 12.6719 102.118 11.596ZM105.35 16.9095C105.496 17.5241 105.752 18.1076 106.104 18.6321C106.449 19.1435 106.913 19.5644 107.455 19.8595C108.08 20.1837 108.778 20.3425 109.481 20.3207C110.185 20.3424 110.883 20.1836 111.508 19.8595C112.05 19.5642 112.513 19.1434 112.859 18.6321C113.211 18.1074 113.466 17.5241 113.613 16.9095C113.772 16.265 113.851 15.6036 113.85 14.94C113.851 14.2501 113.772 13.5625 113.613 12.8912C113.469 12.2618 113.214 11.6633 112.859 11.1238C112.515 10.6078 112.052 10.1827 111.508 9.88495C110.883 9.56112 110.185 9.40237 109.481 9.42378C108.778 9.40226 108.08 9.56102 107.455 9.88495C106.911 10.1826 106.447 10.6077 106.104 11.1238C105.749 11.6631 105.493 12.2617 105.35 12.8912C105.19 13.5624 105.111 14.2501 105.113 14.94C105.111 15.6037 105.191 16.2651 105.35 16.9095Z" fill="white"/>
<path d="M127.044 6.83385C127.92 6.81085 128.793 6.96018 129.611 7.27338C130.263 7.52971 130.851 7.9255 131.334 8.43301C131.771 8.9048 132.101 9.46535 132.302 10.0764C132.505 10.6942 132.607 11.3405 132.606 11.9907C132.606 12.6369 132.503 13.2789 132.302 13.893C132.103 14.5085 131.773 15.0732 131.334 15.5479C130.851 16.0553 130.263 16.4513 129.611 16.708C128.792 17.0207 127.92 17.1699 127.044 17.1471H123.329V22.9116H119.794V6.8348L127.044 6.83385ZM126.076 14.3998C126.468 14.4008 126.86 14.3706 127.247 14.3095C127.597 14.2582 127.933 14.1398 128.238 13.9607C128.528 13.7825 128.766 13.5297 128.925 13.2286C129.113 12.8439 129.202 12.4184 129.184 11.9907C129.202 11.5627 129.113 11.1369 128.925 10.7518C128.766 10.4507 128.528 10.198 128.238 10.0202C127.933 9.84069 127.597 9.72206 127.247 9.67095C126.86 9.61001 126.468 9.57998 126.076 9.58112H123.329V14.3993L126.076 14.3998Z" fill="white"/>
<path d="M145.124 11.1236C144.914 10.7848 144.647 10.484 144.337 10.2339C144.016 9.97619 143.655 9.77433 143.267 9.63685C142.866 9.49411 142.444 9.42179 142.018 9.42308C141.314 9.40156 140.617 9.5603 139.992 9.88423C139.448 10.1819 138.984 10.607 138.64 11.1231C138.286 11.6627 138.03 12.2612 137.886 12.8904C137.727 13.5618 137.648 14.2494 137.65 14.9393C137.648 15.6029 137.728 16.2643 137.886 16.9088C138.033 17.5233 138.289 18.1066 138.64 18.6314C138.986 19.1428 139.449 19.5637 139.992 19.8588C140.617 20.1831 141.314 20.3418 142.018 20.32C142.487 20.3463 142.955 20.2714 143.392 20.1005C143.829 19.9296 144.224 19.6666 144.551 19.3294C145.19 18.5988 145.58 17.6843 145.665 16.7176H149.088C149.014 17.6593 148.778 18.5812 148.39 19.4423C148.036 20.2238 147.531 20.9277 146.904 21.5137C146.278 22.0903 145.543 22.5346 144.742 22.8198C143.867 23.1283 142.946 23.2809 142.018 23.2704C140.879 23.2886 139.747 23.0701 138.696 22.6287C137.749 22.2266 136.9 21.6236 136.209 20.8614C135.521 20.0906 134.993 19.1914 134.655 18.2154C134.288 17.1625 134.105 16.0543 134.114 14.9393C134.104 13.8022 134.287 12.6717 134.655 11.5958C134.993 10.6065 135.52 9.69267 136.209 8.90571C136.897 8.13083 137.746 7.51582 138.696 7.10381C139.746 6.65532 140.877 6.43288 142.018 6.45097C142.87 6.44658 143.717 6.57627 144.529 6.83528C145.294 7.07921 146.011 7.45649 146.645 7.94975C147.275 8.44561 147.799 9.06194 148.187 9.7627C148.606 10.5282 148.867 11.3705 148.953 12.239H145.53C145.474 11.8431 145.336 11.4632 145.124 11.1236Z" fill="white"/>
<path d="M151.34 11.5961C151.678 10.6067 152.206 9.69285 152.894 8.90595C153.582 8.13093 154.431 7.5159 155.382 7.10405C156.431 6.65556 157.563 6.43311 158.703 6.45121C159.848 6.43102 160.983 6.65352 162.036 7.10405C162.982 7.51825 163.827 8.13306 164.512 8.90595C165.2 9.69307 165.728 10.6068 166.066 11.5961C166.434 12.6719 166.616 13.8025 166.606 14.9395C166.615 16.0545 166.433 17.1627 166.066 18.2157C165.728 19.1915 165.2 20.0907 164.512 20.8616C163.823 21.6219 162.979 22.2247 162.036 22.6289C160.982 23.0723 159.847 23.2909 158.703 23.2707C157.564 23.2888 156.433 23.0702 155.382 22.6289C154.435 22.227 153.586 21.624 152.894 20.8616C152.207 20.0909 151.678 19.1916 151.34 18.2157C150.973 17.1627 150.791 16.0545 150.8 14.9395C150.79 13.8025 150.972 12.6719 151.34 11.5961ZM154.571 16.9095C154.718 17.5241 154.974 18.1074 155.326 18.6321C155.671 19.1435 156.134 19.5644 156.677 19.8595C157.302 20.1836 157.999 20.3424 158.703 20.3207C159.407 20.3424 160.105 20.1836 160.73 19.8595C161.272 19.5641 161.735 19.1432 162.081 18.6321C162.433 18.1073 162.688 17.5239 162.835 16.9095C162.994 16.2651 163.073 15.6037 163.072 14.94C163.074 14.2501 162.994 13.5624 162.835 12.8912C162.691 12.2619 162.436 11.6634 162.081 11.1238C161.737 10.6079 161.274 10.1829 160.73 9.88496C160.105 9.56112 159.407 9.40238 158.703 9.42378C157.999 9.40238 157.302 9.56112 156.677 9.88496C156.133 10.1826 155.669 10.6077 155.326 11.1238C154.971 11.6633 154.716 12.2618 154.571 12.8912C154.413 13.5625 154.333 14.2501 154.335 14.94C154.334 15.6037 154.414 16.265 154.572 16.9095H154.571Z" fill="white"/>
<path d="M173.992 6.83398L177.752 17.8899H177.798L181.353 6.83398H186.329V22.9108H183.019V11.5172H182.974L179.035 22.9108H176.31L172.371 11.6305H172.326V22.9108H169.016V6.83398H173.992Z" fill="white"/>
<path d="M61.5416 42.5823L61.129 42.8652C60.4275 43.3551 59.6363 43.7019 58.8007 43.8856C57.9651 44.0694 57.1015 44.0866 56.2592 43.9362C55.4169 43.7859 54.6126 43.4709 53.8922 43.0093C53.1718 42.5478 52.5495 41.9487 52.0609 41.2464L50.467 38.9603L47.2773 34.3847C46.487 33.2505 45.6848 32.1269 44.9167 30.9778C44.6762 30.5769 44.3441 30.2386 43.9478 29.9906C43.5724 29.8095 43.1545 29.7346 42.7396 29.7741C42.3247 29.8135 41.9284 29.9658 41.5939 30.2145C41.3543 30.3537 41.1464 30.5416 40.9837 30.7661C40.8211 30.9905 40.7072 31.2465 40.6495 31.5176C40.5917 31.7887 40.5914 32.0689 40.6485 32.3401C40.7056 32.6113 40.8188 32.8676 40.981 33.0924C41.7729 34.2423 42.2698 35.5694 42.4279 36.9566C42.4864 38.0893 42.261 39.2186 41.7723 40.2421C41.2835 41.2656 40.5469 42.1507 39.6292 42.8172C38.7326 43.4752 37.6887 43.9038 36.5885 44.0657C35.4882 44.2276 34.3651 44.1177 33.317 43.7458C31.4964 43.0536 30.1571 41.5706 29.0897 39.9945C27.9118 38.2584 26.7839 36.5295 25.5829 34.8026C24.8182 33.7025 24.0528 32.6031 23.2867 31.5043L22.2299 29.9863C21.8512 29.5171 21.506 29.0219 21.1966 28.5044C20.9001 27.995 20.4808 27.5679 19.9769 27.2621C19.6984 27.1351 19.3952 27.0716 19.0891 27.0762C18.783 27.0807 18.4818 27.1533 18.2072 27.2885C17.7688 27.469 17.3972 27.7812 17.1438 28.1819C16.8904 28.5826 16.7676 29.0522 16.7925 29.5256C16.9145 30.4643 17.6212 31.217 18.1414 31.9631L19.2487 33.5512C20.0403 34.684 20.4646 36.0328 20.464 37.4149C20.4652 38.5059 20.2025 39.581 19.6985 40.5486C19.1945 41.5162 18.464 42.3476 17.5693 42.9719C16.0967 43.9972 14.2774 44.396 12.511 44.0808C10.7446 43.7655 9.17553 42.762 8.14858 41.2906L1.21817 31.3467C0.426418 30.2158 0.00207813 28.8685 0.0028172 27.4879C0.000978258 26.3963 0.263764 25.3205 0.768668 24.3527C1.27357 23.3849 2.00555 22.5539 2.9019 21.9309C4.01951 21.1619 5.34079 20.7433 6.69728 20.7283C8.05376 20.7134 9.38397 21.1027 10.5183 21.8468C11.123 22.2578 11.6602 22.7602 12.1107 23.336C12.3163 23.618 12.5818 23.851 12.8881 24.0182C13.1944 24.1854 13.534 24.2826 13.8824 24.303C14.2426 24.3124 14.5999 24.2368 14.9254 24.0823C15.2509 23.9279 15.5354 23.6988 15.7558 23.4138C15.9708 23.1251 16.1147 22.7898 16.1759 22.4351C16.237 22.0804 16.2138 21.7162 16.108 21.3722C15.9389 20.9709 15.7254 20.5898 15.4715 20.2361C15.3122 19.9441 15.1789 19.6387 15.0732 19.3234C14.0582 16.5012 15.2505 13.3667 17.6509 11.6479C19.5585 10.2822 22.2063 9.81766 24.3018 10.874C25.4515 11.5307 26.4449 12.4292 27.2133 13.5074C30.0024 17.0329 32.4192 20.9221 34.9954 24.6099C35.5239 25.3694 36.1003 26.5194 36.9953 26.8538C37.1718 26.9198 37.3565 26.961 37.5443 26.9763C38.1847 27.0127 38.8137 26.7952 39.2948 26.371C39.6217 26.0969 39.8661 25.7376 40.001 25.3329C40.3978 24.07 39.3092 22.9469 38.6343 21.9789L36.2958 18.623L33.5937 14.7459L31.4219 11.6297L30.6581 10.5334C29.67 9.11549 29.2855 7.36319 29.5891 5.6618C29.8927 3.96042 30.8595 2.44924 32.277 1.46054L32.6853 1.17758C33.3872 0.687648 34.1787 0.340866 35.0147 0.15706C35.8507 -0.0267446 36.7147 -0.0439558 37.5573 0.106396C38.4 0.256747 39.2047 0.571717 39.9255 1.0333C40.6463 1.49489 41.2691 2.09403 41.7582 2.79647L63.1653 33.5133C64.1518 34.9315 64.5349 36.6833 64.2305 38.3838C63.926 40.0844 62.9589 41.5945 61.5416 42.5823Z" fill="white"/>
<path d="M93.9745 39.016L91.6207 35.9594L90.708 37.0806V39.0165H90.0009V31.9622H90.708V36.0146H90.7267L93.9553 31.9622H94.858L92.0665 35.4055L94.858 39.016H93.9745Z" fill="white"/>
<path d="M100.651 36.652H95.9054C95.918 36.906 95.9818 37.1547 96.093 37.3834C96.2042 37.6121 96.3605 37.8159 96.5524 37.9826C96.9212 38.3408 97.4151 38.5411 97.9292 38.5408C98.3283 38.544 98.7198 38.4308 99.0557 38.2151C99.3966 38.004 99.657 37.6847 99.795 37.3082H100.503C100.318 37.8436 99.9695 38.3074 99.5068 38.634C99.052 38.9668 98.5023 39.1446 97.9388 39.1413C97.5797 39.1464 97.2233 39.0776 96.8919 38.9391C96.5605 38.8006 96.2612 38.5954 96.0125 38.3362C95.7569 38.0866 95.5549 37.7874 95.419 37.457C95.283 37.1266 95.2159 36.7719 95.2218 36.4147C95.217 36.0562 95.2846 35.7004 95.4204 35.3686C95.5563 35.0368 95.7577 34.7358 96.0125 34.4836C96.2584 34.2228 96.5557 34.0158 96.8856 33.8757C97.2154 33.7355 97.5708 33.6653 97.9292 33.6693C98.2923 33.6645 98.6523 33.7362 98.9858 33.8797C99.3194 34.0232 99.619 34.2354 99.8651 34.5023C100.122 34.7593 100.324 35.065 100.461 35.4015C100.597 35.7379 100.665 36.0982 100.661 36.4613L100.651 36.652ZM99.9785 36.0515C99.9037 35.5585 99.6584 35.1074 99.2853 34.7766C98.9178 34.4426 98.4368 34.2613 97.9402 34.2698C97.4439 34.2623 96.9632 34.4435 96.5952 34.7766C96.2225 35.1071 95.9785 35.5587 95.9063 36.0515H99.9785ZM98.7968 32.9252L97.9801 32.232L97.1423 32.9252H96.2724L97.6539 31.7344H98.2823L99.6456 32.9252H98.7968ZM99.1503 32.2272L98.8386 31.6777L100.732 30.6357L101.039 31.2079L99.1503 32.2272Z" fill="white"/>
<path d="M102.949 34.4049V39.0165H102.284V34.4049H101.186V33.8044H102.284V31.9622H102.949V33.8044H104.198V34.4049H102.949Z" fill="white"/>
<path d="M111.459 39.0155V36.151C111.462 35.8892 111.424 35.6287 111.348 35.3785C111.28 35.1282 111.147 34.9002 110.963 34.7175C110.66 34.4251 110.254 34.2646 109.832 34.2712C109.41 34.2641 109.002 34.4245 108.697 34.7175C108.517 34.8953 108.386 35.1165 108.316 35.3598C108.243 35.5996 108.207 35.849 108.209 36.0996V39.0169H107.543V33.8043H108.209V34.4696H108.228C108.4 34.2056 108.64 33.9923 108.922 33.8517C109.204 33.711 109.518 33.6481 109.833 33.6693C110.151 33.652 110.47 33.7057 110.765 33.8264C111.061 33.9471 111.325 34.1318 111.541 34.3673C111.95 34.8681 112.159 35.503 112.127 36.149V39.0155H111.459Z" fill="white"/>
<path d="M117.779 38.3314C117.53 38.5913 117.231 38.7974 116.9 38.9367C116.568 39.076 116.212 39.1457 115.852 39.1413C115.497 39.1447 115.144 39.0755 114.816 38.9379C114.488 38.8003 114.192 38.5972 113.945 38.341C113.687 38.0974 113.481 37.803 113.342 37.4763C113.203 37.1497 113.132 36.7977 113.135 36.4426C113.13 36.0814 113.197 35.7227 113.333 35.388C113.469 35.0532 113.67 34.7491 113.926 34.4937C114.171 34.2292 114.47 34.0193 114.802 33.8774C115.133 33.7354 115.491 33.6648 115.852 33.6698C116.211 33.6665 116.566 33.7366 116.897 33.8758C117.227 34.015 117.526 34.2204 117.774 34.4793C118.033 34.7281 118.239 35.0274 118.378 35.3587C118.517 35.69 118.587 36.0463 118.583 36.4056C118.588 36.7645 118.519 37.1206 118.38 37.4519C118.242 37.7831 118.037 38.0825 117.779 38.3314ZM117.318 34.8977C117.133 34.6968 116.908 34.5371 116.657 34.429C116.406 34.3208 116.135 34.2666 115.862 34.2698C115.583 34.2655 115.307 34.3215 115.053 34.4339C114.798 34.5464 114.571 34.7126 114.387 34.9212C114.001 35.3294 113.791 35.8722 113.8 36.4335C113.797 36.7076 113.848 36.9797 113.952 37.2338C114.055 37.4879 114.207 37.7188 114.401 37.913C114.587 38.1143 114.813 38.2743 115.065 38.3825C115.316 38.4908 115.588 38.5449 115.862 38.5414C116.14 38.547 116.416 38.4925 116.671 38.3817C116.927 38.2708 117.155 38.1062 117.341 37.8991C117.723 37.4861 117.93 36.9405 117.917 36.3777C117.921 36.1036 117.87 35.8315 117.767 35.5774C117.664 35.3233 117.512 35.0922 117.318 34.8977ZM116.7 32.9253L115.883 32.2321L115.045 32.9253H114.175L115.557 31.7344H116.185L117.548 32.9253H116.7ZM117.142 32.2734L116.829 31.7243L118.723 30.6824L119.03 31.2545L117.142 32.2734Z" fill="white"/>
<path d="M119.592 33.1669V31.9622H120.258V33.1669H119.592ZM119.592 39.0155V33.8044H120.258V39.016L119.592 39.0155Z" fill="white"/>
<path d="M129.676 38.355C129.414 38.6124 129.104 38.8147 128.762 38.9498C128.421 39.0848 128.056 39.15 127.689 39.1414C127.289 39.1575 126.892 39.07 126.535 38.8874C126.179 38.7047 125.876 38.4332 125.656 38.099H125.637V39.0155H124.972V31.9622H125.637V34.7166H125.656C125.877 34.383 126.18 34.1115 126.536 33.9279C126.892 33.7443 127.289 33.6546 127.689 33.6675C128.053 33.6597 128.415 33.7244 128.753 33.8578C129.092 33.9913 129.401 34.1908 129.661 34.4448C129.93 34.6925 130.142 34.9944 130.285 35.3305C130.428 35.6665 130.498 36.0291 130.49 36.3941C130.499 36.7598 130.431 37.1232 130.291 37.461C130.151 37.7988 129.941 38.1034 129.676 38.355ZM129.22 34.8843C129.021 34.682 128.782 34.523 128.519 34.4173C128.255 34.3117 127.973 34.2616 127.689 34.2704C127.41 34.2657 127.133 34.3201 126.876 34.4299C126.62 34.5398 126.389 34.7027 126.2 34.9078C126.005 35.1068 125.852 35.3426 125.748 35.6013C125.645 35.8601 125.595 36.1368 125.599 36.4153C125.594 36.6924 125.645 36.9677 125.748 37.225C125.851 37.4823 126.005 37.7162 126.2 37.9131C126.391 38.1159 126.622 38.2766 126.878 38.3848C127.134 38.493 127.411 38.5464 127.689 38.5414C127.97 38.5499 128.25 38.501 128.512 38.3978C128.773 38.2945 129.011 38.1391 129.21 37.9409C129.411 37.7435 129.568 37.5069 129.673 37.2459C129.778 36.9849 129.828 36.7051 129.82 36.4239C129.829 36.1401 129.78 35.8576 129.677 35.593C129.574 35.3285 129.418 35.0875 129.22 34.8843Z" fill="white"/>
<path d="M136.611 36.652H131.865C131.877 36.9059 131.941 37.1547 132.052 37.3833C132.163 37.612 132.32 37.8159 132.512 37.9826C132.88 38.3409 133.375 38.5411 133.889 38.5408C134.288 38.5439 134.679 38.4308 135.015 38.2151C135.356 38.0041 135.616 37.6847 135.755 37.3082H136.462C136.277 37.8436 135.929 38.3074 135.466 38.634C135.011 38.9668 134.461 39.1447 133.898 39.1413C133.539 39.1464 133.182 39.0775 132.851 38.939C132.52 38.8005 132.22 38.5953 131.972 38.3362C131.716 38.0866 131.514 37.7874 131.378 37.457C131.242 37.1266 131.175 36.7719 131.181 36.4147C131.176 36.0562 131.244 35.7004 131.38 35.3686C131.515 35.0368 131.717 34.7358 131.972 34.4836C132.218 34.2227 132.515 34.0157 132.845 33.8756C133.175 33.7354 133.53 33.6652 133.889 33.6693C134.252 33.6645 134.612 33.7362 134.945 33.8797C135.279 34.0232 135.578 34.2354 135.824 34.5023C136.081 34.7593 136.283 35.065 136.42 35.4014C136.556 35.7379 136.624 36.0982 136.62 36.4613L136.611 36.652ZM135.938 36.0515C135.863 35.5586 135.617 35.1075 135.244 34.7766C134.877 34.4425 134.396 34.2612 133.899 34.2698C133.403 34.2625 132.922 34.4436 132.554 34.7766C132.181 35.1069 131.938 35.5586 131.866 36.0515H135.938ZM134.756 32.9252L133.939 32.232L133.101 32.9252H132.231L133.614 31.7344H134.241L135.605 32.9252H134.756ZM135.082 31.8549L133.193 30.836L133.5 30.2639L135.393 31.3059L135.082 31.8549Z" fill="white"/>
<path d="M141.552 39.0155V36.151C141.554 35.8893 141.516 35.6287 141.44 35.3785C141.372 35.1284 141.239 34.9005 141.055 34.7175C140.752 34.4251 140.346 34.2646 139.925 34.2712C139.502 34.2641 139.094 34.4245 138.789 34.7175C138.609 34.8953 138.478 35.1165 138.408 35.3598C138.335 35.5995 138.299 35.849 138.301 36.0996V39.0169H137.636V33.8043H138.301V34.4696H138.32C138.492 34.2056 138.732 33.9923 139.014 33.8517C139.296 33.711 139.611 33.6481 139.925 33.6693C140.244 33.6521 140.562 33.7057 140.857 33.8264C141.153 33.9471 141.418 34.1319 141.633 34.3673C142.042 34.8681 142.251 35.503 142.219 36.149V39.0155H141.552Z" fill="white"/>
<path d="M148.464 39.0156H147.729L145.528 33.8044H146.245L148.083 38.1879L149.949 33.8044H150.665L148.464 39.0156Z" fill="white"/>
<path d="M155.89 34.5772V39.0163H155.262V38.2064H155.243C155.097 38.513 154.853 38.762 154.55 38.9135C154.248 39.0687 153.912 39.1471 153.573 39.1417C153.233 39.1622 152.894 39.102 152.583 38.9661C152.272 38.8302 151.997 38.6223 151.781 38.3597C151.602 38.1244 151.477 37.8529 151.414 37.5641C151.351 37.2738 151.321 36.9773 151.325 36.6803V33.8047H151.991V36.6711C151.961 37.1431 152.081 37.6125 152.335 38.0114C152.483 38.1934 152.673 38.3366 152.889 38.4287C153.104 38.5208 153.339 38.5589 153.573 38.5398C153.983 38.5506 154.38 38.3982 154.678 38.1161C154.885 37.9199 155.038 37.6728 155.12 37.3994C155.195 37.1252 155.23 36.8415 155.222 36.5573V33.8047H155.888V33.9584C155.895 33.9513 155.903 33.9451 155.911 33.9397C155.964 33.9004 156.008 33.8509 156.041 33.7941C156.074 33.7373 156.095 33.6744 156.103 33.6092H155.82V32.7719H156.636V33.6366C156.621 33.768 156.584 33.8959 156.527 34.0156C156.48 34.1104 156.417 34.1963 156.341 34.2692C156.28 34.328 156.215 34.3817 156.145 34.4297C156.088 34.4681 156.001 34.5186 155.891 34.5805L155.89 34.5772ZM155.499 32.4419C155.235 32.663 154.907 32.7935 154.564 32.8142C154.43 32.8132 154.296 32.7928 154.168 32.7536C154.051 32.7152 153.936 32.6702 153.824 32.6187L153.503 32.4837C153.401 32.4461 153.292 32.4256 153.183 32.4231C152.941 32.4306 152.712 32.5326 152.545 32.707L152.209 32.2324C152.474 31.9748 152.83 31.8312 153.2 31.8323C153.33 31.8334 153.46 31.8538 153.584 31.8928C153.699 31.9315 153.811 31.9765 153.92 32.0278C153.935 32.0331 153.949 32.0394 153.962 32.0465C153.975 32.0514 153.988 32.0577 153.999 32.0653L154.078 32.0974L154.237 32.1628C154.338 32.2007 154.445 32.2212 154.554 32.2233C154.664 32.2202 154.773 32.1915 154.87 32.1392L155.084 32.0182L155.154 31.9764L155.499 32.4419Z" fill="white"/>
<path d="M161.07 39.0154V36.1509C161.073 35.8893 161.035 35.6287 160.959 35.3785C160.891 35.1283 160.758 34.9003 160.574 34.7175C160.271 34.425 159.865 34.2646 159.444 34.2712C159.021 34.2641 158.613 34.4246 158.309 34.7175C158.129 34.8952 157.997 35.1164 157.928 35.3597C157.855 35.5995 157.819 35.8489 157.82 36.0995V39.0169H157.155V33.8043H157.82V34.4696H157.839C158.012 34.2057 158.251 33.9924 158.533 33.8518C158.815 33.7111 159.13 33.6481 159.444 33.6693C159.763 33.6521 160.081 33.7058 160.376 33.8265C160.671 33.9472 160.936 34.1319 161.151 34.3673C161.561 34.8679 161.77 35.5029 161.737 36.149V39.0154H161.07Z" fill="white"/>
<path d="M168.113 38.1965C168.113 38.395 168.108 38.5641 168.099 38.7038C168.089 38.8677 168.068 39.0308 168.038 39.1923C167.975 39.521 167.838 39.8311 167.638 40.0993C167.398 40.4161 167.083 40.6695 166.723 40.8374C166.362 41.0052 165.966 41.0825 165.568 41.0624C164.975 41.0761 164.393 40.9036 163.903 40.5691C163.411 40.2295 163.057 39.7264 162.902 39.1495H163.609C163.745 39.5522 164.009 39.899 164.361 40.1362C164.714 40.3734 165.135 40.4877 165.559 40.4615C165.814 40.4745 166.07 40.4335 166.309 40.3413C166.548 40.2492 166.764 40.1077 166.945 39.9263C167.117 39.7367 167.25 39.5149 167.336 39.2738C167.422 39.0327 167.46 38.777 167.447 38.5212V38.0605H167.429C167.239 38.4146 166.941 38.6984 166.577 38.87C166.218 39.0513 165.821 39.1439 165.419 39.1399C165.061 39.1468 164.706 39.0807 164.375 38.9455C164.043 38.8102 163.743 38.6088 163.492 38.3536C163.234 38.1056 163.03 37.8069 162.892 37.4763C162.754 37.1456 162.687 36.7901 162.693 36.432C162.687 36.0707 162.754 35.7118 162.89 35.3769C163.025 35.0419 163.227 34.7378 163.483 34.4827C163.732 34.22 164.032 34.012 164.365 33.8718C164.699 33.7317 165.057 33.6624 165.419 33.6684C165.818 33.6508 166.215 33.7404 166.569 33.9278C166.922 34.1152 167.219 34.3937 167.429 34.7344H167.447V33.8044H168.113V38.1965ZM166.889 34.9121C166.704 34.7066 166.477 34.5429 166.223 34.4322C165.97 34.3214 165.695 34.2661 165.419 34.2699C165.142 34.2655 164.868 34.3206 164.614 34.4314C164.36 34.5422 164.133 34.7061 163.948 34.9121C163.756 35.1114 163.605 35.3468 163.503 35.6046C163.402 35.8624 163.352 36.1377 163.357 36.4148C163.353 36.6897 163.402 36.9629 163.504 37.2185C163.605 37.4741 163.756 37.7071 163.948 37.9039C164.134 38.1087 164.361 38.2715 164.615 38.3814C164.868 38.4913 165.142 38.5459 165.419 38.5414C165.694 38.5444 165.967 38.4891 166.22 38.3793C166.472 38.2694 166.699 38.1074 166.884 37.9039C167.079 37.7082 167.232 37.4756 167.335 37.2199C167.438 36.9642 167.489 36.6904 167.485 36.4148C167.493 35.8547 167.279 35.3143 166.889 34.9121Z" fill="white"/>
</g>
<defs>
<clipPath id="clip0_6988:97033">
<rect width="187" height="44.1851" fill="white"/>
</clipPath>
</defs>
</svg>
