<svg width="20" height="20" viewBox="0 0 20 20"
  xmlns="http://www.w3.org/2000/svg">
  <path d="M6.62539 0.000817579C6.93997 -0.0151824 7.26735 0.305818 7.27009 0.690818C7.27283 0.998818 7.5042 1.24782 7.78494 1.24782H8.71313C10.03 1.24782 11.1145 2.41682 11.1319 3.86382V4.10382H13.7363C16.6471 4.07782 18.9909 6.44082 19.1134 9.51782C19.118 9.63882 19.1189 9.76282 19.1171 9.88582V14.1958C19.1793 17.3038 16.9077 19.8998 14.0527 19.9688C13.9357 19.9718 13.825 19.9688 13.7135 19.9638C12.4533 19.9878 11.1859 19.9998 9.92481 19.9998C8.67107 19.9998 7.42372 19.9878 6.1965 19.9648C3.38083 20.0958 0.959308 17.6718 0.834025 14.5528C0.828538 14.4298 0.828538 14.3058 0.830367 14.1818V9.86982C0.80019 8.37282 1.31047 6.93882 2.26792 5.84582C3.22446 4.75182 4.51295 4.13182 5.89655 4.09982C6.00903 4.09582 6.12426 4.09682 6.23948 4.10482L9.85622 4.10382V3.87282C9.84799 3.19682 9.33406 2.64382 8.70856 2.64382H7.77945C6.80645 2.64382 6.00537 1.77682 5.9944 0.705818C5.99074 0.319818 6.27423 0.00481758 6.62539 0.000817579ZM6.01113 5.49386L5.92673 5.49482C4.88149 5.51982 3.91031 5.98582 3.18971 6.81082C2.46728 7.63382 2.0832 8.71482 2.10606 9.85582V14.1958C2.10423 14.3038 2.10509 14.3978 2.1088 14.4898C2.20299 16.8428 4.01182 18.6828 6.17912 18.5698C8.66558 18.6158 11.1923 18.6158 13.729 18.5688C13.8534 18.5748 13.9412 18.5758 14.0281 18.5728C16.1762 18.5228 17.889 16.5658 17.8414 14.2118V9.86982C17.8432 9.76482 17.8424 9.67182 17.8387 9.57882C17.7463 7.24082 16.0189 5.49682 13.8104 5.49682C13.7885 5.49682 13.7702 5.49882 13.7409 5.49882H6.20839C6.09316 5.49385 6.00995 5.49282 5.92673 5.49482L6.01113 5.49386ZM7.30329 9.58545C7.64413 9.58545 7.92582 9.85778 7.9704 10.2111L7.97655 10.3093L7.97571 11.3252L8.92199 11.3258C9.29382 11.3258 9.59525 11.6499 9.59525 12.0497C9.59525 12.4162 9.34196 12.719 9.01335 12.767L8.92199 12.7736L7.97571 12.7732L7.97655 13.7901C7.97655 14.1899 7.67512 14.514 7.30329 14.514C6.96244 14.514 6.68075 14.2416 6.63617 13.8883L6.63003 13.7901L6.62961 12.7732L5.68459 12.7736C5.31275 12.7736 5.01133 12.4495 5.01133 12.0497C5.01133 11.6832 5.26461 11.3804 5.59323 11.3324L5.68459 11.3258L6.62961 11.3252L6.63003 10.3093C6.63003 9.90954 6.93146 9.58545 7.30329 9.58545ZM14.3615 13.0132C14.7333 13.0132 15.0347 13.3373 15.0347 13.7371C15.0347 14.1035 14.7815 14.4064 14.4528 14.4543L14.3615 14.4609H14.2711C13.8993 14.4609 13.5978 14.1369 13.5978 13.7371C13.5978 13.3706 13.8511 13.0677 14.1797 13.0198L14.2711 13.0132H14.3615ZM12.8249 9.69147C13.1968 9.69147 13.4982 10.0156 13.4982 10.4153C13.4982 10.7818 13.2449 11.0847 12.9163 11.1326L12.8249 11.1392H12.7346C12.3627 11.1392 12.0613 10.8151 12.0613 10.4153C12.0613 10.0489 12.3146 9.74601 12.6432 9.69807L12.7346 9.69147H12.8249Z" />
</svg>
