<svg width="24" height="24" viewBox="0 0 24 24" fill="none" xmlns="http://www.w3.org/2000/svg">
<path d="M5.25409 2.46655H3.02423C2.71639 2.46655 2.4668 2.71614 2.4668 3.02403V5.29106C2.4668 5.59894 2.71635 5.84854 3.02427 5.84854C3.33215 5.84854 3.58175 5.59894 3.58175 5.29106V3.5815H5.25413C5.56201 3.5815 5.8116 3.33191 5.8116 3.02403C5.81157 2.71614 5.56198 2.46655 5.25409 2.46655Z" fill="#5A5A5A" stroke="#5A5A5A" stroke-width="0.5"/>
<path d="M21.0158 2.46655H18.786C18.4781 2.46655 18.2285 2.71614 18.2285 3.02403C18.2285 3.33191 18.4781 3.5815 18.786 3.5815H20.4584V5.29106C20.4584 5.59894 20.708 5.84854 21.0158 5.84854C21.3237 5.84854 21.5733 5.59894 21.5733 5.29106V3.02403C21.5733 2.71614 21.3237 2.46655 21.0158 2.46655Z" fill="#5A5A5A" stroke="#5A5A5A" stroke-width="0.5"/>
<path d="M5.25413 20.4521H3.58174V18.7425C3.58174 18.4347 3.33215 18.1851 3.02427 18.1851C2.71639 18.1851 2.4668 18.4347 2.4668 18.7425V21.0096C2.4668 21.3174 2.71635 21.567 3.02427 21.567H5.25413C5.56201 21.567 5.8116 21.3174 5.8116 21.0096C5.8116 20.7017 5.56201 20.4521 5.25413 20.4521Z" fill="#5A5A5A" stroke="#5A5A5A" stroke-width="0.5"/>
<path d="M21.0158 18.1851C20.708 18.1851 20.4584 18.4347 20.4584 18.7425V20.4521H18.786C18.4781 20.4521 18.2285 20.7017 18.2285 21.0096C18.2285 21.3174 18.4781 21.567 18.786 21.567H21.0158C21.3237 21.567 21.5733 21.3174 21.5733 21.0096V18.7425C21.5733 18.4347 21.3237 18.1851 21.0158 18.1851Z" fill="#5A5A5A" stroke="#5A5A5A" stroke-width="0.5"/>
<path d="M20.0656 7.04002L12.3015 2.54179C12.1287 2.44164 11.9154 2.44164 11.7426 2.54179L3.97537 7.03998C3.80414 7.1392 3.69727 7.32392 3.69727 7.52199C3.69727 7.52311 3.69738 7.52422 3.69738 7.5253V16.4444C3.69738 16.6444 3.80604 16.8315 3.98102 16.9301L11.7426 21.4251C11.8263 21.4735 11.9257 21.5002 12.0221 21.5002C12.1228 21.5002 12.2211 21.4717 12.3016 21.4251L20.0601 16.93C20.0614 16.9293 20.0626 16.9285 20.0639 16.9278C20.2438 16.798 20.3407 16.689 20.3434 16.4512C20.3434 16.4489 20.3436 16.4467 20.3436 16.4445V7.52537C20.3436 7.52426 20.3437 7.52314 20.3437 7.52206C20.3437 7.32381 20.2368 7.13905 20.0656 7.04002ZM11.4646 19.9755L5.37441 16.447L10.0696 13.7544C10.3367 13.6013 10.429 13.2606 10.2758 12.9935C10.1227 12.7264 9.78201 12.6341 9.51491 12.7873L4.81221 15.4822V8.4856L11.4646 12.3061V19.9755ZM12.0221 11.3405L5.37359 7.52039L12.0221 3.66841L18.6706 7.52039L12.0221 11.3405ZM19.2323 15.4822L14.5293 12.7873C14.2622 12.6341 13.9215 12.7264 13.7684 12.9935C13.6152 13.2606 13.7075 13.6012 13.9746 13.7544L18.6698 16.4469L12.5795 19.9754V12.3061L19.2323 8.4856V15.4822H19.2323Z" fill="#5A5A5A" stroke="#5A5A5A" stroke-width="0.5"/>
</svg>
