<svg width="24" height="24" viewBox="0 0 24 24" fill="none" xmlns="http://www.w3.org/2000/svg">
<path d="M21.2188 15.7109C21.6503 15.7109 22 15.3612 22 14.9297V3.95312C22 3.52161 21.6503 3.17188 21.2188 3.17188H16.2969C15.8654 3.17188 15.5156 3.52161 15.5156 3.95312V4.73438H7.50354V2.78125C7.50354 2.34973 7.15366 2 6.72229 2H5.125C3.40182 2 2 3.40182 2 5.125V16.4922C2 18.2154 3.40182 19.6172 5.125 19.6172H9.26562V21.2188C9.26562 21.6503 9.61536 22 10.0469 22H18.875C20.5982 22 22 20.5982 22 18.875C22 18.4435 21.6503 18.0938 21.2188 18.0938C20.7872 18.0938 20.4375 18.4435 20.4375 18.875C20.4375 19.018 20.4178 19.1565 20.3817 19.2882L17.0781 16.0471V14.0312H18.2891C18.7206 14.0312 19.0703 13.6815 19.0703 13.25C19.0703 12.8185 18.7206 12.4688 18.2891 12.4688H17.0781V10.9062H18.2891C18.7206 10.9062 19.0703 10.5565 19.0703 10.125C19.0703 9.69348 18.7206 9.34375 18.2891 9.34375H17.0781V7.78125H18.2891C18.7206 7.78125 19.0703 7.43152 19.0703 7C19.0703 6.56848 18.7206 6.21875 18.2891 6.21875H17.0781V4.73438H20.4375V14.9297C20.4375 15.3612 20.7872 15.7109 21.2188 15.7109ZM3.5625 5.125C3.5625 4.26349 4.26349 3.5625 5.125 3.5625H5.94104V13.2891H5.125C4.55615 13.2891 4.0224 13.4418 3.5625 13.7084V5.125ZM5.125 18.0547C4.26349 18.0547 3.5625 17.3537 3.5625 16.4922V16.4141C3.5625 15.5526 4.26349 14.8516 5.125 14.8516H6.72229C7.15366 14.8516 7.50354 14.5018 7.50354 14.0703V6.29688H15.5156V15.5156H10.0469C9.61536 15.5156 9.26562 15.8654 9.26562 16.2969V18.0547H5.125ZM10.8281 20.4375V17.0781H12.3906V18.2891C12.3906 18.7206 12.7404 19.0703 13.1719 19.0703C13.6034 19.0703 13.9531 18.7206 13.9531 18.2891V17.0781H15.898L19.2702 20.3867C19.144 20.4198 19.0116 20.4375 18.875 20.4375H10.8281Z" fill="#5A5A5A"/>
</svg>
