<svg width="24" height="24" viewBox="0 0 24 24" fill="none" xmlns="http://www.w3.org/2000/svg">
<path d="M14.6513 2C17.4519 2 19.2368 3.43503 19.2368 6.25765V20.3309C19.2368 20.7736 19.08 21.1982 18.8008 21.5112C18.5216 21.8242 18.1429 22 17.7378 22C17.4961 21.9957 17.2586 21.9291 17.0296 21.7971L11.8972 18.6635L6.78571 21.8037C6.17008 22.1624 5.42409 21.9969 4.95666 21.3975L4.86702 21.2719L4.78138 21.1174C4.66962 20.8782 4.60932 20.613 4.60522 20.3309V6.43434C4.60522 3.49929 6.35109 2 9.1907 2H14.6513ZM14.6513 3.44775H9.1907C7.00046 3.44775 5.89651 4.39579 5.89651 6.43434L5.89642 20.3189C5.89707 20.3631 5.90694 20.4065 5.89621 20.3897L5.93047 20.4519C5.98949 20.5421 6.10025 20.5715 6.17777 20.5265L11.2871 17.3883C11.6679 17.1576 12.1268 17.1576 12.5095 17.3894L17.6331 20.5173C17.6718 20.5397 17.7147 20.5517 17.748 20.5523C17.8004 20.5523 17.8506 20.529 17.8877 20.4875C17.9247 20.446 17.9455 20.3897 17.9455 20.3309V6.25765C17.9455 4.35788 16.8135 3.44775 14.6513 3.44775ZM15.0374 8.31663C15.394 8.31663 15.6831 8.64072 15.6831 9.0405C15.6831 9.40697 15.4402 9.70984 15.125 9.75777L15.0374 9.76438H8.75732C8.40074 9.76438 8.11168 9.44029 8.11168 9.0405C8.11168 8.67404 8.35457 8.37117 8.66971 8.32324L8.75732 8.31663H15.0374Z" fill="#5A5A5A" stroke="#5A5A5A" stroke-width="0.3"/>
</svg>
