<svg width="26" height="26" viewBox="0 0 26 26" fill="none" xmlns="http://www.w3.org/2000/svg">
<path d="M3.58041 24.6021L13.0004 15.182L22.4204 24.6021C22.7119 24.879 23.1001 25.0311 23.5022 25.026C23.9043 25.0208 24.2885 24.8588 24.5728 24.5744C24.8571 24.2901 25.0192 23.9059 25.0243 23.5038C25.0295 23.1018 24.8774 22.7136 24.6004 22.4221L15.1804 13.002L24.6004 3.58207C24.8774 3.29053 25.0295 2.90233 25.0243 2.50025C25.0192 2.09817 24.8571 1.714 24.5728 1.42966C24.2885 1.14532 23.9043 0.983311 23.5022 0.978154C23.1001 0.972997 22.7119 1.12509 22.4204 1.40204L13.0004 10.8221L3.58041 1.40204C3.28887 1.12509 2.90071 0.972997 2.49862 0.978154C2.09654 0.983311 1.71237 1.14532 1.42804 1.42966C1.1437 1.714 0.981653 2.09817 0.976498 2.50025C0.97134 2.90233 1.12346 3.29053 1.40042 3.58207L10.8204 13.002L1.40042 22.4221C1.12346 22.7136 0.97134 23.1018 0.976498 23.5038C0.981653 23.9059 1.1437 24.2901 1.42804 24.5744C1.71237 24.8588 2.09654 25.0208 2.49862 25.026C2.90071 25.0311 3.28887 24.879 3.58041 24.6021Z" fill="white"/>
</svg>
