<svg width="18" height="18" viewBox="0 0 18 18" fill="none" xmlns="http://www.w3.org/2000/svg">
<path d="M2.72021 16.7347L9.00022 10.4547L15.2802 16.7347C15.4746 16.9193 15.7334 17.0208 16.0014 17.0173C16.2695 17.0139 16.5256 16.9059 16.7151 16.7163C16.9047 16.5267 17.0127 16.2706 17.0162 16.0026C17.0196 15.7345 16.9182 15.4757 16.7336 15.2814L10.4535 9.00137L16.7336 2.72138C16.9182 2.52702 17.0196 2.26822 17.0162 2.00017C17.0127 1.73211 16.9047 1.476 16.7151 1.28644C16.5256 1.09688 16.2695 0.988874 16.0014 0.985436C15.7334 0.981998 15.4746 1.08339 15.2802 1.26803L9.00022 7.54804L2.72021 1.26803C2.52585 1.08339 2.26708 0.981998 1.99902 0.985436C1.73097 0.988874 1.47485 1.09688 1.2853 1.28644C1.09574 1.476 0.987709 1.73211 0.98427 2.00017C0.980833 2.26822 1.08225 2.52702 1.26688 2.72138L7.54689 9.00137L1.26688 15.2814C1.08225 15.4757 0.980833 15.7345 0.98427 16.0026C0.987709 16.2706 1.09574 16.5267 1.2853 16.7163C1.47485 16.9059 1.73097 17.0139 1.99902 17.0173C2.26708 17.0208 2.52585 16.9193 2.72021 16.7347Z" fill="#A7A7A7"/>
</svg>
