<svg width="24" height="24" viewBox="0 0 24 24" fill="none" xmlns="http://www.w3.org/2000/svg">
<path d="M5 12.5C5 12.7254 5.0856 12.9416 5.23798 13.101C5.39035 13.2604 5.59701 13.35 5.8125 13.35H11.9794L10.1106 15.2965C10.0345 15.3755 9.97403 15.4695 9.93278 15.5731C9.89153 15.6767 9.87029 15.7878 9.87029 15.9C9.87029 16.0122 9.89153 16.1233 9.93278 16.2269C9.97403 16.3305 10.0345 16.4245 10.1106 16.5035C10.1862 16.5832 10.276 16.6464 10.375 16.6896C10.474 16.7327 10.5802 16.7549 10.6875 16.7549C10.7948 16.7549 10.901 16.7327 11 16.6896C11.099 16.6464 11.1888 16.5832 11.2644 16.5035L14.5144 13.1035C14.5883 13.0227 14.6463 12.9273 14.685 12.823C14.7663 12.6161 14.7663 12.3839 14.685 12.177C14.6463 12.0727 14.5883 11.9773 14.5144 11.8965L11.2644 8.4965C11.1886 8.41725 11.0987 8.35438 10.9997 8.31149C10.9007 8.2686 10.7946 8.24652 10.6875 8.24652C10.5804 8.24652 10.4743 8.2686 10.3753 8.31149C10.2763 8.35438 10.1864 8.41725 10.1106 8.4965C10.0349 8.57575 9.97478 8.66984 9.93378 8.77339C9.89278 8.87694 9.87168 8.98792 9.87168 9.1C9.87168 9.21208 9.89278 9.32306 9.93378 9.42661C9.97478 9.53016 10.0349 9.62425 10.1106 9.7035L11.9794 11.65H5.8125C5.59701 11.65 5.39035 11.7396 5.23798 11.899C5.0856 12.0584 5 12.2746 5 12.5ZM15.5625 4H7.4375C6.79103 4 6.17105 4.26866 5.71393 4.74688C5.25681 5.2251 5 5.8737 5 6.55V9.1C5 9.32543 5.0856 9.54164 5.23798 9.70104C5.39035 9.86045 5.59701 9.95 5.8125 9.95C6.02799 9.95 6.23465 9.86045 6.38702 9.70104C6.5394 9.54164 6.625 9.32543 6.625 9.1V6.55C6.625 6.32457 6.7106 6.10837 6.86298 5.94896C7.01535 5.78955 7.22201 5.7 7.4375 5.7H15.5625C15.778 5.7 15.9847 5.78955 16.137 5.94896C16.2894 6.10837 16.375 6.32457 16.375 6.55V18.45C16.375 18.6754 16.2894 18.8916 16.137 19.051C15.9847 19.2104 15.778 19.3 15.5625 19.3H7.4375C7.22201 19.3 7.01535 19.2104 6.86298 19.051C6.7106 18.8916 6.625 18.6754 6.625 18.45V15.9C6.625 15.6746 6.5394 15.4584 6.38702 15.299C6.23465 15.1396 6.02799 15.05 5.8125 15.05C5.59701 15.05 5.39035 15.1396 5.23798 15.299C5.0856 15.4584 5 15.6746 5 15.9V18.45C5 19.1263 5.25681 19.7749 5.71393 20.2531C6.17105 20.7313 6.79103 21 7.4375 21H15.5625C16.209 21 16.829 20.7313 17.2861 20.2531C17.7432 19.7749 18 19.1263 18 18.45V6.55C18 5.8737 17.7432 5.2251 17.2861 4.74688C16.829 4.26866 16.209 4 15.5625 4Z" fill="#5A5A5A"/>
</svg>
