<svg width="14" height="14" viewBox="0 0 14 14" fill="none" xmlns="http://www.w3.org/2000/svg">
<path d="M13.7576 8.5344L12.4367 7.52811C12.4566 7.35256 12.467 7.17612 12.4679 6.99951C12.4673 6.8229 12.4569 6.64644 12.4367 6.47092L13.7594 5.46414C13.8793 5.37008 13.9609 5.23752 13.9895 5.0902C14.0181 4.94289 13.992 4.79046 13.9157 4.66023L12.5408 2.34518C12.466 2.21226 12.3439 2.11058 12.1975 2.05932C12.0511 2.00807 11.8904 2.01077 11.7459 2.06693L10.1878 2.67653C9.89444 2.46961 9.58028 2.29226 9.25013 2.1472L9.01289 0.536694C8.99223 0.387353 8.91637 0.250468 8.79951 0.151679C8.68266 0.0528892 8.53283 -0.00102914 8.37808 2.24273e-05H5.62248C5.46853 -0.00125419 5.31936 0.0520089 5.20276 0.149888C5.08616 0.247768 5.01007 0.383588 4.98867 0.532044L4.75094 2.14842C4.42252 2.29456 4.10964 2.47177 3.81682 2.67751L2.25317 2.06571C2.10966 2.01339 1.95178 2.01215 1.80743 2.06222C1.66308 2.11228 1.54154 2.21043 1.46431 2.3393L0.0878877 4.65803C0.00972833 4.78837 -0.0175432 4.94178 0.011077 5.09012C0.0396973 5.23846 0.12229 5.37178 0.2437 5.4656L1.56508 6.47189C1.52356 6.82289 1.52356 7.17736 1.56508 7.52835L0.242443 8.53562C0.122667 8.62977 0.0412141 8.76237 0.0126656 8.90966C-0.015883 9.05696 0.0103368 9.20934 0.0866312 9.33953L1.46079 11.6548C1.53532 11.7879 1.65742 11.8898 1.80393 11.9411C1.95044 11.9923 2.11118 11.9895 2.25568 11.9331L3.8138 11.3235C4.10668 11.5299 4.42013 11.7072 4.74943 11.8526L4.98666 13.4626C5.00689 13.6123 5.0826 13.7496 5.19956 13.8488C5.31652 13.948 5.46665 14.0021 5.62172 14.001H8.37859C8.53259 14.0022 8.68182 13.949 8.79851 13.8511C8.91519 13.7533 8.99138 13.6174 9.01289 13.4689L9.25063 11.8538C9.57917 11.7074 9.8922 11.53 10.1853 11.3242L11.7489 11.936C11.8237 11.9645 11.9033 11.9791 11.9836 11.9791C12.0963 11.9791 12.207 11.9498 12.3042 11.8943C12.4015 11.8387 12.4816 11.7588 12.5365 11.6629L13.9167 9.33537C13.9921 9.20519 14.0175 9.05314 13.9884 8.9064C13.9592 8.75966 13.8774 8.6278 13.7576 8.5344ZM7.00015 9.33341C6.52625 9.3335 6.06295 9.19676 5.66884 8.94046C5.27474 8.68417 4.96753 8.31983 4.78606 7.89352C4.60459 7.46721 4.557 6.99808 4.64932 6.54544C4.74165 6.09279 4.96973 5.67697 5.30472 5.35055C5.63972 5.02413 6.0666 4.80177 6.53137 4.71158C6.99614 4.6214 7.47794 4.66744 7.91584 4.84389C8.35374 5.02033 8.72808 5.31926 8.99152 5.70287C9.25497 6.08647 9.39569 6.53754 9.39589 6.99902C9.39555 7.61779 9.14309 8.21114 8.69392 8.64881C8.24475 9.08648 7.63558 9.3327 7.00015 9.33341Z" fill="#A7A7A7"/>
</svg>
