<svg width="7" height="11" viewBox="0 0 7 11"
  xmlns="http://www.w3.org/2000/svg">
  <path d="M5.8756 5.80665L1.87456 10.0859C1.78695 10.1804 1.66349 10.2379 1.53128 10.246C1.39907 10.254 1.26891 10.2118 1.16937 10.1287C1.07 10.0454 1.00946 9.92803 1.00102 9.80234C0.992578 9.67665 1.03694 9.55291 1.12436 9.45828L4.83033 5.49284L1.12436 1.52739C1.04353 1.43198 1.00455 1.31058 1.01556 1.18851C1.02657 1.06644 1.08672 0.953129 1.18346 0.872192C1.28021 0.791255 1.40608 0.748944 1.53483 0.754081C1.66359 0.759218 1.78529 0.811406 1.87456 0.899765L5.8756 5.17902C5.95578 5.26579 6 5.37734 6 5.49284C6 5.60833 5.95578 5.71988 5.8756 5.80665Z" stroke-width="0.5"/>
</svg>
