<svg width="24" height="24" viewBox="0 0 24 24" fill="none" xmlns="http://www.w3.org/2000/svg">
<path d="M17.1101 2.12729C16.9812 2.00275 16.7878 1.96568 16.6198 2.0335C16.4519 2.10132 16.3423 2.2607 16.3423 2.43734V4.77084C13.9108 4.86479 12.6933 5.84397 12.5072 6.00677C11.2805 6.98476 10.4429 8.34762 10.1387 9.86046C9.98656 10.5914 9.9593 11.3417 10.0583 12.0812L10.0587 12.0838C10.0595 12.0903 10.0606 12.0969 10.0616 12.1034L10.1573 12.6376C10.1895 12.8175 10.3335 12.9591 10.5183 12.9926C10.7033 13.0261 10.8901 12.9442 10.9868 12.7876L11.2734 12.3235C12.1541 10.901 13.2516 9.95801 14.5358 9.52086C15.1151 9.32184 15.7288 9.23455 16.3423 9.26359V11.6805C16.3423 11.8574 16.4522 12.0172 16.6207 12.0846C16.7893 12.1523 16.9831 12.1144 17.1117 11.9888L21.869 7.34401C22.0443 7.17284 22.0436 6.89593 21.8674 6.72561L17.1101 2.12729ZM17.2429 10.6206V8.87018C17.2429 8.65562 17.0825 8.47266 16.8643 8.4385C16.4791 8.3782 15.452 8.28236 14.2381 8.69559C12.9431 9.13633 11.8228 10.0036 10.9001 11.278C10.8975 10.8593 10.9383 10.4413 11.022 10.0304C11.2956 8.68654 11.9906 7.55771 13.0873 6.67573C13.097 6.66804 13.1062 6.66002 13.1151 6.65147C13.1466 6.62312 14.29 5.62036 16.789 5.63847H16.7923C17.041 5.63847 17.2427 5.44253 17.2429 5.20098V3.48946L20.9134 7.0372L17.2429 10.6206Z" fill="#5A5A5A" stroke="#5A5A5A" stroke-width="0.7"/>
<path d="M20.5554 15.465C20.31 15.465 20.1108 15.6635 20.1108 15.9085V17.7827C20.1101 18.5171 19.5134 19.1122 18.777 19.1131H4.22299C3.48663 19.1122 2.89007 18.5171 2.8892 17.7827V7.21735C2.89007 6.48285 3.48663 5.8878 4.22299 5.88694H7.29785C7.54342 5.88694 7.74245 5.68842 7.74245 5.44347C7.74245 5.19852 7.54342 5 7.29785 5H4.22299C2.99583 5.00139 2.00139 5.9933 2 7.21735V17.7827C2.00139 19.0067 2.99583 19.9986 4.22299 20H18.777C20.0042 19.9986 20.9986 19.0067 21 17.7827V15.9085C21 15.6635 20.801 15.465 20.5554 15.465Z" fill="#5A5A5A" stroke="#5A5A5A" stroke-width="0.7"/>
</svg>
