<svg width="24" height="24" viewBox="0 0 24 24" fill="none" xmlns="http://www.w3.org/2000/svg">
<path d="M7.83268 7.16671V4.66671C7.83268 4.44569 7.92048 4.23373 8.07676 4.07745C8.23304 3.92117 8.445 3.83337 8.66602 3.83337H15.3327C15.5537 3.83337 15.7657 3.92117 15.9219 4.07745C16.0782 4.23373 16.166 4.44569 16.166 4.66671V7.16671H19.4993C19.7204 7.16671 19.9323 7.2545 20.0886 7.41079C20.2449 7.56707 20.3327 7.77903 20.3327 8.00004V19.6667C20.3327 19.8877 20.2449 20.0997 20.0886 20.256C19.9323 20.4122 19.7204 20.5 19.4993 20.5H4.49935C4.27834 20.5 4.06637 20.4122 3.91009 20.256C3.75381 20.0997 3.66602 19.8877 3.66602 19.6667V8.00004C3.66602 7.77903 3.75381 7.56707 3.91009 7.41079C4.06637 7.2545 4.27834 7.16671 4.49935 7.16671H7.83268ZM9.49935 13.8334H5.33268V18.8334H18.666V13.8334H14.4993V16.3334H9.49935V13.8334ZM18.666 8.83337H5.33268V12.1667H9.49935V10.5H14.4993V12.1667H18.666V8.83337ZM11.166 12.1667V14.6667H12.8327V12.1667H11.166ZM9.49935 5.50004V7.16671H14.4993V5.50004H9.49935Z" fill="#5A5A5A"/>
</svg>
