<svg width="24" height="24" viewBox="0 0 24 24" fill="none" xmlns="http://www.w3.org/2000/svg">
<path d="M18.5861 19.9996H4.00007C3.90721 19.9996 3.81619 19.9737 3.7372 19.9249C3.65821 19.8761 3.59438 19.8062 3.55285 19.7232C3.51133 19.6401 3.49375 19.5472 3.50209 19.4547C3.51043 19.3622 3.54435 19.2739 3.60007 19.1996L4.00007 18.6666V9.99958C4.00007 8.66958 4.32407 7.41558 4.89907 6.31258L1.39307 2.80758L2.80807 1.39258L22.6071 21.1926L21.1921 22.6066L18.5861 19.9996ZM6.40807 7.82158C6.13768 8.51585 5.99931 9.25451 6.00007 9.99958V17.9996H16.5861L6.40807 7.82158ZM20.0001 15.7856L18.0001 13.7856V9.99958C18.0003 8.94724 17.7237 7.91337 17.1981 7.0017C16.6725 6.09002 15.9163 5.33262 15.0055 4.8055C14.0947 4.27837 13.0613 4.00006 12.009 3.9985C10.9567 3.99693 9.92242 4.27216 9.01007 4.79658L7.56007 3.34458C8.7648 2.54079 10.1651 2.07912 11.6117 2.00881C13.0582 1.9385 14.4967 2.26219 15.7737 2.94535C17.0508 3.62851 18.1184 4.64551 18.8627 5.88786C19.607 7.13022 20.0001 8.55132 20.0001 9.99958V15.7856ZM9.50007 20.9996H14.5001C14.5001 21.6626 14.2367 22.2985 13.7678 22.7673C13.299 23.2362 12.6631 23.4996 12.0001 23.4996C11.337 23.4996 10.7011 23.2362 10.2323 22.7673C9.76346 22.2985 9.50007 21.6626 9.50007 20.9996Z" fill="#5A5A5A"/>
</svg>
