<svg width="24" height="24" viewBox="0 0 24 24" fill="none" xmlns="http://www.w3.org/2000/svg">
<path d="M14.5892 17.6887C14.2986 17.6887 14.0463 17.4726 14.0086 17.1767C13.9679 16.8557 14.1949 16.5624 14.5158 16.5215C16.3673 16.2856 18.0254 15.7839 19.1844 15.1086C20.2444 14.491 20.8281 13.765 20.8281 13.0643C20.8281 12.2921 20.1451 11.6602 19.572 11.2659C19.3054 11.0825 19.238 10.7178 19.4214 10.4511C19.6048 10.1846 19.9696 10.1171 20.2362 10.3005C21.3901 11.0943 22 12.0499 22 13.0645C22 14.2159 21.2305 15.2729 19.7745 16.1211C18.4639 16.8847 16.6968 17.4252 14.664 17.6841C14.6388 17.6871 14.6138 17.6887 14.5892 17.6887Z" fill="#5A5A5A" stroke="#5A5A5A" stroke-width="0.4"/>
<path d="M11.8572 16.8502L10.2947 15.2877C10.0658 15.0588 9.69485 15.0588 9.46597 15.2877C9.23724 15.5164 9.23724 15.8875 9.46597 16.1163L9.92252 16.5728C8.17203 16.392 6.58176 15.9844 5.35037 15.3922C3.96594 14.7265 3.17188 13.8782 3.17188 13.0653C3.17188 12.3757 3.74042 11.659 4.77267 11.0471C5.05115 10.8822 5.14301 10.5227 4.97806 10.2444C4.81296 9.96589 4.45346 9.87404 4.17514 10.039C2.37735 11.1047 2 12.2729 2 13.0653C2 14.3653 3.00952 15.5668 4.84256 16.4484C6.26529 17.1325 8.10565 17.5907 10.1107 17.768L9.46597 18.4127C9.23724 18.6414 9.23724 19.0125 9.46597 19.2414C9.58041 19.3557 9.73041 19.4129 9.8804 19.4129C10.0302 19.4129 10.1802 19.3557 10.2947 19.2414L11.8572 17.6789C12.0859 17.45 12.0859 17.0789 11.8572 16.8502Z" fill="#5A5A5A" stroke="#5A5A5A" stroke-width="0.4"/>
<path d="M8.13681 11.8922V11.7512C8.13681 11.2539 7.8324 11.1575 7.42422 11.1575C7.17184 11.1575 7.09021 10.9348 7.09021 10.7122C7.09021 10.4894 7.17184 10.2668 7.42422 10.2668C7.70621 10.2668 8.00314 10.2297 8.00314 9.62854C8.00314 9.19809 7.75824 9.09418 7.45383 9.09418C7.09021 9.09418 6.90466 9.18329 6.90466 9.47275C6.90466 9.72498 6.79327 9.89572 6.36282 9.89572C5.82846 9.89572 5.76178 9.78433 5.76178 9.42804C5.76178 8.84927 6.17728 8.09961 7.45383 8.09961C8.39651 8.09961 9.10895 8.44095 9.10895 9.44299C9.10895 9.98468 8.9086 10.4894 8.53751 10.6602C8.97543 10.8235 9.29449 11.15 9.29449 11.7512V11.8922C9.29449 13.1094 8.45587 13.5696 7.41675 13.5696C6.1402 13.5696 5.65039 12.7903 5.65039 12.1668C5.65039 11.8328 5.79138 11.7437 6.19955 11.7437C6.67456 11.7437 6.79327 11.8476 6.79327 12.1298C6.79327 12.4786 7.11996 12.5602 7.45383 12.5602C7.95859 12.5602 8.13681 12.3747 8.13681 11.8922Z" fill="#5A5A5A" stroke="#5A5A5A" stroke-width="0.4"/>
<path d="M13.8005 11.7512V11.818C13.8005 13.0946 13.0063 13.5696 11.9821 13.5696C10.9579 13.5696 10.1562 13.0946 10.1562 11.818V9.85117C10.1562 8.57462 10.9801 8.09961 12.049 8.09961C13.3032 8.09961 13.8005 8.87888 13.8005 9.49487C13.8005 9.85117 13.6298 9.9624 13.2587 9.9624C12.9396 9.9624 12.6575 9.88077 12.6575 9.53943C12.6575 9.25745 12.3607 9.10898 12.0119 9.10898C11.5739 9.10898 11.3141 9.33908 11.3141 9.85117V10.519C11.5517 10.2593 11.8857 10.1925 12.242 10.1925C13.0879 10.1925 13.8005 10.5636 13.8005 11.7512ZM11.3141 11.8997C11.3141 12.4117 11.5665 12.6344 11.9821 12.6344C12.3978 12.6344 12.6427 12.4117 12.6427 11.8997V11.8328C12.6427 11.291 12.3978 11.0832 11.9746 11.0832C11.5739 11.0832 11.3141 11.2762 11.3141 11.766V11.8997Z" fill="#5A5A5A" stroke="#5A5A5A" stroke-width="0.4"/>
<path d="M14.6973 11.818V9.85117C14.6973 8.57462 15.4913 8.09961 16.5157 8.09961C17.5398 8.09961 18.3414 8.57462 18.3414 9.85117V11.818C18.3414 13.0946 17.5398 13.5696 16.5157 13.5696C15.4913 13.5696 14.6973 13.0946 14.6973 11.818ZM17.1835 9.85117C17.1835 9.33908 16.9313 9.10898 16.5157 9.10898C16.1 9.10898 15.8551 9.33908 15.8551 9.85117V11.818C15.8551 12.3301 16.1 12.5602 16.5157 12.5602C16.9313 12.5602 17.1835 12.3301 17.1835 11.818V9.85117Z" fill="#5A5A5A" stroke="#5A5A5A" stroke-width="0.4"/>
<path d="M19.748 8.09375C18.7787 8.09375 17.9902 7.30518 17.9902 6.33594C17.9902 5.3667 18.7787 4.57812 19.748 4.57812C20.7173 4.57812 21.5059 5.3667 21.5059 6.33594C21.5059 7.30518 20.7173 8.09375 19.748 8.09375ZM19.748 5.75C19.4249 5.75 19.1621 6.01291 19.1621 6.33594C19.1621 6.65912 19.4249 6.92188 19.748 6.92188C20.0711 6.92188 20.334 6.65912 20.334 6.33594C20.334 6.01291 20.0711 5.75 19.748 5.75Z" fill="#5A5A5A" stroke="#5A5A5A" stroke-width="0.4"/>
</svg>
