<svg width="28" height="28" viewBox="0 0 28 28" fill="none" xmlns="http://www.w3.org/2000/svg">
<circle opacity="0.6" cx="14" cy="14" r="14" fill="#0F0F0F"/>
<path d="M14.9084 13.9991L18.9673 9.94625C19.0886 9.82492 19.1567 9.66036 19.1567 9.48877C19.1567 9.31718 19.0886 9.15262 18.9673 9.03129C18.8459 8.90996 18.6814 8.8418 18.5098 8.8418C18.3383 8.8418 18.1737 8.90996 18.0524 9.03129L13.9999 13.0906L9.94748 9.03129C9.82616 8.90996 9.66162 8.8418 9.49005 8.8418C9.31848 8.8418 9.15393 8.90996 9.03261 9.03129C8.9113 9.15262 8.84314 9.31718 8.84314 9.48877C8.84314 9.66036 8.9113 9.82492 9.03261 9.94625L13.0915 13.9991L9.03261 18.052C8.97223 18.1119 8.9243 18.1832 8.89159 18.2617C8.85888 18.3402 8.84204 18.4245 8.84204 18.5095C8.84204 18.5946 8.85888 18.6788 8.89159 18.7573C8.9243 18.8358 8.97223 18.9071 9.03261 18.967C9.09251 19.0274 9.16377 19.0753 9.24228 19.108C9.32079 19.1407 9.405 19.1576 9.49005 19.1576C9.5751 19.1576 9.65931 19.1407 9.73782 19.108C9.81633 19.0753 9.88758 19.0274 9.94748 18.967L13.9999 14.9077L18.0524 18.967C18.1123 19.0274 18.1835 19.0753 18.2621 19.108C18.3406 19.1407 18.4248 19.1576 18.5098 19.1576C18.5949 19.1576 18.6791 19.1407 18.7576 19.108C18.8361 19.0753 18.9074 19.0274 18.9673 18.967C19.0276 18.9071 19.0756 18.8358 19.1083 18.7573C19.141 18.6788 19.1578 18.5946 19.1578 18.5095C19.1578 18.4245 19.141 18.3402 19.1083 18.2617C19.0756 18.1832 19.0276 18.1119 18.9673 18.052L14.9084 13.9991Z" fill="white"/>
</svg>
