<svg width="21" height="21" viewBox="0 0 21 21" fill="none" xmlns="http://www.w3.org/2000/svg">
<path d="M10.5431 1.01611C10.538 1.02121 10.5278 1.02121 10.5126 1.02121C5.35822 1.02121 1.1665 5.21293 1.1665 10.3673C1.1665 12.4708 1.88465 14.5131 3.1987 16.1582L1.83881 19.316C1.72676 19.5758 1.849 19.8763 2.10366 19.9833C2.19533 20.024 2.2972 20.0342 2.39397 20.0189L7.38023 19.1429C8.3785 19.5045 9.42771 19.6879 10.4871 19.6828C15.6414 19.6828 19.8332 15.491 19.8332 10.3367C19.8433 5.19765 15.6822 1.02121 10.5431 1.01611ZM10.4922 18.6692C9.5092 18.6692 8.53639 18.4909 7.61452 18.1446C7.52794 18.109 7.43626 18.1039 7.34458 18.1191L3.14777 18.8526L4.25809 16.2703C4.33449 16.092 4.30393 15.8832 4.1766 15.7355C3.5756 15.0377 3.09683 14.2432 2.76068 13.3824C2.38378 12.4198 2.19024 11.3961 2.19024 10.3622C2.19024 5.76809 5.92866 2.03476 10.5177 2.03476C15.0965 2.02457 18.8145 5.72734 18.8196 10.3061C18.8196 10.3163 18.8196 10.3265 18.8196 10.3367C18.8196 14.9359 15.0812 18.6692 10.4922 18.6692Z" fill="#5A5A5A" stroke="#5A5A5A" stroke-width="0.116667"/>
</svg>
