<svg width="11" height="11" viewBox="0 0 11 11" fill="none" xmlns="http://www.w3.org/2000/svg">
<g clip-path="url(#clip0_7473:21002)">
<path d="M10.4499 4.95006H6.04994V0.55006C6.04994 0.404175 5.99199 0.264265 5.88883 0.161109C5.78568 0.0579526 5.64576 0 5.49988 0C5.35399 0 5.21409 0.0579526 5.11093 0.161109C5.00777 0.264265 4.94982 0.404175 4.94982 0.55006V4.95006H0.55006C0.404175 4.95006 0.264265 5.00801 0.161109 5.11117C0.0579526 5.21433 0 5.35424 0 5.50012C0 5.646 0.0579526 5.78591 0.161109 5.88907C0.264265 5.99223 0.404175 6.05018 0.55006 6.05018H4.95006V10.4499C4.95006 10.5958 5.00801 10.7357 5.11117 10.8389C5.21433 10.942 5.35424 11 5.50012 11C5.646 11 5.78591 10.942 5.88907 10.8389C5.99223 10.7357 6.05018 10.5958 6.05018 10.4499V6.04994H10.4499C10.5958 6.04994 10.7357 5.99199 10.8389 5.88883C10.942 5.78568 11 5.64576 11 5.49988C11 5.35399 10.942 5.21409 10.8389 5.11093C10.7357 5.00777 10.5958 4.94982 10.4499 4.94982V4.95006Z" fill="#C1C1C1"/>
</g>
<defs>
<clipPath id="clip0_7473:21002">
<rect width="11" height="11" fill="white"/>
</clipPath>
</defs>
</svg>
