<svg width="20" height="22" viewBox="0 0 20 22"
  xmlns="http://www.w3.org/2000/svg">
  <path d="M10.6161 1C11.3251 0.999714 12.0041 1.28061 12.4983 1.77871C12.9925 2.27681 13.2599 2.94968 13.2383 3.57766L13.2468 3.72535C13.2641 3.87079 13.3124 4.01116 13.3908 4.14054C13.5435 4.39567 13.7935 4.58081 14.0857 4.65514C14.3779 4.72947 14.6882 4.68688 14.9821 4.51839L15.146 4.4355C16.3759 3.86897 17.8511 4.31918 18.5333 5.47928L19.1465 6.52174C19.1627 6.54922 19.1769 6.57762 19.1892 6.60674L19.2461 6.71842C19.7945 7.86519 19.4043 9.22927 18.3624 9.92228L18.1051 10.0807C17.9706 10.1726 17.8585 10.2926 17.7742 10.4368C17.6218 10.6929 17.58 10.998 17.658 11.2844C17.736 11.5708 17.9272 11.8149 18.2174 11.9793L18.3843 12.0841C18.8887 12.4297 19.253 12.9391 19.4119 13.523C19.5912 14.1817 19.495 14.8833 19.1399 15.4804L18.4803 16.557L18.3808 16.7089C17.6058 17.8008 16.1011 18.1344 14.9527 17.485L14.8166 17.4163C14.6746 17.3541 14.5214 17.3199 14.382 17.316C14.0786 17.3146 13.7872 17.432 13.5727 17.6422C13.3582 17.8524 13.2383 18.1379 13.2391 18.4698L13.231 18.6414C13.12 19.9703 11.9845 21 10.6164 21H9.38106C7.93219 21 6.75765 19.8493 6.75912 18.4753L6.75063 18.3277C6.73337 18.1822 6.68504 18.0418 6.6027 17.9057C6.45336 17.65 6.20591 17.4633 5.91538 17.3871C5.62484 17.3109 5.31529 17.3516 5.01565 17.5213L4.83762 17.6084C4.2746 17.8565 3.63953 17.9023 3.04445 17.7366C2.37306 17.5497 1.80539 17.1083 1.47412 16.5224L0.83679 15.4442L0.751966 15.2844C0.171573 14.0841 0.626514 12.6412 1.78115 11.9875L1.88645 11.9228C2.19491 11.7137 2.37987 11.3688 2.37987 11C2.37987 10.599 2.16149 10.2284 1.77948 10.0115L1.62449 9.91408C0.510007 9.15476 0.169493 7.68049 0.859895 6.50696L1.50918 5.46166C2.23128 4.23376 3.83155 3.81017 5.06235 4.50171L5.19559 4.5713C5.33141 4.63238 5.47895 4.6648 5.62101 4.66628C6.24742 4.66634 6.75775 4.17352 6.76724 3.54181L6.77575 3.3478C6.82704 2.74716 7.09307 2.1827 7.52796 1.75457C8.01861 1.27155 8.6855 1 9.38106 1H10.6161ZM10.6164 2.44774H9.38106C9.07863 2.44774 8.78866 2.56581 8.57533 2.77582C8.38625 2.96196 8.27058 3.20741 8.25028 3.43661L8.23685 3.7415C8.13339 5.07087 6.99969 6.11416 5.61326 6.11398C5.25588 6.11034 4.90355 6.03293 4.54427 5.87026L4.3519 5.77085C3.8038 5.46315 3.1049 5.64815 2.78057 6.19925L2.13128 7.24455C1.83377 7.75044 1.98256 8.39466 2.44324 8.70925L2.70395 8.871C3.42196 9.34666 3.85754 10.1429 3.85754 11C3.85754 11.8446 3.43413 12.634 2.70219 13.1296L2.54639 13.2256C2.03354 13.5163 1.83562 14.144 2.07398 14.6383L2.13027 14.7449L2.75952 15.8084C2.90728 16.0696 3.1552 16.2624 3.44842 16.344C3.70831 16.4164 3.98569 16.3964 4.20208 16.3018L4.3108 16.2497C4.91096 15.9066 5.62614 15.8126 6.29737 15.9886C6.96861 16.1645 7.54028 16.5959 7.87937 17.1768C8.06179 17.478 8.17721 17.8132 8.2219 18.1985L8.24205 18.552C8.30426 19.1145 8.79047 19.5523 9.38106 19.5523H10.6164C11.2137 19.5523 11.7099 19.1023 11.7565 18.5511L11.7621 18.4421C11.7588 17.7585 12.0345 17.1019 12.5279 16.6185C13.0212 16.1351 13.6914 15.865 14.4053 15.8686C14.7556 15.8778 15.1004 15.9547 15.4528 16.11L15.7687 16.2682C16.2647 16.4814 16.8529 16.3258 17.1511 15.9067L17.2236 15.7957L17.868 14.7436C18.0203 14.4875 18.0621 14.1824 17.9841 13.896C17.915 13.6422 17.7566 13.4207 17.5645 13.2882L17.2922 13.1195C16.7716 12.7748 16.3932 12.2563 16.2302 11.6574C16.0509 10.9987 16.1471 10.2971 16.4946 9.71262C16.6849 9.38716 16.9464 9.10733 17.2873 8.87532L17.448 8.77613C17.9601 8.4827 18.1578 7.85504 17.9212 7.35884L17.8505 7.22529L17.8378 7.19726L17.253 6.20208C16.9764 5.73175 16.4008 5.52853 15.9125 5.6891L15.8015 5.73265L15.6983 5.78415C15.1001 6.12941 14.3863 6.22736 13.7143 6.05641C13.0423 5.88546 12.4673 5.45965 12.1181 4.87616C11.9357 4.57504 11.8203 4.23984 11.7756 3.85454L11.7624 3.60249C11.7713 3.29923 11.6546 3.00536 11.4387 2.78783C11.2229 2.57029 10.9264 2.44774 10.6164 2.44774ZM10.0032 7.73182C11.8455 7.73182 13.339 9.19503 13.339 11C13.339 12.805 11.8455 14.2682 10.0032 14.2682C8.16095 14.2682 6.66748 12.805 6.66748 11C6.66748 9.19503 8.16095 7.73182 10.0032 7.73182ZM10.0032 9.17956C8.97705 9.17956 8.14516 9.9946 8.14516 11C8.14516 12.0054 8.97705 12.8204 10.0032 12.8204C11.0294 12.8204 11.8613 12.0054 11.8613 11C11.8613 9.9946 11.0294 9.17956 10.0032 9.17956Z" stroke-width="0.3"/>
</svg>
