<svg width="25" height="23" viewBox="0 0 25 23" fill="none" xmlns="http://www.w3.org/2000/svg">
<path d="M20.7794 0.5625H4.2218C2.28881 0.5625 0.721802 2.1295 0.721802 4.0625V18.9375C0.721802 20.8705 2.28881 22.4375 4.2218 22.4375H20.7794C22.7124 22.4375 24.2794 20.8705 24.2794 18.9375V4.0625C24.2794 2.1295 22.7124 0.5625 20.7794 0.5625Z" fill="#D6D6D6"/>
<path d="M9.00012 10.625H8.12512C7.64187 10.625 7.25012 11.0168 7.25012 11.5V15.875C7.25012 16.3582 7.64187 16.75 8.12512 16.75H9.00012C9.48337 16.75 9.87512 16.3582 9.87512 15.875V11.5C9.87512 11.0168 9.48337 10.625 9.00012 10.625Z" fill="white"/>
<path d="M13.3751 6.25H12.5001C12.0169 6.25 11.6251 6.64175 11.6251 7.125V15.875C11.6251 16.3582 12.0169 16.75 12.5001 16.75H13.3751C13.8584 16.75 14.2501 16.3582 14.2501 15.875V7.125C14.2501 6.64175 13.8584 6.25 13.3751 6.25Z" fill="white"/>
<path d="M17.7501 12.375H16.8751C16.3919 12.375 16.0001 12.7668 16.0001 13.25V15.875C16.0001 16.3582 16.3919 16.75 16.8751 16.75H17.7501C18.2334 16.75 18.6251 16.3582 18.6251 15.875V13.25C18.6251 12.7668 18.2334 12.375 17.7501 12.375Z" fill="white"/>
</svg>
