<svg width="24" height="22" viewBox="0 0 24 22" fill="none" xmlns="http://www.w3.org/2000/svg">
<path d="M20.1828 22H3.62512C2.69722 21.9988 1.80771 21.6297 1.15158 20.9736C0.495454 20.3175 0.12628 19.4279 0.125122 18.5V3.625C0.125122 2.69674 0.493922 1.8065 1.1503 1.15012C1.80668 0.493746 2.69686 0.125 3.62512 0.125H20.182C21.1102 0.125 22.0004 0.493746 22.6568 1.15012C23.3132 1.8065 23.682 2.69674 23.682 3.625V18.5C23.6808 19.4277 23.3117 20.3172 22.6557 20.9733C21.9998 21.6294 21.1106 21.9986 20.1828 22ZM12.1782 4.0319C12.0806 4.03152 11.9842 4.05051 11.894 4.08776C11.8039 4.12501 11.7221 4.17977 11.6533 4.24889L6.41205 9.49013C5.45225 10.4659 4.9168 11.7814 4.92245 13.1501C4.92811 14.5188 5.47434 15.8299 6.44217 16.7977C7.41 17.7655 8.72108 18.3117 10.0898 18.3174C11.4585 18.3231 12.774 17.7877 13.7498 16.8279L18.991 11.5866C19.3352 11.2425 19.6082 10.8339 19.7945 10.3842C19.9807 9.9346 20.0764 9.4527 20.0764 8.966C20.0764 8.47931 19.9807 7.99735 19.7945 7.54771C19.6082 7.09806 19.3352 6.68953 18.991 6.34538C18.6469 6.00124 18.2382 5.72825 17.7885 5.542C17.3389 5.35575 16.857 5.25986 16.3703 5.25986C15.8836 5.25986 15.4017 5.35575 14.9521 5.542C14.5024 5.72825 14.0939 6.00124 13.7498 6.34538L9.03171 11.0625C8.61469 11.4796 8.3805 12.0454 8.38058 12.6352C8.38067 13.225 8.615 13.7907 9.03214 14.2077C9.44927 14.6247 10.015 14.8589 10.6048 14.8588C11.1947 14.8588 11.7603 14.6244 12.1773 14.2072L14.8987 11.486C14.9676 11.4171 15.0222 11.3352 15.0595 11.2451C15.0968 11.1551 15.1161 11.0585 15.1161 10.961C15.1161 10.8635 15.0968 10.7669 15.0595 10.6769C15.0222 10.5868 14.9676 10.5049 14.8987 10.436C14.8297 10.3671 14.7478 10.3123 14.6577 10.275C14.5676 10.2377 14.4711 10.2185 14.3736 10.2185C14.2761 10.2185 14.1795 10.2377 14.0894 10.275C13.9994 10.3123 13.9176 10.3671 13.8487 10.436L11.1273 13.1572C10.9881 13.2965 10.7994 13.3747 10.6025 13.3747C10.4056 13.3747 10.2166 13.2965 10.0774 13.1572C9.93815 13.018 9.85992 12.8292 9.85992 12.6323C9.85992 12.4353 9.93815 12.2465 10.0774 12.1072L14.7944 7.39011C15.0009 7.18362 15.246 7.01987 15.5158 6.90812C15.7856 6.79637 16.0749 6.73882 16.3669 6.73882C16.6589 6.73882 16.948 6.79637 17.2177 6.90812C17.4875 7.01987 17.7327 7.18362 17.9391 7.39011C18.1456 7.59659 18.3095 7.84172 18.4213 8.11151C18.533 8.3813 18.5905 8.67046 18.5905 8.96248C18.5905 9.25449 18.533 9.54366 18.4213 9.81345C18.3095 10.0832 18.1456 10.3284 17.9391 10.5349L12.6979 15.7761C11.9995 16.4549 11.0621 16.8315 10.0883 16.8246C9.11444 16.8176 8.18247 16.4277 7.49384 15.739C6.8052 15.0504 6.41536 14.1184 6.40842 13.1446C6.40148 12.1707 6.77792 11.2332 7.45667 10.5349L12.6979 5.29361C12.8016 5.18991 12.8723 5.05776 12.9008 4.91389C12.9294 4.77003 12.9148 4.62095 12.8586 4.48547C12.8023 4.35 12.7072 4.23423 12.5851 4.15286C12.4631 4.07149 12.3197 4.02817 12.173 4.02837L12.1782 4.0319Z" fill="#D6D6D6"/>
</svg>
