<svg width="25" height="23" viewBox="0 0 25 23" fill="none" xmlns="http://www.w3.org/2000/svg">
<path d="M20.7758 0.456055H4.21814C2.28514 0.456055 0.71814 2.02306 0.71814 3.95605V18.8311C0.71814 20.7641 2.28514 22.3311 4.21814 22.3311H20.7758C22.7088 22.3311 24.2758 20.7641 24.2758 18.8311V3.95605C24.2758 2.02306 22.7088 0.456055 20.7758 0.456055Z" fill="#D6D6D6"/>
<path d="M20.4397 7.03765C20.2352 6.95288 20.0101 6.93067 19.793 6.97381C19.5759 7.01695 19.3765 7.12352 19.2199 7.28002L17.0875 9.4124V8.11302C17.0875 7.89286 17.0442 7.67486 16.9599 7.47145C16.8757 7.26805 16.7522 7.08323 16.5965 6.92756C16.4408 6.77188 16.256 6.64839 16.0526 6.56414C15.8492 6.47988 15.6312 6.43652 15.411 6.43652H6.22441C5.77978 6.43652 5.35335 6.61315 5.03895 6.92756C4.72454 7.24196 4.54791 7.66839 4.54791 8.11302V14.2818C4.54791 14.7264 4.72454 15.1528 5.03895 15.4672C5.35335 15.7816 5.77978 15.9583 6.22441 15.9583H15.4119C15.8565 15.9583 16.283 15.7816 16.5974 15.4672C16.9118 15.1528 17.0884 14.7264 17.0884 14.2818V12.9824L19.2208 15.1148C19.377 15.2712 19.5761 15.3779 19.793 15.4213C20.0098 15.4647 20.2346 15.4429 20.4391 15.3587C20.6435 15.2744 20.8184 15.1315 20.9417 14.9479C21.065 14.7644 21.1311 14.5484 21.1318 14.3273V8.07189C21.1317 7.85035 21.066 7.63381 20.9427 7.4497C20.8195 7.26558 20.6444 7.12217 20.4397 7.03765ZM12.4229 11.6314L10.1418 13.3875C10.0605 13.4499 9.96331 13.4882 9.86131 13.4981C9.75932 13.508 9.65659 13.4891 9.56481 13.4435C9.47303 13.3979 9.39587 13.3275 9.3421 13.2403C9.28834 13.1531 9.26012 13.0525 9.26066 12.95V9.44215C9.26012 9.33967 9.28834 9.2391 9.3421 9.15187C9.39587 9.06463 9.47303 8.99423 9.56481 8.94866C9.65659 8.90308 9.75932 8.88417 9.86131 8.89407C9.96331 8.90397 10.0605 8.94228 10.1418 9.00465L12.4229 10.7634C12.4895 10.8145 12.5435 10.8803 12.5806 10.9557C12.6177 11.031 12.6371 11.1138 12.6371 11.1978C12.6371 11.2818 12.6177 11.3647 12.5806 11.44C12.5435 11.5153 12.4895 11.5811 12.4229 11.6323V11.6314Z" fill="white"/>
</svg>
