<svg width="25" height="23" viewBox="0 0 25 23" fill="none" xmlns="http://www.w3.org/2000/svg">
<path d="M21.6184 0.456055H3.38339C2.67613 0.456751 1.99809 0.738256 1.4983 1.23869C0.998524 1.73913 0.717907 2.41754 0.71814 3.1248V19.8811C0.718835 20.5875 0.999917 21.2649 1.49965 21.7643C1.99938 22.2637 2.6769 22.5443 3.38339 22.5446H21.6184C22.3247 22.5441 23.0019 22.2633 23.5013 21.7639C24.0007 21.2645 24.2814 20.5873 24.2819 19.8811V3.1248C24.2824 2.41777 24.0021 1.73949 23.5026 1.23906C23.0031 0.738618 22.3254 0.456982 21.6184 0.456055ZM15.9563 4.42155C16.4654 4.42155 16.9631 4.57253 17.3864 4.85539C17.8098 5.13826 18.1397 5.5403 18.3346 6.01068C18.5294 6.48106 18.5804 6.99866 18.4811 7.49802C18.3817 7.99737 18.1366 8.45606 17.7765 8.81607C17.4165 9.17609 16.9578 9.42126 16.4585 9.52059C15.9591 9.61992 15.4415 9.56894 14.9711 9.3741C14.5008 9.17926 14.0987 8.84932 13.8159 8.42598C13.533 8.00265 13.382 7.50494 13.382 6.9958C13.382 6.31322 13.6531 5.65858 14.1357 5.17584C14.6183 4.6931 15.2728 4.42179 15.9554 4.42155H15.9563ZM20.7828 20.0841H4.58651C4.44366 20.108 4.29692 20.0887 4.16506 20.0288C4.0332 19.9689 3.92222 19.8709 3.84631 19.7476C3.7704 19.6242 3.73301 19.481 3.73893 19.3363C3.74484 19.1916 3.79379 19.0519 3.87951 18.9352L8.29739 10.1852C8.3419 10.0464 8.42622 9.92368 8.53988 9.83239C8.65353 9.74109 8.79151 9.68522 8.93667 9.6717C9.08182 9.65818 9.22774 9.68762 9.3563 9.75635C9.48486 9.82509 9.59039 9.93009 9.65977 10.0583L14.1056 15.8604C14.1997 15.9922 14.3219 16.1014 14.4634 16.1801C14.6049 16.2587 14.7622 16.3048 14.9237 16.3151C15.0853 16.3253 15.2472 16.2994 15.3975 16.2392C15.5478 16.179 15.6828 16.0861 15.7926 15.9672L16.8794 14.8664C16.9862 14.7478 17.1191 14.6555 17.2676 14.5968C17.416 14.5381 17.5761 14.5146 17.7351 14.5281C17.8942 14.5416 18.048 14.5917 18.1845 14.6745C18.3209 14.7574 18.4364 14.8707 18.5218 15.0056L21.3358 19.0253C21.7383 19.6089 21.4933 20.0814 20.7819 20.0814L20.7828 20.0841Z" fill="#D6D6D6"/>
</svg>
